<svg xmlns="http://www.w3.org/2000/svg" fill="none" viewBox="0 0 200 200" id="Create-New-Post-3--Streamline-Bruxelles">
  <desc>
    Create New Post 3 Streamline Illustration: https://streamlinehq.com
  </desc>
  <g id="create-new-post-3--social-media-create-new-post">
    <g id="stars">
      <path id="vector" fill="#c1e1fd" d="M34.294 21.0069c0.408 0.646 0.666 1.366 0.929 2.079 0.139 0.376 0.016 0.742 -0.247 0.994 -0.506 0.485 -2.865 -1.638 -2.999 -1.753 -3.133 -2.684 -4.796 1.136 -6.854 2.056 0.837 -3.271 0.822 -3.204 0.839 -3.363 0.262 -2.551 -1.843 -1.568 -3.424 -2.188 -1.99 -0.781 1.648 -1.537 1.786 -1.592 1.276 -0.502 3.598 0.176 3.771 -2.585 0.226 -3.61 1.875 -4.169 2.378 -2.966 0.276 0.66 0.652 1.283 0.774 2.004 0.342 2.024 1.221 2.071 2.41 1.65 1.635 -0.579 2.889 -1.329 2.491 -0.138 -1.341 4.008 -3.661 2.941 -1.854 5.802Z" stroke-width="1"></path>
      <path id="vector_2" fill="#c1e1fd" d="M90.603 14.6709c-1.446 2.828 -4.412 1.663 -3.769 4.727 0.257 1.224 0.486 2.006 0.176 2.681 -1.174 2.559 -2.268 -3.199 -4.723 -3.759 -1.824 -0.416 -3.719 1.311 -5.206 1.253 3.535 -4.84 2.377 -4.595 -0.063 -5.714 -0.424 -0.195 -0.709 -0.506 -0.657 -1.127 2.177 -1.058 5.876 1.449 6.668 -0.862 0.361 -1.052 1.157 -1.811 1.755 -2.70196 0.772 -1.15 2.304 -0.731 1.793 2.37396 -0.187 1.134 -0.205 2.067 0.966 2.332 2.151 0.487 3.821 -0.691 3.06 0.797Z" stroke-width="1"></path>
      <path id="vector_3" fill="#c1e1fd" d="M64.357 15.1579c-1.599 2.358 -4.445 1.505 -3.464 4.886 0.273 0.94 0.255 2.532 -0.567 2.688 -1.73 0.328 -1.771 -5.589 -5.993 -4.066 -1.415 0.51 -0.573 0.161 -3.276 1.173 0.115 -0.981 1.284 -1.387 1.998 -3.286 0.699 -1.861 -1.245 -2.202 -1.933 -2.504 -0.526 -0.231 -0.529 -0.247 -1.033 -1.071 2.272 -1.364 6.003 1.581 6.944 -1.127 0.755 -2.17095 3.396 -4.69995 3.462 -1.797 0.083 3.66 -0.994 4.173 3.328 4.012 0.312 -0.012 0.686 -0.136 0.853 0.243 0.153 0.347 -0.144 0.591 -0.319 0.849Z" stroke-width="1"></path>
      <path id="vector_4" fill="#0a0430" d="M35.453 20.396c-0.603 -0.805 -0.578 -0.831 0.529 -1.943 1.677 -1.684 2.549 -6.11 -0.619 -5.223 -2.492 0.698 -2.705 1.389 -2.859 0.167 -0.531 -4.21502 -3.911 -4.66602 -4.754 -2.55 -1.819 4.564 -0.289 4.392 -2.642 4.842 -1.023 0.196 -2.551 0.429 -3.46 0.941 -1.171 0.66 -1.561 2.759 0.245 3.418 3.596 1.312 3.083 -1.131 1.895 4.118 -0.29 1.282 0.546 2.007 1.816 1.642 1.873 -0.539 3.563 -5.085 6.231 -1.845 0.695 0.844 1.55 1.35 2.661 1.466 2.483 0.26 2.455 -3.036 0.958 -5.035l-0.001 0.002Zm-0.477 3.683c-0.506 0.485 -2.865 -1.638 -2.999 -1.753 -3.133 -2.684 -4.796 1.136 -6.854 2.056 0.837 -3.271 0.822 -3.204 0.839 -3.363 0.262 -2.551 -1.843 -1.568 -3.424 -2.188 -1.99 -0.781 1.648 -1.537 1.786 -1.592 1.276 -0.502 3.598 0.176 3.771 -2.585 0.226 -3.61 1.875 -4.169 2.378 -2.966 0.276 0.66 0.652 1.283 0.774 2.004 0.342 2.024 1.221 2.071 2.41 1.65 1.635 -0.579 2.889 -1.329 2.491 -0.138 -1.341 4.008 -3.66 2.941 -1.853 5.802 0.408 0.646 0.666 1.366 0.929 2.079 0.139 0.376 0.015 0.742 -0.248 0.994Z" stroke-width="1"></path>
      <path id="vector_5" fill="#0a0430" d="M91.592 12.8739c-1.511 -0.523 -0.404 -0.235 -2.949 -0.251 -1.677 -0.01 -0.257 -0.985 -0.812 -3.53496 -0.445 -2.046 -2.728 -2.723 -4.016 -0.883C80 13.6539 82.706 10.7279 76.567 11.1709c-1.705 0.123 -2.127 2.171 -0.795 3.395 1.686 1.548 2.98 0.38 1.596 2.37 -0.525 0.755 -1.061 1.508 -1.514 2.305 -0.471 0.828 0.05 1.727 0.996 1.828 0.535 0.057 0.722 -0.03 3.847 -1.263 1 -0.395 1.851 -0.761 3.403 2.554 0.571 1.219 2.385 2.406 3.474 1.046 0.59 -0.736 0.994 -1.542 0.807 -2.543 -0.102 -0.55 -0.038 -1.152 -0.232 -1.659 -0.249 -0.65 0.086 -0.945 0.535 -1.134 3.458 -1.454 4.112 -4.779 2.908 -5.196Zm-0.989 1.797c-1.446 2.828 -4.412 1.663 -3.769 4.727 0.257 1.224 0.486 2.006 0.176 2.681 -1.174 2.559 -2.268 -3.199 -4.723 -3.759 -1.824 -0.416 -3.719 1.311 -5.206 1.253 3.535 -4.84 2.377 -4.595 -0.063 -5.714 -0.424 -0.195 -0.709 -0.506 -0.657 -1.127 2.177 -1.058 5.876 1.449 6.668 -0.862 0.361 -1.052 1.157 -1.811 1.755 -2.70196 0.772 -1.15 2.304 -0.731 1.793 2.37396 -0.187 1.134 -0.205 2.067 0.966 2.332 2.151 0.487 3.821 -0.691 3.06 0.797Z" stroke-width="1"></path>
      <path id="vector_6" fill="#0a0430" d="M64.9489 12.8259c-1.096 -0.235 -1.585 -0.097 -2.146 -0.067 -2.136 0.113 -0.235 -0.88 -1.169 -3.96998 -0.471 -1.556 -2.506 -2.05 -3.579 -0.83 -2.92 3.32198 -1.784 4.39798 -5.156 3.40898 -2.416 -0.708 -5.117 0.587 -3.61 2.868 1.224 1.853 3.467 0.776 1.88 3.016 -0.015 0.021 -1.362 1.853 -1.456 2.182 -0.359 1.259 0.466 2.214 2.18 1.55 2.995 -1.161 3.88 -1.871 4.922 -0.561 1.131 1.423 0.556 1.525 1.654 2.776 1.792 2.04 4.491 0.717 3.625 -3.589 -0.192 -0.956 -0.194 -1.064 0.674 -1.489 3.329 -1.633 4.276 -4.845 2.182 -5.294l-0.001 -0.001Zm-0.592 2.332c-1.599 2.358 -4.445 1.505 -3.464 4.886 0.273 0.94 0.255 2.532 -0.567 2.688 -1.73 0.328 -1.771 -5.589 -5.993 -4.066 -1.415 0.51 -0.573 0.161 -3.276 1.173 0.115 -0.981 1.284 -1.387 1.998 -3.286 0.699 -1.861 -1.245 -2.202 -1.933 -2.504 -0.526 -0.231 -0.529 -0.247 -1.033 -1.071 2.272 -1.364 6.003 1.581 6.944 -1.127 0.755 -2.17098 3.396 -4.69998 3.462 -1.797 0.083 3.66 -0.994 4.173 3.328 4.012 0.312 -0.012 0.686 -0.136 0.853 0.243 0.153 0.347 -0.144 0.591 -0.319 0.849Z" stroke-width="1"></path>
      <path id="vector_7" fill="#0a0430" d="M33.944 32.8429c-0.933 -0.013 -1.843 0.226 -2.723 -0.249 -1.186 -0.64 -1.925 -1.516 -1.954 -2.926 -0.1 -4.924 1.753 -4.231 1.652 -3.418 -0.094 0.766 -0.824 1.479 -0.423 3.518 0.268 1.362 1.387 2.108 2.742 1.82 0.351 -0.075 0.69 -0.234 1.046 -0.276 2.531 -0.297 0.207 2.721 0.454 6.118 0.101 1.391 0.372 1.701 1.753 2.018 0.621 0.143 1.228 0.349 1.885 0.328 2.422 -0.075 -2.522 8.625 5.286 10.301 0.594 0.128 0.713 1.184 -0.18 1.173 -2.625 -0.032 -5.717 -2.497 -5.733 -6.421 -0.004 -1.079 -0.147 -2.165 0.186 -3.227 0.405 -1.293 -3.607 0.176 -4.305 -3.077 -0.408 -1.903 0.163 -3.716 0.314 -5.682Z" stroke-width="1"></path>
      <path id="vector_8" fill="#0a0430" d="M68.7099 42.2009c-0.374 -2.044 0.8331 -3.48 2.4951 -4.773 1.178 -0.916 -0.224 -1.205 0.358 -4.809 0.598 -3.706 4.085 -3.742 3.821 -5.911 -0.348 -2.865 1.9239 -4.394 4.7459 -5.005 0.657 -0.142 0.919 0.486 0.443 0.996 -0.616 0.661 -1.2199 0.254 -2.6579 1.341 -1.733 1.308 -1.2541 2.307 -1.2991 3.968 -0.051 1.876 -3.6029 1.73 -3.8569 5.604 -0.241 3.675 1.437 3.426 -1.207 5.315 -3.805 2.719 -0.0621 7.577 -1.1731 7.959 -0.286 0.099 -0.565 0.088 -0.734 -0.215 -0.58 -1.041 -1.203 -3.305 -0.935 -4.468v-0.002Z" stroke-width="1"></path>
      <path id="vector_9" fill="#0a0430" d="M56.781 35.6499c-3.035 -0.828 -2.37 -4.535 -2.106 -5.047 0.894 -1.742 -0.116 -1.528 -0.617 -1.889 -3.405 -2.455 0.509 -7.96 1.466 -6.561 0.201 0.293 0.257 0.667 -0.123 0.956 -1.564 1.185 -2.202 4.225 0.368 4.963 0.989 0.284 1.151 0.582 0.72 1.542 -2.956 6.576 3.226 3.303 1.59 6.541 -1.075 2.127 -1.142 4.384 -0.77 6.664 0.218 1.332 2.686 3.345 1.615 3.955 -0.268 0.153 -0.586 0.142 -0.759 -0.128 -0.938 -1.459 -2.255 -2.715 -2.274 -4.654 -0.021 -2.138 0.136 -4.236 0.891 -6.342h-0.001Z" stroke-width="1"></path>
    </g>
    <g id="laptop">
      <path id="vector_10" fill="#c1e1fd" d="M25.109 153.128c-0.144 0.188 -0.245 0.423 -0.46 0.51 -2.728 -1.341 -3.7609 -4.334 -4.4779 -7.287 -2.792 -11.497 -4.08 -25.541 -5.541 -31.839 -2.917 -12.575 -6.91705 -34.075 -8.09005 -41.618 -0.542 -3.483 0.948 -7.488 1.738 -8.639 0.795 8.4 1.76195 15.415 1.79695 15.556 3.675 14.805 10.434 64.295 15.1 71.58 0.579 0.904 0.5621 0.92 -0.0649 1.736l-0.0011 0.001Z" stroke-width="1"></path>
      <path id="vector_11" fill="#ffffff" d="M125.345 131.511c-2.78 0.668 -27.3901 6.451 -31.4211 7.007 -7.89 1.088 -9.5 2.137 -16.693 3.495 -9.507 1.794 -3.278 0.458 -10.211 1.636 -7.361 1.25 -25.688 6.784 -36.888 8.381 -4.47 0.637 -5.557 -3.196 -10.059 -26.882 -12.45797 -65.551 -11.24497 -65.164 -6.903 -66.14 3.631 -0.816 17.71 -1.589 21.109 -1.78 1.665 -0.094 -0.042 -0.484 17.329 -1.864 58.3991 -4.638 62.9771 -3.804 64.8431 0.395 2.365 5.322 2.857 11.109 4.3 17.181 2.351 9.895 1.99 10.753 2.152 12.299 1.551 14.731 6.613 31.233 6.999 43.153 0.075 2.32 -2.223 2.557 -4.557 3.119Z" stroke-width="1"></path>
      <path id="vector_12" fill="#c1e1fd" d="M192.178 158.279c-2.32 1.416 -93.555 29.907 -93.576 29.913 -13.53 3.959 -11.53 5.797 -24.755 -1.678 -2.257 -1.276 -12.509 -6.485 -30.247 -16.593 -13.139 -7.487 -18.808 -6.225 -17.687 -14.062 13.692 8.392 55.094 29.464 55.709 29.693 1.414 0.526 2.882 0.651 4.3 1.063 1.627 0.473 17.656 -3.527 19.011 -3.949 1.021 -0.318 27.935 -9.959 38.537 -12.504 0.445 -0.107 12.587 -2.636 19.124 -5.114 8.312 -3.151 28.133 -8.563 30.651 -9.774 0.435 1.705 0.312 2.164 -1.067 3.005Z" stroke-width="1"></path>
      <path id="vector_13" fill="#ffffff" d="M192.738 153.887c-3.407 1.59 -11.822 3.478 -16.319 5.045 -27.069 9.432 -27.913 8.406 -34.521 10.107 -21.189 5.455 -36.922 13.187 -42.822 13.612 -1.711 0.123 -11.669 3.173 -13.255 2.644 -12.672 -4.226 -4.93 -2.165 -30.398 -15.079 -3.541 -1.795 -5.679 -2.196 -28.237 -15.204 -0.784 -0.452 -1.011 -0.665 -0.824 -1.117 0.718 -1.741 1.443 0.102 6.712 -0.891 9.159 -1.726 24.702 -5.988 33.192 -7.831 3.654 -0.793 3.8 -0.467 11.284 -1.805 4.541 -0.812 6.988 -2.087 19.053 -3.895 1.887 -0.283 24.782 -5.574 28.001 -6.338 3.594 -0.853 4.817 -1.566 6.773 -0.703 3.744 1.653 38.587 13.332 41.191 14.179 0.021 0.008 15.503 3.967 20.17 7.276Z" stroke-width="1"></path>
      <path id="vector_14" fill="#c1e1fd" d="M138.541 150.634c-0.021 0.004 -39.85 10.682 -50.147 15.167 -2.5 1.09 -9.251 3.077 -12.029 3.731 -4.8 1.132 -7.672 2.1 -10.985 0.546 -11.615 -5.444 -21.887 -11.665 -24.062 -12.385 -0.477 -0.159 -0.69 -0.755 -0.015 -1.025 1.74 -0.698 79.347 -18.386 80.017 -18.513 8.388 -1.876 8.974 -2.063 11.825 -1.088 8.678 2.97 13.652 4.547 22.111 8.423 -1.117 1.933 -14.384 4.75 -16.714 5.144h-0.001Z" stroke-width="1"></path>
      <path id="vector_15" fill="#ffffff" d="M33.479 145.382c-2.976 0 -4.181 -1.614 -9.707 -35.439 -0.014 -0.083 -0.07 -0.322 -0.162 -0.719 -3.131 -13.5299 -4.235 -23.8139 -5.165 -27.3519 -0.503 -1.913 -1.264 -4.805 -2.426 -12.602 -0.713 -4.766 2.737 -5.937 7.256 -6.073 1.344 -0.041 48.74 -4.573 50.37 -4.66 17.497 -0.938 19.6501 -1.581 28.488 -1.581 6.515 0 7.765 0.596 8.176 0.792 2.164 1.032 2.71 3.68 4.528 12.45 1.164 5.617 8.112 48.1739 8.418 52.1719 0.104 6.274 -5.207 4.985 -14.689 8.093 -0.262 0.078 -71.331 14.918 -75.086 14.918l-0.001 0.001Z" stroke-width="1"></path>
      <path id="vector_16" fill="#0a0430" d="M109.986 58.426c1.968 0.939 2.431 3.843 4.545 13.995 0.42 2.018 7.653 45.805 7.975 50.007 0.09 5.514 -4.551 4.389 -14.175 7.323 -0.119 0.036 -71.3211 14.88 -74.8521 14.88 -2.416 0 -3.687 -2.561 -8.966 -34.81 -0.098 -0.598 -2.222 -8.763 -4.729 -25.365 -0.467 -3.091 -1.273 -3.588 -3.022 -15.296 -0.66 -4.417 2.7 -5.096 6.536 -5.212 1.765 -0.053 47.292 -4.482 47.315 -4.484 1.172 -0.114 12.962 -0.626 19.952 -1.289 2.933 -0.278 16.7621 -1.016 19.4211 0.251Zm-7.854 -2.219c-9.29 0 -10.0981 0.594 -28.5281 1.582 -1.67 0.09 -48.726 4.609 -50.353 4.659 -5.182 0.157 -8.74 1.807 -7.974 6.934 1.777 11.893 2.572 12.314 3.022 15.298 1.424 9.423 2.966 17.737 4.58 24.713 0.87 3.762 3.812 23.3 5.739 30.324 1.141 4.16 2.253 6.415 4.86 6.415 3.502 0 74.8091 -14.783 75.3191 -14.955 9.006 -3.032 15.322 -1.753 15.208 -8.773 -0.042 -2.589 -7.53 -47.996 -8.007 -50.289 -2.177 -10.472 -2.659 -13.751 -5.368 -15.043 -0.779 -0.371 -2.507 -0.865 -8.499 -0.865h0.001Z" stroke-width="1"></path>
      <path id="vector_17" fill="#0a0430" d="M193.207 152.41c-5.116 -3.424 -18.492 -6.389 -25.25 -8.91 -0.027 -0.01 -35.958 -12.028 -36.748 -12.83 -0.52 -0.528 0.98 -0.284 -0.195 -7.936 -4.358 -28.381 -4.834 -23.751 -6.486 -37.15 -1.111 -9.011 -3.512 -19.797 -4.198 -22.546 -4.154 -16.643 0.13 -13.672 -67.483 -9.381 -12.853 0.816 -17.039 1.847 -23.495 2.119 -16.317 0.688 -18.663 1.527 -20.54601 4.656 -1.564 2.598 -5.071 6.768 -3.332 14.731 1.708 7.82 1.55 11.205 2.05 13.165C14.228 114.639 17.318 146.373 20.402 151.32c2.519 4.041 4.074 2.92 4.052 4.738 -0.062 5.062 -0.895 6.076 8.088 10.023 13.146 5.775 39.841 22.147 49.357 26.089 6.045 2.504 12.584 -1.777 48.083 -12.234 3.244 -0.956 11.64 -4.047 19.494 -6.398 5.721 -1.713 7.047 -1.557 16.317 -4.857 13.512 -4.81 24.901 -6.942 28.269 -10.046 1.291 -1.19 1.468 -4.671 -0.853 -6.225h-0.002Zm-61.829 -19.977c3.744 1.653 38.587 13.332 41.191 14.179 0.021 0.008 15.503 3.966 20.17 7.275 -3.407 1.59 -11.822 3.478 -16.319 5.045 -27.069 9.432 -27.913 8.406 -34.521 10.107 -21.189 5.455 -36.922 13.187 -42.822 13.612 -1.711 0.123 -11.669 3.173 -13.255 2.644 -12.672 -4.226 -4.93 -2.165 -30.398 -15.079 -3.541 -1.795 -5.679 -2.196 -28.237 -15.204 -0.784 -0.452 -1.011 -0.665 -0.824 -1.117 0.718 -1.741 1.443 0.102 6.712 -0.891 9.159 -1.726 24.702 -5.988 33.192 -7.831 3.654 -0.793 3.8 -0.467 11.284 -1.805 4.541 -0.812 6.988 -2.087 19.053 -3.895 1.887 -0.283 24.782 -5.574 28.001 -6.338 3.594 -0.853 4.817 -1.565 6.773 -0.702ZM25.11 153.128c-0.144 0.188 -0.245 0.423 -0.46 0.51 -2.728 -1.341 -3.761 -4.334 -4.478 -7.287 -2.792 -11.497 -4.08 -25.541 -5.541 -31.839 -2.917 -12.575 -6.91701 -34.075 -8.09001 -41.618 -0.542 -3.483 0.948 -7.488 1.738 -8.639 0.795 8.4 1.76201 15.415 1.79701 15.556 3.675 14.805 10.434 64.295 15.1 71.58 0.579 0.904 0.562 0.92 -0.065 1.736l-0.001 0.001Zm-5.037 -27.98C7.61499 59.597 8.82799 59.984 13.17 59.008c3.631 -0.816 17.71 -1.589 21.109 -1.78 1.665 -0.094 -0.042 -0.484 17.329 -1.864 58.399 -4.638 62.977 -3.804 64.843 0.395 2.365 5.321 2.857 11.109 4.3 17.181 2.351 9.895 1.99 10.753 2.152 12.299 1.551 14.731 6.613 31.233 6.999 43.153 0.075 2.32 -2.224 2.557 -4.558 3.119 -2.78 0.668 -27.39 6.451 -31.421 7.007 -7.89 1.088 -9.5 2.137 -16.693 3.495 -9.507 1.794 -3.278 0.458 -10.211 1.636 -7.361 1.25 -25.688 6.784 -36.888 8.381 -4.47 0.637 -5.556 -3.196 -10.058 -26.882Zm172.105 33.132c-2.32 1.416 -93.555 29.907 -93.576 29.913 -13.53 3.959 -11.53 5.797 -24.755 -1.678 -2.257 -1.276 -12.509 -6.485 -30.247 -16.593 -13.139 -7.487 -18.808 -6.225 -17.687 -14.062 13.692 8.392 55.094 29.464 55.709 29.693 1.414 0.526 2.882 0.651 4.3 1.063 1.627 0.473 17.656 -3.527 19.011 -3.949 1.021 -0.318 27.935 -9.959 38.537 -12.504 0.445 -0.107 12.587 -2.636 19.124 -5.114 8.312 -3.151 28.133 -8.563 30.651 -9.774 0.435 1.705 0.312 2.165 -1.067 3.006v-0.001Z" stroke-width="1"></path>
      <path id="vector_18" fill="#0a0430" d="M155.616 144.324c-0.765 -0.504 -16.506 -7.086 -23.044 -8.765 -2.021 -0.519 -2.358 -0.476 -4.389 -0.076 -9.806 1.934 -82.37 18.671 -88.879 20.46 -0.525 0.145 -0.69 0.55 -0.732 0.989 -0.117 1.257 -0.109 0.192 17.733 10.492 17.323 9.998 12.079 3.982 71.104 -12.207 8.429 -2.312 8.082 -2.669 14.211 -3.943 2.596 -0.54 11.949 -2.874 14.018 -4.42 1.378 -1.029 1.424 -1.579 -0.021 -2.531l-0.001 0.001Zm-17.074 6.311c-0.021 0.004 -39.85 10.682 -50.147 15.167 -2.5 1.09 -9.251 3.077 -12.029 3.731 -4.8 1.132 -7.672 2.1 -10.985 0.546 -11.615 -5.444 -21.887 -11.665 -24.062 -12.385 -0.477 -0.159 -0.69 -0.755 -0.015 -1.025 1.74 -0.698 79.347 -18.386 80.017 -18.513 8.388 -1.876 8.974 -2.063 11.825 -1.088 8.678 2.97 13.652 4.547 22.111 8.423 -1.117 1.933 -14.385 4.75 -16.715 5.144Z" stroke-width="1"></path>
      <path id="vector_19" fill="#0a0430" d="M140.34 143.715c-0.079 -0.265 -0.358 -0.415 -0.622 -0.337l-7.134 2.115 -5.716 -4.052 6.935 -1.889c0.267 -0.073 0.424 -0.348 0.351 -0.614 -0.073 -0.267 -0.348 -0.424 -0.614 -0.351l-7.729 2.105 -2.796 -1.982c-0.225 -0.16 -0.537 -0.106 -0.697 0.119 -0.16 0.226 -0.106 0.538 0.119 0.697l2.125 1.507 -12.285 3.347 -2.907 -2.12c-0.223 -0.163 -0.536 -0.113 -0.698 0.11 -0.163 0.223 -0.114 0.536 0.11 0.698l2.26 1.648 -12.372 3.37 -3.379 -2.565c-0.22 -0.167 -0.5329 -0.124 -0.6999 0.096 -0.167 0.22 -0.1241 0.534 0.0959 0.701l2.7671 2.101 -16.0051 4.36 -3.278 -2.221c-0.229 -0.155 -0.54 -0.095 -0.694 0.133 -0.155 0.229 -0.0949 0.54 0.1331 0.695l2.567 1.739 -15.0921 4.111 -4.341 -2.427c-0.241 -0.134 -0.545 -0.048 -0.68 0.193s-0.049 0.545 0.193 0.68l3.45 1.929 -10.247 2.792c-0.56 0.152 -0.449 0.982 0.131 0.982 0.105 0 0.0131 0.015 11.3621 -3.077l8.458 4.729 -9.4591 2.805c-0.55 0.163 -0.4319 0.979 0.1421 0.979 0.115 0 0.0069 0.02 10.5369 -3.103l4.133 2.311c0.577 0.321 1.064 -0.551 0.488 -0.873l-3.2809 -1.834 13.3959 -3.972c3.412 2.311 3.2211 2.225 3.4371 2.225 0.491 0 0.6879 -0.638 0.2809 -0.914l-2.4779 -1.679 14.9309 -4.427c2.428 1.843 2.336 1.822 2.567 1.822 0.478 0 0.683 -0.61 0.303 -0.898l-1.681 -1.276 12.319 -3.653c2.66 1.939 2.534 1.893 2.758 1.893 0.483 0 0.685 -0.62 0.295 -0.904l-1.846 -1.346 12.151 -3.603c3.063 2.171 2.789 2.015 3.002 2.015 0.486 0 0.686 -0.627 0.29 -0.908l-2.072 -1.469 6.38 -1.892c0.265 -0.079 0.416 -0.357 0.337 -0.622l-0.001 0.001ZM74.752 162.64l-8.42 -4.708 14.937 -4.069 7.027 4.761 -13.544 4.016Zm14.7841 -4.383 -6.9951 -4.739 15.919 -4.337 6.091 4.625 -15.0139 4.452 -0.001 -0.001Zm16.2029 -4.804 -6.0629 -4.604 12.4019 -3.378 5.95 4.338 -12.289 3.644Zm13.496 -4.001 -5.921 -4.317 12.306 -3.353 5.746 4.073 -12.131 3.597Z" stroke-width="1"></path>
    </g>
    <g id="post">
      <path id="vector_20" fill="#c1e1fd" d="M107.409 81.7709c-0.023 0.004 -17.905 4.365 -18.306 1.866 -0.195 -1.211 -1.293 -3.476 0.567 -3.7 3.899 -0.469 3.775 0.83 5.913 -0.234 3.7 -1.843 5.505 -0.237 10.992 -1.506 1.483 -0.343 1.141 0.362 1.481 2.414 0.113 0.684 -0.011 1.047 -0.646 1.161l-0.001 -0.001Z" stroke-width="1"></path>
      <path id="vector_21" fill="#c1e1fd" d="M107.28 76.709c-7.938 1.393 -8.427 0.024 -11.941 1.608 -1.485 0.67 -1.721 0.328 -3.579 0.113 0.167 -0.533 0.491 -0.889 0.757 -1.284 1.623 -2.409 3.14 0.078 5.15 -2.064 0.567 -0.604 1.293 -1.064 1.891 -1.663 0.727 -0.729 0.931 -0.742 1.719 -0.086 3.735 3.109 5.3 -0.521 6.003 3.376Z" stroke-width="1"></path>
      <path id="vector_22" fill="#ffffff" d="M107.171 73.501c-3.025 -0.27 -2.548 0.496 -4.696 -1.023 -1.812 -1.282 -2.485 -1.263 -4.118 0.192 -2 1.782 -1.592 2.422 -3.93 2.188 -1.868 -0.187 -2.555 1.17 -4.204 3.14 -0.834 0.996 -1.697 1.278 -2.004 0.031 -0.569 -2.311 0.217 -2.395 -0.613 -5.047 -0.32 -1.023 -0.368 -2.585 -0.418 -3.677 -0.027 -0.586 -0.931 -1.14 1.021 -1.525 5.445 -1.074 11.828 -1.859 11.895 -1.864 3.877 -0.285 5.85 -1.228 6.149 1.447 0.225 2.008 0.741 5.365 0.918 6.138Z" stroke-width="1"></path>
      <path id="vector_23" fill="#c1e1fd" d="M53.0909 117.202c-1.722 0.143 -0.086 0.35 -7.369 1.383 -6.084 0.863 -7.925 1.674 -10.701 0.824 -0.573 -0.176 -0.425 -0.243 -0.883 -3.37 0.824 -0.341 1.623 -0.596 2.347 -0.987 3.126 -1.691 5.834 -1.265 8.18 -2.435 0.613 -0.305 5.325 -1.536 7.066 -1.621 1.977 -0.097 0.815 2.277 1.954 5.342 0.189 0.508 -0.22 0.833 -0.594 0.864Z" stroke-width="1"></path>
      <path id="vector_24" fill="#c1e1fd" d="M52.439 109.55c-0.663 0.146 -1.278 0.201 -1.903 0.261 -2.928 0.281 -5.861 1.952 -10.734 2.711 0.724 -1.73 1.878 -3.096 2.757 -4.623 0.731 -1.27 2.357 0.145 4.091 -1.424 1.301 -1.177 1.835 -0.38 4.405 -1.119 0.887 -0.255 0.716 0.052 1.384 4.194Z" stroke-width="1"></path>
      <path id="vector_25" fill="#ffffff" d="M50.719 104.041c-1.128 0.386 -2.925 0.098 -3.834 0.717 -4.834 3.295 -3.522 -1.947 -8.026 6.84 -0.422 0.824 -1.046 1.67 -2.146 1.914 -1.822 0.404 -0.989 1.106 -2.874 1.238 -0.506 -2.702 -0.086 -2.558 -0.772 -6.271 -1.225 -6.631 -2.846 -4.804 12.102 -7.17 1.636 -0.259 3.311 -0.266 4.97 -0.379 0.63 -0.043 1.028 -0.032 1.439 1.839 0.226 1.027 0.117 0.938 -0.86 1.272h0.001Z" stroke-width="1"></path>
      <path id="vector_26" fill="#c1e1fd" d="M98.532 126.618c-13.155 3.265 -11.439 2.879 -25.275 5.411 -2.127 0.389 -4.211 0.989 -6.348 1.347 -1.51 0.253 -3.045 0.048 -4.549 0.364 -1.265 0.266 -1.947 -2.485 -2.087 -3.765 -0.552 -5.014 -1.667 -6.066 0.088 -6.802 3.872 -1.625 26.187 -5.919 34.424 -6.729 2.964 0.069 2.495 -0.377 4.692 8.086 0.06 0.232 0.076 0.477 0.088 0.717 0.052 1.035 -0.027 1.121 -1.031 1.37l-0.002 0.001Z" stroke-width="1"></path>
      <path id="vector_27" fill="#c1e1fd" d="M91.99 71.041c-0.088 0.816 -1.89 1.021 -1.728 -0.224 0.212 -1.623 1.788 -0.332 1.728 0.224Z" stroke-width="1"></path>
      <path id="vector_28" fill="#c1e1fd" d="M37.446 106.421c-0.981 1.209 -2.079 0.397 -1.778 -0.523 0.38 -1.161 1.487 -0.052 1.778 0.523Z" stroke-width="1"></path>
      <path id="vector_29" fill="#0a0430" d="M109.564 80.811c-0.005 -0.101 -2.28 -15.265 -2.313 -15.365 -0.462 -1.397 -1.751 -1.226 -3.357 -1.305 -0.021 0.01 -15.234 1.441 -17.373 2.523 -0.802 0.406 -1.121 0.675 -1.041 1.918 0.007 0.104 2.144 15.112 2.244 15.389 0.631 1.744 1.38 1.697 4.458 1.846 2.779 0.135 14.293 -2.162 16.65 -2.843 0.819 -0.236 0.737 -2.062 0.732 -2.163Zm-2.284 -4.102c-7.938 1.393 -8.427 0.024 -11.941 1.608 -1.485 0.67 -1.721 0.328 -3.579 0.113 0.167 -0.533 0.491 -0.889 0.757 -1.284 1.623 -2.409 3.14 0.078 5.15 -2.064 0.567 -0.604 1.293 -1.064 1.891 -1.663 0.727 -0.729 0.931 -0.742 1.719 -0.086 3.735 3.109 5.3 -0.521 6.003 3.376Zm-19.061 1.32c-0.569 -2.311 0.217 -2.395 -0.613 -5.047 -0.32 -1.023 -0.368 -2.585 -0.418 -3.677 -0.027 -0.586 -0.931 -1.14 1.021 -1.525 5.445 -1.074 11.828 -1.859 11.895 -1.864 3.877 -0.285 5.85 -1.228 6.149 1.447 0.269 2.404 0.605 5.295 0.787 6.139 -3.025 -0.27 -2.417 0.494 -4.565 -1.025 -1.812 -1.282 -2.485 -1.263 -4.118 0.192 -2 1.782 -1.592 2.422 -3.93 2.188 -1.868 -0.187 -2.555 1.17 -4.204 3.14 -0.834 0.996 -1.697 1.279 -2.004 0.032Zm19.191 3.742c-0.023 0.004 -17.905 4.365 -18.306 1.866 -0.195 -1.211 -1.293 -3.476 0.567 -3.7 3.899 -0.469 3.775 0.83 5.913 -0.234 3.7 -1.843 5.505 -0.237 10.992 -1.506 1.483 -0.343 1.141 0.362 1.481 2.414 0.113 0.684 -0.011 1.047 -0.646 1.161l-0.001 -0.001Z" stroke-width="1"></path>
      <path id="vector_30" fill="#0a0430" d="M54.0329 109.87c-0.828 -4.309 -1.013 -6.895 -1.27 -8.325 -0.313 -1.748 -1.83 -2.046 -2.065 -2.041 -3.06 0.059 -19.873 1.416 -19.9 3.43 -0.036 2.727 0.021 -0.001 1.364 10.536 0.278 2.18 0.791 4.292 1.004 6.078 0.097 0.812 0.803 1.234 1.362 1.332 5.349 0.943 8.57 -0.487 9.883 -0.659 0.79 -0.104 8.483 -1.177 9.178 -1.567 1.345 -0.755 1.529 0.073 1.41 -2.035 -0.128 -2.255 -0.858 -6.184 -0.966 -6.749Zm-1.594 -0.32c-0.663 0.146 -1.278 0.201 -1.903 0.261 -2.928 0.281 -5.861 1.952 -10.734 2.711 0.724 -1.73 1.878 -3.096 2.757 -4.623 0.731 -1.27 2.357 0.145 4.091 -1.424 1.301 -1.177 1.835 -0.38 4.405 -1.119 0.887 -0.255 0.716 0.052 1.384 4.194Zm-19.371 -1.071c-1.225 -6.631 -2.846 -4.804 12.102 -7.17 1.636 -0.259 3.311 -0.266 4.97 -0.379 0.63 -0.043 1.028 -0.032 1.439 1.839 0.226 1.027 0.117 0.938 -0.86 1.272 -1.128 0.386 -2.925 0.098 -3.834 0.717 -4.834 3.295 -3.522 -1.947 -8.026 6.84 -0.422 0.824 -1.046 1.67 -2.146 1.914 -1.822 0.404 -0.989 1.106 -2.874 1.238 -0.506 -2.702 -0.085 -2.558 -0.771 -6.271Zm20.023 8.722c-1.722 0.143 -0.086 0.35 -7.369 1.383 -6.084 0.863 -7.925 1.674 -10.701 0.824 -0.573 -0.176 -0.425 -0.243 -0.883 -3.37 0.824 -0.341 1.623 -0.596 2.347 -0.987 3.126 -1.691 5.834 -1.265 8.18 -2.435 0.613 -0.305 5.325 -1.536 7.066 -1.621 1.977 -0.097 0.815 2.277 1.954 5.342 0.189 0.508 -0.22 0.833 -0.594 0.864Z" stroke-width="1"></path>
      <path id="vector_31" fill="#0a0430" d="M100.091 122.28c-0.136 -1.903 -0.69 -3.683 -1.485 -5.405 -0.702 -1.52 -1.875 -1.689 -3.279 -1.518 -10.985 1.341 -28.207 3.909 -35.975 6.872 -2.861 1.092 -0.964 4.759 -0.205 7.9 0.419 1.736 0.395 5.312 3.273 5.041 3.991 -0.376 19.013 -3.235 22.964 -3.907 5.415 -0.921 3.765 -1.249 13.315 -3.058 3.265 -0.619 1.519 -4.137 1.391 -5.926l0.001 0.001Zm-1.558 4.338c-13.155 3.265 -11.439 2.879 -25.275 5.411 -2.127 0.389 -4.211 0.989 -6.348 1.347 -1.51 0.253 -3.045 0.048 -4.549 0.364 -1.265 0.266 -1.947 -2.485 -2.087 -3.765 -0.552 -5.014 -1.667 -6.066 0.088 -6.802 3.872 -1.625 26.187 -5.919 34.424 -6.729 2.964 0.069 2.495 -0.377 4.692 8.086 0.06 0.232 0.076 0.477 0.088 0.717 0.052 1.035 -0.027 1.121 -1.031 1.37l-0.002 0.001Z" stroke-width="1"></path>
      <g id="group">
        <path id="vector_32" fill="#0a0430" d="M23.288 71.589c-0.081 -0.437 0.172 -0.666 0.592 -0.745 12.785 -2.382 18.821 -3.527 39.869 -4.585 8.279 -0.416 11.334 -1.261 11.291 -0.264 -0.028 0.636 0.056 0.965 -13.955 1.671 -30.264 1.526 -37.498 5.522 -37.796 3.922l-0.001 0.001Z" stroke-width="1"></path>
        <path id="vector_33" fill="#0a0430" d="M105.669 91.6251c-2.621 -0.512 -17.961 2.989 -20.548 3.543 -6.831 1.464 -25.621 3.6 -26.758 4.008 -0.554 0.199 -0.889 -0.782 -0.192 -0.927 6.146 -1.278 23.774 -3.796 26.33 -4.29 8.523 -1.646 9.634 -2.465 19.387 -3.801 0.887 -0.121 1.755 -0.014 2.627 -0.117 0.92 -0.108 0.885 1.508 -0.845 1.583l-0.001 0.001Z" stroke-width="1"></path>
        <path id="vector_34" fill="#0a0430" d="M79.068 85.835c-0.077 0.669 -0.169 0.502 -5.907 1.311 -19.96 2.815 -40.965 6.524 -42.232 6.515 -0.937 -0.006 -0.745 -1.139 -0.092 -1.238 42.459 -6.469 48.418 -8.202 48.231 -6.588Z" stroke-width="1"></path>
        <path id="vector_35" fill="#0a0430" d="M62.832 108.976c8.812 -1.966 39.939 -6.909 46.385 -7.546 1.081 -0.107 1.087 1.145 0.232 1.274 -31.249 4.713 -43.434 7.354 -46.883 7.595 -0.476 0.033 -3.815 -0.413 0.266 -1.323Z" stroke-width="1"></path>
        <path id="vector_36" fill="#0a0430" d="M72.165 69.993c0.632 0 1.265 -0.107 1.32 0.46 0.05 0.521 -0.337 0.732 -0.858 0.786 -46.102 4.849 -45.816 6.409 -46.043 5.39 -0.507 -2.269 45.579 -6.569 45.581 -6.636Z" stroke-width="1"></path>
        <path id="vector_37" fill="#0a0430" d="M43.0159 79.223c-0.429 -0.161 -1.206 0.262 -1.236 -0.523 -0.026 -0.688 0.741 -0.462 1.157 -0.529 3.391 -0.549 28.423 -4.404 31.822 -3.918 0.761 0.109 0.571 0.976 0.102 1.071 -0.822 0.166 -0.065 -0.084 -31.845 3.899Z" stroke-width="1"></path>
        <path id="vector_38" fill="#0a0430" d="M48.249 84.5891c-0.008 -0.552 0.485 -0.544 1.115 -0.648 26.909 -4.447 27.456 -4.65 27.524 -3.623 0.045 0.688 -0.222 0.611 -5.214 1.272 -13.318 1.763 -23.404 4.401 -23.425 2.999Z" stroke-width="1"></path>
        <path id="vector_39" fill="#0a0430" d="M29.567 88.1441c-0.37 -0.111 -1.059 0.341 -1.09 -0.471 -0.025 -0.657 0.611 -0.634 1.06 -0.703 14.67 -2.258 14.492 -2.778 14.7 -2.073 0.24 0.814 -0.939 0.964 -2.288 1.24 -10.057 2.058 -7.285 1.41 -12.383 2.006l0.001 0.001Z" stroke-width="1"></path>
        <path id="vector_40" fill="#0a0430" d="M76.668 101.903c-0.324 0.038 -0.69 -0.41 -0.531 -0.634 0.662 -0.931 3.598 -0.659 13.014 -2.209 1.106 -0.182 1.742 -0.671 2.002 -0.092 0.716 1.595 -13.257 2.792 -14.485 2.935Z" stroke-width="1"></path>
        <path id="vector_41" fill="#0a0430" d="M94.6 98.352c-0.552 -0.061 -0.42 -0.646 -0.155 -0.766 1.23 -0.551 0.694 -0.502 8.415 -1.73 1.186 -0.189 3.743 -1.002 4.01 -0.341 0.213 0.527 -0.805 1.038 -1.096 1.046 -1.209 0.033 -0.787 0.343 -8.607 1.445 -0.814 0.115 -1.638 0.18 -2.566 0.345l-0.001 0.001Z" stroke-width="1"></path>
        <path id="vector_42" fill="#0a0430" d="M27.653 80.803c-0.105 -0.646 0.383 -0.6 2.686 -1 5.679 -0.986 5.635 -1.096 5.882 -0.494 0.352 0.861 -1.401 0.93 -7.191 1.989 -0.778 0.142 -1.277 0.117 -1.376 -0.496l-0.001 0.001Z" stroke-width="1"></path>
        <path id="vector_43" fill="#0a0430" d="M61.468 104.261c-0.379 0.008 -0.84 0.119 -0.901 -0.356 -0.046 -0.354 0.335 -0.483 0.671 -0.552 8.575 -1.763 8.507 -1.749 8.639 -1.473 0.653 1.368 -5.445 1.887 -8.408 2.38l-0.001 0.001Z" stroke-width="1"></path>
      </g>
      <path id="vector_44" fill="#0a0430" d="M50.1479 125.413c4.608 0.364 5.485 0.232 5.405 1.067 -0.067 0.694 -0.098 0.511 -5.445 0.044 -0.41 -0.036 -1.257 0.056 -1.176 -0.644 0.056 -0.481 0.494 -0.563 1.215 -0.466l0.001 -0.001Z" stroke-width="1"></path>
      <path id="vector_45" fill="#0a0430" d="M105.351 115.164c0.01 0.218 -0.572 0.501 -3.508 2.01 -0.362 0.186 -0.782 0.366 -1.029 -0.13 -0.222 -0.445 0.04 -0.732 0.446 -0.948 1.919 -1.016 4.015 -2.588 4.091 -0.932Z" stroke-width="1"></path>
      <path id="vector_46" fill="#0a0430" d="M106.742 118.678c-0.011 0.289 -0.165 0.492 -0.412 0.5 -1.092 0.035 -2.092 0.458 -3.135 0.688 -1.044 0.23 -1.148 -1.352 -0.09 -1.316 0.843 0.029 3.687 -1.167 3.637 0.128Z" stroke-width="1"></path>
      <path id="vector_47" fill="#0a0430" d="M52.3629 131.971c-0.563 -0.044 -0.713 -0.564 -0.364 -0.849 0.444 -0.363 2.548 -1.244 3.008 -1.424 0.816 -0.32 1.527 0.553 0.41 1.029 -3.007 1.282 -2.516 1.067 -3.054 1.245v-0.001Z" stroke-width="1"></path>
      <path id="vector_48" fill="#0a0430" d="M105.473 123.288c-1.272 -0.075 -2.035 0.067 -1.956 -0.759 0.052 -0.546 0.335 -0.521 3.24 -0.333 0.667 0.043 0.759 1.127 -0.084 1.136 -0.697 0.008 -1.195 -0.094 -1.2 -0.044Z" stroke-width="1"></path>
      <path id="vector_49" fill="#0a0430" d="M57.534 132.491c1.391 0.379 -0.742 2.395 -1.943 3.163 -0.37 0.236 -0.887 -0.35 -0.584 -0.671 2.437 -2.583 2.064 -2.328 2.527 -2.491v-0.001Z" stroke-width="1"></path>
      <path id="vector_50" fill="#0a0430" d="M91.097 68.813c-2.663 -0.114 -2.968 4.142 -0.088 4.248 0.91 0.034 2.244 -1.125 2.274 -1.972 0.048 -1.376 -0.757 -2.215 -2.186 -2.276Zm0.893 2.228c-0.088 0.816 -1.89 1.021 -1.728 -0.224 0.212 -1.623 1.788 -0.332 1.728 0.224Z" stroke-width="1"></path>
      <path id="vector_51" fill="#0a0430" d="M36.572 104.081c-2.922 -0.245 -3.047 3.913 -0.251 4.135 3.667 0.292 2.274 -3.966 0.251 -4.135Zm-0.904 1.818c0.38 -1.161 1.487 -0.052 1.778 0.523 -0.981 1.209 -2.079 0.397 -1.778 -0.523Z" stroke-width="1"></path>
      <path id="vector_52" fill="#0a0430" d="M77.802 126.112c-0.144 2.866 -2.66 3.704 -4.194 2.033 -0.728 -0.793 -0.933 -1.834 -1.234 -2.809 -0.371 -1.2 0.663 -1.153 1.094 -1.759 1.051 -1.477 4.269 -0.736 4.334 2.535Zm-3.872 -0.778c-0.077 2.345 1.8969 2.765 2.2549 1.328 0.571 -2.29 -2.0019 -3.763 -2.2549 -1.328Z" stroke-width="1"></path>
      <path id="vector_53" fill="#0a0430" d="M69.366 126.177c-0.261 2.131 -2.724 1.372 -2.395 2.962 0.169 0.818 0.36 1.702 -0.5 1.782 -0.651 0.06 -0.482 -0.17 -1.891 -5.555 -0.491 -1.876 2.932 -2.331 4.296 -0.952 0.437 0.442 0.453 1 0.49 1.763Zm-2.508 -1.276c-1.705 -0.052 -1.106 2.004 -0.328 2.029 1.596 0.052 2.234 -1.97 0.328 -2.029Z" stroke-width="1"></path>
      <path id="vector_54" fill="#0a0430" d="M81.082 127.614c-0.123 -1.454 1.693 -0.519 1.822 -1.429 0.101 -0.711 -1.565 -1.309 -1.78 -1.355 -3.29 -0.702 1.116 -5.081 1.901 -3.493 0.161 0.326 -0.152 0.404 -0.31 0.55 -2.642 2.45 0.536 1.501 1.696 3.6 1.247 2.256 -3.199 3.671 -3.329 2.127Z" stroke-width="1"></path>
      <path id="vector_55" fill="#0a0430" d="M91.6859 119.228c0.473 -0.113 0.699 0.067 0.682 0.623 -0.02 0.663 -0.1319 0.832 -0.7169 0.835 -1.489 0.006 -1.129 -0.09 -0.356 4.311 0.05 0.287 0.205 0.674 -0.27 0.789 -1.063 0.257 -1.07 -1.019 -1.732 -3.792 -0.27 -1.13 -0.273 -1.136 -1.422 -0.772 -0.192 0.061 -0.351 0.119 -0.563 0.056 -0.366 -0.109 -0.943 0.04 -1.004 -0.46 -0.067 -0.548 0.5389 -0.471 0.8809 -0.596 1.44 -0.526 2.926 -0.858 4.501 -0.994Z" stroke-width="1"></path>
    </g>
  </g>
</svg>