<svg xmlns="http://www.w3.org/2000/svg" viewBox="0 0 200 200">
  <desc>
    Leisure Food Cooking For Family Friends Guests_1 Streamline Illustration: https://streamlinehq.com
  </desc>
  <path fill="#e4edf2" d="M180.6 64.189c.119.642-.392 1.1-.905 1.474-.238.175-.24.14-1.733.14-.831.1-4.844-1.274-5.265-1.438-4.5-1.761-9.108-5.661-13.093-8.623-7.973-5.924-48.908-39.464-45.1-48.928 2.064-5.124 29.459 16.984 31.374 18.438.173.131.175.237 0 .356a6.8 6.8 0 0 1-3.026 1.561c-1.485.168-1.618 2.183-1.03 3.363s.944 3.129 7.283 8.117c1.085.854 4.142 2.868 6.215 2.547a1.627 1.627 0 0 0 1.422-1.954c.616-.683-.12-1.007 1.088-2.986.288-.473 2.222 1.872 3.1 2.756 4.96 4.971 18.379 18.25 19.67 25.177"/>
  <path fill="#e4edf2" d="M177.681 67.052c.455.13-1.512 1.221-2.682 1.183a14.3 14.3 0 0 1-4.622-.982 22.4 22.4 0 0 1-2.827-1.614c-3.035-1.5-7.955-5.451-12.629-8.811-12.59-9.052-32.711-28.808-37.706-35.336-4.156-5.431-4.56-6.634-5.686-9.715a4.17 4.17 0 0 1 1.31-4.141c1.381 4.646 1.463 7.946 15.638 22.244 9.629 9.712 17.511 17.3 31.89 27.85 12.225 8.97 11.079 7.533 17.314 9.322M166.559 26.372c.379 2.474-7.762-2.574-10.952-7.876-.17-.282-.056-1.18-.708-1.083-2.074.308 2.607 6.415 8.556 10.023 2.343 1.421 2.987.766 2.843 1.341a2.22 2.22 0 0 1-1.087 1.583c-4.1 2.129-7.147-1.116-10.289-3.618-1.687-1.344-4.678-4.7-4.843-7.623-.242-4.295 5.873-6 12.065-.68 4.475 3.847 4.281 7.061 4.415 7.933M164.334 136.418c2.79 5.87-8.46 10.856-11.99 13.148-1.305.848-.988 1.885-1.341-2.109a2.58 2.58 0 0 1 .981-2.305c6.824-4.526 7.459-4.45 8.331-6.27.756-1.578-.478-3.785-1.786-4.933-2.046-1.794-4.422-.69-6.713.775-1.071.685-1.641.965-2.187 1.374-.367.276-.208.4-1.123-2.76-.049-.171-.33-.261.021-.455 4.131-2.285 6.713-3.993 9.805-3.128 1.2.336 1.9.913 3.741 2.754a13.2 13.2 0 0 1 2.261 3.909M150.088 26.739c5.9 4.936 10.352 5.14 9.546 5.571a5.5 5.5 0 0 0-1.791 1.756 9.5 9.5 0 0 0-1.853 3.788c-.327 1.524-.261 2.133-1.22 2.069a7.4 7.4 0 0 1-4.114-1.64c-2.727-2.056-8.361-6.253-7.909-9.641a.71.71 0 0 1 .68-.566 9.14 9.14 0 0 0 4.613-3.092c.433-.598.684.616 2.048 1.755M151.754 163.592a23.1 23.1 0 0 1 .211 5.62 14.08 14.08 0 0 1-3.851 8.82c-3.808 4.268-12.465 7.96-17.889 9.815-3.884 1.327-3.256 1.133-9.511 2.369-11.774 2.327-2.911 1.258-19.141 2.926-6.963.716-15.11.626-22.26-1.21a18.67 18.67 0 0 1-10.021-5.514c-3.443-3.662-3.849-7.911-4.689-12.868-.136-.8-2.261-15.752-2.31-16.222-.131-1.248-1.038-5.6-1.659-10.067-.359-2.581-.417-2.344.081-2.318 12.345.646 18.193-.107 29.973-1.291 5.841-.587-.085.568 13.361-1.479 7.943-1.208 8.18-1.256 8.293-1.277s20.841-4.652 33.192-10.622c.881-.426.914-.474.98-.095.372 2.11 4.399 28.284 5.24 33.413"/>
  <path fill="#e4edf2" d="M147.158 120.854c.527.213.821 3.363.756 4.287-.154 2.172.255 3.26-13.193 8.322-8.27 3.113-13.127 3.669-15.378 4.341-7.065 2.109-14.928 2.623-18.956 3.407a68 68 0 0 1-12.771 1.379 107.4 107.4 0 0 1-22.092 0c-8.14-.758-8.348-1.767-9.037-7.091l.109-.687c.417-.057.334.457 1 .819a15 15 0 0 0 1.85.839c2.555.931 16.079 1.691 19.254 1.484 27.617-1.8 10.336-.141 24.536-2.225 10.56-1.551 4.918-.47 9.309-1.623 10.256-2.694 18.657-3.84 31.177-10.071a8.1 8.1 0 0 0 2.829-2.092c.303-.292.426-1.161.607-1.089"/>
  <path fill="#e4edf2" d="M144.561 117.959c1.092.552 1.873 1.394 1.388 2.52-.27.628-1.215 1.759-1.343 1.321-.319-1.088-1.614-1.543-2.732-1.692a.9.9 0 0 1-.827-.77c-.291-1.852-1.7-2.493-.318-2.448a17.6 17.6 0 0 1 3.832 1.069"/>
  <path fill="#fff59e" d="M141.466 123.27c.238.523.3.421-2.457 1.6-1.1.472-3.317 1.37-4.421 1.7-1.714.514-.552.69-9.478 3.2a36 36 0 0 1-4.447 1.125c-2.349.4-2.768.711-2.685.325a7 7 0 0 0-.173-1.927c-.168-2.843-1.211-4.092-2.971-6.634-.18-.261-.944-.39-.429-2.062.358-1.16 1.423-2.747 2.355-3.035a3.2 3.2 0 0 1 1.277-.564c.418-.052 2.066-.681 3.23-.132 1.371.646 1.56 1.915 2.173 2.878.473.745-2.162 1.01-2.474 5.59-.059.872.033 3.614 1.088 3.521.71-.063.445-.711.41-1.118-.317-3.663.169-4.161 1.286-6a10.1 10.1 0 0 1 3.182-2.164 5.1 5.1 0 0 1 1.856-.194 6.4 6.4 0 0 1 2.487.374 2.89 2.89 0 0 1 1.958 1.289 9 9 0 0 1 .924 1.7c.51 1.523 1.99.592 1.255-.488-.677-1-.621-1.838-1.772-2.957a6.94 6.94 0 0 0-3.1-1.2 8.2 8.2 0 0 0-2.41-.1c-.8.036-.807.073-1.035-.671-.14-.457-.3-.649-.258-.874.1-.493 3.163-2.606 5.551-2.775 4.1-.288 6.024 2.452 7.431 6.336.288.82 1.194 2.261 1.647 3.257"/>
  <path fill="#9adba5" d="M131.389 94.372c-.881 1.163 1.409.858 1.284 2.209-.047.509.255 1.187-.627 1.587-.99.449-.493 1.37-.46 1.853.04.59-.553.151-1.014.649-.575.62 0 .663-.356 1.142-.864 1.167-1.485 1.022-2.912 1.327-.8-.149-.83-.045-.635-.59.317-.884-.924-1.921-1.315-1.1a11.2 11.2 0 0 0-1.132 1.983 1.2 1.2 0 0 1-1.5.872c-1.5-.485-1.773.559-2.789.073-.6-.286.473-.684.085-1.149-.841-1.01-1.192.553-1.628-1.315-.022-.1.471-.526.595-.711.461-.684-.177-.795-.711-1.5-.322-.427-.128-.359.593-.967 1.124-.949.1-1.514-.176-1.315-.853.613-1.99.339-2.132 1.405-.105.787-.671 1.031-1.474 1.014-1.422-.03-.372-.862-1.1-1.362a.49.49 0 0 0-.58-.062 2.3 2.3 0 0 1-1.031.1c-.288-.319-.591-.625-.846-.97-.393-.531.607-1.274-.583-1.67-.085-.028-.2-.085-.225-.156a8 8 0 0 1-.3-1.067c-.035-.175.237-.462.429-.5.948-.211 1.543-.15 1.436-1.37-.1-1.156 1.007-.332 1.23-1.094.13-.446-.76-1.019-1.507-.474-.33.24-1.213 1.314-2.147.656-.741-.522.237-.966-.678-1.514-.213-.128-.577-.237-.694-.668-.321-1.184.1-1.748 1-2.048 1.638-.543.282-1.684 1.235-1.964 2.08-.611.175-1.021 1.658-2.2.251-.2.439-.237 2.4-.436a.5.5 0 0 1 .318.185c.3.635 1.026.736 1.3-.311.122-.474-.189-.623 1.159-1.556.149-.1.846.089.947.711.113.695.614.884 1.221.528.846-.5 1.455-.68 1.94.194.883 1.592 1.843-1.357 3.081-.071.609.634.947.929 1.007 1.531a.745.745 0 0 0 1.03.73c.711-.22.934-.173 1.358.391s1.057 1.291.694 1.985c-.753 1.441 1.134.846 1.107 2.014-.027 1.128 1.087 1.074.725 1.777a.3.3 0 0 0 0 .059c-.251 1.422 1.368.529 1.282 1.273a3.6 3.6 0 0 1-.562 1.892m-1.857 4.865c.039-.365-.51-.735-1.185-.213a.57.57 0 0 1-.629.128.5.5 0 0 0-.555.819 2.1 2.1 0 0 0 .839.4 1.61 1.61 0 0 0 1.53-1.134m-.4-3.685a4.6 4.6 0 0 0-.016-1.563c-.364-.817.208-1.083-.52-1.6-1-.707-1.181-.649-1.135-1.057.105-.926-.308-1.033-1.218-1.114a1.81 1.81 0 0 0-1.3.768.38.38 0 0 0 .107.523c.365.245.709-.079 1.246-.177.09.621-.168.906.474 1.232 1.127.571 1.128.67 1.135.907s.171 1.043.138 1.261a1.5 1.5 0 0 0-.043.81c.057.154-.3.432-.346.5-.603.977 1.4 1.671 1.475-.49Zm-3.993-7.437a1.4 1.4 0 0 0 .392-.9c.034-.834-.966-1.287-1.658-1.374-.775-.045-.454-.406-.875-.711-.755-.549-2.39.047-2.021.827.2.426.69.26 1.055.121.45-.172-.133.778.642.929.549.107.712-.284 1.531.177.268.151-.048.395.037.59.027.062-.024.392.292.458.214.041.466.079.602-.117Zm-1.632 10.6c.076-.26.025-.38-.219-.54-.532-.348-.493-.158-.3-.783.412-1.331-.852-.4-1.28-1.491-.3-.762-.04-1.113-.644-1.267-1.258-.322-1.216-.617-1.6-.339-.223.163-.739.949-1.365.237-.33-.376-.684-1-1.284-.434a.67.67 0 0 1-.905.021c-.408-.473.612-.77-.09-1.35-.557-.46-1.762 1.475-.69 2.232 1.148.809 1.552.267 2.007.372a3.5 3.5 0 0 1 .768.424c1.544.871 2.012-.816 2.445 0 .182.342.375 1.23.979 1.573a.6.6 0 0 1 .3.582 1.32 1.32 0 0 0 1.348 1.284c.312-.002.399-.087.523-.518Zm-2.19-6.9c.275-1.59-.634-1.034-.342-1.766.494-1.237-1.4-1.875-1.569-.949-.132.711.66.238.42 1.095-.276.984.668.988.419 1.464-.021.417.1.6.491.669.279.051.35 0 .509-.351a.7.7 0 0 0 .069-.156Zm-4.343-5.971c.139-.382-.486-.694-.839-.673a1.707 1.707 0 0 0-1.606 1.765c.016.436-.05.308-.547 1.474a1.96 1.96 0 0 0 1.355 1.867.565.565 0 0 0 .49-.988c-.476-.445-1.017-.753-.44-1.078.1-.058.216-.1.317-.157a.63.63 0 0 0 .213-.872c-.19-.312-.477-.458-.028-.753a.8.8 0 0 1 .543-.19.61.61 0 0 0 .539-.389Z"/>
  <path fill="#fff59e" d="M128.6 112.281c2.265.341 1.9.195.606.846-2.97 1.5-2.793 2.543-3.084 1.907-.68-1.488-.76-1.521-.488-1.678 1.924-1.11 1.128-.734 2.966-1.075"/>
  <path fill="#edcba6" d="M125.589 117.06c.5 1.185.616 1.275.329 1.421-2.713 1.387.523.235-4.642-3.653-1.511-1.138-2.262-.9-1.729-1.626a2.8 2.8 0 0 1 2.338-1.372c.851.237 1.171.285.2 1.145-.587.522-.218 1.9 1.017.768.82-.743.571-1.195 2.487 3.317"/>
  <path fill="#ff9c9f" d="M119.753 54.338a2.38 2.38 0 0 0-.91-1.777c-4.088-3.821-4.19-3.978-4.921-4.345-1.818-.913-6.253-1.671-7.739-1.926-1.674-.288-2.729-.309-5.12 1.049-.736.418-1.481.82-2.218 1.232a.47.47 0 0 0-.251 0c-3.775 1.972-6.778 4.276-6.438 11.525.1 2.133.325 1.462.664 3.211a10.7 10.7 0 0 0 3.139 5.412c7.006 5.336 15.014 4.756 20.117-.484 1.658-1.7 1.8-2.725 3.262-5.63a10.94 10.94 0 0 0 .415-8.267"/>
  <path fill="#9adba5" d="M118.26 51.3c1.424.468 1.209.393 1.3.49-.758.6-4.189.161-5.258.015a10.7 10.7 0 0 0-4.2.3c-1.135.229-2.022 1.33-1.259 2.187 3.778 4.243 3.671 3.452 4.073 4.192-.812.045-4.688-1.852-5.577-3.815-.456-1.007-1.231-1.094-1.768-.619-.667.592-.573 1.123-1.374 1.4-.616.21-1.307.576-1.1.225a8.2 8.2 0 0 1 2.471-2.561c.476-.322.389-.934-.012-1a43 43 0 0 0-5.411-.73c-1.849 0-1.5.021-1.678-.081.028-.045.047-.114.085-.128 3.407-1.277 6.609.78 6.578-.249a.61.61 0 0 0-.249-.568c-3.149-1.822-2.931-1.976-6.6-3.028.858-.285 1.052-.079 2.421-.1a14.2 14.2 0 0 1 2.988.653c1.788.34 1.969 1.477 3.407 1.773.775.159.8-.611.73-1.467-.053-.654.211-.524.417-1.123.223-.645.753-.835 2.751-1.815.692-.339-.511 1.384-1.1 2.46a9.4 9.4 0 0 0-.519 1.978c-.393 1.917 1.346.772 3.374.633a11.2 11.2 0 0 1 5.51.978m-10.921.858c1.574.128 1.405-1.351.877-1.541a.5.5 0 0 0-.653.263c-.249.6-1.342-.559-1.332.567.003.446.751.809 1.108.712Z"/>
  <path fill="#d3ffcf" d="M118.246 104.438c.526.282.017.335-1.995 2.388-2.648 2.7-2.713 4.266-3.272 4.758-.772.679-1.422 1.4-2.3 1.208-1.22-.261-2.505-.385-3.284-1.355-1.771-2.2-.8-2.512-.026-3.578 3.112-4.278 3.449-7.7 4.045-7.345.929.546 1.481.031 1.841.436 1.211 1.364 3.053.079 3.113.159.19.253.41.066.41.613a2.386 2.386 0 0 0 1.468 2.716"/>
  <path fill="#ff9c9f" d="M116.514 128.983c.671 3.79.251 2.727-2.931 3.618-1.438.4-2.917.568-4.379.829-.587.1-.072-.674-1.156-2.462a12.56 12.56 0 0 0-4.334-4.471 5.19 5.19 0 0 0-5.416-.047c-.947.475-1.29-.047-2.588-.545-1.84-.707-3.577 1.943.038 3.962 1.043.582.826 1.364 1.277 2.509.739 1.871 1.54 1.659 1.988 2.2.279.34.237.235-1.528.647-.657.154-.837-.086-1.671-1.817-.988-2.055-.836-2.316-1.5-2.474-2-.476-1.756 1.292-2.716 1.339-1.741.086-2.68 1.762-2.054 2.722a3.4 3.4 0 0 0 .609.932c.09.071.033.13-.069.142-1.184.133-1.035.137-1.045.054-1.052 0-.9.112-1.166-.948a6.54 6.54 0 0 1 1.943-5.039c3.059-3.02 2.855-2.66 4.813-7.625a21 21 0 0 1 1.566-3.151 4.97 4.97 0 0 1 3.194-2.133c1.639-.2 1.784-.675 3.343-.344a13 13 0 0 1 2.673.711 17.5 17.5 0 0 1 3.229 1.54c3.949 2.842 4.508 2.783 7.047 6.931a6.13 6.13 0 0 1 .833 2.92m-5.374 3.274c1.846-.174 3.6-.665 3.571-2.518-.027-1.658-.713-3.126-2.37-3.09-.289.006.052-.353.159-.659a2.33 2.33 0 0 0-.564-2.526c-.947-.808-2.342-.125-2.237-.767a2.21 2.21 0 0 0-1.151-2.311 2.56 2.56 0 0 0-2.464.342c-.147-1.476-.079-1.673-1.422-2.209-.872-.348-1.833.552-2.353 1.384-.375.6-.166.617-.578 0-1.195-1.788-3.971-.235-2.621 4.166.1.322.948.563 1.2.528a12 12 0 0 1 1.659.081 2.5 2.5 0 0 1 1.206.282c6.757 3.607 6.201 7.464 7.965 7.297"/>
  <path fill="#ffccce" d="M113.815 129.476c.146 1.22-1.36 1.743-2.467 1.876-1.36.164-.817-3-6.579-6.511-3.367-2.05-4.743-.137-5.126-2.054a3.9 3.9 0 0 1-.042-1.266c.031-.236.237-1.419.858-1.461.82-.057.995 1.421 1.092 1.98.041.237.3.5.474.306.413-.471.783-1.715 1.317-2.459.275-.384.711-.692 1.045-.588.261.081.561.175.649.362.7 1.5-.753 2.883 0 3.2.788.337.608-.867 1.775-1.554.258-.152 1.061-.541 1.571 0a1.7 1.7 0 0 1 .388 1.106c-.1 1.009-1.168 1.368-.917 1.912.419.908.744-.082 1.815-.393.5-.078 1.166-.258 1.6.154a1.316 1.316 0 0 1 .372 1.55 5.4 5.4 0 0 1-.533 1.13c-.337.474-.218.948.6.67.886-.299 1.92.474 2.108 2.04"/>
  <path fill="#e4edf2" d="M113.628 118.567c.379.047-.427.832-.607 2.08-.015.1-.082.128-.161.064-.5-.4-1.112-.624-.985-1.81.013-.128.054-.107 1.753-.334"/>
  <path fill="#ffccce" d="M107.152 131.832c.218.633.737 1.757.126 1.832a24 24 0 0 1-3.077.418c-.649 0-1.358.412-1.659.256a3.5 3.5 0 0 1-2.191-.339c-.557-.884-1.7-.365-2.239-1.751a13.2 13.2 0 0 0-1-2.673c-.251-.441-.7-.319-1.96-1.348-.647-.528-.514-1.607.261-1.291 1.421.578 1.892 1.262 3.046.656a13 13 0 0 1 2.478-.727c1.395-.41 5.354 2.469 6.215 4.967"/>
  <path fill="#ffbf99" d="M109.934 116.016c-.19-.452-1.545-.5-2.142-.328-2.861.81-2.94-1.147-2.161-.991 1.192.239 2.552-.639 3.533-.317.225.056.385.022.351-.206-.123-.8-1.519-.287-2.721-1.536a7.4 7.4 0 0 0-1.208-.362 11.4 11.4 0 0 1-1.877.474.534.534 0 0 1-.078-1.043c1.824-.734 1.891-.5 1.8-.995-.373-2.031-.514-1.448 1.531-4.265a1 1 0 0 0 .087-.374c-.5.121-.318.107-1.5-.272-.993-.32-1.863.262-2.566.423s-.856-.758-.3-1.054c4.494-2.409 5.019 3.1 3.056-4.739-.095-.382-.2-.717-.711-.632a2.66 2.66 0 0 0-2.3.019c-1.791.7-1.925-.358-.578-1.065a3.9 3.9 0 0 1 1.542-.438c.934-.053 1.6.353 1.5-.137-.475-2.394-.467-1.9-.976-1.9a4.3 4.3 0 0 0-2.083.107c-.331.149-.551 0-.668-.341-.26-.773 1.307-1.217 2.125-1.079a3 3 0 0 0 .474.036c.32.019.353-.012.273-.291-1.324-4.628-1.583-4.747-2.135-5.443s-.978 1.8-1.026 2.751c-.05.981-.173.77.732.675.4-.041.543.021.635.332.112.375.031.585-.32.711-1.109.4-1.157-.154-1.3 1.011a31.2 31.2 0 0 0-.355 7.433c.022.176-.095.42.114.474.557.146.7-1.29 3.723-1.253.646.008 1.187.9.663 1.258s-1.306-.391-2.607.363c-1.768 1.025-1.876.542-1.914.985a21.2 21.2 0 0 0 .355 4.905c.095.659.449.26 1.46-.052 1.322-.409 2.028-.41 1.988.386-.033.664-.823.15-2.912 1.216-.443.226-.2.178 1.076 2.89 1.267 2.7.742 2.416 1.984 2.726a18 18 0 0 1 5.949 2.891c.553.368-.255-2.339-.513-2.953M101.127 114.836c.625-.129 1.282.713.786.748a6.7 6.7 0 0 0-2.421.395c-3.221.921-1.428.382-3.772 1.9-.259.167-.223.107-.5-1.659-.058-.365.177-.3.948-1.279s1.51-.588 2.452-1.1c.133-.072.3-.085.289-.31s.064-.4-.175-.536a2.1 2.1 0 0 0-.839.036 4.93 4.93 0 0 0-2.734 1.422.2.2 0 0 1-.32-.112c-.9-4.619-.613-4.307-.157-4.558.853-.47 1.5-1.317 2.161-1.2.188.032.625-.168.607-.443-.012-.183-.09-.739-1.1-.493a8.3 8.3 0 0 0-2.336 1.294c-.328-2.213-.42-5.555-.49-6.625-.042-.635 0-1.022.322-1.149.237-.109.822.523.929.651 1.993 2.395 2.032 2.583 1.611 2.628a2.1 2.1 0 0 0-1.41.775c-.457.488-.3.815-.237.971s.294.34.711-.095c.9-.938 1.66-.825 1.922-.445a14.5 14.5 0 0 1 1.618 3.2c.344.764-.331.264-2.481 1.611-.445.279-.988.948-.746 1.218s.367.342 1.116-.194c.6-.429 2.642-1.66 3.08-.749 1.272 2.646 1.4 2.743 1.038 2.889-.734.3-1.194.354-1.081.831.182.747.839.454 1.209.378"/>
  <path fill="#8fbbd9" d="M96.3 90.164c.211 1.957-1.36 4.086-3.194 3.969-2.334-.149-5.234-3.285-4.171-7.119.3-1.085 1.281-1.055 1.7-1.737.191-.308.258-.27 2.023-.455a.7.7 0 0 1 .354 0 6 6 0 0 1 2.243 1.678 11.9 11.9 0 0 1 1.045 3.664"/>
  <path fill="#ffccce" d="M94.549 133c.8 2.881 2.355 2.388-1.63 2.867-.365-.019-.642-.014-.912-.052-1.659-.235-2.268-2.474-.334-2.469 1.561 0 1.262-1.245 1.912-1.476.272-.1.374-.081.535.17a3.5 3.5 0 0 1 .429.96"/>
  <path fill="#e4edf2" d="M93.537 121.277c.346.048.307-.272-.791 2.775-.251.7-.493.416-2.132.912-.586.178.193-1.241-1.557-1.876-.358-.13-.371-.221-.334-.578.049-.474.325-.413 1.955-.711 3.138-.576 2.634-.499 2.859-.522"/>
  <path fill="#d3ffcf" d="M89.078 128.507c.866.543-1.334.637-2.272 5.039-.4 1.9.611 2.557-.085 2.647a20.4 20.4 0 0 1-4.455.344c-1.9.127-2.018.174-2.315-.022-.416-.275-1.806-.1-1.052-2.165.551-1.507-1.057-1.969-.521-2.3a6.3 6.3 0 0 1 1.019-.571.737.737 0 0 0 0-1.36c-2.511-1.134-2.039-.856-2.329-1.741a1.65 1.65 0 0 0-1.162-1.076c-.672-.237-.651-.064-.63-.564.1-2.313-.8-3.306 2.623-1.32.114.066.614.334.744.275 1.344-.606-.7-1.907-1.82-2.206-2.267-.6-2.7-2.928-2.075-3.08 1.9-.465 1.289-.418 2.9.4.8.4 1.2-.261.947-.692-.352-.592-.9-.613-1.9-1.2a5.1 5.1 0 0 1-1.955-2.145.4.4 0 0 1 .329-.675c.474-.043.948-.237 1.422.057.344.213.888-.412.536-.789a6.5 6.5 0 0 0-2.206-1.284c-1.092-.459-1.453-1.242-2.074-2.313-.436-.753 2.061-.183 2.318-.874.439-1.185-1.563-.948-2.4-3.469-.364-1.093 2.136-.592 2.2-1.374.116-1.448-1.026-.086-1.832-3.919-.167-.8.525-.469 1.491-.218 1.549.4.4-1.775.573-2.758 1.789.874 1.71 3.8 2.085 4.265a.583.583 0 0 0 .824.08c.2-.165.139-.285.754-1.277.457-.736 1.251-.948 1.576-.185 1.136 2.669-.147 5.044.832 5.331.518.153.857-.744 1.08-.744.761 0 .8 3.228.934 4.524.152 1.521-.784 1.533-.593 2.559.077.41.557.758 1.14.052.8-.972 1.261-1.894 1.855-1.116.883 1.156.569 3.8.059 5.234-.018.052-.71 1.36-.734 1.407-.367.709.288 1.989 1.884-.945a.413.413 0 0 1 .737.109 4.9 4.9 0 0 1 .237 2.722 11.2 11.2 0 0 1-.474 2 9 9 0 0 0-.543 1.486c-.028.158.223.781.647.561.817-.424.83-1.474 1.564-.8.619.566.043 1.946-.192 2.791-.155.551-.228.961.309 1.299M84 134.459c.514-.171.341-.6.27-1.235-.389-3.459.286-4.568-.9-7.023-1-2.088-.557-3.3-1.125-4.675s-.554-2.623-1.547-3.649c-1.315-1.358.06-4.382-2.405-8.963a6.3 6.3 0 0 1-.647-2.306.451.451 0 0 0-.884.131c-.123 2.563 1.283 3.065 1.746 5.85a32 32 0 0 1 .51 4.423c.161 1.631 1.056 1.51 1.445 2.832a24 24 0 0 1 .979 3.388A8.3 8.3 0 0 0 82.42 127c.62 1.157.476 2.877.517 5.519a4.1 4.1 0 0 0 .395 1.658.5.5 0 0 0 .668.282"/>
  <path fill="#9adba5" d="M80.695 56.623c.54.618.709.545.7.988a.74.74 0 0 1-.746.713c-.3 0-.54-.283-1.225-.972-3.351-3.366-3.036-5.385-6.061-5.385-2.389 0-5.82 1.722-5.82.393 0-.607.671-1.154 1.87-1.154.324 0 .654.029.981.029 1.049 0 1.076-.363 2.44-.363.756 0 .915-.348.915-.5 0-.2-.059-.4-1.377-1.5-.734-.75-1.576-.47-2.7-.566-.7-.059-1.386-.172-2.078-.237-1.555-.146-2.787-.024-2.8-.846a.647.647 0 0 1 .637-.665c.4 0 1.27.4 1.913.4.592 0 .981-.3 1.736-.3.894 0 2.37.415 2.37-.313 0-1.421-2.34-2.235-2.744-2.521a7.5 7.5 0 0 0-1.689-1.185c-.652-.24-2.873-.256-2.983-.63-.055-.185-.249-.635.158-.694a14 14 0 0 1 2.294.142c1.185 0 2.99 1.505 3 .543.006-.461-4.552-5.462-4.329-6.469a.61.61 0 0 1 .509-.431c.448 0 1.055 1.087 1.621 1.829s1.353 1.334 1.922 2.083c.343.452 1.076 2.12 1.767 3.234 1.16 1.869 1.24 2.107 1.576 2.107.948 0-.241-1.3.441-3.882.148-.561.218-1.4.756-1.047a2.04 2.04 0 0 1 1.376 1.376c.065.929-1.884 4.818.488 7.964.54.6.687.5.947-.33a12 12 0 0 1 1.308-2.3c.149-.254.308-.858.685-.858.183 0 .3.119.455.266 1.654 1.545-1.737 3.736-1.73 5.6.006 1.6 2.159 4.04 3.417 5.481"/>
  <path fill="#fff59e" d="M79.061 80.43a6.8 6.8 0 0 1 .192 3.14c-.111 1.559-3.754-1.727-4.711-2.874-.257-.307-.557-.761-.991-.374a.41.41 0 0 0-.082.573 5.8 5.8 0 0 0 1.369 1.6c1.29 1.022 4.109 3.272 3.763 4.895-.268 1.251.038 1.42-.536 2.059-2.1 2.344-2.815 3.106-5.753 1.457a16 16 0 0 1-2.483-1.3c-6.317-4.081-6.395-3.813-6.871-4.3-.361-.364-1.123 0-.79.443 1.288 1.716 8.593 5.71 9.914 6.853 1.027.888 1.441 1.094.744 1.564a4.94 4.94 0 0 1-4.945.58 28.5 28.5 0 0 0-4.146-1.5c-10.326-3.51-12.355-1.783-15.02-6.161-1.137-1.867-.87-1.658-1.239-4.118.632-3.554.579-3.294.094-3.812-.111-.119-.473.047-.59.256s-.344 1.326-.618 1.895c-.234.488.047 1.339-.562 1.083-.9-.377-1.158-.391-1.421-.848-.79-1.369-1.327-3.023-.612-4.438.828-1.637.755-1.421 2.441-2.467 1.095-.679 1.428-.787 1.263-1.132-.457-.956-1.264.163-1.3-1.007a3.5 3.5 0 0 1 .332-1.6c.2-.417.44.183 1.493 1.076.587.5.511.765.9 1.421.315.536-.587.178-.659 1.813-.029.649.76 2 1.948 1.706.338-.084.689-.123 1.035-.18.384-.064.389-.053.512.379.171.6.241.587 1.341 2.393.511.84 1.124 1.242 3.6 2.879.989.655 1.312.81 1.625.377.556-.771-1.308-1.036-3.838-3.555a5.14 5.14 0 0 1-1.481-5.3 4.7 4.7 0 0 1 1.471-2.73c2.975-2.5 5.874-2.336 9.056-.237.523.345 1.868 1.871 2.794 2.791.581.578 1.365.128 1.026-.426a24 24 0 0 0-1.858-2.118 8.326 8.326 0 0 0-10.333-2.057c-.412.223-1.936-1.218-3.033-.178-.839.8-.734.619-1.659-1.694-.189-.475 1.671-1.2 2.164-1.367a.75.75 0 0 1 .507.05c.21.1.083.725.289.947.838.907.9-.629 1.857-2.642a3.82 3.82 0 0 1 3.216-1.976 7.2 7.2 0 0 1 2.931.363 8.4 8.4 0 0 1 3.6 2.23c3.173 3 2.935 4.868 6.717 8 2.84 2.353 3.128 3.047 4.436 3.952a8.54 8.54 0 0 1 2.901 3.616"/>
  <path fill="#d3ffcf" d="M77.589 133.43c.614.265-.478 1.4.021 2.678.125.32-.128.689-.711.625-1.355-.148-1.618.107-4.108-.047-.612-.038 1.829-1.578-.069-3.77a2.3 2.3 0 0 0-.853-.5c-.635-.267.16-.9-.412-2.452a1.293 1.293 0 0 0-1.545-.926c-.337.064-.365.061-.325-.237.161-1.2-.588-3.586-1.791-3.746a.6.6 0 0 1-.114-.029c-.176-.064-.409.2-.531-.054-.159-.335-.334-4.329-2.2-3.58-1.024.409-.555.374-.789-.422-.344-1.171-1.46-2.525-2.426-1.917-.757.476-.188-.571-1.107-2.242-.837-1.521-1.994-.7-3.407-2.272-.949-1.056 2.186.038 1.725-1.289-.241-.693-.116.049-1.673-2.1-.154-.213-.453-.843-.052-.869a4.5 4.5 0 0 1 .869.123c.55.031.813-.362.548-.843a5 5 0 0 0-.536-.7c-2.969-3.628-.475-2.875.263-2.261a8.5 8.5 0 0 1 1.749 2.05.524.524 0 0 0 .929-.266 6.5 6.5 0 0 1 .151-1.272c.33-1.092 1.23-.187 1.6.893 1.2 3.448.855 4.032 1.474 4.111.682.087.441-.744 1.448-1.405.225-.147.3-.133.4.111 1.036 2.449.39 3.872.7 4.647.364.913 1.072-.023 1.659-.59.949-.916.5 3.876.58 4.182.175.642.645.775 1.15.329.621-.549 1.059-1.3 1.481-.365.471 1.04.109 3.408-.036 4.54-.05.387.211 1.112.8.83s1.2-.849 1.457-.209c.381.934.571 1.389-.017 3.132-.151.451.036 1.2.785 1.095.6-.087 1.388.038 1.388.668 0 2.344-.766 4.132.474 4.05a2.24 2.24 0 0 1 1.051.299m-10.426-11.994c.3.3.851 0 .822-.474a13 13 0 0 0-1.334-2.706 4.07 4.07 0 0 0-1.492-1.469c-1.993-1.172-.949-2.643-3.348-5.061-.576-.58-.765-.623-1.14-.358-.3.212.093.786.237.922a8.3 8.3 0 0 1 2.014 3.6c.734 1.9 2.014 1.894 2.486 2.651a28 28 0 0 0 1.746 2.877Z"/>
  <path fill="#d3ffcf" d="M71.7 133.667a1.106 1.106 0 0 1 .353 1.533 6 6 0 0 0-.742 1.183c-.064.222-.853.109-1.1.082a6.4 6.4 0 0 1-1.8-1.788c-.725-1.991-1.51-1.515-2.133-3.68-.668-2.325-2.008-.966-2.923-3.538a6.3 6.3 0 0 0-1.742-2.265c-.662-.714-.464-1.826-2.18-3.279-.556-.472-.785-1.183-1.369-.777-.4.276.027.951.386 1.289 2.349 2.215 1.034 2.4 2.912 4.113 1.41 1.283.664 2.172 2.369 3.533.614.49 1.2.342 1.422 1.2a6.1 6.1 0 0 0 1.422 2.607c.638.7.944 1.826 1.421 2.222.076.063.116.27-.08.256-5.024-.364-.809.078-6.583-2.18-.71-.278-2.072-1.733.394-1.047.474.132 1.389-.206 1.111-.967-.78-2.133-4.482-1.914-5.251-3.331-.061-.114-.092-.2.088-.254a3.1 3.1 0 0 1 1.206-.237c.41.034.647-.129.711-.379.211-.833-.9-1.162-1.72-1.407-2.447-.733-1.856-1.432-1.2-1.384.474.035 1.152.017 1.225-.445.2-1.3-2.13-1.168-3.424-3.114-.747-1.124 2.7-.056 1.957-1.578-.232-.476-.822-.472-1.63-1.746-1.92-3.027.992-2.086 2.273.18.412.73 1.092.562 1.3-.237.106-.395.257-.779.4-1.163.055-.152.133-.2.313-.109 1.222.6.967 2.606 1.255 3.75.083.33.453.786.609.711.277-.132.589-.261.647-.63.019-.116.289-.682.588-.659a1.4 1.4 0 0 1 .841 1.282c-.065 1.716-.128 2.7.55 2.742.474.025.655-.45.924-.891.145-.238.533-.666.751-.666s.3.4.362.64c.717 2.824.1 2.843.38 3.694a.492.492 0 0 0 .907.132c.223-.286.573-1.306 1.047-.474a3.54 3.54 0 0 1 .379 2.555c-.407 1.754.354 2.158.991 1.68.448-.337.948-1.012 1.135-.147s-.944 3.768.77 3.163c.183-.06.391-.206.478-.175"/>
  <path fill="#e4edf2" d="M61.055 161.645c.472 2.335.545 2.429.474 2.514-.161.173-.037-.264-2.707-.843-6.467-1.4-10.78-2.173-13.227-5.594-1.1-1.541-.537-3.415-.341-4.962a11.5 11.5 0 0 1 2.237-4.99c2.16-3.136 6.528-2.066 10.084-1.41 1.659.306 1.746.339 1.737.73-.022.917.123 1.7.04 1.7 0 1.218.071 1.4-.208 1.329-2.473-.592-5.526-1.776-7.6-1-2.534.947-3.45 5.475-2.005 6.812 2.148 1.987 5.482 1.92 9.893 3.509a2.63 2.63 0 0 1 1.623 2.205M60.479 131.577c.059.022.095.1.14.15-.237.123-1.9.258-1.273 1.791.223.547.171 1.635-.066 1.55a2.94 2.94 0 0 1-1.921-1.6c-.3-.745.4-1.687.947-2.27.351-.379.413-.268 2.173.379"/>
  <path fill="#edcba6" d="M53.789 70.005c.239.168-.147.114-1.024 1.218a8.56 8.56 0 0 0-1.214 4.054c.013.311-.185.3-1.659.536-.376.06-.642-.567-.357-.856a1.55 1.55 0 0 0 .4-2.011c-1.18-2.609-1.924-1.9-2.441-3.171-.441-1.087-1.4-2.947-.848-2.694s1.447-.288 1.294-.746a.57.57 0 0 0-.7-.37c-.618.175-1.287-.479-.8-.748a1.5 1.5 0 0 1 .948-.3c.49.065 1.126-.312 1.322.413.064.237 1.17 6.366 3.113 5.3.682-.368 1.322-1.076 1.966-.625"/>
  <path fill="#ff9c9f" d="M51.757 46.792c.269.473.218.948-.206 2.879a12.4 12.4 0 0 1-1.078 1.876c-1.183 2.347-5.587 4.922-7.646 5.471-6.674 1.78-15.281-2.843-15.719-8.679-.183-2.431-.652-2.016-.727-3.673-.238-5.191 3.213-8.342 4.061-9.589 2.047-3.009 7.3-4.685 10.662-3.051 2.094 1.017 2.463 1.321 4.386 4.411.147.237.13.14.062.474-.451-.391-.486-1.511-2.742-2.76-.834-.462-.983-.71-1.836-.569-.344.057-.3.768.047.969.4.233 1.427 3.013 1.465 3.114a4.3 4.3 0 0 1 .4 1.644 4.79 4.79 0 0 0-3.177 1.772c-.536.659-.787 1.022-.422 1.564.237.282.711-.1 2.5.183.3.048.992-.3.773.213a6.42 6.42 0 0 0 .121 4.976.632.632 0 0 0 1.184 0c.875-2.181.6-1.819 1.5-2.844.776-.884.523-.778 1.422-.071 1.164.917 2.371 2.156 2.81 2.42a.68.68 0 0 0 1.1-.586 18 18 0 0 0-.521-3.414c.2-.053.075.1.291.358 1.161 1.395.733 1.925 1.29 2.912"/>
  <path fill="#9adba5" d="M49.407 40.264c1.685.66 1.789 1.272 1.71 1.656a20 20 0 0 1-2.22-.028c-.985.113-1.028.452-.507.924a3.85 3.85 0 0 1 1.116 3.317c-2.106-1.471-3.166-3.458-4.028-2.457a28 28 0 0 0-2.2 2.831c-.436-.618.029-2.989.267-3.667.145-.413.448-.946-.248-.993a109 109 0 0 0-1.96-.076c-.237-.006-1.134.041-1.04-.073a4.18 4.18 0 0 1 2.493-1.327c.781-.133 1.37.009 1.035-.825a35 35 0 0 0-.983-3.331c-.062-.164-.65-1.088-.526-1.306a4.08 4.08 0 0 1 2.02 1.791c.7 1.337.837 2.369 1.422 2.035.474-.424.56-2.109.538-3.016a.8.8 0 0 1 .168-.522c.178-.161.417.346.54.647a7.2 7.2 0 0 1 .611 3.6c.06.716.745.41 1.792.82M45.67 42.25c.573.138.86-.769.367-1.043-.665-.37.161-1.123-.8-1.144-.65-.178-1.546 1.71.433 2.187"/>
  <path fill="#000" d="M166.4 43.1c3.858 3.688 18.5 19.362 14.726 22.805a18.4 18.4 0 0 1-4 3.2c-1.415.668-4.4.218-5.789-.3a20.7 20.7 0 0 1-4.371-2.187c-1.024-.687-1.657-.588-3.87-2.175-10.542-7.56-17.319-12.475-29.954-24.744-6.3-6.118-21.765-20.243-22.751-28.284-.394-3.208 2.3-6.79 5.923-6.376 8.836 1.009 30.277 19.979 30.748 19.477 3.574-3.809-.71-9.649 7-10.641 3.741-.482 10.843 3.664 12.873 8.731 1.264 3.154 1.658 6.626-.971 8.8-.524.433-.711.522-3.5 1.213a4.53 4.53 0 0 0-3.506 1.867c-.56.777-.547.733-.249.948 2.22 1.592 6.477 6.501 7.691 7.666m13.29 22.567c.515-.373 1.024-.832.905-1.474-1.286-6.927-14.691-20.2-19.663-25.177-.882-.883-2.817-3.222-3.1-2.756a4.4 4.4 0 0 0-.81 2.411c-.32 2.126-.837 2.4-1.7 2.529-2.073.321-5.13-1.693-6.215-2.547-6.344-4.99-6.693-6.935-7.283-8.117s-.455-3.2 1.03-3.363a6.66 6.66 0 0 0 3.026-1.561c.178-.123.175-.224 0-.356-1.923-1.456-29.311-23.577-31.38-18.442-3.808 9.465 37.121 43 45.1 48.928 3.984 2.963 8.587 6.861 13.093 8.623.558.218 4.441 1.541 5.265 1.438 1.511-.003 1.493.034 1.732-.14ZM175 68.235c1.17.043 3.137-1.05 2.682-1.183-6.226-1.819-5.1-.349-17.314-9.322a240 240 0 0 1-31.89-27.85c-14.175-14.3-14.257-17.6-15.638-22.244a4.17 4.17 0 0 0-1.31 4.141c1.124 3.08 1.531 4.282 5.686 9.715 4.991 6.525 25.121 26.3 37.706 35.336 4.673 3.354 9.594 7.312 12.629 8.811a23 23 0 0 0 2.827 1.614 14.3 14.3 0 0 0 4.622.982M155.607 18.5c3.191 5.3 11.331 10.35 10.952 7.876-.134-.869.057-4.087-4.415-7.933-6.191-5.324-12.316-3.616-12.065.68.171 2.919 3.156 6.279 4.843 7.623 3.142 2.5 6.188 5.747 10.289 3.618a2.22 2.22 0 0 0 1.087-1.583c.145-.576-.5.079-2.843-1.341-5.951-3.6-10.633-9.74-8.556-10.023.646-.092.538.797.708 1.083m4.027 13.814c.806-.431-3.646-.637-9.546-5.571-1.366-1.141-1.615-2.353-2.048-1.755a9.1 9.1 0 0 1-4.613 3.092.71.71 0 0 0-.68.566c-.452 3.388 5.181 7.583 7.909 9.641a7.4 7.4 0 0 0 4.114 1.64c.947.057.893-.545 1.22-2.069a9.6 9.6 0 0 1 1.853-3.788 5.6 5.6 0 0 1 1.78-1.756ZM156.915 128.454c5.417 0 9.077 6.967 9.077 9.864 0 7.765-14.766 11.094-14.766 14.544 0 1.294 1.9 10 1.9 14.735 0 8.438-4.333 11.842-7.976 14.523C129.555 193.592 98.331 195 92.862 195c-21.325 0-26.885-8.39-28.625-16.245-.834-3.765-1.183-7.556-1.578-10.091-.217-1.391-.175-2.309-.889-2.858-3.258-2.509-18.126-1.748-18.126-10.688 0-1.01.6-10.625 8.672-10.625a52 52 0 0 1 6.611.872c.237 0 .146-.237-.08-1.853a2.1 2.1 0 0 0-.183-.841c-.475-.71-1.926-.21-2.969-4.976a13.7 13.7 0 0 1-.358-2.695 7.86 7.86 0 0 1 1.131-3.767c.356-.521.812-.711.812-.972 0-.2-.288-.4-.4-.54a1.88 1.88 0 0 1-.439-1.118c-.02-.777.548-.78.548-.948s-2.022-.7-2.022-2.4c0-.744.562-.9.562-1.085s-.348-.147-1.159-.9a3.27 3.27 0 0 1-1.17-2.1c0-.818.68-1 1.27-1.316a7.66 7.66 0 0 1-1.448-3.037c-.421-2.194 2.62-2.01 4.078-.256.2.237.335.424.474.208.395-.615-.2-.326-1.3-1.71a2.13 2.13 0 0 1-.434-1.135c-.088-.95 1.57-.794 1.147-1.3a5.7 5.7 0 0 1-1.107-1.995.986.986 0 0 1 .55-1.266c.426-.255.432-.241.13-.647a5 5 0 0 1-1-2.606c-.047-.639.056-.707.628-.976a2.35 2.35 0 0 1 2.052.054 4.7 4.7 0 0 1 1.625 1.256c.415.386.275-.346.8-.694 1.734-1.149 3.184 1.084 3.554 3.094a7.4 7.4 0 0 0 .358 1.114c1.829-.905 1.859-1.168 2.708.948.867 2.161.292 3 .848 2.781.761-.3 1.182-.353 1.621.538.68 1.38.4 3.261.526 3.427.2-.081.391-.164.588-.237 1.34-.5 2.063 1.324 2.18 2.748.046.567-.067 1.82-.076 2.329-.005.275.161.165.564.088.125-.024.166-.105.109-.211a3.23 3.23 0 0 1-.214-1.559 1.71 1.71 0 0 1 .5-1.227c.782-.9 1.611.244-.023-2.038a2.27 2.27 0 0 1-.311-1.585.92.92 0 0 1 .363-.588c.6-.557-.365.283-2.2-3.08-.323-.592-.469-1.531.422-1.841l.765-.28c-.085-.291-1.405-1.552-1.405-3.1 0-1.493 1.552-1.355 1.552-1.6a9.16 9.16 0 0 1-1.168-3.983c0-.675.265-.99 1.04-.99.531 0 .725.083.948.083.474 0 .057-.524.057-1.474 0-1.711 2.212-1.6 3.35.87.417.905.379 1.4.595 1.4s.127-.639 1.592-.917a4 4 0 0 1 .585-.078c1.453 0 1.851 3.57 1.851 4.293 0 .142-.029.261-.029.4 0 .54.6.37.915.512 1.42.636 1.279 5.213 1.455 5.646.108.268.538.019 1.049.019 1.659 0 1.863 3.438 1.863 4.241 0 .389-.123.948-.123 1.166 0 .443.557.329.812.505.686.472.972 2.111.972 3.042 0 .3.054.521.346.521.023 0 3.535-.544 4.423-.725.628-.127 1.2-.092 1.2-.893A89.4 89.4 0 0 1 92.7 101.9c0-.988.093-1.208.215-1.383.544-.78 1.967-.358 2.37.4a23.4 23.4 0 0 1 3.874 5.547c.045.09.135.357.26.357.214 0 0-.6.017-3.663.028-5.026.719-9.278.753-10.935a10 10 0 0 1 .218-1.7c.146-.733.471-2.5 1.685-2.5 1.479 0 2.533 3.89 3.516 7.9 1.045 4.265 1.988 8.675 2.453 8.675.3 0 .537-.5 2.684-5.493.4-.924-.161-.566-.381-1.618a2 2 0 0 0-.116-.51 3.56 3.56 0 0 1-.905-2.272c0-.7.682-1.113.682-1.4s-.5-.133-1.083-.756c-.476-.51-.474-.725-.474-.746a1 1 0 0 0 .022-.152c0-.573-1.2-.846-1.206-2.526a2.6 2.6 0 0 1 .924-2.011c.409-.342 1.1-.421 1.014-1.2 0-.836.779-.931 1.2-1.421.437-.51.491-1.565 1.895-2.251.472-.231 2.509-.213 3.111-.474s1.659-1.63 2.27-1.63a2.23 2.23 0 0 1 1.311.6c.236.2.334.486.767.486.346 0 .609-.161 1.085-.161 1.007 0 1.185.682 1.7.682.474 0 .9-.5 1.6-.5 1.36 0 2.417 2.044 2.751 2.319s.785.119 1.164.256a2.8 2.8 0 0 1 1.184 1.126c.678.953.792 1.338.792 1.817 0 1.448.661 1.076.948 2.05a3.6 3.6 0 0 0 .18.744c.147.286.474.421.611.71.091.192.028.425.149.6.3.439 1.119.351 1.119 1.6 0 1-.365 1.353-.365 1.874s.4.4.744.948a3.5 3.5 0 0 1 .407 1.744c-.033 1.788-1.21 1.559-1.21 2.369 0 .261.127.474.127.784 0 .711-.689.964-1.059 1.422-.155.193-.2.438-.367.63-1.423 1.6-1.749 1.611-2.549 1.789-3.013.67-2.871-.441-3.3-.441-.4 0-.685 1.9-2.353 1.9-.438 0-.711-.171-1.111-.171-.661 0-.988.365-1.578.365-.424 0-.635-.2-.948-.2-.237 0-.341.076-1.208.853-4.5 4.029-3.058 4.944-5.2 6.651-2.809 2.235-3.1-.669-1.844 3.791.273.971.012.843 2.9.53a2.2 2.2 0 0 0 1.483-.568c2.2-1.4 3.694-1.005 3.694-1.5 0-.382-1.033-.607-1.033-1.6 0-1.317 1.817-2.948 3.623-2.948 1.955 0 2.315 1.763 2.985 1.763.379 0 1.685-1.346 3.888-1.346a13 13 0 0 1 3.221.654c.236.1.187.389.77.536 1.09.275 2.767-.422 5.582 2.308.31.3.614.763 1.021.926.443.178 5.437.039 7.909 3.116 1.328 1.652 1.813 4.749 1.813 6.874a5.35 5.35 0 0 1-.948 2.694c-.237.3-.613.474-.613.947 0 .387.118.326.308 1.958.027.237.033.619.3.616.512-.007 4.997-3.281 8.767-3.281m-4.571 21.112c3.53-2.292 14.78-7.278 11.99-13.148a13.2 13.2 0 0 0-2.261-3.909c-1.852-1.84-2.54-2.417-3.741-2.754-3.08-.864-5.674.843-9.805 3.128-.35.194-.07.284-.021.455.914 3.161.756 3.036 1.123 2.76.546-.409 1.116-.689 2.187-1.374 2.291-1.465 4.674-2.577 6.713-.775 1.307 1.155 2.542 3.355 1.786 4.933-.872 1.82-1.517 1.729-8.331 6.27a2.59 2.59 0 0 0-.981 2.305c.356 3.985.036 2.957 1.341 2.109m6.052-10.113c1.275-.929 1.06-2.418.147-3.633-2.438-3.243-5.024-.49-9.53 2.051-.256.144 0 .361.194 1.559.324 2.036.665 4.589.775 5.163.074.386.1.309 2.761-1.422 5.973-3.887 5.392-3.528 5.657-3.718Zm-6.431 29.759a23.1 23.1 0 0 0-.211-5.62c-.841-5.129-4.871-31.309-5.24-33.413-.068-.391-.1-.331-.98.095-9.364 4.531-23.834 8.853-33.192 10.622-.1.02-.339.068-8.293 1.277-13.446 2.046-7.52.891-13.361 1.479-11.781 1.185-17.628 1.937-29.973 1.291-.5-.026-.438-.263-.081 2.318.619 4.461 1.526 8.818 1.659 10.067.05.474 2.174 15.421 2.31 16.222.841 4.954 1.246 9.2 4.689 12.868a18.67 18.67 0 0 0 10.021 5.514c7.15 1.836 15.3 1.932 22.26 1.21 16.228-1.682 7.367-.6 19.141-2.926 6.255-1.236 5.627-1.042 9.511-2.369 5.424-1.855 14.071-5.547 17.889-9.815a14.05 14.05 0 0 0 3.851-8.82m-4.051-44.071c.065-.924-.237-4.075-.756-4.287-.18-.073-.306.789-.619 1.082a8.3 8.3 0 0 1-2.829 2.092c-12.521 6.231-20.924 7.367-31.177 10.07-4.393 1.159 1.251.073-9.309 1.623-14.193 2.084 3.08.419-24.51 2.216-3.175.207-16.7-.552-19.254-1.483a15.5 15.5 0 0 1-1.85-.839c-.661-.363-.578-.877-.995-.82l-.109.687c.689 5.324.9 6.322 9.037 7.092a106.4 106.4 0 0 0 22.092 0 68 68 0 0 0 12.771-1.379c4.028-.785 11.883-1.293 18.956-3.407 2.242-.671 7.106-1.234 15.368-4.341 13.436-5.054 13.03-6.127 13.184-8.306m-1.965-4.662c.485-1.126-.3-1.963-1.388-2.52a17.3 17.3 0 0 0-3.832-1.069c-1.383-.045.027.6.318 2.448a.9.9 0 0 0 .827.77c1.118.149 2.416.6 2.732 1.692.129.445 1.072-.691 1.343-1.321m-6.94 4.395c2.762-1.182 2.7-1.08 2.457-1.6-.454-.995-1.354-2.438-1.644-3.251-1.386-3.891-3.331-6.627-7.431-6.336-2.388.17-5.453 2.281-5.551 2.775-.047.237.116.418.258.874.233.746.237.711 1.036.671a8 8 0 0 1 2.409.1 7 7 0 0 1 3.1 1.2c1.151 1.118 1.095 1.959 1.773 2.957.734 1.08-.756 2.014-1.256.488a9 9 0 0 0-.924-1.7 2.89 2.89 0 0 0-1.957-1.289 6.4 6.4 0 0 0-2.488-.374 5.1 5.1 0 0 0-1.856.194 10.1 10.1 0 0 0-3.182 2.163c-1.108 1.843-1.6 2.335-1.286 6 .035.4.308 1.056-.41 1.119-1.055.092-1.147-2.649-1.088-3.521.312-4.58 2.947-4.845 2.474-5.59-.613-.963-.8-2.232-2.173-2.879-1.164-.548-2.812.079-3.229.133a3.2 3.2 0 0 0-1.278.564c-.923.287-2 1.875-2.355 3.035-.511 1.66.241 1.8.429 2.062 1.8 2.521 2.8 3.791 2.971 6.634a7 7 0 0 1 .173 1.927c-.083.39.336.074 2.685-.325a36 36 0 0 0 4.447-1.126c8.919-2.511 7.756-2.689 9.478-3.2 1.1-.336 3.319-1.235 4.418-1.705m-6.336-28.293c.125-1.351-2.165-1.046-1.284-2.209a3.55 3.55 0 0 0 .548-1.881c.082-.744-1.533.14-1.282-1.272a.3.3 0 0 1 0-.059c.362-.711-.752-.65-.725-1.778.027-1.168-1.86-.573-1.107-2.014.363-.694-.282-1.435-.694-1.985s-.659-.609-1.358-.391c-.571.178-.962-.116-1.031-.73s-.4-.9-1.007-1.531c-1.239-1.286-2.208 1.663-3.08.072-.478-.873-1.094-.692-1.94-.195-.607.356-1.114.168-1.221-.528-.1-.63-.788-.823-.947-.711-1.342.942-1.036 1.078-1.159 1.557-.269 1.047-1 .947-1.3.31a.5.5 0 0 0-.318-.185c-1.962.19-2.149.237-2.4.436-1.491 1.184.412 1.59-1.658 2.2-.948.28.4 1.423-1.235 1.965-.9.3-1.32.86-1 2.047.118.436.475.539.694.668.923.542-.063.992.678 1.514.934.658 1.815-.41 2.147-.656.741-.55 1.637.031 1.507.474-.224.762-1.332-.062-1.23 1.094.107 1.221-.491 1.156-1.436 1.37-.185.042-.464.33-.429.5a8.4 8.4 0 0 0 .3 1.066c.024.071.14.128.225.156 1.185.4.19 1.139.583 1.671.255.344.558.65.846.969a2.3 2.3 0 0 0 1.031-.1.49.49 0 0 1 .58.061c.73.5-.32 1.333 1.1 1.363.8.017 1.368-.237 1.474-1.015.145-1.066 1.283-.792 2.132-1.405.277-.2 1.3.361.176 1.315-.713.607-.913.538-.593.967.531.711 1.19.831.711 1.5-.129.181-.618.607-.595.711.422 1.871.794.3 1.628 1.315.388.473-.686.866-.085 1.149 1.014.479 1.289-.558 2.789-.073a1.18 1.18 0 0 0 1.5-.872 11 11 0 0 1 1.132-1.983c.391-.82 1.632.217 1.315 1.1-.2.544-.161.44.635.59 1.422-.306 2.045-.162 2.912-1.327.354-.475-.222-.526.356-1.142.47-.5 1.055-.06 1.014-.65-.033-.473-.529-1.4.459-1.852.897-.399.595-1.087.642-1.596m-3.473 16.546c1.292-.652 1.659-.5-.606-.846-1.834.341-1.031-.037-2.966 1.075-.272.157-.2.193.488 1.678.298.638.115-.409 3.084-1.907m-3.284 5.343c.285-.14.178-.219-.329-1.422-1.9-4.506-1.658-4.065-2.483-3.317-1.235 1.118-1.606-.239-1.017-.768.964-.864.647-.9-.2-1.144a2.81 2.81 0 0 0-2.338 1.372c-.533.725.217.488 1.729 1.625 5.172 3.884 1.905 4.995 4.64 3.654Zm-9.655-11.644c2.014-2.051 2.521-2.106 1.995-2.388a2.4 2.4 0 0 1-1.467-2.72c0-.548-.22-.361-.41-.614-.06-.08-1.9 1.207-3.113-.159-.361-.4-.911.108-1.841-.436-.6-.347-.936 3.077-4.045 7.346-.776 1.065-1.745 1.373.026 3.577.779.97 2.064 1.093 3.284 1.356.87.187 1.527-.53 2.3-1.209.549-.479.616-2.048 3.273-4.753Zm-2.68 25.775c3.182-.891 3.6.172 2.931-3.618a6.04 6.04 0 0 0-.832-2.917c-2.561-4.134-3.1-4.089-7.047-6.931a17.3 17.3 0 0 0-3.229-1.54 13 13 0 0 0-2.673-.711c-1.559-.331-1.7.147-3.343.344a4.93 4.93 0 0 0-3.194 2.133 21 21 0 0 0-1.566 3.151c-1.958 4.965-1.754 4.605-4.813 7.625a6.54 6.54 0 0 0-1.943 5.039c.266 1.062.114.948 1.166.948 0 .083-.132.074 1.045-.054.1 0 .159-.072.069-.142a3.3 3.3 0 0 1-.609-.932c-.626-.96.313-2.636 2.054-2.722.948-.047.711-1.817 2.716-1.339.663.158.511.419 1.5 2.474.834 1.731 1.014 1.97 1.671 1.817 1.757-.41 1.808-.308 1.528-.647-.448-.542-1.249-.332-1.988-2.2-.451-1.145-.236-1.928-1.277-2.509-3.614-2.021-1.876-4.662-.038-3.962 1.3.494 1.644 1.023 2.588.545a5.17 5.17 0 0 1 5.416.047 12.57 12.57 0 0 1 4.334 4.471c1.084 1.788.569 2.569 1.156 2.462 1.464-.269 2.942-.433 4.38-.833Zm-.562-11.954c.18-1.248.986-2.033.607-2.08-1.7.237-1.74.206-1.753.334-.127 1.184.484 1.426.985 1.81.087.065.148.04.163-.064Zm-2.57-1.674c.553.366-.259-2.343-.517-2.957-.19-.452-1.545-.488-2.133-.321-2.885.821-2.927-1.151-2.16-.99 1.182.248 2.551-.64 3.532-.318a.6.6 0 0 0 .176.014c.154 0 .2-.064.175-.22-.121-.8-1.519-.287-2.727-1.517a7.4 7.4 0 0 0-1.209-.362 13 13 0 0 1-1.876.474.534.534 0 0 1-.078-1.043c1.823-.734 1.893-.5 1.8-1-.383-2.029-.514-1.445 1.531-4.265a1 1 0 0 0 .088-.374c-.5.121-.327.106-1.5-.273-.992-.32-1.895.27-2.566.424s-.855-.758-.3-1.054c4.5-2.416 5 3.1 3.057-4.739-.095-.381-.2-.715-.711-.633-.171.028-.821-.694-2.762.221-.938.442-1.556-.41-.278-1.174 1.966-1.174 3.355.064 3.21-.667-.474-2.393-.473-1.9-.976-1.9a4.26 4.26 0 0 0-2.083.107c-.331.149-.551 0-.668-.341-.261-.767 1.313-1.219 2.135-1.081a3 3 0 0 0 .474.036c.32.019.353-.012.273-.292-1.324-4.627-1.583-4.758-2.133-5.449s-.978 1.807-1.026 2.751c-.049.98-.173.77.732.675.391-.041.542.021.635.332.111.369.032.581-.32.71-.946.348-1.127-.017-1.241.614-.017.095-.356 2.91-.391 3.317a18 18 0 0 0-.064 3.431c.017.218.028 1.043.033 1.085.02.164-.1.413.114.474.553.161.7-1.273 3.722-1.253.647 0 1.149.912.664 1.258s-1.3-.393-2.607.363c-1.769 1.023-1.876.542-1.914.985a21 21 0 0 0 .355 4.905c.1.673.449.261 1.46-.052 1.322-.409 2.028-.41 1.988.386-.034.663-.823.15-2.912 1.216-.443.225-.2.178 1.075 2.89 1.533 3.255.434 2.167 3.071 3.045a18.2 18.2 0 0 1 4.854 2.562Zm-3.173 14.691c.611-.072.092-1.2-.126-1.832-.861-2.5-4.82-5.369-6.208-4.972a12.3 12.3 0 0 0-2.478.727c-1.16.61-1.638-.075-3.058-.651-.776-.315-.908.763-.261 1.291 1.263 1.029 1.709.907 1.96 1.348a13 13 0 0 1 1 2.673c.53 1.377 1.682.867 2.239 1.751a3.5 3.5 0 0 0 2.191.339c.3.156 1-.261 1.659-.256a25 25 0 0 0 3.084-.418Zm-5.365-18.08c.5-.03-.161-.877-.786-.748-.37.076-1.035.377-1.216-.357-.116-.474.347-.533 1.081-.831.358-.146.235-.236-1.038-2.889-.432-.9-2.473.318-3.08.749-.751.533-.842.474-1.116.2s.3-.942.746-1.218c2.16-1.343 2.821-.856 2.481-1.612a14.6 14.6 0 0 0-1.619-3.2c-.26-.379-1.019-.49-1.921.445-.42.436-.647.271-.711.095s-.218-.474.237-.971a2.1 2.1 0 0 1 1.41-.775c.421-.045.381-.237-1.611-2.628-.107-.128-.683-.755-.929-.651-.32.134-.365.514-.323 1.149.074 1.1.156 4.364.491 6.625a8.2 8.2 0 0 1 2.336-1.294c1.009-.241 1.087.311 1.1.493.018.275-.42.474-.607.443-.656-.108-1.308.735-2.161 1.2-.453.249-.75-.063.157 4.559a.2.2 0 0 0 .231.154 5.37 5.37 0 0 1 2.823-1.465 2.1 2.1 0 0 1 .839-.035c.237.132.161.3.175.535s-.156.238-.289.311c-.944.512-1.659.1-2.453 1.1s-1 .915-.947 1.279c.276 1.754.239 1.82.5 1.659 2.378-1.471.561-.949 3.772-1.895a6.2 6.2 0 0 1 2.43-.427Zm-8.994 20.287c3.985-.474 2.422.021 1.621-2.86a3.6 3.6 0 0 0-.429-.96c-.162-.251-.264-.269-.536-.17-.65.234-.35 1.479-1.912 1.476-1.933 0-1.318 2.263.334 2.469.281.035.559.026.924.045Zm-.173-11.819c1.1-3.047 1.128-2.72.782-2.768-.225.024.277-.064-2.862.515-1.631.3-1.906.237-1.955.71-.037.358-.024.449.334.579 1.75.635.971 2.053 1.557 1.876 1.652-.498 1.9-.215 2.146-.912Zm-5.94 9.494c.929-4.4 3.125-4.491 2.263-5.032-.533-.335-.451-.745-.285-1.294.255-.839.811-2.225.192-2.791-.734-.671-.746.379-1.564.8-.424.22-.675-.4-.646-.562a7.7 7.7 0 0 1 .542-1.485 15 15 0 0 0 .474-2 4.8 4.8 0 0 0-.237-2.722.413.413 0 0 0-.737-.109c-1.708 3.132-2.167 1.468-1.883.945.025-.047.71-1.355.734-1.407.5-1.441.828-4.081-.059-5.234-.592-.769-1.054.143-1.855 1.116-.585.709-1.064.357-1.14-.052-.191-1.027.745-1.038.592-2.559-.13-1.3-.173-4.524-.933-4.524-.223 0-.562.9-1.081.744-.979-.287.306-2.663-.831-5.331-.325-.761-1.119-.552-1.576.185a12 12 0 0 0-.6 1.08.585.585 0 0 1-.978.116c-.381-.486-.3-3.4-2.085-4.265-.176.984.98 3.146-.574 2.758-.963-.24-1.658-.58-1.49.218.8 3.834 1.941 2.472 1.831 3.919-.059.782-2.563.282-2.2 1.375.839 2.511 2.843 2.277 2.4 3.469-.256.691-2.753.121-2.317.874.62 1.071.981 1.855 2.073 2.313a6.4 6.4 0 0 1 2.206 1.284c.353.377-.192 1-.535.789-.475-.3-.948-.1-1.422-.057a.4.4 0 0 0-.329.675 5.13 5.13 0 0 0 1.954 2.145c1 .592 1.552.611 1.9 1.2.25.431-.156 1.1-.948.692-1.607-.82-1-.868-2.9-.4-.623.153-.191 2.479 2.076 3.08 1.123.3 3.164 1.6 1.82 2.206-.131.059-.63-.209-.744-.275-3.419-1.986-2.525-.993-2.623 1.32-.021.5-.043.336.63.564a1.65 1.65 0 0 1 1.161 1.075c.29.886-.182.608 2.329 1.742a.739.739 0 0 1 0 1.36 6.3 6.3 0 0 0-1.019.571c-.535.329 1.073.792.522 2.3-.754 2.062.636 1.894 1.052 2.166.3.2.421.149 2.315.021a18.8 18.8 0 0 0 4.454-.343c.685-.096-.328-.758.073-2.66Zm-9.2 2.55c-.5-1.281.588-2.415-.031-2.671a2.4 2.4 0 0 0-1.054-.305c-1.244.052-.474-1.706-.474-4.05 0-.63-.787-.755-1.388-.668-.749.109-.936-.644-.785-1.094.588-1.744.4-2.2.017-3.133-.261-.639-.834-.09-1.457.209s-.851-.443-.8-.83c.145-1.132.5-3.5.035-4.539-.42-.931-.859-.185-1.481.364-.5.446-.974.313-1.149-.329-.083-.3.367-5.1-.58-4.182-.584.566-1.292 1.5-1.659.59-.31-.774.349-2.2-.7-4.646-.1-.238-.176-.259-.4-.112-1.007.661-.766 1.489-1.448 1.405-.619-.075-.278-.663-1.474-4.111-.374-1.08-1.275-1.985-1.6-.893a6.6 6.6 0 0 0-.152 1.272.523.523 0 0 1-.581.459c-.586-.07-.534-.952-2.1-2.243-.746-.616-3.232-1.367-.263 2.261a5 5 0 0 1 .535.7c.266.474 0 .874-.547.843a4.6 4.6 0 0 0-.869-.123c-.4.026-.1.656.052.87 1.556 2.15 1.423 1.407 1.672 2.1.477 1.324-2.675.237-1.724 1.289 1.421 1.574 2.57.752 3.407 2.273.919 1.67.349 2.72 1.106 2.241.965-.61 2.081.747 2.427 1.917.235.8-.237.832.789.422 1.869-.748 2.043 3.245 2.2 3.58.122.255.355-.01.531.054a.5.5 0 0 0 .114.029c1.2.16 1.95 2.542 1.791 3.746-.04.306-.013.305.325.237a1.29 1.29 0 0 1 1.544.926c.575 1.553-.222 2.185.413 2.453a2.3 2.3 0 0 1 .853.5c1.895 2.192-.543 3.732.068 3.77 2.491.154 2.754-.1 4.109.047.606.062.859-.308.734-.624Zm-5.561-.9a1.1 1.1 0 0 0-.363-1.521c-.082-.036-.291.108-.473.171-1.725.588-.588-2.318-.77-3.164s-.687-.188-1.135.147c-.637.476-1.4.075-.991-1.68a3.53 3.53 0 0 0-.379-2.554c-.48-.84-.823.182-1.047.474a.492.492 0 0 1-.908-.133c-.284-.85.311-.862-.379-3.694-.058-.236-.1-.616-.355-.613s-.6.419-.751.665c-.265.444-.451.917-.924.891-.678-.036-.615-1.026-.55-2.741a1.4 1.4 0 0 0-.841-1.282c-.3-.024-.57.543-.588.659-.058.369-.37.5-.647.63-.157.075-.526-.381-.609-.711-.289-1.149-.033-3.156-1.256-3.751-.18-.087-.257-.042-.312.109-.139.385-.291.768-.4 1.164-.214.808-.891.975-1.306.237-1.274-2.269-4.187-3.211-2.272-.18.81 1.282 1.4 1.263 1.63 1.746.729 1.529-2.7.455-1.957 1.578 1.3 1.947 3.626 1.817 3.424 3.113-.074.474-.758.478-1.225.446-.659-.045-1.254.664 1.2 1.384.818.24 1.946.578 1.72 1.407-.069.251-.311.412-.711.379a3.1 3.1 0 0 0-1.206.237c-.18.057-.149.14-.088.254.77 1.421 4.471 1.2 5.251 3.331.278.76-.628 1.1-1.111.967-2.468-.68-1.1.77-.394 1.047 5.773 2.261 1.559 1.816 6.583 2.18.2.014.155-.194.08-.256-.478-.4-.78-1.527-1.421-2.222a5.9 5.9 0 0 1-1.422-2.607c-.256-.858-.816-.713-1.422-1.2-1.691-1.368-.95-2.247-2.369-3.533-1.882-1.706-.538-1.917-2.912-4.114-.356-.329-.784-1.013-.387-1.289.584-.4.816.313 1.37.778 1.723 1.444 1.514 2.558 2.18 3.279a6.3 6.3 0 0 1 1.741 2.265c.916 2.571 2.255 1.213 2.924 3.538.624 2.165 1.411 1.689 2.133 3.679a6.5 6.5 0 0 0 1.8 1.789c.237.027 1.033.14 1.1-.083a6 6 0 0 1 .751-1.212Zm-10.52 28.959c.079-.083 0-.179-.474-2.514a2.62 2.62 0 0 0-1.624-2.2c-4.414-1.583-7.745-1.522-9.893-3.509-1.445-1.337-.528-5.867 2.005-6.812 2.075-.775 5.128.408 7.6 1 .279.067.208-.111.208-1.329a16 16 0 0 0-.04-1.7c.005-.391-.083-.424-1.737-.73-3.554-.656-7.917-1.722-10.084 1.41a11.4 11.4 0 0 0-2.237 4.99c-.192 1.548-.76 3.421.341 4.962 2.447 3.421 6.76 4.191 13.227 5.594 2.674.583 2.546 1.018 2.714.842Zm-.7-5.686c.353.092.353-.033.173-1.078-1.032-6.006-.659-5.784-1.05-5.874-6.636-1.537-8.185-2.315-9.477.547a4.3 4.3 0 0 0-.391 1.569c.142 2.2.033 2.052 10.731 4.843Zm-.213-26.746c-.045-.053-.071-.135-.13-.157-1.761-.647-1.818-.756-2.164-.381-.545.59-1.255 1.524-.948 2.27a2.95 2.95 0 0 0 1.922 1.6c.237.086.293-1 .066-1.549-.626-1.526 1.033-1.656 1.263-1.779ZM135.51 57.085c.083.421.111.85.142 1.1a49 49 0 0 1-.8 5.213c-.517 2.314.024 1.358-1.472 4.047-.5.9-2.172 3.2-2.384 3.5-.477.692-.71.908-1.1.827-.583-.12-.426-.743-.116-1.185 3.592-5.116 3.4-4.106 4.4-9.539.348-1.9.546-3.014.144-4.114-.161-.442-.786-2.3-.819-2.506-.043-.263.1-.7.237-.74.568-.172 1.68 2.956 1.768 3.397M130.546 57.386c.031 7.821-3.38 11.446-5.666 14.432-.181.236-.355.471-.71.419-1.617-.236 1.39-2.831 2.876-5.224a18 18 0 0 0 2.339-9.1c0-5.061-1.534-6.222-3.943-10.084a5.4 5.4 0 0 0-2.32-1.848c-.763-.388-1.2-.033-1.068-.858.113-.711 2.425 0 3.6 1.142a33 33 0 0 1 3.021 4.277 8.83 8.83 0 0 1 1.571 4.014 12.5 12.5 0 0 1 .3 2.83"/>
  <path fill="#000" d="M128.347 99.024c.668-.522 1.221-.152 1.185.213a1.62 1.62 0 0 1-1.53 1.132 2.1 2.1 0 0 1-.839-.4.5.5 0 0 1 .555-.819.58.58 0 0 0 .629-.126M129.113 93.989a4.6 4.6 0 0 1 .016 1.563c-.08 2.161-2.072 1.465-1.474.493.042-.069.4-.346.346-.5a1.5 1.5 0 0 1 .043-.81c.033-.218-.128-1-.138-1.261s0-.329-1.135-.907c-.632-.322-.372-.611-.474-1.232-.594.109-.713.366-1.163.22-.706-.229.185-1.58 1.688-1.257.5.106.709.339.636 1.037-.042.407.138.355 1.135 1.057.742.521.156.78.52 1.597M125.528 87.212a1.4 1.4 0 0 1-.392.9c-.137.2-.39.161-.6.114-.315-.069-.265-.4-.292-.458-.085-.2.237-.437-.037-.59-.816-.455-.982-.07-1.531-.177-.775-.151-.192-1.1-.642-.929-.365.139-.853.3-1.055-.121-.369-.78 1.268-1.379 2.021-.827.422.308.1.67.875.711.678.089 1.691.531 1.653 1.377M123.285 98.178c.238.158.293.28.219.54-.122.429-.217.516-.527.521a1.324 1.324 0 0 1-1.348-1.284.6.6 0 0 0-.3-.582c-.6-.343-.8-1.231-.979-1.573-.433-.816-.9.871-2.445 0a3.5 3.5 0 0 0-.768-.424c-.455-.1-.859.437-2.007-.372-1.072-.757.132-2.69.69-2.232.709.582-.318.881.09 1.35a.67.67 0 0 0 .905-.021c.6-.562.951.054 1.284.434.634.72 1.141-.073 1.365-.237.38-.28.339.017 1.6.339.6.154.345.5.644 1.267.428 1.088 1.691.159 1.28 1.491-.196.628-.233.431.297.783M121.845 51.118a.546.546 0 0 1 .306 1.041 7 7 0 0 1-1.465.443c-1.011.279.579.523.735 3.833.221 4.7-.094 4.5-2.708 10.22a13.75 13.75 0 0 1-7.751 6.48 19.56 19.56 0 0 1-13.693-1.9 11.3 11.3 0 0 1-4.409-4.474c-.82-1.268-1.066-2.585-1.633-4.959a14 14 0 0 1-.13-2.291 14.85 14.85 0 0 1 1.765-7.737c1.32-2.413 3.731-3.179 4.087-3.608-.535-.318-1.319-.043-1.345-.673-.013-.308.055-.478.334-.552a11 11 0 0 1 2.014-.666c3.935-.3 2.519.444 5.165-.519 1.965-.715 4.377.14 4.865-.126 1.185-.645 2.421-1.208 3.554-1.959.568-.377 1.133-.237 1.135.445 0 1.91-1.422 2.758-.543 2.808a6.64 6.64 0 0 1 3.628 1.675c.537.5.8.973 1.2 1.112 3.993 1.367 4.299 1.433 4.889 1.407m-2.481 11.5c1.528-3.081 1.1-7.169.195-8.661-.783-1.287-2.519-.607-5.4-1.149a8.7 8.7 0 0 0-4.16.462c-.451.315-.218.422 1.62 2.389 2.806 3 3.94 2.855 3.72 3.615-.252.875-2.724.386-3.528.067-4.372-1.738-5.175-3.775-5.6-4.341-.446.514-.473.916-1.37 1.3-.6.259-1.8.626-2.464.974s-1.109-.168-.922-.711c.91-2.626 3.016-3.581 2.254-3.715a31.3 31.3 0 0 0-7.9-.391.5.5 0 0 1-.426-.867c.858-.762.054-.284 2.708-1.339 1.778-.707 4.073-.356 3.338-.732-.487-.25-2.5-1.114-2.819-.948-3.778 1.966-6.778 4.276-6.438 11.525.1 2.132.325 1.462.663 3.211a10.68 10.68 0 0 0 3.14 5.411c6.967 5.307 14.956 4.782 20.116-.483 1.669-1.694 1.83-2.704 3.273-5.615Zm.2-10.829c-.092-.1.13-.026-1.3-.49a11.17 11.17 0 0 0-5.509-.976c-2.028.144-3.767 1.284-3.374-.633a9.4 9.4 0 0 1 .519-1.978c.593-1.076 1.8-2.8 1.1-2.46-2 .98-2.528 1.17-2.751 1.815-.206.6-.472.474-.417 1.123.073.855.045 1.626-.73 1.467-1.438-.3-1.618-1.439-3.407-1.773a14.3 14.3 0 0 0-2.988-.653c-1.369.018-1.563-.188-2.421.1 3.67 1.052 3.452 1.206 6.6 3.028a.61.61 0 0 1 .249.568c.031 1.029-3.171-1.028-6.578.249-.038.014-.057.083-.085.128.175.1-.171.081 1.678.081a43 43 0 0 1 5.411.73c.4.061.5.671.012 1a8.15 8.15 0 0 0-2.473 2.555c-.211.351.475-.014 1.1-.225.8-.272.71-.806 1.374-1.4.535-.474 1.312-.388 1.768.619.889 1.963 4.765 3.86 5.577 3.815-.4-.74-.3.051-4.073-4.192-.763-.857.126-1.964 1.259-2.187a10.8 10.8 0 0 1 4.2-.3c1.067.152 4.495.6 5.256-.009ZM113.4 49.28c2.039.039 1.417 0-.052-.851a8.4 8.4 0 0 0-2.04-.543c-.311-.089-.529.778-.6 1.09-.238 1.124.319.258 2.692.304m-6.694-1.232c.02-1.465 1.464-1.285-2.026-1.469v-.045c-1.03.156-.772.1-.969.236.685.5.472-.264 2.753 1.346.116.084.243.116.245-.068ZM120.972 90.055c-.294.731.617.176.342 1.766a.7.7 0 0 1-.072.162c-.159.353-.237.4-.509.351-.391-.073-.512-.252-.491-.669.249-.474-.7-.473-.419-1.464.237-.848-.552-.393-.42-1.095.176-.931 2.067-.289 1.569.949M116.132 85.177c.354-.02.978.291.839.673a.62.62 0 0 1-.557.4.8.8 0 0 0-.542.189c-.372.249-.236.386 0 .711a.635.635 0 0 1-.185.915c-.1.058-.216.1-.318.156-.577.325-.043.631.441 1.078a.567.567 0 0 1-.49.988 1.98 1.98 0 0 1-1.356-1.867c.5-1.166.564-1.038.548-1.474a1.714 1.714 0 0 1 1.62-1.769M114.711 129.739c.03 1.853-1.725 2.344-3.571 2.518-1.775.168-1.175-3.673-7.961-7.3a2.5 2.5 0 0 0-1.206-.282 12.5 12.5 0 0 0-1.659-.081c-.249.035-1.1-.206-1.2-.528-1.352-4.412 1.425-5.952 2.621-4.166.411.613.2.6.578 0 .521-.832 1.481-1.732 2.353-1.384 1.341.536 1.272.733 1.422 2.209a2.56 2.56 0 0 1 2.464-.342 2.21 2.21 0 0 1 1.148 2.317c-.105.642 1.284-.04 2.237.767a2.315 2.315 0 0 1 .564 2.526c-.107.306-.448.649-.159.659 1.636-.074 2.342 1.436 2.369 3.087m-3.363 1.613c1.107-.133 2.61-.656 2.467-1.876-.183-1.567-1.232-2.339-2.111-2.036-.815.282-.934-.206-.6-.67a5.4 5.4 0 0 0 .533-1.13 1.316 1.316 0 0 0-.372-1.55c-.436-.412-1.1-.237-1.6-.154-1.067.31-1.408 1.307-1.815.393-.242-.543.818-.9.917-1.912a1.7 1.7 0 0 0-.388-1.106c-.51-.541-1.313-.152-1.571 0-1.167.687-.986 1.895-1.775 1.554-.737-.319.694-1.715 0-3.2-.087-.187-.388-.281-.649-.362-.336-.1-.77.2-1.045.588-.534.744-.9 2-1.317 2.459-.179.2-.438-.074-.474-.306-.087-.559-.273-2.04-1.092-1.98-.619.044-.827 1.229-.858 1.461a3.8 3.8 0 0 0 .042 1.266c.383 1.917 1.758 0 5.126 2.054 5.755 3.506 5.222 6.671 6.582 6.507"/>
  <path fill="#000" d="M108.207 50.626c.524.2.7 1.658-.877 1.54-.358.09-1.107-.273-1.109-.711-.006-1.123 1.069.019 1.325-.547a.5.5 0 0 1 .661-.282M103.84 82.1c1.433-.213 1.839.95 1.158 1.827a1.133 1.133 0 0 1-2.025-.678.947.947 0 0 1 .867-1.149M96.94 88.319a7.2 7.2 0 0 1 .114 4.141c-1.229 3.825-6.983 4.062-8.978-1.447-.707-1.952-.579-4.737.659-5.6.643-.447.793-.562.822-.9s.128-.275.405-.606c.968-1.157 1.526.042 2.042-.064a2.06 2.06 0 0 1 1.86.213c.963.687 2.428 1.419 2.723 2.988a8 8 0 0 0 .353 1.275m-3.831 5.814c1.834.117 3.405-2.012 3.194-3.969a11.8 11.8 0 0 0-1.048-3.664 6 6 0 0 0-2.236-1.673.7.7 0 0 0-.354 0c-1.765.185-1.832.147-2.023.455-.423.682-1.4.652-1.7 1.737-1.066 3.822 1.833 6.965 4.167 7.114M96.535 77.718a1 1 0 1 1-1.991.106c.015-.644.261-1.151 1.185-.992.595.102.711.241.806.886M95.57 31.518a1.6 1.6 0 0 1-3.194-.1 1.6 1.6 0 1 1 3.194.1M88.87 103.549c.3 1.4-1.113 1.7-1.46.711-.31-.886 0-1.17.8-1.251a.594.594 0 0 1 .66.54M87.427 21.23a1.1 1.1 0 0 1 1.023 1.6c-1.807 2.249-3.433-1.63-1.023-1.6M85.18 54.609a1.222 1.222 0 1 1 2.37-.425 1.206 1.206 0 0 1-2.37.425M87.782 65.4c0 1.009-.474 1.027-.808 1.009-.758-.039-.953-.62-.948-1.379.005-.648 1.756-1.024 1.756.37M87.012 43.851c.853.541.891 2.2-.874 2.348a.964.964 0 0 1-1.083-.784c-.487-1.94 1.13-2.087 1.957-1.564M85.46 74.512a1.158 1.158 0 0 1-.545 2.251c-1.26.317-1.943-2.62.545-2.251M85.41 94.858a1.053 1.053 0 1 1-2.1-.059 1.053 1.053 0 1 1 2.1.059M84.272 133.224c.072.635.237 1.064-.27 1.235a.493.493 0 0 1-.649-.256 4.1 4.1 0 0 1-.409-1.694c-.041-2.642.1-4.362-.517-5.519a8.34 8.34 0 0 1-.971-3.765 24.5 24.5 0 0 0-.979-3.388c-.4-1.351-1.284-1.2-1.445-2.832a31 31 0 0 0-.51-4.423c-.468-2.785-1.869-3.287-1.746-5.851a.451.451 0 0 1 .884-.13 6.3 6.3 0 0 0 .647 2.306c2.465 4.581 1.09 7.605 2.405 8.963.993 1.026.971 2.251 1.547 3.649s.125 2.586 1.125 4.675c1.178 2.459.495 3.57.888 7.03M81.539 59.336c-.59.63-.911.491-1.491-.017-4.055-3.55-3.6-6.369-6.682-6.369-1.767 0-3.724.907-5.139.907a1.536 1.536 0 0 1-1.72-1.454c0-.77.985-1.625 1.741-1.825a3.8 3.8 0 0 1 1.019-.111 6.8 6.8 0 0 0 2.448-.27c.149-.024.474 0 .474-.2 0-.317-.564-.836-1.578-.651-5.365-.711-5.494-.141-6.5-1.133a1.11 1.11 0 0 1-.237-1.552c.318-.525.789-1.076 1.393-.976 1.823.3 1.9.5 2.294.318 1.24-.557 1.929-.136 2.443-.372-.462-.59-1.05-.42-2.343-1.574a3.5 3.5 0 0 0-.657-.549c-.885-.472-3.937.031-4.049-1.706a1.44 1.44 0 0 1 .533-1.093 10.4 10.4 0 0 1 2.682-.218c.266 0 1.2.339 1.2-.128 0-.328-3.1-3.163-3.131-5.314-.008-.567.633-.815.853-.865a1.8 1.8 0 0 1 .894-.095c.872.4 1.319 1.858 2.452 2.974a6.54 6.54 0 0 1 2.306 2.879 15 15 0 0 0 1.18 2.26c.139 0 .075-.564.125-.711a7 7 0 0 0 .109-.914 15 15 0 0 1 .564-1.969.74.74 0 0 1 1-.282c.344.215 2.177.931 2.177 2.426 0 1.3-.762 1.811-.732 4.106a4.45 4.45 0 0 0 .462 2.386c.081.137.157.287.323.287.265 0 .392-.376.54-.578a8.6 8.6 0 0 0 .959-1.578c.173-.394.132-.946.557-1.169.356-.185.609.031.92.237.886.588 1.585 1.185 1.585 2.043 0 1.452-2.37 3.625-2.37 4.568a4.1 4.1 0 0 0 .6 1.576c2.328 4.21 5.357 3.97 2.796 6.706m-.145-1.725c.009-.443-.159-.37-.7-.988-1.258-1.441-3.4-3.886-3.4-5.483 0-1.865 3.382-4.057 1.73-5.6-.157-.146-.273-.265-.455-.265-.377 0-.536.6-.685.858a12 12 0 0 0-1.308 2.3c-.275.853-.417.934-.947.329a5.94 5.94 0 0 1-1.178-3.746c0-2.227.746-3.412.689-4.217a2.04 2.04 0 0 0-1.379-1.379c-.537-.353-.606.485-.755 1.047-.686 2.58.511 3.881-.441 3.881-.337 0-.416-.237-1.576-2.106-.691-1.114-1.422-2.781-1.767-3.235-.57-.747-1.346-1.329-1.922-2.082s-1.173-1.829-1.621-1.829a.61.61 0 0 0-.509.431c-.229 1 4.334 6.02 4.329 6.468-.012.963-1.808-.542-3-.542a14 14 0 0 0-2.294-.142c-.407.059-.213.509-.159.694.11.373 2.3.381 2.983.63a7.3 7.3 0 0 1 1.69 1.185c.4.286 2.744 1.106 2.744 2.521 0 .727-1.484.313-2.37.313-.756 0-1.144.3-1.737.3-.642 0-1.514-.4-1.912-.4a.647.647 0 0 0-.637.666c.009.822 1.246.694 2.8.846.692.067 1.383.181 2.078.237 1.129.091 1.976-.177 2.7.566 1.318 1.1 1.377 1.3 1.377 1.5 0 .154-.159.5-.915.5-1.365 0-1.391.362-2.44.362-.327 0-.657-.028-.981-.028-1.2 0-1.87.547-1.87 1.154 0 1.329 3.431-.394 5.82-.394 3.025 0 2.709 2.02 6.061 5.386.685.689.926.973 1.225.972a.735.735 0 0 0 .732-.71M80.721 31.222c1.73-.237 2.211 2.894-.076 2.905a1.453 1.453 0 1 1 .076-2.905M79.785 85.274c-.255.2-.383.409-.189.753a3.9 3.9 0 0 1 .182 2.315c-.137 1.856-2.656 4.183-4.265 4.545-.765.172-.576 1.481-2 2.324a5.8 5.8 0 0 1-2.606 1.142 5.13 5.13 0 0 1-3.481-.438c-2.216-1-1.448-.443-4.94-1.7-8.111-2.911-5.561-1.124-9.433-2.352-3.791-1.2-6.052-3.792-6.732-6.476-.267-1.055.121-1.5-.566-1.687-4.042-1.086-4.878-7.111-.948-9.831.49-.339-.019-.327.221-2.194.274-2.133 1.295-1.85.869-2.718a7.43 7.43 0 0 1-.836-3.777c0-.782 1.4-1.571 2.27-1.485.381.037.974-.389 1.673.218a2.56 2.56 0 0 1 1.054 1.774c.087.207.259.122.419-.037a3.82 3.82 0 0 1 2.832-.889c.734.239.043-.386 1.443-1.988a5.32 5.32 0 0 1 3.748-1.862 8.7 8.7 0 0 1 1.936.166c4.46.434 7.239 4.976 9.866 8.665a25.6 25.6 0 0 0 3.424 3.213 35 35 0 0 0 3.362 3.031 12.5 12.5 0 0 1 2.5 2.72c.986 1.275 1.573 5.469.197 6.568m-.532-1.7a6.8 6.8 0 0 0-.192-3.14 8.56 8.56 0 0 0-2.9-3.606c-1.3-.91-1.6-1.6-4.435-3.952-3.791-3.14-3.576-4.99-6.758-7.978a8.5 8.5 0 0 0-3.6-2.229 7.2 7.2 0 0 0-2.931-.363 3.81 3.81 0 0 0-3.215 1.976c-.95 2.011-1.038 3.56-1.858 2.642-.21-.235-.078-.86-.289-.948a.74.74 0 0 0-.507-.049c-.493.17-2.355.886-2.163 1.367.923 2.317.825 2.488 1.658 1.694 1.095-1.043 2.621.4 3.033.178a8.34 8.34 0 0 1 10.333 2.056 23 23 0 0 1 1.858 2.119c.339.554-.445 1-1.026.426-.926-.92-2.271-2.447-2.794-2.791-3.18-2.094-6.086-2.26-9.056.237a4.73 4.73 0 0 0-1.471 2.729 5.14 5.14 0 0 0 1.481 5.3c2.528 2.512 4.4 2.776 3.838 3.554-.311.435-.635.279-1.625-.376-2.473-1.637-3.083-2.037-3.6-2.879-1.1-1.8-1.17-1.789-1.341-2.393-.123-.432-.128-.443-.512-.379-.346.057-.7.1-1.035.18-1.185.292-1.977-1.057-1.948-1.706.073-1.635.973-1.277.659-1.813-.387-.658-.312-.925-.9-1.422-1.054-.891-1.3-1.492-1.493-1.075a3.5 3.5 0 0 0-.332 1.6c.037 1.17.833.05 1.3 1.007.17.348-.169.451-1.263 1.132-1.688 1.051-1.617.828-2.44 2.467-.714 1.42-.192 3.078.611 4.438.271.459.535.474 1.422.848.608.256.333-.6.561-1.083.269-.571.486-1.658.619-1.895s.476-.377.59-.256c.483.51.537.251-.095 3.812.369 2.462.1 2.251 1.239 4.118 2.663 4.37 4.693 2.646 15.02 6.161a29 29 0 0 1 4.146 1.5A4.93 4.93 0 0 0 72.8 94.2c.7-.472.283-.675-.744-1.563-1.321-1.143-8.628-5.136-9.913-6.853-.334-.445.426-.805.789-.443.474.474.563.217 6.871 4.3a16 16 0 0 0 2.483 1.3c2.941 1.654 3.658.9 5.753-1.457.576-.647.269-.808.536-2.059.346-1.623-2.473-3.873-3.763-4.895a5.7 5.7 0 0 1-1.367-1.6.41.41 0 0 1 .078-.573c.433-.387.731.069.993.372.972 1.13 4.626 4.4 4.737 2.841ZM52.765 71.223c.871-1.109 1.273-1.047 1.024-1.218-.649-.444-1.292.254-1.982.628-1.948 1.057-3.05-5.068-3.113-5.3-.2-.725-.832-.347-1.323-.413a1.53 1.53 0 0 0-.947.3c-.478.256.179.923.8.748a.57.57 0 0 1 .694.37c.154.458-.71 1.012-1.293.746s.408 1.607.848 2.694c.517 1.277 1.257.567 2.44 3.171a1.56 1.56 0 0 1-.4 2.011c-.283.29-.018.916.358.856 1.479-.238 1.67-.225 1.659-.536a8.74 8.74 0 0 1 1.235-4.057M78.169 63.532c.315-1.512 2.37-.536 2.043.54.272 1.408-2.495 1.628-2.043-.54M68.125 57.76a1.25 1.25 0 0 1-1.338 1.628c-1.026.1-1.349-1.359-.654-2.021.267-.255 1.706-.395 1.992.393M67.976 120.946c.028.474-.52.776-.822.476a28 28 0 0 1-1.768-2.9c-.474-.762-1.75-.746-2.485-2.651a8.74 8.74 0 0 0-2.014-3.6c-.135-.133-.526-.714-.237-.922.372-.269.563-.222 1.139.358 2.4 2.417 1.356 3.889 3.348 5.061a4.1 4.1 0 0 1 1.493 1.469 12.8 12.8 0 0 1 1.346 2.709M53 46.832c.2.748.154.908-.285 3.116a3.4 3.4 0 0 1-.654 1.234c-.815 1.126-1.106 2.194-2.239 2.991a16 16 0 0 1-3.26 2.3 10.84 10.84 0 0 1-4.646 1.9c-6.63 1.152-13.308-2.461-15.513-7.8-.7-1.69-.372-3.044-1-4.265-.668-1.293-.122-5.393.71-6.943 3.5-6.521 6.376-7.829 9.478-8.767 3.572-1.08 8.191.426 10.066 3.86.055.1.094.166.236.021 1.242-1.253 2.56 2.571 2.607 3.389.058 1.016-.135 1 .322 1.151a5.08 5.08 0 0 1 2.95 1.877c.654 1.127 1 1.727-.04 1.952a2.2 2.2 0 0 0-.493.055A10.1 10.1 0 0 1 53 46.832m-1.448 2.839c.425-1.941.483-2.408.216-2.874-.565-.986-.126-1.52-1.266-2.9-.216-.263-.094-.411-.291-.358a18 18 0 0 1 .521 3.414.679.679 0 0 1-1.1.585c-.433-.262-1.646-1.5-2.81-2.419-.9-.709-.645-.812-1.422.071-.9 1.022-.624.658-1.5 2.844a.633.633 0 0 1-1.184 0 6.4 6.4 0 0 1-.121-4.976c.22-.507-.474-.166-.773-.213-1.791-.286-2.272.1-2.5-.183-.365-.542-.114-.9.422-1.564a4.83 4.83 0 0 1 3.177-1.772 4.3 4.3 0 0 0-.4-1.644c-.038-.1-1.061-2.883-1.465-3.114-.315-.18-.391-.912-.047-.969.853-.142 1 .107 1.836.569 2.246 1.242 2.282 2.353 2.737 2.76.069-.341.086-.237-.062-.474-1.922-3.084-2.291-3.395-4.385-4.412-3.365-1.634-8.619.044-10.663 3.052-.847 1.247-4.3 4.4-4.061 9.589.076 1.659.545 1.242.727 3.673.438 5.829 9.045 10.459 15.719 8.679 2.059-.549 6.506-3.107 7.646-5.471a13.6 13.6 0 0 0 1.048-1.893Zm-.434-7.751c.079-.379-.025-.993-1.71-1.656-1.047-.412-1.723-.1-1.768-.841a7.2 7.2 0 0 0-.611-3.6c-.124-.3-.363-.808-.54-.647a.8.8 0 0 0-.169.521c.02.908-.068 2.593-.538 3.017-.594.339-.726-.7-1.421-2.036a4.07 4.07 0 0 0-2.025-1.778c-.123.218.47 1.143.526 1.3.791 2.279.7 2.606.984 3.332.332.835-.254.692-1.036.824a4.2 4.2 0 0 0-2.492 1.327c-.095.115.791.069 1.04.074.047 0 1.592.049 1.959.076.7.049.393.58.249.992-.237.678-.711 3.05-.268 3.668a30 30 0 0 1 2.2-2.831c.858-1 1.917.985 4.028 2.457a3.87 3.87 0 0 0-1.112-3.319c-.519-.476-.475-.816.507-.924a18 18 0 0 0 2.196.044ZM52.134 97.972c1.038.3 1.028 1.118.64 1.393s-.474-.056-3.573-.678c-3.253-.653-6.981-3.642-7.784-7.2-.237-1.049.133-2.656-.156-3.909-.266-1.15-1.012-1.408-3.135-2.422-1.506-.719-3.8-2.562-3.183-4.1.542-1.349 1.131-.181 1.082-.01-.362 1.265 1.572 2.514 2.793 3.073 2.188 1 3.583 1.561 3.708 3.831.117 2.132-.409 3.839 1.234 5.587a13.8 13.8 0 0 0 2.166 2.156c3.045 1.984 3.423 1.463 6.208 2.279"/>
  <path fill="#000" d="M46.037 41.207c.493.274.207 1.183-.367 1.043-1.976-.482-1.083-2.37-.438-2.187.968.011.14.774.805 1.144M31.674 27.161c.114.865-.994.411-2.858 1.545-4.4 2.677-5.047 4.614-6.494 8.869-.242.709.019 1.554-.529 1.509-1.836-.151.6-7.814 4.924-10.563 1.257-.798 4.742-2.994 4.957-1.36M21.938 30.225c.8.623-.965 1.366-2.483 5.184-.608 1.528-.86 1.98-1.192.384.135-1.9 2.2-4.976 2.815-5.5a.65.65 0 0 1 .86-.068"/>
</svg>