<svg xmlns="http://www.w3.org/2000/svg" fill="none" viewBox="0 0 200 200" id="Leisure-Food-Cooking-For-Family-Friends-Guests-1--Streamline-Bruxelles">
  <desc>
    Leisure Food Cooking For Family Friends Guests 1 Streamline Illustration: https://streamlinehq.com
  </desc>
  <path fill="#ffffff" d="M180.6 64.189c0.119 0.642 -0.392 1.1 -0.905 1.474 -0.238 0.175 -0.24 0.14 -1.733 0.14 -0.831 0.1 -4.844 -1.274 -5.265 -1.438 -4.5 -1.761 -9.108 -5.661 -13.093 -8.623 -7.973 -5.924 -48.908 -39.464 -45.1 -48.92801 2.064 -5.124 29.459 16.98401 31.374 18.43801 0.173 0.131 0.175 0.237 0 0.356 -0.86 0.7691 -1.901 1.3063 -3.026 1.561 -1.485 0.168 -1.618 2.183 -1.03 3.363 0.588 1.18 0.944 3.129 7.283 8.117 1.085 0.854 4.142 2.868 6.215 2.547 0.227 -0.0238 0.446 -0.0949 0.643 -0.2087 0.197 -0.1139 0.369 -0.2679 0.503 -0.4521 0.134 -0.1842 0.228 -0.3945 0.275 -0.6172 0.048 -0.2228 0.048 -0.4531 0.001 -0.676 0.616 -0.683 -0.12 -1.007 1.088 -2.986 0.288 -0.473 2.222 1.872 3.1 2.756 4.96 4.971 18.379 18.25 19.67 25.177Z" stroke-width="1"></path>
  <path fill="#ffffff" d="M177.681 67.052c0.455 0.13 -1.512 1.221 -2.682 1.183 -1.584 -0.0693 -3.146 -0.4011 -4.622 -0.982 -0.98 -0.4688 -1.925 -1.0082 -2.827 -1.614 -3.035 -1.5 -7.955 -5.451 -12.629 -8.811 -12.59 -9.052 -32.711 -28.808 -37.706 -35.336 -4.156 -5.431 -4.56 -6.634 -5.686 -9.715 -0.183 -0.744 -0.157 -1.5239 0.074 -2.25432 0.231 -0.73041 0.659 -1.38314 1.236 -1.88669C114.22 12.282 114.302 15.582 128.477 29.88c9.629 9.712 17.511 17.3 31.89 27.85 12.225 8.97 11.079 7.533 17.314 9.322Z" stroke-width="1"></path>
  <path fill="#ffffff" d="M166.559 26.372c0.379 2.474 -7.762 -2.574 -10.952 -7.876 -0.17 -0.282 -0.056 -1.18 -0.708 -1.083 -2.074 0.308 2.607 6.415 8.556 10.023 2.343 1.421 2.987 0.766 2.843 1.341 -0.051 0.3285 -0.175 0.6414 -0.363 0.9154s-0.436 0.5022 -0.724 0.6676c-4.1 2.129 -7.147 -1.116 -10.289 -3.618 -1.687 -1.344 -4.678 -4.7 -4.843 -7.623 -0.242 -4.295 5.873 -6 12.065 -0.68 4.475 3.847 4.281 7.061 4.415 7.933Z" stroke-width="1"></path>
  <path fill="#ffffff" d="M164.334 136.418c2.79 5.87 -8.46 10.856 -11.99 13.148 -1.305 0.848 -0.988 1.885 -1.341 -2.109 -0.046 -0.436 0.02 -0.876 0.192 -1.28 0.171 -0.403 0.443 -0.756 0.789 -1.025 6.824 -4.526 7.459 -4.45 8.331 -6.27 0.756 -1.578 -0.478 -3.785 -1.786 -4.933 -2.046 -1.794 -4.422 -0.69 -6.713 0.775 -1.071 0.685 -1.641 0.965 -2.187 1.374 -0.367 0.276 -0.208 0.4 -1.123 -2.76 -0.049 -0.171 -0.33 -0.261 0.021 -0.455 4.131 -2.285 6.713 -3.993 9.805 -3.128 1.2 0.336 1.9 0.913 3.741 2.754 0.973 1.163 1.737 2.486 2.261 3.909Z" stroke-width="1"></path>
  <path fill="#ffffff" d="M150.088 26.739c5.9 4.936 10.352 5.14 9.546 5.571 -0.725 0.4389 -1.338 1.04 -1.791 1.756 -0.895 1.1073 -1.528 2.4021 -1.853 3.788 -0.327 1.524 -0.261 2.133 -1.22 2.069 -1.506 -0.1149 -2.942 -0.6871 -4.114 -1.64 -2.727 -2.056 -8.361 -6.253 -7.909 -9.641 0.033 -0.1574 0.118 -0.2991 0.241 -0.4019 0.124 -0.1028 0.278 -0.1606 0.439 -0.1641 1.821 -0.527 3.433 -1.6076 4.613 -3.092 0.433 -0.598 0.684 0.616 2.048 1.755Z" stroke-width="1"></path>
  <path fill="#ffffff" d="M151.754 163.592c0.299 1.858 0.369 3.745 0.211 5.62 -0.208 3.301 -1.571 6.424 -3.851 8.82 -3.808 4.268 -12.465 7.96 -17.889 9.815 -3.884 1.327 -3.256 1.133 -9.511 2.369 -11.774 2.327 -2.911 1.258 -19.141 2.926 -6.963 0.716 -15.11 0.626 -22.26 -1.21 -3.8349 -0.745 -7.3396 -2.673 -10.021 -5.514 -3.443 -3.662 -3.849 -7.911 -4.689 -12.868 -0.136 -0.8 -2.261 -15.752 -2.31 -16.222 -0.131 -1.248 -1.038 -5.6 -1.659 -10.067 -0.359 -2.581 -0.417 -2.344 0.081 -2.318 12.345 0.646 18.193 -0.107 29.973 -1.291 5.841 -0.587 -0.085 0.568 13.361 -1.479 7.943 -1.208 8.18 -1.256 8.293 -1.277 0.113 -0.021 20.841 -4.652 33.192 -10.622 0.881 -0.426 0.914 -0.474 0.98 -0.095 0.372 2.11 4.399 28.284 5.24 33.413Z" stroke-width="1"></path>
  <path fill="#ffffff" d="M147.158 120.854c0.527 0.213 0.821 3.363 0.756 4.287 -0.154 2.172 0.255 3.26 -13.193 8.322 -8.27 3.113 -13.127 3.669 -15.378 4.341 -7.065 2.109 -14.928 2.623 -18.956 3.407 -4.2039 0.862 -8.48 1.324 -12.771 1.379 -7.3444 0.76 -14.7476 0.76 -22.092 0 -8.14 -0.758 -8.348 -1.767 -9.037 -7.091 0.04 -0.251 0.075 -0.474 0.109 -0.687 0.417 -0.057 0.334 0.457 1 0.819 0.5974 0.32 1.2155 0.601 1.85 0.839 2.555 0.931 16.079 1.691 19.254 1.484 27.617 -1.8 10.336 -0.141 24.536 -2.225 10.56 -1.551 4.918 -0.47 9.309 -1.623 10.256 -2.694 18.657 -3.84 31.177 -10.071 1.084 -0.483 2.05 -1.197 2.829 -2.092 0.303 -0.292 0.426 -1.161 0.607 -1.089Z" stroke-width="1"></path>
  <path fill="#ffffff" d="M144.561 117.959c1.092 0.552 1.873 1.394 1.388 2.52 -0.27 0.628 -1.215 1.759 -1.343 1.321 -0.319 -1.088 -1.614 -1.543 -2.732 -1.692 -0.205 -0.015 -0.399 -0.099 -0.549 -0.239 -0.151 -0.14 -0.249 -0.327 -0.278 -0.531 -0.291 -1.852 -1.7 -2.493 -0.318 -2.448 1.314 0.21 2.599 0.569 3.832 1.069Z" stroke-width="1"></path>
  <path fill="#ffffff" d="M141.466 123.27c0.238 0.523 0.3 0.421 -2.457 1.6 -1.1 0.472 -3.317 1.37 -4.421 1.7 -1.714 0.514 -0.552 0.69 -9.478 3.2 -1.457 0.469 -2.942 0.845 -4.447 1.125 -2.349 0.4 -2.768 0.711 -2.685 0.325 0.033 -0.647 -0.025 -1.296 -0.173 -1.927 -0.168 -2.843 -1.211 -4.092 -2.971 -6.634 -0.18 -0.261 -0.944 -0.39 -0.429 -2.062 0.358 -1.16 1.423 -2.747 2.355 -3.035 0.379 -0.281 0.815 -0.473 1.277 -0.564 0.418 -0.052 2.066 -0.681 3.23 -0.132 1.371 0.646 1.56 1.915 2.173 2.878 0.473 0.745 -2.162 1.01 -2.474 5.59 -0.059 0.872 0.033 3.614 1.088 3.521 0.71 -0.063 0.445 -0.711 0.41 -1.118 -0.317 -3.663 0.169 -4.161 1.286 -6 0.911 -0.919 1.992 -1.654 3.182 -2.164 0.601 -0.179 1.231 -0.244 1.856 -0.194 0.846 -0.042 1.691 0.085 2.487 0.374 0.398 0.066 0.778 0.215 1.116 0.437 0.337 0.222 0.624 0.512 0.842 0.852 0.367 0.532 0.677 1.102 0.924 1.7 0.51 1.523 1.99 0.592 1.255 -0.488 -0.677 -1 -0.621 -1.838 -1.772 -2.957 -0.921 -0.645 -1.985 -1.057 -3.1 -1.2 -0.794 -0.152 -1.606 -0.186 -2.41 -0.1 -0.8 0.036 -0.807 0.073 -1.035 -0.671 -0.14 -0.457 -0.3 -0.649 -0.258 -0.874 0.1 -0.493 3.163 -2.606 5.551 -2.775 4.1 -0.288 6.024 2.452 7.431 6.336 0.288 0.82 1.194 2.261 1.647 3.257Z" stroke-width="1"></path>
  <path fill="#ffffff" d="M131.389 94.372c-0.881 1.163 1.409 0.858 1.284 2.209 -0.047 0.509 0.255 1.187 -0.627 1.587 -0.99 0.449 -0.493 1.37 -0.46 1.853 0.04 0.59 -0.553 0.151 -1.014 0.649 -0.575 0.62 0 0.663 -0.356 1.142 -0.864 1.167 -1.485 1.022 -2.912 1.327 -0.8 -0.149 -0.83 -0.045 -0.635 -0.59 0.317 -0.884 -0.924 -1.921 -1.315 -1.1 -0.444 0.621 -0.823 1.285 -1.132 1.983 -0.038 0.158 -0.107 0.306 -0.204 0.436 -0.097 0.13 -0.219 0.239 -0.36 0.321 -0.14 0.081 -0.295 0.133 -0.456 0.153 -0.161 0.02 -0.324 0.007 -0.48 -0.038 -1.5 -0.485 -1.773 0.559 -2.789 0.073 -0.6 -0.286 0.473 -0.684 0.085 -1.149 -0.841 -1.01 -1.192 0.553 -1.628 -1.315 -0.022 -0.1 0.471 -0.526 0.595 -0.711 0.461 -0.684 -0.177 -0.795 -0.711 -1.5 -0.322 -0.427 -0.128 -0.359 0.593 -0.967 1.124 -0.949 0.1 -1.514 -0.176 -1.315 -0.853 0.613 -1.99 0.339 -2.132 1.405 -0.105 0.787 -0.671 1.031 -1.474 1.014 -1.422 -0.03 -0.372 -0.862 -1.1 -1.362 -0.078 -0.0707 -0.176 -0.1148 -0.28 -0.126 -0.104 -0.0111 -0.209 0.0113 -0.3 0.064 -0.331 0.1122 -0.684 0.1464 -1.031 0.1 -0.288 -0.319 -0.591 -0.625 -0.846 -0.97 -0.393 -0.531 0.607 -1.274 -0.583 -1.67 -0.085 -0.028 -0.2 -0.085 -0.225 -0.156 -0.123 -0.3487 -0.224 -0.7051 -0.3 -1.067 -0.035 -0.175 0.237 -0.462 0.429 -0.5 0.948 -0.211 1.543 -0.15 1.436 -1.37 -0.1 -1.156 1.007 -0.332 1.23 -1.094 0.13 -0.446 -0.76 -1.019 -1.507 -0.474 -0.33 0.24 -1.213 1.314 -2.147 0.656 -0.741 -0.522 0.237 -0.966 -0.678 -1.514 -0.213 -0.128 -0.577 -0.237 -0.694 -0.668 -0.321 -1.184 0.1 -1.748 1 -2.048 1.638 -0.543 0.282 -1.684 1.235 -1.964 2.08 -0.611 0.175 -1.021 1.658 -2.2 0.251 -0.2 0.439 -0.237 2.4 -0.436 0.126 0.019 0.239 0.0852 0.318 0.185 0.3 0.635 1.026 0.736 1.3 -0.311 0.122 -0.474 -0.189 -0.623 1.159 -1.556 0.149 -0.1 0.846 0.089 0.947 0.711 0.113 0.695 0.614 0.884 1.221 0.528 0.846 -0.5 1.455 -0.68 1.94 0.194 0.883 1.592 1.843 -1.357 3.081 -0.071 0.609 0.634 0.947 0.929 1.007 1.531 -0.007 0.126 0.018 0.2517 0.073 0.3654 0.054 0.1137 0.137 0.2116 0.24 0.2846 0.103 0.073 0.223 0.1186 0.348 0.1326 0.126 0.014 0.252 -0.0041 0.369 -0.0526 0.711 -0.22 0.934 -0.173 1.358 0.391 0.424 0.564 1.057 1.291 0.694 1.985 -0.753 1.441 1.134 0.846 1.107 2.014 -0.027 1.128 1.087 1.074 0.725 1.777 -0.002 0.0196 -0.002 0.0394 0 0.059 -0.251 1.422 1.368 0.529 1.282 1.273 -0.007 0.6707 -0.202 1.326 -0.562 1.892Zm-1.857 4.865c0.039 -0.365 -0.51 -0.735 -1.185 -0.213 -0.08 0.0819 -0.183 0.1379 -0.295 0.1608 -0.112 0.0228 -0.228 0.0114 -0.334 -0.0328 -0.108 -0.0521 -0.231 -0.0636 -0.347 -0.0325 -0.116 0.0312 -0.217 0.103 -0.284 0.2024 -0.067 0.0993 -0.097 0.2195 -0.083 0.3387 0.014 0.1192 0.071 0.2294 0.159 0.3104 0.247 0.194 0.533 0.33 0.839 0.4 0.342 -0.002 0.675 -0.113 0.95 -0.317 0.276 -0.2036 0.479 -0.4899 0.58 -0.817Zm-0.4 -3.685c0.084 -0.5181 0.078 -1.0467 -0.016 -1.563 -0.364 -0.817 0.208 -1.083 -0.52 -1.6 -1 -0.707 -1.181 -0.649 -1.135 -1.057 0.105 -0.926 -0.308 -1.033 -1.218 -1.114 -0.259 0.027 -0.51 0.1095 -0.734 0.2421 -0.224 0.1325 -0.417 0.3119 -0.566 0.5259 -0.055 0.0837 -0.074 0.1856 -0.054 0.2835 0.02 0.098 0.078 0.1841 0.161 0.2395 0.365 0.245 0.709 -0.079 1.246 -0.177 0.09 0.621 -0.168 0.906 0.474 1.232 1.127 0.571 1.128 0.67 1.135 0.907 0.007 0.237 0.171 1.043 0.138 1.261 -0.088 0.2611 -0.103 0.5411 -0.043 0.81 0.057 0.154 -0.3 0.432 -0.346 0.5 -0.603 0.977 1.4 1.671 1.475 -0.49h0.003Zm-3.993 -7.437c0.234 -0.2435 0.373 -0.5628 0.392 -0.9 0.034 -0.834 -0.966 -1.287 -1.658 -1.374 -0.775 -0.045 -0.454 -0.406 -0.875 -0.711 -0.755 -0.549 -2.39 0.047 -2.021 0.827 0.2 0.426 0.69 0.26 1.055 0.121 0.45 -0.172 -0.133 0.778 0.642 0.929 0.549 0.107 0.712 -0.284 1.531 0.177 0.268 0.151 -0.048 0.395 0.037 0.59 0.027 0.062 -0.024 0.392 0.292 0.458 0.214 0.041 0.466 0.079 0.602 -0.117h0.003Zm-1.632 10.6c0.076 -0.26 0.025 -0.38 -0.219 -0.54 -0.532 -0.348 -0.493 -0.158 -0.3 -0.783 0.412 -1.331 -0.852 -0.4 -1.28 -1.491 -0.3 -0.762 -0.04 -1.113 -0.644 -1.267 -1.258 -0.322 -1.216 -0.617 -1.6 -0.339 -0.223 0.163 -0.739 0.949 -1.365 0.237 -0.33 -0.376 -0.684 -1 -1.284 -0.434 -0.121 0.1165 -0.281 0.1833 -0.448 0.1872 -0.168 0.0039 -0.331 -0.0554 -0.457 -0.1662 -0.408 -0.473 0.612 -0.77 -0.09 -1.35 -0.557 -0.46 -1.762 1.475 -0.69 2.232 1.148 0.809 1.552 0.267 2.007 0.372 0.273 0.1088 0.531 0.2512 0.768 0.424 1.544 0.871 2.012 -0.816 2.445 0 0.182 0.342 0.375 1.23 0.979 1.573 0.101 0.0575 0.183 0.1432 0.236 0.2465 0.054 0.1033 0.076 0.2199 0.064 0.3355 0.009 0.3487 0.157 0.6795 0.409 0.9201 0.253 0.2406 0.59 0.3714 0.939 0.3639 0.312 -0.002 0.399 -0.087 0.523 -0.518l0.007 -0.003Zm-2.19 -6.9c0.275 -1.59 -0.634 -1.034 -0.342 -1.766 0.494 -1.237 -1.4 -1.875 -1.569 -0.949 -0.132 0.711 0.66 0.238 0.42 1.095 -0.276 0.984 0.668 0.988 0.419 1.464 -0.021 0.417 0.1 0.6 0.491 0.669 0.279 0.051 0.35 0 0.509 -0.351 0.029 -0.0489 0.053 -0.1013 0.069 -0.156l0.003 -0.006Zm-4.343 -5.971c0.139 -0.382 -0.486 -0.694 -0.839 -0.673 -0.445 0.0261 -0.863 0.2254 -1.163 0.5553 -0.3 0.3298 -0.459 0.764 -0.443 1.2097 0.016 0.436 -0.05 0.308 -0.547 1.474 0 0.4145 0.13 0.8184 0.374 1.1538 0.243 0.3355 0.587 0.5851 0.981 0.7132 0.125 0.0306 0.256 0.0178 0.373 -0.0363 0.116 -0.0541 0.211 -0.1463 0.268 -0.2614 0.057 -0.115 0.073 -0.2461 0.046 -0.3716 -0.028 -0.1255 -0.097 -0.2379 -0.197 -0.3187 -0.476 -0.445 -1.017 -0.753 -0.44 -1.078 0.1 -0.058 0.216 -0.1 0.317 -0.157 0.072 -0.0429 0.134 -0.0996 0.184 -0.1668 0.049 -0.0672 0.085 -0.1436 0.105 -0.2247 0.019 -0.0811 0.023 -0.1653 0.01 -0.2478 -0.013 -0.0825 -0.042 -0.1616 -0.086 -0.2327 -0.19 -0.312 -0.477 -0.458 -0.028 -0.753 0.152 -0.1276 0.345 -0.1952 0.543 -0.19 0.118 -0.0055 0.232 -0.0452 0.327 -0.1143 0.096 -0.0691 0.17 -0.1645 0.212 -0.2747l0.003 -0.006Z" stroke-width="1"></path>
  <path fill="#ffffff" d="M128.6 112.281c2.265 0.341 1.9 0.195 0.606 0.846 -2.97 1.5 -2.793 2.543 -3.084 1.907 -0.68 -1.488 -0.76 -1.521 -0.488 -1.678 1.924 -1.11 1.128 -0.734 2.966 -1.075Z" stroke-width="1"></path>
  <path fill="#ffffff" d="M125.589 117.06c0.5 1.185 0.616 1.275 0.329 1.421 -2.713 1.387 0.523 0.235 -4.642 -3.653 -1.511 -1.138 -2.262 -0.9 -1.729 -1.626 0.242 -0.408 0.583 -0.748 0.992 -0.988 0.409 -0.24 0.872 -0.372 1.346 -0.384 0.851 0.237 1.171 0.285 0.2 1.145 -0.587 0.522 -0.218 1.9 1.017 0.768 0.82 -0.743 0.571 -1.195 2.487 3.317Z" stroke-width="1"></path>
  <path fill="#c1e1fd" d="M119.753 54.338c-0.014 -0.3444 -0.103 -0.6816 -0.26 -0.9884 -0.157 -0.3068 -0.379 -0.5758 -0.65 -0.7886 -4.088 -3.821 -4.19 -3.978 -4.921 -4.345 -1.818 -0.913 -6.253 -1.671 -7.739 -1.926 -1.674 -0.288 -2.729 -0.309 -5.12 1.049 -0.736 0.418 -1.481 0.82 -2.218 1.232 -0.0821 -0.023 -0.1689 -0.023 -0.251 0 -3.775 1.972 -6.778 4.276 -6.438 11.525 0.1 2.133 0.325 1.462 0.664 3.211 0.4826 2.0769 1.5758 3.9618 3.139 5.412 7.006 5.336 15.014 4.756 20.117 -0.484 1.658 -1.7 1.8 -2.725 3.262 -5.63 1.216 -2.5949 1.365 -5.5634 0.415 -8.267Z" stroke-width="1"></path>
  <path fill="#ffffff" d="M118.26 51.3c1.424 0.468 1.209 0.393 1.3 0.49 -0.758 0.6 -4.189 0.161 -5.258 0.015 -1.406 -0.1786 -2.834 -0.0767 -4.2 0.3 -1.135 0.229 -2.022 1.33 -1.259 2.187 3.778 4.243 3.671 3.452 4.073 4.192 -0.812 0.045 -4.688 -1.852 -5.577 -3.815 -0.456 -1.007 -1.231 -1.094 -1.768 -0.619 -0.667 0.592 -0.573 1.123 -1.374 1.4 -0.616 0.21 -1.307 0.576 -1.1 0.225 0.626 -1.0241 1.47 -1.8983 2.471 -2.561 0.476 -0.322 0.389 -0.934 -0.012 -1 -1.786 -0.3589 -3.594 -0.6028 -5.411 -0.73 -1.849 0 -1.5 0.021 -1.678 -0.081 0.028 -0.045 0.047 -0.114 0.085 -0.128 3.407 -1.277 6.609 0.78 6.578 -0.249 0.013 -0.1083 -0.003 -0.2182 -0.047 -0.3181 -0.043 -0.1 -0.113 -0.1863 -0.202 -0.2499 -3.149 -1.822 -2.931 -1.976 -6.6 -3.028 0.858 -0.285 1.052 -0.079 2.421 -0.1 1.017 0.1093 2.018 0.3282 2.988 0.653 1.788 0.34 1.969 1.477 3.407 1.773 0.775 0.159 0.8 -0.611 0.73 -1.467 -0.053 -0.654 0.211 -0.524 0.417 -1.123 0.223 -0.645 0.753 -0.835 2.751 -1.815 0.692 -0.339 -0.511 1.384 -1.1 2.46 -0.245 0.6385 -0.419 1.3017 -0.519 1.978 -0.393 1.917 1.346 0.772 3.374 0.633 1.89 -0.1464 3.786 0.1902 5.51 0.978Zm-10.921 0.858c1.574 0.128 1.405 -1.351 0.877 -1.541 -0.122 -0.0511 -0.258 -0.0521 -0.381 -0.0029 -0.122 0.0493 -0.22 0.1448 -0.272 0.2659 -0.249 0.6 -1.342 -0.559 -1.332 0.567 0.003 0.446 0.751 0.809 1.108 0.712v-0.001Z" stroke-width="1"></path>
  <path fill="#ffffff" d="M118.246 104.438c0.526 0.282 0.017 0.335 -1.995 2.388 -2.648 2.7 -2.713 4.266 -3.272 4.758 -0.772 0.679 -1.422 1.4 -2.3 1.208 -1.22 -0.261 -2.505 -0.385 -3.284 -1.355 -1.771 -2.2 -0.8 -2.512 -0.026 -3.578 3.112 -4.278 3.449 -7.7 4.045 -7.345 0.929 0.546 1.481 0.031 1.841 0.436 1.211 1.364 3.053 0.079 3.113 0.159 0.19 0.253 0.41 0.066 0.41 0.613 -0.117 0.553 -0.033 1.13 0.236 1.627 0.268 0.498 0.705 0.884 1.232 1.089Z" stroke-width="1"></path>
  <path fill="#c1e1fd" d="M116.514 128.983c0.671 3.79 0.251 2.727 -2.931 3.618 -1.438 0.4 -2.917 0.568 -4.379 0.829 -0.587 0.1 -0.072 -0.674 -1.156 -2.462 -1.046 -1.831 -2.537 -3.368 -4.334 -4.471 -0.811 -0.506 -1.746 -0.778 -2.701 -0.787 -0.956 -0.008 -1.8956 0.248 -2.715 0.74 -0.947 0.475 -1.29 -0.047 -2.588 -0.545 -1.84 -0.707 -3.577 1.943 0.038 3.962 1.043 0.582 0.826 1.364 1.277 2.509 0.739 1.871 1.54 1.659 1.988 2.2 0.279 0.34 0.237 0.235 -1.528 0.647 -0.657 0.154 -0.837 -0.086 -1.671 -1.817 -0.988 -2.055 -0.836 -2.316 -1.5 -2.474 -2 -0.476 -1.756 1.292 -2.716 1.339 -1.741 0.086 -2.68 1.762 -2.054 2.722 0.1495 0.342 0.3554 0.658 0.609 0.932 0.09 0.071 0.033 0.13 -0.069 0.142 -1.184 0.133 -1.035 0.137 -1.045 0.054 -1.052 0 -0.9 0.112 -1.166 -0.948 -0.0536 -0.93 0.092 -1.86 0.4271 -2.729 0.3351 -0.869 0.8519 -1.657 1.5159 -2.31 3.059 -3.02 2.855 -2.66 4.813 -7.625 0.4324 -1.093 0.9562 -2.147 1.566 -3.151 0.3645 -0.549 0.8345 -1.021 1.3829 -1.387 0.5483 -0.366 1.1639 -0.62 1.8111 -0.746 1.639 -0.2 1.784 -0.675 3.343 -0.344 0.914 0.142 1.81 0.38 2.673 0.711 1.126 0.402 2.208 0.918 3.229 1.54 3.949 2.842 4.508 2.783 7.047 6.931 0.518 0.888 0.804 1.892 0.833 2.92Zm-5.374 3.274c1.846 -0.174 3.6 -0.665 3.571 -2.518 -0.027 -1.658 -0.713 -3.126 -2.37 -3.09 -0.289 0.006 0.052 -0.353 0.159 -0.659 0.167 -0.43 0.202 -0.899 0.101 -1.349 -0.1 -0.449 -0.332 -0.859 -0.665 -1.177 -0.947 -0.808 -2.342 -0.125 -2.237 -0.767 0.075 -0.457 0.004 -0.927 -0.202 -1.341 -0.207 -0.415 -0.539 -0.754 -0.949 -0.97 -0.406 -0.157 -0.845 -0.209 -1.276 -0.149 -0.432 0.06 -0.84 0.229 -1.188 0.491 -0.147 -1.476 -0.079 -1.673 -1.422 -2.209 -0.872 -0.348 -1.833 0.552 -2.353 1.384 -0.375 0.6 -0.166 0.617 -0.578 0 -1.195 -1.788 -3.971 -0.235 -2.621 4.166 0.1 0.322 0.948 0.563 1.2 0.528 0.554 -0.01 1.108 0.017 1.659 0.081 0.419 -0.008 0.834 0.089 1.206 0.282 6.757 3.607 6.201 7.464 7.965 7.297Z" stroke-width="1"></path>
  <path fill="#ffffff" d="M113.815 129.476c0.146 1.22 -1.36 1.743 -2.467 1.876 -1.36 0.164 -0.817 -3 -6.579 -6.511 -3.367 -2.05 -4.743 -0.137 -5.126 -2.054 -0.0834 -0.417 -0.0976 -0.845 -0.042 -1.266 0.031 -0.236 0.237 -1.419 0.858 -1.461 0.82 -0.057 0.995 1.421 1.092 1.98 0.041 0.237 0.3 0.5 0.474 0.306 0.413 -0.471 0.783 -1.715 1.317 -2.459 0.275 -0.384 0.711 -0.692 1.045 -0.588 0.261 0.081 0.561 0.175 0.649 0.362 0.7 1.5 -0.753 2.883 0 3.2 0.788 0.337 0.608 -0.867 1.775 -1.554 0.258 -0.152 1.061 -0.541 1.571 0 0.256 0.311 0.393 0.703 0.388 1.106 -0.1 1.009 -1.168 1.368 -0.917 1.912 0.419 0.908 0.744 -0.082 1.815 -0.393 0.5 -0.078 1.166 -0.258 1.6 0.154 0.223 0.182 0.38 0.432 0.447 0.712 0.068 0.28 0.041 0.575 -0.075 0.838 -0.133 0.396 -0.312 0.775 -0.533 1.13 -0.337 0.474 -0.218 0.948 0.6 0.67 0.886 -0.299 1.92 0.474 2.108 2.04Z" stroke-width="1"></path>
  <path fill="#ffffff" d="M113.628 118.567c0.379 0.047 -0.427 0.832 -0.607 2.08 -0.015 0.1 -0.082 0.128 -0.161 0.064 -0.5 -0.4 -1.112 -0.624 -0.985 -1.81 0.013 -0.128 0.054 -0.107 1.753 -0.334Z" stroke-width="1"></path>
  <path fill="#ffffff" d="M107.152 131.832c0.218 0.633 0.737 1.757 0.126 1.832 -1.016 0.204 -2.044 0.344 -3.077 0.418 -0.649 0 -1.358 0.412 -1.659 0.256 -0.748 0.128 -1.517 0.009 -2.191 -0.339 -0.557 -0.884 -1.7 -0.365 -2.239 -1.751 -0.2359 -0.924 -0.5712 -1.821 -1 -2.673 -0.251 -0.441 -0.7 -0.319 -1.96 -1.348 -0.647 -0.528 -0.514 -1.607 0.261 -1.291 1.421 0.578 1.892 1.262 3.046 0.656 0.7994 -0.325 1.63 -0.569 2.478 -0.727 1.395 -0.41 5.354 2.469 6.215 4.967Z" stroke-width="1"></path>
  <path fill="#ffffff" d="M109.934 116.016c-0.19 -0.452 -1.545 -0.5 -2.142 -0.328 -2.861 0.81 -2.94 -1.147 -2.161 -0.991 1.192 0.239 2.552 -0.639 3.533 -0.317 0.225 0.056 0.385 0.022 0.351 -0.206 -0.123 -0.8 -1.519 -0.287 -2.721 -1.536 -0.392 -0.155 -0.796 -0.276 -1.208 -0.362 -0.611 0.211 -1.239 0.37 -1.877 0.474 -0.122 -0.016 -0.235 -0.073 -0.319 -0.162 -0.084 -0.09 -0.136 -0.205 -0.145 -0.328 -0.009 -0.122 0.024 -0.244 0.095 -0.345 0.07 -0.101 0.173 -0.174 0.291 -0.208 1.824 -0.734 1.891 -0.5 1.8 -0.995 -0.373 -2.031 -0.514 -1.448 1.531 -4.265 0.052 -0.118 0.082 -0.245 0.087 -0.374 -0.5 0.121 -0.318 0.107 -1.5 -0.272 -0.993 -0.32 -1.863 0.262 -2.566 0.423 -0.703 0.161 -0.856 -0.758 -0.3 -1.054 4.494 -2.409 5.019 3.1 3.056 -4.739 -0.095 -0.382 -0.2 -0.717 -0.711 -0.632 -0.36 -0.1692 -0.754 -0.2554 -1.152 -0.2521 -0.398 0.0033 -0.791 0.0959 -1.148 0.2711 -1.791 0.7 -1.925 -0.358 -0.578 -1.065 0.478 -0.2512 1.003 -0.4004 1.542 -0.438 0.934 -0.053 1.6 0.353 1.5 -0.137 -0.475 -2.394 -0.467 -1.9 -0.976 -1.9 -0.693 -0.1364 -1.408 -0.0996 -2.083 0.107 -0.331 0.149 -0.551 0 -0.668 -0.341 -0.26 -0.773 1.307 -1.217 2.125 -1.079 0.157 0.0249 0.315 0.037 0.474 0.036 0.32 0.019 0.353 -0.012 0.273 -0.291 -1.324 -4.628 -1.583 -4.747 -2.135 -5.443 -0.552 -0.696 -0.978 1.8 -1.026 2.751 -0.05 0.981 -0.173 0.77 0.732 0.675 0.4 -0.041 0.543 0.021 0.635 0.332 0.112 0.375 0.031 0.585 -0.32 0.711 -1.109 0.4 -1.157 -0.154 -1.3 1.011 -0.415 2.4546 -0.534 4.95 -0.355 7.433 0.022 0.176 -0.095 0.42 0.114 0.474 0.557 0.146 0.7 -1.29 3.723 -1.253 0.646 0.008 1.187 0.9 0.663 1.258s-1.306 -0.391 -2.607 0.363c-1.768 1.025 -1.876 0.542 -1.914 0.985 -0.072 1.643 0.047 3.289 0.355 4.905 0.095 0.659 0.449 0.26 1.46 -0.052 1.322 -0.409 2.028 -0.41 1.988 0.386 -0.033 0.664 -0.823 0.15 -2.912 1.216 -0.443 0.226 -0.2 0.178 1.076 2.89 1.267 2.7 0.742 2.416 1.984 2.726 2.144 0.589 4.161 1.569 5.949 2.891 0.553 0.368 -0.255 -2.339 -0.513 -2.953Z" stroke-width="1"></path>
  <path fill="#ffffff" d="M101.127 114.836c0.625 -0.129 1.282 0.713 0.786 0.748 -0.824 -0.019 -1.645 0.115 -2.421 0.395 -3.221 0.921 -1.428 0.382 -3.772 1.9 -0.259 0.167 -0.223 0.107 -0.5 -1.659 -0.058 -0.365 0.177 -0.3 0.948 -1.279 0.771 -0.979 1.51 -0.588 2.452 -1.1 0.133 -0.072 0.3 -0.085 0.289 -0.31 -0.011 -0.225 0.064 -0.4 -0.175 -0.536 -0.2792 -0.045 -0.5647 -0.033 -0.839 0.036 -1.0398 0.17 -1.998 0.668 -2.734 1.422 -0.0265 0.021 -0.0579 0.035 -0.0913 0.041 -0.0334 0.006 -0.0677 0.003 -0.0997 -0.008 -0.032 -0.012 -0.0606 -0.031 -0.0832 -0.056 -0.0225 -0.025 -0.0383 -0.056 -0.0458 -0.089 -0.9 -4.619 -0.613 -4.307 -0.157 -4.558 0.853 -0.47 1.5 -1.317 2.161 -1.2 0.188 0.032 0.625 -0.168 0.607 -0.443 -0.012 -0.183 -0.09 -0.739 -1.1 -0.493 -0.8438 0.302 -1.6328 0.739 -2.336 1.294 -0.328 -2.213 -0.42 -5.555 -0.49 -6.625 -0.042 -0.635 0 -1.022 0.322 -1.149 0.237 -0.109 0.822 0.523 0.929 0.651 1.993 2.395 2.032 2.583 1.611 2.628 -0.2744 0.03 -0.5402 0.114 -0.7822 0.247 -0.2419 0.133 -0.4553 0.312 -0.6278 0.528 -0.457 0.488 -0.3 0.815 -0.237 0.971 0.063 0.156 0.294 0.34 0.711 -0.095 0.9 -0.938 1.66 -0.825 1.922 -0.445 0.6693 0.996 1.2128 2.071 1.618 3.2 0.344 0.764 -0.331 0.264 -2.481 1.611 -0.445 0.279 -0.988 0.948 -0.746 1.218s0.367 0.342 1.116 -0.194c0.6 -0.429 2.642 -1.66 3.08 -0.749 1.272 2.646 1.4 2.743 1.038 2.889 -0.734 0.3 -1.194 0.354 -1.081 0.831 0.182 0.747 0.839 0.454 1.209 0.378Z" stroke-width="1"></path>
  <path fill="#ffffff" d="M96.3 90.164c0.211 1.957 -1.36 4.086 -3.194 3.969 -2.334 -0.149 -5.234 -3.285 -4.171 -7.119 0.3 -1.085 1.281 -1.055 1.7 -1.737 0.191 -0.308 0.258 -0.27 2.023 -0.455 0.1162 -0.029 0.2378 -0.029 0.354 0 0.8701 0.3737 1.6389 0.9488 2.243 1.678 0.5434 1.1571 0.8962 2.3944 1.045 3.664Z" stroke-width="1"></path>
  <path fill="#ffffff" d="M94.549 133c0.8 2.881 2.355 2.388 -1.63 2.867 -0.365 -0.019 -0.642 -0.014 -0.912 -0.052 -1.659 -0.235 -2.268 -2.474 -0.334 -2.469 1.561 0 1.262 -1.245 1.912 -1.476 0.272 -0.1 0.374 -0.081 0.535 0.17 0.1906 0.297 0.3353 0.62 0.429 0.96Z" stroke-width="1"></path>
  <path fill="#ffffff" d="M93.537 121.277c0.346 0.048 0.307 -0.272 -0.791 2.775 -0.251 0.7 -0.493 0.416 -2.132 0.912 -0.586 0.178 0.193 -1.241 -1.557 -1.876 -0.358 -0.13 -0.371 -0.221 -0.334 -0.578 0.049 -0.474 0.325 -0.413 1.955 -0.711 3.138 -0.576 2.634 -0.499 2.859 -0.522Z" stroke-width="1"></path>
  <path fill="#ffffff" d="M89.078 128.507c0.866 0.543 -1.334 0.637 -2.272 5.039 -0.4 1.9 0.611 2.557 -0.085 2.647 -1.4679 0.278 -2.9619 0.393 -4.455 0.344 -1.9 0.127 -2.018 0.174 -2.315 -0.022 -0.416 -0.275 -1.806 -0.1 -1.052 -2.165 0.551 -1.507 -1.057 -1.969 -0.521 -2.3 0.3212 -0.222 0.6623 -0.413 1.019 -0.571 0.1341 -0.056 0.2487 -0.151 0.3292 -0.272 0.0806 -0.121 0.1236 -0.263 0.1236 -0.408 0 -0.145 -0.043 -0.287 -0.1236 -0.408 -0.0805 -0.121 -0.1951 -0.216 -0.3292 -0.272 -2.511 -1.134 -2.039 -0.856 -2.329 -1.741 -0.0876 -0.263 -0.24 -0.499 -0.4431 -0.687 -0.2031 -0.188 -0.4504 -0.322 -0.7189 -0.389 -0.672 -0.237 -0.651 -0.064 -0.63 -0.564 0.1 -2.313 -0.8 -3.306 2.623 -1.32 0.114 0.066 0.614 0.334 0.744 0.275 1.344 -0.606 -0.7 -1.907 -1.82 -2.206 -2.267 -0.6 -2.7 -2.928 -2.075 -3.08 1.9 -0.465 1.289 -0.418 2.9 0.4 0.8 0.4 1.2 -0.261 0.947 -0.692 -0.352 -0.592 -0.9 -0.613 -1.9 -1.2 -0.8456 -0.511 -1.5248 -1.256 -1.955 -2.145 -0.0567 -0.059 -0.0939 -0.134 -0.1066 -0.215 -0.0127 -0.081 -0.0003 -0.164 0.0356 -0.237 0.0358 -0.074 0.0934 -0.135 0.165 -0.175 0.0715 -0.039 0.1535 -0.056 0.235 -0.048 0.474 -0.043 0.948 -0.237 1.422 0.057 0.344 0.213 0.888 -0.412 0.536 -0.789 -0.6425 -0.571 -1.3925 -1.007 -2.206 -1.284 -1.092 -0.459 -1.453 -1.242 -2.074 -2.313 -0.436 -0.753 2.061 -0.183 2.318 -0.874 0.439 -1.185 -1.563 -0.948 -2.4 -3.469 -0.364 -1.093 2.136 -0.592 2.2 -1.374 0.116 -1.448 -1.026 -0.086 -1.832 -3.919 -0.167 -0.8 0.525 -0.469 1.491 -0.218 1.549 0.4 0.4 -1.775 0.573 -2.758 1.789 0.874 1.71 3.8 2.085 4.265 0.0487 0.06 0.1087 0.109 0.1765 0.145 0.0679 0.037 0.1422 0.059 0.2188 0.067 0.0766 0.007 0.154 -0.001 0.2275 -0.023 0.0736 -0.023 0.142 -0.06 0.2012 -0.109 0.2 -0.165 0.139 -0.285 0.754 -1.277 0.457 -0.736 1.251 -0.948 1.576 -0.185 1.136 2.669 -0.147 5.044 0.832 5.331 0.518 0.153 0.857 -0.744 1.08 -0.744 0.761 0 0.8 3.228 0.934 4.524 0.152 1.521 -0.784 1.533 -0.593 2.559 0.077 0.41 0.557 0.758 1.14 0.052 0.8 -0.972 1.261 -1.894 1.855 -1.116 0.883 1.156 0.569 3.8 0.059 5.234 -0.018 0.052 -0.71 1.36 -0.734 1.407 -0.367 0.709 0.288 1.989 1.884 -0.945 0.0436 -0.065 0.1045 -0.116 0.1758 -0.147 0.0713 -0.031 0.15 -0.042 0.227 -0.031 0.0771 0.012 0.1494 0.045 0.2085 0.095 0.0591 0.051 0.1027 0.118 0.1257 0.192 0.3362 0.866 0.4184 1.811 0.237 2.722 -0.0966 0.68 -0.2552 1.349 -0.474 2 -0.2255 0.478 -0.4072 0.975 -0.543 1.486 -0.028 0.158 0.223 0.781 0.647 0.561 0.817 -0.424 0.83 -1.474 1.564 -0.8 0.619 0.566 0.043 1.946 -0.192 2.791 -0.155 0.551 -0.228 0.961 0.309 1.299ZM84 134.459c0.514 -0.171 0.341 -0.6 0.27 -1.235 -0.389 -3.459 0.286 -4.568 -0.9 -7.023 -1 -2.088 -0.557 -3.3 -1.125 -4.675s-0.554 -2.623 -1.547 -3.649c-1.315 -1.358 0.06 -4.382 -2.405 -8.963 -0.3615 -0.72 -0.5812 -1.503 -0.647 -2.306 -0.0305 -0.105 -0.0978 -0.195 -0.1896 -0.254 -0.0917 -0.058 -0.2017 -0.082 -0.3095 -0.066 -0.1079 0.016 -0.2063 0.07 -0.277 0.153 -0.0708 0.083 -0.1091 0.189 -0.1079 0.298 -0.123 2.563 1.283 3.065 1.746 5.85 0.2728 1.461 0.4432 2.939 0.51 4.423 0.161 1.631 1.056 1.51 1.445 2.832 0.408 1.104 0.7352 2.236 0.979 3.388 0.024 1.316 0.3591 2.607 0.978 3.768 0.62 1.157 0.476 2.877 0.517 5.519 0.0129 0.574 0.1475 1.139 0.395 1.658 0.0239 0.063 0.0605 0.121 0.1075 0.17 0.047 0.049 0.1035 0.088 0.166 0.114 0.0625 0.027 0.1297 0.04 0.1975 0.04 0.0678 -0.001 0.1348 -0.015 0.197 -0.042Z" stroke-width="1"></path>
  <path fill="#ffffff" d="M80.695 56.623c0.54 0.618 0.709 0.545 0.7 0.988 -0.007 0.1926 -0.0889 0.3748 -0.2282 0.508 -0.1393 0.1331 -0.3251 0.2067 -0.5178 0.205 -0.3 0 -0.54 -0.283 -1.225 -0.972 -3.351 -3.366 -3.036 -5.385 -6.061 -5.385 -2.389 0 -5.82 1.722 -5.82 0.393 0 -0.607 0.671 -1.154 1.87 -1.154 0.324 0 0.654 0.029 0.981 0.029 1.049 0 1.076 -0.363 2.44 -0.363 0.756 0 0.915 -0.348 0.915 -0.5 0 -0.2 -0.059 -0.4 -1.377 -1.5 -0.734 -0.75 -1.576 -0.47 -2.7 -0.566 -0.7 -0.059 -1.386 -0.172 -2.078 -0.237 -1.555 -0.146 -2.787 -0.024 -2.8 -0.846 -0.0024 -0.0857 0.0122 -0.1709 0.0431 -0.2508 0.0308 -0.08 0.0772 -0.153 0.1364 -0.2149 0.0593 -0.0618 0.1302 -0.1113 0.2088 -0.1455 0.0785 -0.0342 0.163 -0.0525 0.2487 -0.0538 0.4 0 1.27 0.4 1.913 0.4 0.592 0 0.981 -0.3 1.736 -0.3 0.894 0 2.37 0.415 2.37 -0.313 0 -1.421 -2.34 -2.235 -2.744 -2.521 -0.5059 -0.4707 -1.0743 -0.8694 -1.689 -1.185 -0.652 -0.24 -2.873 -0.256 -2.983 -0.63 -0.055 -0.185 -0.249 -0.635 0.158 -0.694 0.7673 -0.0156 1.5345 0.0319 2.294 0.142 1.185 0 2.99 1.505 3 0.543 0.006 -0.461 -4.552 -5.462 -4.329 -6.469 0.0343 -0.1133 0.1006 -0.2142 0.1909 -0.2907 0.0903 -0.0764 0.2007 -0.1252 0.3181 -0.1403 0.448 0 1.055 1.087 1.621 1.829 0.566 0.742 1.353 1.334 1.922 2.083 0.343 0.452 1.076 2.12 1.767 3.234 1.16 1.869 1.24 2.107 1.576 2.107 0.948 0 -0.241 -1.3 0.441 -3.882 0.148 -0.561 0.218 -1.4 0.756 -1.047 0.3259 0.0965 0.6224 0.2729 0.8627 0.5132 0.2403 0.2403 0.4168 0.5369 0.5133 0.8628 0.065 0.929 -1.884 4.818 0.488 7.964 0.54 0.6 0.687 0.5 0.947 -0.33 0.3507 -0.8121 0.7893 -1.5834 1.308 -2.3 0.149 -0.254 0.308 -0.858 0.685 -0.858 0.183 0 0.3 0.119 0.455 0.266 1.654 1.545 -1.737 3.736 -1.73 5.6 0.006 1.6 2.159 4.04 3.417 5.481Z" stroke-width="1"></path>
  <path fill="#ffffff" d="M79.061 80.43c0.3089 1.0172 0.3747 2.0928 0.192 3.14 -0.111 1.559 -3.754 -1.727 -4.711 -2.874 -0.257 -0.307 -0.557 -0.761 -0.991 -0.374 -0.0867 0.0652 -0.144 0.1622 -0.1594 0.2696 -0.0154 0.1074 0.0125 0.2165 0.0774 0.3034 0.354 0.613 0.8181 1.1554 1.369 1.6 1.29 1.022 4.109 3.272 3.763 4.895 -0.268 1.251 0.038 1.42 -0.536 2.059 -2.1 2.344 -2.815 3.106 -5.753 1.457 -0.8641 -0.3598 -1.695 -0.7948 -2.483 -1.3 -6.317 -4.081 -6.395 -3.813 -6.871 -4.3 -0.361 -0.364 -1.123 0 -0.79 0.443 1.288 1.716 8.593 5.71 9.914 6.853 1.027 0.888 1.441 1.094 0.744 1.564 -0.6991 0.5259 -1.5253 0.8567 -2.3941 0.9586 -0.8688 0.1019 -1.7491 -0.0288 -2.5509 -0.3786 -1.3412 -0.6062 -2.7274 -1.1077 -4.146 -1.5 -10.326 -3.51 -12.355 -1.783 -15.02 -6.161 -1.137 -1.867 -0.87 -1.658 -1.239 -4.118 0.632 -3.554 0.579 -3.294 0.094 -3.812 -0.111 -0.119 -0.473 0.047 -0.59 0.256 -0.117 0.209 -0.344 1.326 -0.618 1.895 -0.234 0.488 0.047 1.339 -0.562 1.083 -0.9 -0.377 -1.158 -0.391 -1.421 -0.848 -0.79 -1.369 -1.327 -3.023 -0.612 -4.438 0.828 -1.637 0.755 -1.421 2.441 -2.467 1.095 -0.679 1.428 -0.787 1.263 -1.132 -0.457 -0.956 -1.264 0.163 -1.3 -1.007 -0.0171 -0.552 0.0966 -1.1003 0.332 -1.6 0.2 -0.417 0.44 0.183 1.493 1.076 0.587 0.5 0.511 0.765 0.9 1.421 0.315 0.536 -0.587 0.178 -0.659 1.813 -0.029 0.649 0.76 2 1.948 1.706 0.338 -0.084 0.689 -0.123 1.035 -0.18 0.384 -0.064 0.389 -0.053 0.512 0.379 0.171 0.6 0.241 0.587 1.341 2.393 0.511 0.84 1.124 1.242 3.6 2.879 0.989 0.655 1.312 0.81 1.625 0.377 0.556 -0.771 -1.308 -1.036 -3.838 -3.555 -0.7234 -0.6525 -1.2466 -1.497 -1.5088 -2.4353 -0.2622 -0.9382 -0.2526 -1.9317 0.0278 -2.8647 0.1674 -1.0502 0.6859 -2.0126 1.471 -2.73 2.975 -2.5 5.874 -2.336 9.056 -0.237 0.523 0.345 1.868 1.871 2.794 2.791 0.581 0.578 1.365 0.128 1.026 -0.426 -0.5768 -0.7422 -1.1972 -1.4495 -1.858 -2.118 -1.2211 -1.4817 -2.9167 -2.4958 -4.7998 -2.8707 -1.883 -0.3749 -3.8378 -0.0874 -5.5332 0.8137 -0.412 0.223 -1.936 -1.218 -3.033 -0.178 -0.839 0.8 -0.734 0.619 -1.659 -1.694 -0.189 -0.475 1.671 -1.2 2.164 -1.367 0.1696 -0.0432 0.3491 -0.0255 0.507 0.05 0.21 0.1 0.083 0.725 0.289 0.947 0.838 0.907 0.9 -0.629 1.857 -2.642 0.3188 -0.5799 0.7828 -1.0669 1.3467 -1.4133 0.5638 -0.3464 1.2079 -0.5403 1.8693 -0.5627 0.9916 -0.0821 1.9894 0.0415 2.931 0.363 1.3705 0.4242 2.6098 1.1918 3.6 2.23 3.173 3 2.935 4.868 6.717 8 2.84 2.353 3.128 3.047 4.436 3.952 1.2818 0.9149 2.2858 2.1663 2.901 3.616Z" stroke-width="1"></path>
  <path fill="#ffffff" d="M77.589 133.43c0.614 0.265 -0.478 1.4 0.021 2.678 0.125 0.32 -0.128 0.689 -0.711 0.625 -1.355 -0.148 -1.618 0.107 -4.108 -0.047 -0.612 -0.038 1.829 -1.578 -0.069 -3.77 -0.2449 -0.226 -0.5359 -0.397 -0.853 -0.5 -0.635 -0.267 0.16 -0.9 -0.412 -2.452 -0.0865 -0.325 -0.2963 -0.603 -0.5847 -0.776 -0.2885 -0.173 -0.6329 -0.227 -0.9603 -0.15 -0.337 0.064 -0.365 0.061 -0.325 -0.237 0.161 -1.2 -0.588 -3.586 -1.791 -3.746 -0.0389 -0.006 -0.0771 -0.015 -0.114 -0.029 -0.176 -0.064 -0.409 0.2 -0.531 -0.054 -0.159 -0.335 -0.334 -4.329 -2.2 -3.58 -1.024 0.409 -0.555 0.374 -0.789 -0.422 -0.344 -1.171 -1.46 -2.525 -2.426 -1.917 -0.757 0.476 -0.188 -0.571 -1.107 -2.242 -0.837 -1.521 -1.994 -0.7 -3.407 -2.272 -0.949 -1.056 2.186 0.038 1.725 -1.289 -0.241 -0.693 -0.116 0.049 -1.673 -2.1 -0.154 -0.213 -0.453 -0.843 -0.052 -0.869 0.293 0.012 0.5841 0.054 0.869 0.123 0.55 0.031 0.813 -0.362 0.548 -0.843 -0.1574 -0.249 -0.3368 -0.483 -0.536 -0.7 -2.969 -3.628 -0.475 -2.875 0.263 -2.261 0.6881 0.586 1.2785 1.278 1.749 2.05 0.0646 0.081 0.1515 0.14 0.2499 0.171 0.0984 0.032 0.2038 0.033 0.303 0.005 0.0992 -0.029 0.1879 -0.086 0.2548 -0.164 0.0669 -0.079 0.1091 -0.176 0.1213 -0.278 0.0082 -0.428 0.0588 -0.854 0.151 -1.272 0.33 -1.092 1.23 -0.187 1.6 0.893 1.2 3.448 0.855 4.032 1.474 4.111 0.682 0.087 0.441 -0.744 1.448 -1.405 0.225 -0.147 0.3 -0.133 0.4 0.111 1.036 2.449 0.39 3.872 0.7 4.647 0.364 0.913 1.072 -0.023 1.659 -0.59 0.949 -0.916 0.5 3.876 0.58 4.182 0.175 0.642 0.645 0.775 1.15 0.329 0.621 -0.549 1.059 -1.3 1.481 -0.365 0.471 1.04 0.109 3.408 -0.036 4.54 -0.05 0.387 0.211 1.112 0.8 0.83 0.589 -0.282 1.2 -0.849 1.457 -0.209 0.381 0.934 0.571 1.389 -0.017 3.132 -0.151 0.451 0.036 1.2 0.785 1.095 0.6 -0.087 1.388 0.038 1.388 0.668 0 2.344 -0.766 4.132 0.474 4.05 0.3697 0.011 0.7308 0.114 1.051 0.299Zm-10.426 -11.994c0.3 0.3 0.851 0 0.822 -0.474 -0.339 -0.95 -0.7866 -1.858 -1.334 -2.706 -0.3606 -0.612 -0.875 -1.118 -1.492 -1.469 -1.993 -1.172 -0.949 -2.643 -3.348 -5.061 -0.576 -0.58 -0.765 -0.623 -1.14 -0.358 -0.3 0.212 0.093 0.786 0.237 0.922 0.9625 1.012 1.6551 2.25 2.014 3.6 0.734 1.9 2.014 1.894 2.486 2.651 0.5229 0.994 1.1059 1.954 1.746 2.877l0.009 0.018Z" stroke-width="1"></path>
  <path fill="#ffffff" d="M71.7 133.667c0.1245 0.077 0.2325 0.178 0.3177 0.297 0.0853 0.119 0.1461 0.253 0.1789 0.396 0.0328 0.142 0.037 0.29 0.0124 0.434 -0.0247 0.145 -0.0777 0.282 -0.156 0.406 -0.2934 0.364 -0.5425 0.761 -0.742 1.183 -0.064 0.222 -0.853 0.109 -1.1 0.082 -0.7131 -0.47 -1.3251 -1.078 -1.8 -1.788 -0.725 -1.991 -1.51 -1.515 -2.133 -3.68 -0.668 -2.325 -2.008 -0.966 -2.923 -3.538 -0.3984 -0.879 -0.9946 -1.654 -1.742 -2.265 -0.662 -0.714 -0.464 -1.826 -2.18 -3.279 -0.556 -0.472 -0.785 -1.183 -1.369 -0.777 -0.4 0.276 0.027 0.951 0.386 1.289 2.349 2.215 1.034 2.4 2.912 4.113 1.41 1.283 0.664 2.172 2.369 3.533 0.614 0.49 1.2 0.342 1.422 1.2 0.2531 0.972 0.7415 1.868 1.422 2.607 0.638 0.7 0.944 1.826 1.421 2.222 0.076 0.063 0.116 0.27 -0.08 0.256 -5.024 -0.364 -0.809 0.078 -6.583 -2.18 -0.71 -0.278 -2.072 -1.733 0.394 -1.047 0.474 0.132 1.389 -0.206 1.111 -0.967 -0.78 -2.133 -4.482 -1.914 -5.251 -3.331 -0.061 -0.114 -0.092 -0.2 0.088 -0.254 0.382 -0.159 0.7922 -0.24 1.206 -0.237 0.41 0.034 0.647 -0.129 0.711 -0.379 0.211 -0.833 -0.9 -1.162 -1.72 -1.407 -2.447 -0.733 -1.856 -1.432 -1.2 -1.384 0.474 0.035 1.152 0.017 1.225 -0.445 0.2 -1.3 -2.13 -1.168 -3.424 -3.114 -0.747 -1.124 2.7 -0.056 1.957 -1.578 -0.232 -0.476 -0.822 -0.472 -1.63 -1.746 -1.92 -3.027 0.992 -2.086 2.273 0.18 0.412 0.73 1.092 0.562 1.3 -0.237 0.106 -0.395 0.257 -0.779 0.4 -1.163 0.055 -0.152 0.133 -0.2 0.313 -0.109 1.222 0.6 0.967 2.606 1.255 3.75 0.083 0.33 0.453 0.786 0.609 0.711 0.277 -0.132 0.589 -0.261 0.647 -0.63 0.019 -0.116 0.289 -0.682 0.588 -0.659 0.2497 0.109 0.4622 0.288 0.6116 0.516 0.1494 0.227 0.2291 0.494 0.2294 0.766 -0.065 1.716 -0.128 2.7 0.55 2.742 0.474 0.025 0.655 -0.45 0.924 -0.891 0.145 -0.238 0.533 -0.666 0.751 -0.666 0.218 0 0.3 0.4 0.362 0.64 0.717 2.824 0.1 2.843 0.38 3.694 0.0224 0.096 0.0733 0.184 0.1462 0.251 0.0728 0.067 0.1642 0.11 0.2622 0.125 0.098 0.014 0.198 -0.002 0.287 -0.045 0.0889 -0.044 0.1627 -0.113 0.2116 -0.199 0.223 -0.286 0.573 -1.306 1.047 -0.474 0.4436 0.774 0.579 1.686 0.379 2.555 -0.407 1.754 0.354 2.158 0.991 1.68 0.448 -0.337 0.948 -1.012 1.135 -0.147 0.187 0.865 -0.944 3.768 0.77 3.163 0.183 -0.06 0.391 -0.206 0.478 -0.175Z" stroke-width="1"></path>
  <path fill="#ffffff" d="M61.055 161.645c0.472 2.335 0.545 2.429 0.474 2.514 -0.161 0.173 -0.037 -0.264 -2.707 -0.843 -6.467 -1.4 -10.78 -2.173 -13.227 -5.594 -1.1 -1.541 -0.537 -3.415 -0.341 -4.962 0.3343 -1.819 1.1016 -3.53 2.237 -4.99 2.16 -3.136 6.528 -2.066 10.084 -1.41 1.659 0.306 1.746 0.339 1.737 0.73 -0.022 0.917 0.123 1.7 0.04 1.7 0 1.218 0.071 1.4 -0.208 1.329 -2.473 -0.592 -5.526 -1.776 -7.6 -1 -2.534 0.947 -3.45 5.475 -2.005 6.812 2.148 1.987 5.482 1.92 9.893 3.509 0.4467 0.183 0.8344 0.486 1.1207 0.875 0.2862 0.389 0.46 0.849 0.5023 1.33Z" stroke-width="1"></path>
  <path fill="#ffffff" d="M60.479 131.577c0.059 0.022 0.095 0.1 0.14 0.15 -0.237 0.123 -1.9 0.258 -1.273 1.791 0.223 0.547 0.171 1.635 -0.066 1.55 -0.4182 -0.109 -0.8071 -0.309 -1.1392 -0.585 -0.332 -0.277 -0.599 -0.623 -0.7818 -1.015 -0.3 -0.745 0.4 -1.687 0.947 -2.27 0.351 -0.379 0.413 -0.268 2.173 0.379Z" stroke-width="1"></path>
  <path fill="#ffffff" d="M53.789 70.005c0.239 0.168 -0.147 0.114 -1.024 1.218 -0.7377 1.2284 -1.1551 2.6223 -1.214 4.054 0.013 0.311 -0.185 0.3 -1.659 0.536 -0.376 0.06 -0.642 -0.567 -0.357 -0.856 0.2996 -0.2294 0.5054 -0.56 0.5791 -0.9301 0.0736 -0.3701 0.0099 -0.7543 -0.1791 -1.0809 -1.18 -2.609 -1.924 -1.9 -2.441 -3.171 -0.441 -1.087 -1.4 -2.947 -0.848 -2.694 0.552 0.253 1.447 -0.288 1.294 -0.746 -0.0458 -0.1405 -0.1444 -0.2577 -0.2751 -0.3267 -0.1306 -0.0691 -0.283 -0.0846 -0.4249 -0.0433 -0.618 0.175 -1.287 -0.479 -0.8 -0.748 0.2727 -0.2049 0.6071 -0.3107 0.948 -0.3 0.49 0.065 1.126 -0.312 1.322 0.413 0.064 0.237 1.17 6.366 3.113 5.3 0.682 -0.368 1.322 -1.076 1.966 -0.625Z" stroke-width="1"></path>
  <path fill="#c1e1fd" d="M51.757 46.792c0.269 0.473 0.218 0.948 -0.206 2.879 -0.3042 0.6555 -0.6649 1.2832 -1.078 1.876 -1.183 2.347 -5.587 4.922 -7.646 5.471 -6.674 1.78 -15.281 -2.843 -15.719 -8.679 -0.183 -2.431 -0.652 -2.016 -0.727 -3.673 -0.238 -5.191 3.213 -8.342 4.061 -9.589 2.047 -3.009 7.3 -4.685 10.662 -3.051 2.094 1.017 2.463 1.321 4.386 4.411 0.147 0.237 0.13 0.14 0.062 0.474 -0.451 -0.391 -0.486 -1.511 -2.742 -2.76 -0.834 -0.462 -0.983 -0.71 -1.836 -0.569 -0.344 0.057 -0.3 0.768 0.047 0.969 0.4 0.233 1.427 3.013 1.465 3.114 0.2409 0.5161 0.3769 1.0749 0.4 1.644 -1.251 0.1495 -2.3925 0.7862 -3.177 1.772 -0.536 0.659 -0.787 1.022 -0.422 1.564 0.237 0.282 0.711 -0.1 2.5 0.183 0.3 0.048 0.992 -0.3 0.773 0.213 -0.3122 0.7957 -0.4623 1.6457 -0.4415 2.5002 0.0207 0.8545 0.212 1.6963 0.5625 2.4758 0.0451 0.1206 0.1259 0.2246 0.2317 0.298 0.1058 0.0734 0.2315 0.1128 0.3603 0.1128s0.2545 -0.0394 0.3603 -0.1128c0.1058 -0.0734 0.1866 -0.1774 0.2317 -0.298 0.875 -2.181 0.6 -1.819 1.5 -2.844 0.776 -0.884 0.523 -0.778 1.422 -0.071 1.164 0.917 2.371 2.156 2.81 2.42 0.1037 0.0821 0.2291 0.1322 0.3609 0.1441 0.1318 0.0119 0.2641 -0.0149 0.3809 -0.0771 0.1167 -0.0622 0.2128 -0.1571 0.2764 -0.2731 0.0637 -0.116 0.0921 -0.248 0.0818 -0.3799 -0.0632 -1.1521 -0.2377 -2.2954 -0.521 -3.414 0.2 -0.053 0.075 0.1 0.291 0.358 1.161 1.395 0.733 1.925 1.29 2.912Z" stroke-width="1"></path>
  <path fill="#ffffff" d="M49.407 40.264c1.685 0.66 1.789 1.272 1.71 1.656 -0.7399 0.0319 -1.4811 0.0226 -2.22 -0.028 -0.985 0.113 -1.028 0.452 -0.507 0.924 0.4348 0.4255 0.7626 0.9478 0.9566 1.5244 0.1939 0.5766 0.2486 1.1909 0.1594 1.7926 -2.106 -1.471 -3.166 -3.458 -4.028 -2.457 -0.7932 0.8955 -1.5281 1.8412 -2.2 2.831 -0.436 -0.618 0.029 -2.989 0.267 -3.667 0.145 -0.413 0.448 -0.946 -0.248 -0.993 -0.368 -0.025 -1.913 -0.075 -1.96 -0.076 -0.237 -0.006 -1.134 0.041 -1.04 -0.073 0.6519 -0.7181 1.5332 -1.1872 2.493 -1.327 0.781 -0.133 1.37 0.009 1.035 -0.825 -0.2715 -1.1261 -0.5996 -2.2379 -0.983 -3.331 -0.062 -0.164 -0.65 -1.088 -0.526 -1.306 0.857 0.3505 1.5693 0.9821 2.02 1.791 0.7 1.337 0.837 2.369 1.422 2.035 0.474 -0.424 0.56 -2.109 0.538 -3.016 -0.0072 -0.1884 0.0523 -0.3732 0.168 -0.522 0.178 -0.161 0.417 0.346 0.54 0.647 0.5103 1.1274 0.7208 2.3674 0.611 3.6 0.06 0.716 0.745 0.41 1.792 0.82ZM45.67 42.25c0.573 0.138 0.86 -0.769 0.367 -1.043 -0.665 -0.37 0.161 -1.123 -0.8 -1.144 -0.65 -0.178 -1.546 1.71 0.433 2.187Z" stroke-width="1"></path>
  <path fill="#0a0430" d="M166.4 43.1c3.858 3.688 18.5 19.362 14.726 22.805 -1.178 1.2477 -2.524 2.3248 -4 3.2 -1.415 0.668 -4.4 0.218 -5.789 -0.3 -1.538 -0.554 -3.005 -1.2881 -4.371 -2.187 -1.024 -0.687 -1.657 -0.588 -3.87 -2.175 -10.542 -7.56 -17.319 -12.475 -29.954 -24.744 -6.3 -6.118 -21.765 -20.243 -22.751 -28.284 -0.394 -3.20797 2.3 -6.78997 5.923 -6.37597 8.836 1.009 30.277 19.97897 30.748 19.47697 3.574 -3.809 -0.71 -9.649 7 -10.641 3.741 -0.482 10.843 3.664 12.873 8.731 1.264 3.154 1.658 6.626 -0.971 8.8 -0.524 0.433 -0.711 0.522 -3.5 1.213 -0.688 0.0241 -1.361 0.2048 -1.969 0.5284 -0.607 0.3235 -1.133 0.7813 -1.537 1.3386 -0.56 0.777 -0.547 0.733 -0.249 0.948 2.22 1.592 6.477 6.501 7.691 7.666Zm13.29 22.567c0.515 -0.373 1.024 -0.832 0.905 -1.474 -1.286 -6.927 -14.691 -20.2 -19.663 -25.177 -0.882 -0.883 -2.817 -3.222 -3.1 -2.756 -0.5 0.7069 -0.782 1.5453 -0.81 2.411 -0.32 2.126 -0.837 2.4 -1.7 2.529 -2.073 0.321 -5.13 -1.693 -6.215 -2.547 -6.344 -4.99 -6.693 -6.935 -7.283 -8.117 -0.59 -1.182 -0.455 -3.2 1.03 -3.363 1.127 -0.2495 2.17 -0.7874 3.026 -1.561 0.178 -0.123 0.175 -0.224 0 -0.356 -1.923 -1.456 -29.311 -23.57697 -31.38 -18.44197C110.692 16.279 151.621 49.814 159.6 55.742c3.984 2.963 8.587 6.861 13.093 8.623 0.558 0.218 4.441 1.541 5.265 1.438 1.511 -0.003 1.493 0.034 1.732 -0.14v0.004ZM175 68.235c1.17 0.043 3.137 -1.05 2.682 -1.183 -6.226 -1.819 -5.1 -0.349 -17.314 -9.322 -11.43 -8.3251 -22.102 -17.6447 -31.89 -27.85 -14.175 -14.3 -14.257 -17.6 -15.638 -22.24397 -0.577 0.50355 -1.005 1.15628 -1.236 1.88669 -0.231 0.73038 -0.257 1.51028 -0.074 2.25428 1.124 3.08 1.531 4.282 5.686 9.715 4.991 6.525 25.121 26.3 37.706 35.336 4.673 3.354 9.594 7.312 12.629 8.811 0.903 0.6043 1.848 1.1437 2.827 1.614 1.475 0.5822 3.037 0.9141 4.622 0.982ZM155.607 18.5c3.191 5.3 11.331 10.35 10.952 7.876 -0.134 -0.869 0.057 -4.087 -4.415 -7.933 -6.191 -5.324 -12.316 -3.616 -12.065 0.68 0.171 2.919 3.156 6.279 4.843 7.623 3.142 2.5 6.188 5.747 10.289 3.618 0.288 -0.1657 0.535 -0.394 0.723 -0.6679 0.189 -0.274 0.313 -0.5867 0.364 -0.9151 0.145 -0.576 -0.5 0.079 -2.843 -1.341 -5.951 -3.6 -10.633 -9.74 -8.556 -10.023 0.646 -0.092 0.538 0.797 0.708 1.083Zm4.027 13.814c0.806 -0.431 -3.646 -0.637 -9.546 -5.571 -1.366 -1.141 -1.615 -2.353 -2.048 -1.755 -1.178 1.4857 -2.791 2.5666 -4.613 3.092 -0.161 0.0035 -0.315 0.0614 -0.439 0.1642 -0.123 0.1028 -0.208 0.2445 -0.241 0.4018 -0.452 3.388 5.181 7.583 7.909 9.641 1.172 0.9529 2.608 1.5251 4.114 1.64 0.947 0.057 0.893 -0.545 1.22 -2.069 0.328 -1.3847 0.961 -2.6788 1.853 -3.788 0.453 -0.7122 1.062 -1.3125 1.78 -1.756h0.011Z" stroke-width="1"></path>
  <path fill="#0a0430" d="M156.915 128.454c5.417 0 9.077 6.967 9.077 9.864 0 7.765 -14.766 11.094 -14.766 14.544 0 1.294 1.9 10 1.9 14.735 0 8.438 -4.333 11.842 -7.976 14.523C129.555 193.592 98.331 195 92.862 195c-21.325 0 -26.885 -8.39 -28.625 -16.245 -0.834 -3.765 -1.183 -7.556 -1.578 -10.091 -0.217 -1.391 -0.175 -2.309 -0.889 -2.858 -3.258 -2.509 -18.126 -1.748 -18.126 -10.688 0 -1.01 0.6 -10.625 8.672 -10.625 2.22 0.15 4.4281 0.441 6.611 0.872 0.237 0 0.146 -0.237 -0.08 -1.853 -0.001 -0.29 -0.0634 -0.577 -0.183 -0.841 -0.475 -0.71 -1.926 -0.21 -2.969 -4.976 -0.2084 -0.884 -0.3283 -1.787 -0.358 -2.695 0.0515 -1.331 0.4407 -2.628 1.131 -3.767 0.356 -0.521 0.812 -0.711 0.812 -0.972 0 -0.2 -0.288 -0.4 -0.4 -0.54 -0.2647 -0.315 -0.4189 -0.707 -0.439 -1.118 -0.02 -0.777 0.548 -0.78 0.548 -0.948 0 -0.168 -2.022 -0.7 -2.022 -2.4 0 -0.744 0.562 -0.9 0.562 -1.085 0 -0.185 -0.348 -0.147 -1.159 -0.9 -0.6426 -0.526 -1.0609 -1.277 -1.17 -2.1 0 -0.818 0.68 -1 1.27 -1.316 -0.7019 -0.892 -1.1965 -1.93 -1.448 -3.037 -0.421 -2.194 2.62 -2.01 4.078 -0.256 0.2 0.237 0.335 0.424 0.474 0.208 0.395 -0.615 -0.2 -0.326 -1.3 -1.71 -0.2518 -0.328 -0.4026 -0.723 -0.434 -1.135 -0.088 -0.95 1.57 -0.794 1.147 -1.3 -0.4997 -0.584 -0.8762 -1.262 -1.107 -1.995 -0.0922 -0.241 -0.0863 -0.509 0.0165 -0.745 0.1029 -0.237 0.2944 -0.424 0.5335 -0.521 0.426 -0.255 0.432 -0.241 0.13 -0.647 -0.5736 -0.756 -0.9204 -1.66 -1 -2.606 -0.047 -0.639 0.056 -0.707 0.628 -0.976 0.3238 -0.147 0.6768 -0.218 1.0322 -0.209 0.3554 0.01 0.7041 0.099 1.0198 0.263 0.6282 0.293 1.1832 0.722 1.625 1.256 0.415 0.386 0.275 -0.346 0.8 -0.694 1.734 -1.149 3.184 1.084 3.554 3.094 0.0898 0.38 0.2095 0.753 0.358 1.114 1.829 -0.905 1.859 -1.168 2.708 0.948 0.867 2.161 0.292 3 0.848 2.781 0.761 -0.3 1.182 -0.353 1.621 0.538 0.68 1.38 0.4 3.261 0.526 3.427 0.2 -0.081 0.391 -0.164 0.588 -0.237 1.34 -0.5 2.063 1.324 2.18 2.748 0.046 0.567 -0.067 1.82 -0.076 2.329 -0.005 0.275 0.161 0.165 0.564 0.088 0.125 -0.024 0.166 -0.105 0.109 -0.211 -0.1987 -0.494 -0.2722 -1.03 -0.214 -1.559 -0.0023 -0.227 0.0407 -0.453 0.1266 -0.664 0.0858 -0.21 0.2128 -0.402 0.3734 -0.563 0.782 -0.9 1.611 0.244 -0.023 -2.038 -0.2946 -0.472 -0.4053 -1.036 -0.311 -1.585 0.0398 -0.236 0.17 -0.447 0.363 -0.588 0.6 -0.557 -0.365 0.283 -2.2 -3.08 -0.323 -0.592 -0.469 -1.531 0.422 -1.841l0.765 -0.28c-0.085 -0.291 -1.405 -1.552 -1.405 -3.1 0 -1.493 1.552 -1.355 1.552 -1.6 -0.6889 -1.221 -1.0885 -2.583 -1.168 -3.983 0 -0.675 0.265 -0.99 1.04 -0.99 0.531 0 0.725 0.083 0.948 0.083 0.474 0 0.057 -0.524 0.057 -1.474 0 -1.711 2.212 -1.6 3.35 0.87 0.417 0.905 0.379 1.4 0.595 1.4 0.216 0 0.127 -0.639 1.592 -0.917 0.193 -0.039 0.3884 -0.065 0.585 -0.078 1.453 0 1.851 3.57 1.851 4.293 0 0.142 -0.029 0.261 -0.029 0.4 0 0.54 0.6 0.37 0.915 0.512 1.42 0.636 1.279 5.213 1.455 5.646 0.108 0.268 0.538 0.019 1.049 0.019 1.659 0 1.863 3.438 1.863 4.241 0 0.389 -0.123 0.948 -0.123 1.166 0 0.443 0.557 0.329 0.812 0.505 0.686 0.472 0.972 2.111 0.972 3.042 0 0.3 0.054 0.521 0.346 0.521 0.023 0 3.535 -0.544 4.423 -0.725 0.628 -0.127 1.2 -0.092 1.2 -0.893 -1.2651 -5.654 -1.9774 -11.417 -2.127 -17.209 0 -0.988 0.093 -1.208 0.215 -1.383 0.544 -0.78 1.967 -0.358 2.37 0.4 1.5538 1.651 2.8588 3.52 3.874 5.547 0.045 0.09 0.135 0.357 0.26 0.357 0.214 0 0 -0.6 0.017 -3.663 0.028 -5.026 0.719 -9.278 0.753 -10.935 0.023 -0.572 0.096 -1.1408 0.218 -1.7 0.146 -0.733 0.471 -2.5 1.685 -2.5 1.479 0 2.533 3.89 3.516 7.9 1.045 4.265 1.988 8.675 2.453 8.675 0.3 0 0.537 -0.5 2.684 -5.493 0.4 -0.924 -0.161 -0.566 -0.381 -1.618 -0.017 -0.1742 -0.056 -0.3455 -0.116 -0.51 -0.561 -0.6266 -0.881 -1.4315 -0.905 -2.272 0 -0.7 0.682 -1.113 0.682 -1.4 0 -0.287 -0.5 -0.133 -1.083 -0.756 -0.476 -0.51 -0.474 -0.725 -0.474 -0.746 0.01 -0.0502 0.017 -0.101 0.022 -0.152 0 -0.573 -1.2 -0.846 -1.206 -2.526 -0.003 -0.3825 0.078 -0.7611 0.237 -1.1087 0.16 -0.3476 0.395 -0.6557 0.687 -0.9023 0.409 -0.342 1.1 -0.421 1.014 -1.2 0 -0.836 0.779 -0.931 1.2 -1.421 0.437 -0.51 0.491 -1.565 1.895 -2.251 0.472 -0.231 2.509 -0.213 3.111 -0.474 0.602 -0.261 1.659 -1.63 2.27 -1.63 0.491 0.049 0.953 0.2601 1.311 0.6 0.236 0.2 0.334 0.486 0.767 0.486 0.346 0 0.609 -0.161 1.085 -0.161 1.007 0 1.185 0.682 1.7 0.682 0.474 0 0.9 -0.5 1.6 -0.5 1.36 0 2.417 2.044 2.751 2.319 0.334 0.275 0.785 0.119 1.164 0.256 0.498 0.2493 0.91 0.6413 1.184 1.126 0.678 0.953 0.792 1.338 0.792 1.817 0 1.448 0.661 1.076 0.948 2.05 0.033 0.2537 0.094 0.5031 0.18 0.744 0.147 0.286 0.474 0.421 0.611 0.71 0.091 0.192 0.028 0.425 0.149 0.6 0.3 0.439 1.119 0.351 1.119 1.6 0 1 -0.365 1.353 -0.365 1.874 0 0.521 0.4 0.4 0.744 0.948 0.284 0.5363 0.425 1.1372 0.407 1.744 -0.033 1.788 -1.21 1.559 -1.21 2.369 0 0.261 0.127 0.474 0.127 0.784 0 0.711 -0.689 0.964 -1.059 1.422 -0.155 0.193 -0.2 0.438 -0.367 0.63 -1.423 1.6 -1.749 1.611 -2.549 1.789 -3.013 0.67 -2.871 -0.441 -3.3 -0.441 -0.4 0 -0.685 1.9 -2.353 1.9 -0.438 0 -0.711 -0.171 -1.111 -0.171 -0.661 0 -0.988 0.365 -1.578 0.365 -0.424 0 -0.635 -0.2 -0.948 -0.2 -0.237 0 -0.341 0.076 -1.208 0.853 -4.5 4.029 -3.058 4.944 -5.2 6.651 -2.809 2.235 -3.1 -0.669 -1.844 3.791 0.273 0.971 0.012 0.843 2.9 0.53 0.548 0.002 1.077 -0.201 1.483 -0.568 2.2 -1.4 3.694 -1.005 3.694 -1.5 0 -0.382 -1.033 -0.607 -1.033 -1.6 0 -1.317 1.817 -2.948 3.623 -2.948 1.955 0 2.315 1.763 2.985 1.763 0.379 0 1.685 -1.346 3.888 -1.346 1.097 0.08 2.18 0.299 3.221 0.654 0.236 0.1 0.187 0.389 0.77 0.536 1.09 0.275 2.767 -0.422 5.582 2.308 0.31 0.3 0.614 0.763 1.021 0.926 0.443 0.178 5.437 0.039 7.909 3.116 1.328 1.652 1.813 4.749 1.813 6.874 -0.066 0.967 -0.393 1.899 -0.948 2.694 -0.237 0.3 -0.613 0.474 -0.613 0.947 0 0.387 0.118 0.326 0.308 1.958 0.027 0.237 0.033 0.619 0.3 0.616 0.512 -0.007 4.997 -3.281 8.767 -3.281Zm-4.571 21.112c3.53 -2.292 14.78 -7.278 11.99 -13.148 -0.523 -1.423 -1.288 -2.746 -2.261 -3.909 -1.852 -1.84 -2.54 -2.417 -3.741 -2.754 -3.08 -0.864 -5.674 0.843 -9.805 3.128 -0.35 0.194 -0.07 0.284 -0.021 0.455 0.914 3.161 0.756 3.036 1.123 2.76 0.546 -0.409 1.116 -0.689 2.187 -1.374 2.291 -1.465 4.674 -2.577 6.713 -0.775 1.307 1.155 2.542 3.355 1.786 4.933 -0.872 1.82 -1.517 1.729 -8.331 6.27 -0.345 0.27 -0.617 0.623 -0.788 1.026 -0.172 0.403 -0.238 0.843 -0.193 1.279 0.356 3.985 0.036 2.957 1.341 2.109Zm6.052 -10.113c1.275 -0.929 1.06 -2.418 0.147 -3.633 -2.438 -3.243 -5.024 -0.49 -9.53 2.051 -0.256 0.144 0 0.361 0.194 1.559 0.324 2.036 0.665 4.589 0.775 5.163 0.074 0.386 0.1 0.309 2.761 -1.422 5.973 -3.887 5.392 -3.528 5.657 -3.718h-0.004Zm-6.431 29.759c0.158 -1.875 0.088 -3.762 -0.211 -5.62 -0.841 -5.129 -4.871 -31.309 -5.24 -33.413 -0.068 -0.391 -0.1 -0.331 -0.98 0.095 -9.364 4.531 -23.834 8.853 -33.192 10.622 -0.1 0.02 -0.339 0.068 -8.293 1.277 -13.446 2.046 -7.52 0.891 -13.361 1.479 -11.781 1.185 -17.628 1.937 -29.973 1.291 -0.5 -0.026 -0.438 -0.263 -0.081 2.318 0.619 4.461 1.526 8.818 1.659 10.067 0.05 0.474 2.174 15.421 2.31 16.222 0.841 4.954 1.246 9.2 4.689 12.868 2.6814 2.841 6.1861 4.769 10.021 5.514 7.15 1.836 15.3 1.932 22.26 1.21 16.228 -1.682 7.367 -0.6 19.141 -2.926 6.255 -1.236 5.627 -1.042 9.511 -2.369 5.424 -1.855 14.071 -5.547 17.889 -9.815 2.282 -2.395 3.646 -5.518 3.851 -8.82Zm-4.051 -44.071c0.065 -0.924 -0.237 -4.075 -0.756 -4.287 -0.18 -0.073 -0.306 0.789 -0.619 1.082 -0.783 0.891 -1.747 1.605 -2.829 2.092 -12.521 6.231 -20.924 7.367 -31.177 10.07 -4.393 1.159 1.251 0.073 -9.309 1.623 -14.193 2.084 3.08 0.419 -24.51 2.216 -3.175 0.207 -16.7 -0.552 -19.254 -1.483 -0.6344 -0.239 -1.2524 -0.519 -1.85 -0.839 -0.661 -0.363 -0.578 -0.877 -0.995 -0.82 -0.034 0.218 -0.069 0.436 -0.109 0.687 0.689 5.324 0.9 6.322 9.037 7.092 7.344 0.767 14.7479 0.767 22.092 0 4.291 -0.056 8.567 -0.518 12.771 -1.379 4.028 -0.785 11.883 -1.293 18.956 -3.407 2.242 -0.671 7.106 -1.234 15.368 -4.341 13.436 -5.054 13.03 -6.127 13.184 -8.306Zm-1.965 -4.662c0.485 -1.126 -0.3 -1.963 -1.388 -2.52 -1.232 -0.502 -2.518 -0.861 -3.832 -1.069 -1.383 -0.045 0.027 0.6 0.318 2.448 0.029 0.203 0.127 0.391 0.278 0.531 0.15 0.14 0.344 0.224 0.549 0.239 1.118 0.149 2.416 0.6 2.732 1.692 0.129 0.445 1.072 -0.691 1.343 -1.321Zm-6.94 4.395c2.762 -1.182 2.7 -1.08 2.457 -1.6 -0.454 -0.995 -1.354 -2.438 -1.644 -3.251 -1.386 -3.891 -3.331 -6.627 -7.431 -6.336 -2.388 0.17 -5.453 2.281 -5.551 2.775 -0.047 0.237 0.116 0.418 0.258 0.874 0.233 0.746 0.237 0.711 1.036 0.671 0.803 -0.089 1.616 -0.055 2.409 0.1 1.115 0.145 2.178 0.556 3.1 1.2 1.151 1.118 1.095 1.959 1.773 2.957 0.734 1.08 -0.756 2.014 -1.256 0.488 -0.245 -0.599 -0.555 -1.169 -0.924 -1.7 -0.218 -0.34 -0.505 -0.63 -0.842 -0.852 -0.337 -0.222 -0.717 -0.371 -1.115 -0.437 -0.796 -0.288 -1.642 -0.416 -2.488 -0.374 -0.625 -0.05 -1.255 0.015 -1.856 0.194 -1.19 0.51 -2.27 1.244 -3.182 2.163 -1.108 1.843 -1.6 2.335 -1.286 6 0.035 0.4 0.308 1.056 -0.41 1.119 -1.055 0.092 -1.147 -2.649 -1.088 -3.521 0.312 -4.58 2.947 -4.845 2.474 -5.59 -0.613 -0.963 -0.8 -2.232 -2.173 -2.879 -1.164 -0.548 -2.812 0.079 -3.229 0.133 -0.462 0.092 -0.899 0.284 -1.278 0.564 -0.923 0.287 -2 1.875 -2.355 3.035 -0.511 1.66 0.241 1.8 0.429 2.062 1.8 2.521 2.8 3.791 2.971 6.634 0.148 0.631 0.206 1.28 0.173 1.927 -0.083 0.39 0.336 0.074 2.685 -0.325 1.505 -0.28 2.99 -0.656 4.447 -1.126 8.919 -2.511 7.756 -2.689 9.478 -3.2 1.1 -0.336 3.319 -1.235 4.418 -1.705Zm-6.336 -28.293c0.125 -1.351 -2.165 -1.046 -1.284 -2.209 0.355 -0.5632 0.545 -1.215 0.548 -1.881 0.082 -0.744 -1.533 0.14 -1.282 -1.272 -0.002 -0.0196 -0.002 -0.0394 0 -0.059 0.362 -0.711 -0.752 -0.65 -0.725 -1.778 0.027 -1.168 -1.86 -0.573 -1.107 -2.014 0.363 -0.694 -0.282 -1.435 -0.694 -1.985s-0.659 -0.609 -1.358 -0.391c-0.571 0.178 -0.962 -0.116 -1.031 -0.73 -0.069 -0.614 -0.4 -0.9 -1.007 -1.531 -1.239 -1.286 -2.208 1.663 -3.08 0.072 -0.478 -0.873 -1.094 -0.692 -1.94 -0.195 -0.607 0.356 -1.114 0.168 -1.221 -0.528 -0.1 -0.63 -0.788 -0.823 -0.947 -0.711 -1.342 0.942 -1.036 1.078 -1.159 1.557 -0.269 1.047 -1 0.947 -1.3 0.31 -0.079 -0.0998 -0.192 -0.166 -0.318 -0.185 -1.962 0.19 -2.149 0.237 -2.4 0.436 -1.491 1.184 0.412 1.59 -1.658 2.2 -0.948 0.28 0.4 1.423 -1.235 1.965 -0.9 0.3 -1.32 0.86 -1 2.047 0.118 0.436 0.475 0.539 0.694 0.668 0.923 0.542 -0.063 0.992 0.678 1.514 0.934 0.658 1.815 -0.41 2.147 -0.656 0.741 -0.55 1.637 0.031 1.507 0.474 -0.224 0.762 -1.332 -0.062 -1.23 1.094 0.107 1.221 -0.491 1.156 -1.436 1.37 -0.185 0.042 -0.464 0.33 -0.429 0.5 0.077 0.3615 0.177 0.7176 0.3 1.066 0.024 0.071 0.14 0.128 0.225 0.156 1.185 0.4 0.19 1.139 0.583 1.671 0.255 0.344 0.558 0.65 0.846 0.969 0.347 0.046 0.7 0.0118 1.031 -0.1 0.091 -0.053 0.196 -0.0757 0.3 -0.0647 0.104 0.011 0.202 0.055 0.28 0.1257 0.73 0.5 -0.32 1.333 1.1 1.363 0.8 0.017 1.368 -0.237 1.474 -1.015 0.145 -1.066 1.283 -0.792 2.132 -1.405 0.277 -0.2 1.3 0.361 0.176 1.315 -0.713 0.607 -0.913 0.538 -0.593 0.967 0.531 0.711 1.19 0.831 0.711 1.5 -0.129 0.181 -0.618 0.607 -0.595 0.711 0.422 1.871 0.794 0.3 1.628 1.315 0.388 0.473 -0.686 0.866 -0.085 1.149 1.014 0.479 1.289 -0.558 2.789 -0.073 0.156 0.048 0.32 0.064 0.482 0.046 0.162 -0.019 0.319 -0.071 0.46 -0.153 0.141 -0.082 0.263 -0.192 0.359 -0.324 0.096 -0.131 0.164 -0.282 0.199 -0.441 0.308 -0.698 0.688 -1.362 1.132 -1.983 0.391 -0.82 1.632 0.217 1.315 1.1 -0.2 0.544 -0.161 0.44 0.635 0.59 1.422 -0.306 2.045 -0.162 2.912 -1.327 0.354 -0.475 -0.222 -0.526 0.356 -1.142 0.47 -0.5 1.055 -0.06 1.014 -0.65 -0.033 -0.473 -0.529 -1.4 0.459 -1.852 0.897 -0.399 0.595 -1.087 0.642 -1.596Zm-3.473 16.546c1.292 -0.652 1.659 -0.5 -0.606 -0.846 -1.834 0.341 -1.031 -0.037 -2.966 1.075 -0.272 0.157 -0.2 0.193 0.488 1.678 0.298 0.638 0.115 -0.409 3.084 -1.907Zm-3.284 5.343c0.285 -0.14 0.178 -0.219 -0.329 -1.422 -1.9 -4.506 -1.658 -4.065 -2.483 -3.317 -1.235 1.118 -1.606 -0.239 -1.017 -0.768 0.964 -0.864 0.647 -0.9 -0.2 -1.144 -0.474 0.013 -0.937 0.145 -1.346 0.385 -0.408 0.24 -0.75 0.58 -0.992 0.987 -0.533 0.725 0.217 0.488 1.729 1.625 5.172 3.884 1.905 4.995 4.64 3.654h-0.002Zm-9.655 -11.644c2.014 -2.051 2.521 -2.106 1.995 -2.388 -0.526 -0.208 -0.961 -0.595 -1.23 -1.092 -0.268 -0.498 -0.352 -1.074 -0.237 -1.628 0 -0.548 -0.22 -0.361 -0.41 -0.614 -0.06 -0.08 -1.9 1.207 -3.113 -0.159 -0.361 -0.4 -0.911 0.108 -1.841 -0.436 -0.6 -0.347 -0.936 3.077 -4.045 7.346 -0.776 1.065 -1.745 1.373 0.026 3.577 0.779 0.97 2.064 1.093 3.284 1.356 0.87 0.187 1.527 -0.53 2.3 -1.209 0.549 -0.479 0.616 -2.048 3.273 -4.753h-0.002Zm-2.68 25.775c3.182 -0.891 3.6 0.172 2.931 -3.618 -0.025 -1.027 -0.311 -2.031 -0.832 -2.917 -2.561 -4.134 -3.1 -4.089 -7.047 -6.931 -1.02 -0.624 -2.102 -1.14 -3.229 -1.54 -0.864 -0.33 -1.76 -0.568 -2.673 -0.711 -1.559 -0.331 -1.7 0.147 -3.343 0.344 -0.6479 0.124 -1.2645 0.377 -1.8131 0.743s-1.0181 0.839 -1.3809 1.39c-0.6082 1.005 -1.132 2.059 -1.566 3.151 -1.958 4.965 -1.754 4.605 -4.813 7.625 -0.6641 0.653 -1.181 1.44 -1.5161 2.31 -0.3351 0.869 -0.4807 1.799 -0.4269 2.729 0.266 1.062 0.114 0.948 1.166 0.948 0 0.083 -0.132 0.074 1.045 -0.054 0.1 0 0.159 -0.072 0.069 -0.142 -0.2545 -0.274 -0.4604 -0.589 -0.609 -0.932 -0.626 -0.96 0.313 -2.636 2.054 -2.722 0.948 -0.047 0.711 -1.817 2.716 -1.339 0.663 0.158 0.511 0.419 1.5 2.474 0.834 1.731 1.014 1.97 1.671 1.817 1.757 -0.41 1.808 -0.308 1.528 -0.647 -0.448 -0.542 -1.249 -0.332 -1.988 -2.2 -0.451 -1.145 -0.236 -1.928 -1.277 -2.509 -3.614 -2.021 -1.876 -4.662 -0.038 -3.962 1.3 0.494 1.644 1.023 2.588 0.545 0.8187 -0.494 1.758 -0.751 2.715 -0.743 0.956 0.008 1.891 0.282 2.701 0.79 1.797 1.103 3.287 2.641 4.334 4.471 1.084 1.788 0.569 2.569 1.156 2.462 1.464 -0.269 2.942 -0.433 4.38 -0.833l-0.002 0.001Zm-0.562 -11.954c0.18 -1.248 0.986 -2.033 0.607 -2.08 -1.7 0.237 -1.74 0.206 -1.753 0.334 -0.127 1.184 0.484 1.426 0.985 1.81 0.087 0.065 0.148 0.04 0.163 -0.064h-0.002Zm-2.57 -1.674c0.553 0.366 -0.259 -2.343 -0.517 -2.957 -0.19 -0.452 -1.545 -0.488 -2.133 -0.321 -2.885 0.821 -2.927 -1.151 -2.16 -0.99 1.182 0.248 2.551 -0.64 3.532 -0.318 0.058 0.014 0.117 0.019 0.176 0.014 0.154 0 0.2 -0.064 0.175 -0.22 -0.121 -0.8 -1.519 -0.287 -2.727 -1.517 -0.392 -0.155 -0.796 -0.276 -1.209 -0.362 -0.613 0.204 -1.24 0.362 -1.876 0.474 -0.122 -0.016 -0.235 -0.073 -0.319 -0.162 -0.084 -0.09 -0.136 -0.205 -0.145 -0.328 -0.009 -0.122 0.024 -0.244 0.095 -0.345 0.07 -0.101 0.173 -0.174 0.291 -0.208 1.823 -0.734 1.893 -0.5 1.8 -1 -0.383 -2.029 -0.514 -1.445 1.531 -4.265 0.053 -0.118 0.082 -0.245 0.088 -0.374 -0.5 0.121 -0.327 0.106 -1.5 -0.273 -0.992 -0.32 -1.895 0.27 -2.566 0.424 -0.671 0.154 -0.855 -0.758 -0.3 -1.054 4.5 -2.416 5 3.1 3.057 -4.739 -0.095 -0.381 -0.2 -0.715 -0.711 -0.633 -0.171 0.028 -0.821 -0.694 -2.762 0.221 -0.938 0.442 -1.556 -0.41 -0.278 -1.174 1.966 -1.174 3.355 0.064 3.21 -0.667 -0.474 -2.393 -0.473 -1.9 -0.976 -1.9 -0.692 -0.1374 -1.408 -0.1006 -2.083 0.107 -0.331 0.149 -0.551 0 -0.668 -0.341 -0.261 -0.767 1.313 -1.219 2.135 -1.081 0.157 0.025 0.315 0.037 0.474 0.036 0.32 0.019 0.353 -0.012 0.273 -0.292 -1.324 -4.627 -1.583 -4.758 -2.133 -5.449 -0.55 -0.691 -0.978 1.807 -1.026 2.751 -0.049 0.98 -0.173 0.77 0.732 0.675 0.391 -0.041 0.542 0.021 0.635 0.332 0.111 0.369 0.032 0.581 -0.32 0.71 -0.946 0.348 -1.127 -0.017 -1.241 0.614 -0.017 0.095 -0.356 2.91 -0.391 3.317 -0.13 1.139 -0.152 2.2879 -0.064 3.431 0.017 0.218 0.028 1.043 0.033 1.085 0.02 0.164 -0.1 0.413 0.114 0.474 0.553 0.161 0.7 -1.273 3.722 -1.253 0.647 0 1.149 0.912 0.664 1.258s-1.3 -0.393 -2.607 0.363c-1.769 1.023 -1.876 0.542 -1.914 0.985 -0.073 1.643 0.046 3.289 0.355 4.905 0.1 0.673 0.449 0.261 1.46 -0.052 1.322 -0.409 2.028 -0.41 1.988 0.386 -0.034 0.663 -0.823 0.15 -2.912 1.216 -0.443 0.225 -0.2 0.178 1.075 2.89 1.533 3.255 0.434 2.167 3.071 3.045 1.738 0.604 3.375 1.467 4.854 2.562h-0.002Zm-3.173 14.691c0.611 -0.072 0.092 -1.2 -0.126 -1.832 -0.861 -2.5 -4.82 -5.369 -6.208 -4.972 -0.849 0.155 -1.6797 0.399 -2.478 0.727 -1.16 0.61 -1.638 -0.075 -3.058 -0.651 -0.776 -0.315 -0.908 0.763 -0.261 1.291 1.263 1.029 1.709 0.907 1.96 1.348 0.4295 0.852 0.7648 1.748 1 2.673 0.53 1.377 1.682 0.867 2.239 1.751 0.674 0.348 1.443 0.467 2.191 0.339 0.3 0.156 1 -0.261 1.659 -0.256 1.036 -0.075 2.066 -0.214 3.084 -0.418h-0.002Zm-5.365 -18.08c0.5 -0.03 -0.161 -0.877 -0.786 -0.748 -0.37 0.076 -1.035 0.377 -1.216 -0.357 -0.116 -0.474 0.347 -0.533 1.081 -0.831 0.358 -0.146 0.235 -0.236 -1.038 -2.889 -0.432 -0.9 -2.473 0.318 -3.08 0.749 -0.751 0.533 -0.842 0.474 -1.116 0.2 -0.274 -0.274 0.3 -0.942 0.746 -1.218 2.16 -1.343 2.821 -0.856 2.481 -1.612 -0.4061 -1.129 -0.9499 -2.204 -1.619 -3.2 -0.26 -0.379 -1.019 -0.49 -1.921 0.445 -0.42 0.436 -0.647 0.271 -0.711 0.095 -0.064 -0.176 -0.218 -0.474 0.237 -0.971 0.1725 -0.216 0.3859 -0.395 0.6278 -0.528 0.242 -0.133 0.5078 -0.217 0.7822 -0.247 0.421 -0.045 0.381 -0.237 -1.611 -2.628 -0.107 -0.128 -0.683 -0.755 -0.929 -0.651 -0.32 0.134 -0.365 0.514 -0.323 1.149 0.074 1.1 0.156 4.364 0.491 6.625 0.7025 -0.556 1.4917 -0.994 2.336 -1.294 1.009 -0.241 1.087 0.311 1.1 0.493 0.018 0.275 -0.42 0.474 -0.607 0.443 -0.656 -0.108 -1.308 0.735 -2.161 1.2 -0.453 0.249 -0.75 -0.063 0.157 4.559 0.0111 0.051 0.0413 0.095 0.0844 0.124 0.0431 0.028 0.0957 0.039 0.1466 0.03 0.7713 -0.762 1.7556 -1.273 2.823 -1.465 0.2745 -0.067 0.5598 -0.079 0.839 -0.035 0.237 0.132 0.161 0.3 0.175 0.535 0.014 0.235 -0.156 0.238 -0.289 0.311 -0.944 0.512 -1.659 0.1 -2.453 1.1 -0.794 1 -1 0.915 -0.947 1.279 0.276 1.754 0.239 1.82 0.5 1.659 2.378 -1.471 0.561 -0.949 3.772 -1.895 0.773 -0.303 1.6 -0.448 2.43 -0.427h-0.002Zm-8.994 20.287c3.985 -0.474 2.422 0.021 1.621 -2.86 -0.0946 -0.339 -0.2392 -0.663 -0.429 -0.96 -0.162 -0.251 -0.264 -0.269 -0.536 -0.17 -0.65 0.234 -0.35 1.479 -1.912 1.476 -1.933 0 -1.318 2.263 0.334 2.469 0.281 0.035 0.559 0.026 0.924 0.045h-0.002Zm-0.173 -11.819c1.1 -3.047 1.128 -2.72 0.782 -2.768 -0.225 0.024 0.277 -0.064 -2.862 0.515 -1.631 0.3 -1.906 0.237 -1.955 0.71 -0.037 0.358 -0.024 0.449 0.334 0.579 1.75 0.635 0.971 2.053 1.557 1.876 1.652 -0.498 1.9 -0.215 2.146 -0.912h-0.002Zm-5.94 9.494c0.929 -4.4 3.125 -4.491 2.263 -5.032 -0.533 -0.335 -0.451 -0.745 -0.285 -1.294 0.255 -0.839 0.811 -2.225 0.192 -2.791 -0.734 -0.671 -0.746 0.379 -1.564 0.8 -0.424 0.22 -0.675 -0.4 -0.646 -0.562 0.1292 -0.512 0.3109 -1.01 0.542 -1.485 0.2031 -0.655 0.3615 -1.323 0.474 -2 0.1861 -0.911 0.1037 -1.857 -0.237 -2.722 -0.023 -0.074 -0.0666 -0.141 -0.1257 -0.192 -0.0591 -0.05 -0.1314 -0.083 -0.2085 -0.095 -0.077 -0.011 -0.1558 0 -0.227 0.031 -0.0713 0.031 -0.1322 0.082 -0.1758 0.147 -1.708 3.132 -2.167 1.468 -1.883 0.945 0.025 -0.047 0.71 -1.355 0.734 -1.407 0.5 -1.441 0.828 -4.081 -0.059 -5.234 -0.592 -0.769 -1.054 0.143 -1.855 1.116 -0.585 0.709 -1.064 0.357 -1.14 -0.052 -0.191 -1.027 0.745 -1.038 0.592 -2.559 -0.13 -1.3 -0.173 -4.524 -0.933 -4.524 -0.223 0 -0.562 0.9 -1.081 0.744 -0.979 -0.287 0.306 -2.663 -0.831 -5.331 -0.325 -0.761 -1.119 -0.552 -1.576 0.185 -0.2188 0.349 -0.4191 0.71 -0.6 1.08 -0.0428 0.088 -0.1072 0.164 -0.1871 0.221 -0.0799 0.057 -0.1728 0.093 -0.2702 0.104 -0.0974 0.012 -0.1961 -0.001 -0.2871 -0.038 -0.091 -0.036 -0.1713 -0.095 -0.2336 -0.171 -0.381 -0.486 -0.3 -3.4 -2.085 -4.265 -0.176 0.984 0.98 3.146 -0.574 2.758 -0.963 -0.24 -1.658 -0.58 -1.49 0.218 0.8 3.834 1.941 2.472 1.831 3.919 -0.059 0.782 -2.563 0.282 -2.2 1.375 0.839 2.511 2.843 2.277 2.4 3.469 -0.256 0.691 -2.753 0.121 -2.317 0.874 0.62 1.071 0.981 1.855 2.073 2.313 0.8137 0.276 1.5638 0.713 2.206 1.284 0.353 0.377 -0.192 1 -0.535 0.789 -0.475 -0.3 -0.948 -0.1 -1.422 -0.057 -0.0815 -0.008 -0.1635 0.009 -0.235 0.048 -0.0716 0.04 -0.1292 0.101 -0.1651 0.175 -0.0358 0.073 -0.0482 0.156 -0.0355 0.237 0.0127 0.081 0.0499 0.156 0.1066 0.215 0.4313 0.888 1.1098 1.633 1.954 2.145 1 0.592 1.552 0.611 1.9 1.2 0.25 0.431 -0.156 1.1 -0.948 0.692 -1.607 -0.82 -1 -0.868 -2.9 -0.4 -0.623 0.153 -0.191 2.479 2.076 3.08 1.123 0.3 3.164 1.6 1.82 2.206 -0.131 0.059 -0.63 -0.209 -0.744 -0.275 -3.419 -1.986 -2.525 -0.993 -2.623 1.32 -0.021 0.5 -0.043 0.336 0.63 0.564 0.2682 0.067 0.5151 0.201 0.718 0.389 0.2029 0.188 0.3553 0.424 0.443 0.686 0.29 0.886 -0.182 0.608 2.329 1.742 0.1334 0.057 0.2471 0.151 0.3271 0.272 0.0799 0.121 0.1226 0.263 0.1226 0.408 0 0.145 -0.0427 0.287 -0.1226 0.408 -0.08 0.121 -0.1937 0.215 -0.3271 0.272 -0.3568 0.158 -0.6979 0.349 -1.019 0.571 -0.535 0.329 1.073 0.792 0.522 2.3 -0.754 2.062 0.636 1.894 1.052 2.166 0.3 0.2 0.421 0.149 2.315 0.021 1.493 0.063 2.9882 -0.052 4.454 -0.343 0.685 -0.096 -0.328 -0.758 0.073 -2.66h-0.002Zm-9.2 2.55c-0.5 -1.281 0.588 -2.415 -0.031 -2.671 -0.3234 -0.181 -0.684 -0.285 -1.054 -0.305 -1.244 0.052 -0.474 -1.706 -0.474 -4.05 0 -0.63 -0.787 -0.755 -1.388 -0.668 -0.749 0.109 -0.936 -0.644 -0.785 -1.094 0.588 -1.744 0.4 -2.2 0.017 -3.133 -0.261 -0.639 -0.834 -0.09 -1.457 0.209 -0.623 0.299 -0.851 -0.443 -0.8 -0.83 0.145 -1.132 0.5 -3.5 0.035 -4.539 -0.42 -0.931 -0.859 -0.185 -1.481 0.364 -0.5 0.446 -0.974 0.313 -1.149 -0.329 -0.083 -0.3 0.367 -5.1 -0.58 -4.182 -0.584 0.566 -1.292 1.5 -1.659 0.59 -0.31 -0.774 0.349 -2.2 -0.7 -4.646 -0.1 -0.238 -0.176 -0.259 -0.4 -0.112 -1.007 0.661 -0.766 1.489 -1.448 1.405 -0.619 -0.075 -0.278 -0.663 -1.474 -4.111 -0.374 -1.08 -1.275 -1.985 -1.6 -0.893 -0.0921 0.418 -0.143 0.844 -0.152 1.272 -0.0079 0.068 -0.0293 0.134 -0.0628 0.194 -0.0335 0.061 -0.0785 0.113 -0.1325 0.156 -0.054 0.043 -0.1158 0.074 -0.182 0.093 -0.0662 0.019 -0.1354 0.024 -0.2037 0.016 -0.586 -0.07 -0.534 -0.952 -2.1 -2.243 -0.746 -0.616 -3.232 -1.367 -0.263 2.261 0.199 0.217 0.378 0.451 0.535 0.7 0.266 0.474 0 0.874 -0.547 0.843 -0.285 -0.069 -0.576 -0.11 -0.869 -0.123 -0.4 0.026 -0.1 0.656 0.052 0.87 1.556 2.15 1.423 1.407 1.672 2.1 0.477 1.324 -2.675 0.237 -1.724 1.289 1.421 1.574 2.57 0.752 3.407 2.273 0.919 1.67 0.349 2.72 1.106 2.241 0.965 -0.61 2.081 0.747 2.427 1.917 0.235 0.8 -0.237 0.832 0.789 0.422 1.869 -0.748 2.043 3.245 2.2 3.58 0.122 0.255 0.355 -0.01 0.531 0.054 0.0367 0.014 0.075 0.024 0.114 0.029 1.2 0.16 1.95 2.542 1.791 3.746 -0.04 0.306 -0.013 0.305 0.325 0.237 0.3273 -0.078 0.672 -0.024 0.9605 0.149 0.2884 0.173 0.4978 0.452 0.5835 0.777 0.575 1.553 -0.222 2.185 0.413 2.453 0.3173 0.103 0.6084 0.273 0.853 0.5 1.895 2.192 -0.543 3.732 0.068 3.77 2.491 0.154 2.754 -0.1 4.109 0.047 0.606 0.062 0.859 -0.308 0.734 -0.624l-0.006 -0.004Zm-5.561 -0.9c0.0768 -0.123 0.1283 -0.261 0.1516 -0.405 0.0234 -0.143 0.018 -0.29 -0.0158 -0.431 -0.0337 -0.142 -0.0952 -0.275 -0.1808 -0.393 -0.0856 -0.117 -0.1937 -0.216 -0.318 -0.292 -0.082 -0.036 -0.291 0.108 -0.473 0.171 -1.725 0.588 -0.588 -2.318 -0.77 -3.164 -0.182 -0.846 -0.687 -0.188 -1.135 0.147 -0.637 0.476 -1.4 0.075 -0.991 -1.68 0.2006 -0.869 0.0652 -1.781 -0.379 -2.554 -0.48 -0.84 -0.823 0.182 -1.047 0.474 -0.0489 0.086 -0.1227 0.156 -0.2119 0.2 -0.0892 0.043 -0.1894 0.059 -0.2877 0.045 -0.0982 -0.015 -0.1898 -0.059 -0.2627 -0.126 -0.0729 -0.067 -0.1237 -0.155 -0.1457 -0.252 -0.284 -0.85 0.311 -0.862 -0.379 -3.694 -0.058 -0.236 -0.1 -0.616 -0.355 -0.613 -0.255 0.003 -0.6 0.419 -0.751 0.665 -0.265 0.444 -0.451 0.917 -0.924 0.891 -0.678 -0.036 -0.615 -1.026 -0.55 -2.741 -0.0003 -0.272 -0.08 -0.539 -0.2294 -0.766 -0.1494 -0.228 -0.3619 -0.407 -0.6116 -0.516 -0.3 -0.024 -0.57 0.543 -0.588 0.659 -0.058 0.369 -0.37 0.5 -0.647 0.63 -0.157 0.075 -0.526 -0.381 -0.609 -0.711 -0.289 -1.149 -0.033 -3.156 -1.256 -3.751 -0.18 -0.087 -0.257 -0.042 -0.312 0.109 -0.139 0.385 -0.291 0.768 -0.4 1.164 -0.214 0.808 -0.891 0.975 -1.306 0.237 -1.274 -2.269 -4.187 -3.211 -2.272 -0.18 0.81 1.282 1.4 1.263 1.63 1.746 0.729 1.529 -2.7 0.455 -1.957 1.578 1.3 1.947 3.626 1.817 3.424 3.113 -0.074 0.474 -0.758 0.478 -1.225 0.446 -0.659 -0.045 -1.254 0.664 1.2 1.384 0.818 0.24 1.946 0.578 1.72 1.407 -0.069 0.251 -0.311 0.412 -0.711 0.379 -0.4138 -0.003 -0.824 0.078 -1.206 0.237 -0.18 0.057 -0.149 0.14 -0.088 0.254 0.77 1.421 4.471 1.2 5.251 3.331 0.278 0.76 -0.628 1.1 -1.111 0.967 -2.468 -0.68 -1.1 0.77 -0.394 1.047 5.773 2.261 1.559 1.816 6.583 2.18 0.2 0.014 0.155 -0.194 0.08 -0.256 -0.478 -0.4 -0.78 -1.527 -1.421 -2.222 -0.6887 -0.733 -1.1783 -1.631 -1.422 -2.607 -0.256 -0.858 -0.816 -0.713 -1.422 -1.2 -1.691 -1.368 -0.95 -2.247 -2.369 -3.533 -1.882 -1.706 -0.538 -1.917 -2.912 -4.114 -0.356 -0.329 -0.784 -1.013 -0.387 -1.289 0.584 -0.4 0.816 0.313 1.37 0.778 1.723 1.444 1.514 2.558 2.18 3.279 0.7469 0.611 1.3427 1.386 1.741 2.265 0.916 2.571 2.255 1.213 2.924 3.538 0.624 2.165 1.411 1.689 2.133 3.679 0.4764 0.709 1.0881 1.317 1.8 1.789 0.237 0.027 1.033 0.14 1.1 -0.083 0.2006 -0.433 0.4528 -0.84 0.751 -1.212l-0.006 -0.004Zm-10.52 28.959c0.079 -0.083 0 -0.179 -0.474 -2.514 -0.0417 -0.481 -0.2154 -0.941 -0.5019 -1.329 -0.2866 -0.388 -0.675 -0.69 -1.1221 -0.871 -4.414 -1.583 -7.745 -1.522 -9.893 -3.509 -1.445 -1.337 -0.528 -5.867 2.005 -6.812 2.075 -0.775 5.128 0.408 7.6 1 0.279 0.067 0.208 -0.111 0.208 -1.329 0.0167 -0.567 0.0033 -1.134 -0.04 -1.7 0.005 -0.391 -0.083 -0.424 -1.737 -0.73 -3.554 -0.656 -7.917 -1.722 -10.084 1.41 -1.1395 1.457 -1.9072 3.17 -2.237 4.99 -0.192 1.548 -0.76 3.421 0.341 4.962 2.447 3.421 6.76 4.191 13.227 5.594 2.674 0.583 2.546 1.018 2.714 0.842l-0.006 -0.004Zm-0.7 -5.686c0.353 0.092 0.353 -0.033 0.173 -1.078 -1.032 -6.006 -0.659 -5.784 -1.05 -5.874 -6.636 -1.537 -8.185 -2.315 -9.477 0.547 -0.228 0.494 -0.3607 1.026 -0.391 1.569 0.142 2.2 0.033 2.052 10.731 4.843l0.014 -0.007Zm-0.213 -26.746c-0.045 -0.053 -0.071 -0.135 -0.13 -0.157 -1.761 -0.647 -1.818 -0.756 -2.164 -0.381 -0.545 0.59 -1.255 1.524 -0.948 2.27 0.1838 0.391 0.4512 0.737 0.7833 1.014 0.3321 0.276 0.7208 0.476 1.1387 0.586 0.237 0.086 0.293 -1 0.066 -1.549 -0.626 -1.526 1.033 -1.656 1.263 -1.779l-0.009 -0.004Z" stroke-width="1"></path>
  <path fill="#0a0430" d="M135.51 57.085c0.083 0.421 0.111 0.85 0.142 1.1 -0.172 1.7509 -0.439 3.4911 -0.8 5.213 -0.517 2.314 0.024 1.358 -1.472 4.047 -0.5 0.9 -2.172 3.2 -2.384 3.5 -0.477 0.692 -0.71 0.908 -1.1 0.827 -0.583 -0.12 -0.426 -0.743 -0.116 -1.185 3.592 -5.116 3.4 -4.106 4.4 -9.539 0.348 -1.9 0.546 -3.014 0.144 -4.114 -0.161 -0.442 -0.786 -2.3 -0.819 -2.506 -0.043 -0.263 0.1 -0.7 0.237 -0.74 0.568 -0.172 1.68 2.956 1.768 3.397Z" stroke-width="1"></path>
  <path fill="#0a0430" d="M130.546 57.386c0.031 7.821 -3.38 11.446 -5.666 14.432 -0.181 0.236 -0.355 0.471 -0.71 0.419 -1.617 -0.236 1.39 -2.831 2.876 -5.224 1.572 -2.7727 2.379 -5.9131 2.339 -9.1 0 -5.061 -1.534 -6.222 -3.943 -10.084 -0.585 -0.8214 -1.389 -1.4617 -2.32 -1.848 -0.763 -0.388 -1.2 -0.033 -1.068 -0.858 0.113 -0.711 2.425 0 3.6 1.142 1.118 1.3442 2.128 2.7743 3.021 4.277 0.847 1.1878 1.387 2.5668 1.571 4.014 0.207 0.9289 0.308 1.8784 0.3 2.83Z" stroke-width="1"></path>
  <path fill="#0a0430" d="M128.347 99.024c0.668 -0.522 1.221 -0.152 1.185 0.213 -0.103 0.326 -0.306 0.6111 -0.581 0.814 -0.275 0.204 -0.607 0.315 -0.949 0.318 -0.306 -0.07 -0.592 -0.206 -0.839 -0.4 -0.088 -0.081 -0.145 -0.1912 -0.159 -0.3104 -0.014 -0.1192 0.016 -0.2394 0.083 -0.3387 0.067 -0.0994 0.168 -0.1712 0.284 -0.2023 0.116 -0.0312 0.239 -0.0197 0.347 0.0324 0.106 0.043 0.222 0.0539 0.333 0.0315 0.112 -0.0224 0.215 -0.0772 0.296 -0.1575Z" stroke-width="1"></path>
  <path fill="#0a0430" d="M129.113 93.989c0.095 0.5163 0.1 1.045 0.016 1.563 -0.08 2.161 -2.072 1.465 -1.474 0.493 0.042 -0.069 0.4 -0.346 0.346 -0.5 -0.06 -0.2689 -0.045 -0.5489 0.043 -0.81 0.033 -0.218 -0.128 -1 -0.138 -1.261 -0.01 -0.261 0 -0.329 -1.135 -0.907 -0.632 -0.322 -0.372 -0.611 -0.474 -1.232 -0.594 0.109 -0.713 0.366 -1.163 0.22 -0.706 -0.229 0.185 -1.58 1.688 -1.257 0.5 0.106 0.709 0.339 0.636 1.037 -0.042 0.407 0.138 0.355 1.135 1.057 0.742 0.521 0.156 0.78 0.52 1.597Z" stroke-width="1"></path>
  <path fill="#0a0430" d="M125.528 87.212c-0.019 0.3372 -0.158 0.6565 -0.392 0.9 -0.137 0.2 -0.39 0.161 -0.6 0.114 -0.315 -0.069 -0.265 -0.4 -0.292 -0.458 -0.085 -0.2 0.237 -0.437 -0.037 -0.59 -0.816 -0.455 -0.982 -0.07 -1.531 -0.177 -0.775 -0.151 -0.192 -1.1 -0.642 -0.929 -0.365 0.139 -0.853 0.3 -1.055 -0.121 -0.369 -0.78 1.268 -1.379 2.021 -0.827 0.422 0.308 0.1 0.67 0.875 0.711 0.678 0.089 1.691 0.531 1.653 1.377Z" stroke-width="1"></path>
  <path fill="#0a0430" d="M123.285 98.178c0.238 0.158 0.293 0.28 0.219 0.54 -0.122 0.429 -0.217 0.516 -0.527 0.521 -0.348 0.0065 -0.685 -0.1247 -0.938 -0.3651 -0.252 -0.2403 -0.4 -0.5705 -0.41 -0.9189 0.012 -0.1156 -0.01 -0.2322 -0.064 -0.3355 -0.053 -0.1033 -0.135 -0.189 -0.236 -0.2465 -0.6 -0.343 -0.8 -1.231 -0.979 -1.573 -0.433 -0.816 -0.9 0.871 -2.445 0 -0.237 -0.1728 -0.495 -0.3152 -0.768 -0.424 -0.455 -0.1 -0.859 0.437 -2.007 -0.372 -1.072 -0.757 0.132 -2.69 0.69 -2.232 0.709 0.582 -0.318 0.881 0.09 1.35 0.126 0.1108 0.289 0.1701 0.457 0.1662 0.167 -0.0039 0.327 -0.0707 0.448 -0.1872 0.6 -0.562 0.951 0.054 1.284 0.434 0.634 0.72 1.141 -0.073 1.365 -0.237 0.38 -0.28 0.339 0.017 1.6 0.339 0.6 0.154 0.345 0.5 0.644 1.267 0.428 1.088 1.691 0.159 1.28 1.491 -0.196 0.628 -0.233 0.431 0.297 0.783Z" stroke-width="1"></path>
  <path fill="#0a0430" d="M121.845 51.118c0.132 -0.0231 0.268 0.0033 0.382 0.0741 0.114 0.0708 0.198 0.1811 0.236 0.3098 0.038 0.1287 0.027 0.2668 -0.031 0.388 -0.057 0.1212 -0.157 0.217 -0.281 0.2691 -0.471 0.2002 -0.962 0.3487 -1.465 0.443 -1.011 0.279 0.579 0.523 0.735 3.833 0.221 4.7 -0.094 4.5 -2.708 10.22 -1.668 3.0655 -4.439 5.3821 -7.751 6.48 -4.643 1.0547 -9.512 0.3791 -13.693 -1.9 -1.8624 -1.0454 -3.391 -2.5965 -4.409 -4.474 -0.82 -1.268 -1.066 -2.585 -1.633 -4.959 -0.1054 -0.7589 -0.1489 -1.5251 -0.13 -2.291 -0.1245 -2.6914 0.4856 -5.3659 1.765 -7.737 1.32 -2.413 3.731 -3.179 4.087 -3.608 -0.535 -0.318 -1.319 -0.043 -1.345 -0.673 -0.013 -0.308 0.055 -0.478 0.334 -0.552 0.6484 -0.2862 1.3228 -0.5092 2.014 -0.666 3.935 -0.3 2.519 0.444 5.165 -0.519 1.965 -0.715 4.377 0.14 4.865 -0.126 1.185 -0.645 2.421 -1.208 3.554 -1.959 0.568 -0.377 1.133 -0.237 1.135 0.445 0 1.91 -1.422 2.758 -0.543 2.808 1.353 0.1725 2.619 0.7573 3.628 1.675 0.537 0.5 0.8 0.973 1.2 1.112 3.993 1.367 4.299 1.433 4.889 1.407Zm-2.481 11.5c1.528 -3.081 1.1 -7.169 0.195 -8.661 -0.783 -1.287 -2.519 -0.607 -5.4 -1.149 -1.404 -0.1868 -2.832 -0.0282 -4.16 0.462 -0.451 0.315 -0.218 0.422 1.62 2.389 2.806 3 3.94 2.855 3.72 3.615 -0.252 0.875 -2.724 0.386 -3.528 0.067 -4.372 -1.738 -5.175 -3.775 -5.6 -4.341 -0.446 0.514 -0.473 0.916 -1.37 1.3 -0.6 0.259 -1.8 0.626 -2.464 0.974 -0.664 0.348 -1.109 -0.168 -0.922 -0.711 0.91 -2.626 3.016 -3.581 2.254 -3.715 -2.606 -0.4643 -5.2607 -0.5956 -7.9 -0.391 -0.108 0.0213 -0.22 0.0065 -0.3187 -0.0424 -0.0987 -0.0488 -0.1785 -0.1288 -0.227 -0.2276 -0.0486 -0.0988 -0.0632 -0.2109 -0.0415 -0.3188 0.0216 -0.108 0.0783 -0.2058 0.1612 -0.2782 0.858 -0.762 0.054 -0.284 2.708 -1.339 1.778 -0.707 4.073 -0.356 3.338 -0.732 -0.487 -0.25 -2.5 -1.114 -2.819 -0.948 -3.778 1.966 -6.778 4.276 -6.438 11.525 0.1 2.132 0.325 1.462 0.663 3.211 0.483 2.0767 1.5766 3.9613 3.14 5.411 6.967 5.307 14.956 4.782 20.116 -0.483 1.669 -1.694 1.83 -2.704 3.273 -5.615v-0.002Zm0.2 -10.829c-0.092 -0.1 0.13 -0.026 -1.3 -0.49 -1.724 -0.7875 -3.62 -1.1233 -5.509 -0.976 -2.028 0.144 -3.767 1.284 -3.374 -0.633 0.1 -0.6763 0.274 -1.3396 0.519 -1.978 0.593 -1.076 1.8 -2.8 1.1 -2.46 -2 0.98 -2.528 1.17 -2.751 1.815 -0.206 0.6 -0.472 0.474 -0.417 1.123 0.073 0.855 0.045 1.626 -0.73 1.467 -1.438 -0.3 -1.618 -1.439 -3.407 -1.773 -0.97 -0.3238 -1.972 -0.5427 -2.988 -0.653 -1.369 0.018 -1.563 -0.188 -2.421 0.1 3.67 1.052 3.452 1.206 6.6 3.028 0.089 0.0636 0.159 0.1499 0.202 0.2499 0.044 0.0999 0.06 0.2098 0.047 0.3181 0.031 1.029 -3.171 -1.028 -6.578 0.249 -0.038 0.014 -0.057 0.083 -0.085 0.128 0.175 0.1 -0.171 0.081 1.678 0.081 1.817 0.1277 3.625 0.3715 5.411 0.73 0.4 0.061 0.5 0.671 0.012 1 -1.002 0.6593 -1.847 1.5317 -2.473 2.555 -0.211 0.351 0.475 -0.014 1.1 -0.225 0.8 -0.272 0.71 -0.806 1.374 -1.4 0.535 -0.474 1.312 -0.388 1.768 0.619 0.889 1.963 4.765 3.86 5.577 3.815 -0.4 -0.74 -0.3 0.051 -4.073 -4.192 -0.763 -0.857 0.126 -1.964 1.259 -2.187 1.367 -0.3746 2.794 -0.4765 4.2 -0.3 1.067 0.152 4.495 0.6 5.256 -0.009l0.003 -0.002ZM113.4 49.28c2.039 0.039 1.417 0 -0.052 -0.851 -0.654 -0.2664 -1.34 -0.4489 -2.04 -0.543 -0.311 -0.089 -0.529 0.778 -0.6 1.09 -0.238 1.124 0.319 0.258 2.692 0.304Zm-6.694 -1.232c0.02 -1.465 1.464 -1.285 -2.026 -1.469 -0.001 -0.015 -0.001 -0.03 0 -0.045 -1.03 0.156 -0.772 0.1 -0.969 0.236 0.685 0.5 0.472 -0.264 2.753 1.346 0.116 0.084 0.243 0.116 0.245 -0.068h-0.003Z" stroke-width="1"></path>
  <path fill="#0a0430" d="M120.972 90.055c-0.294 0.731 0.617 0.176 0.342 1.766 -0.017 0.0568 -0.041 0.1112 -0.072 0.162 -0.159 0.353 -0.237 0.4 -0.509 0.351 -0.391 -0.073 -0.512 -0.252 -0.491 -0.669 0.249 -0.474 -0.7 -0.473 -0.419 -1.464 0.237 -0.848 -0.552 -0.393 -0.42 -1.095 0.176 -0.931 2.067 -0.289 1.569 0.949Z" stroke-width="1"></path>
  <path fill="#0a0430" d="M116.132 85.177c0.354 -0.02 0.978 0.291 0.839 0.673 -0.043 0.1144 -0.119 0.2135 -0.218 0.2847 -0.099 0.0712 -0.217 0.1113 -0.339 0.1153 -0.198 -0.0057 -0.391 0.0615 -0.542 0.189 -0.372 0.249 -0.236 0.386 0 0.711 0.051 0.0711 0.088 0.152 0.106 0.2377 0.019 0.0857 0.019 0.1744 0.002 0.2603 -0.017 0.086 -0.052 0.1674 -0.103 0.2392 -0.05 0.0717 -0.115 0.1323 -0.19 0.1778 -0.1 0.058 -0.216 0.1 -0.318 0.156 -0.577 0.325 -0.043 0.631 0.441 1.078 0.098 0.0816 0.165 0.1938 0.192 0.3185 0.026 0.1247 0.009 0.2546 -0.047 0.3688 -0.057 0.1141 -0.15 0.2059 -0.265 0.2604 -0.116 0.0546 -0.246 0.0688 -0.37 0.0403 -0.393 -0.13 -0.735 -0.3802 -0.979 -0.7151 -0.243 -0.335 -0.375 -0.7379 -0.377 -1.1519 0.5 -1.166 0.564 -1.038 0.548 -1.474 -0.015 -0.4482 0.146 -0.8844 0.449 -1.2151 0.303 -0.3307 0.723 -0.5296 1.171 -0.5539Z" stroke-width="1"></path>
  <path fill="#0a0430" d="M114.711 129.739c0.03 1.853 -1.725 2.344 -3.571 2.518 -1.775 0.168 -1.175 -3.673 -7.961 -7.3 -0.372 -0.195 -0.787 -0.292 -1.206 -0.282 -0.551 -0.064 -1.105 -0.091 -1.659 -0.081 -0.249 0.035 -1.1 -0.206 -1.2 -0.528 -1.352 -4.412 1.425 -5.952 2.621 -4.166 0.411 0.613 0.2 0.6 0.578 0 0.521 -0.832 1.481 -1.732 2.353 -1.384 1.341 0.536 1.272 0.733 1.422 2.209 0.348 -0.262 0.756 -0.431 1.188 -0.491 0.431 -0.06 0.87 -0.008 1.276 0.149 0.411 0.216 0.743 0.557 0.949 0.973 0.206 0.416 0.276 0.886 0.199 1.344 -0.105 0.642 1.284 -0.04 2.237 0.767 0.335 0.317 0.568 0.727 0.668 1.177 0.1 0.45 0.064 0.92 -0.104 1.349 -0.107 0.306 -0.448 0.649 -0.159 0.659 1.636 -0.074 2.342 1.436 2.369 3.087Zm-3.363 1.613c1.107 -0.133 2.61 -0.656 2.467 -1.876 -0.183 -1.567 -1.232 -2.339 -2.111 -2.036 -0.815 0.282 -0.934 -0.206 -0.6 -0.67 0.221 -0.355 0.4 -0.734 0.533 -1.13 0.116 -0.263 0.143 -0.558 0.075 -0.838 -0.067 -0.28 -0.224 -0.53 -0.447 -0.712 -0.436 -0.412 -1.1 -0.237 -1.6 -0.154 -1.067 0.31 -1.408 1.307 -1.815 0.393 -0.242 -0.543 0.818 -0.9 0.917 -1.912 0.005 -0.403 -0.132 -0.795 -0.388 -1.106 -0.51 -0.541 -1.313 -0.152 -1.571 0 -1.167 0.687 -0.986 1.895 -1.775 1.554 -0.737 -0.319 0.694 -1.715 0 -3.2 -0.087 -0.187 -0.388 -0.281 -0.649 -0.362 -0.336 -0.1 -0.77 0.2 -1.045 0.588 -0.534 0.744 -0.9 2 -1.317 2.459 -0.179 0.2 -0.438 -0.074 -0.474 -0.306 -0.087 -0.559 -0.273 -2.04 -1.092 -1.98 -0.619 0.044 -0.827 1.229 -0.858 1.461 -0.0561 0.421 -0.0419 0.849 0.042 1.266 0.383 1.917 1.758 0 5.126 2.054 5.755 3.506 5.222 6.671 6.582 6.507Z" stroke-width="1"></path>
  <path fill="#0a0430" d="M108.207 50.626c0.524 0.2 0.7 1.658 -0.877 1.54 -0.358 0.09 -1.107 -0.273 -1.109 -0.711 -0.006 -1.123 1.069 0.019 1.325 -0.547 0.024 -0.0626 0.06 -0.1198 0.107 -0.1681 0.046 -0.0483 0.102 -0.0867 0.164 -0.113 0.061 -0.0263 0.128 -0.04 0.195 -0.0401 0.067 -0.0002 0.133 0.0132 0.195 0.0392Z" stroke-width="1"></path>
  <path fill="#0a0430" d="M103.84 82.1c1.433 -0.213 1.839 0.95 1.158 1.827 -0.144 0.1843 -0.342 0.3194 -0.566 0.3868 -0.224 0.0673 -0.464 0.0636 -0.686 -0.0108 -0.222 -0.0743 -0.415 -0.2155 -0.554 -0.4042 -0.138 -0.1888 -0.215 -0.4158 -0.219 -0.6498 -0.029 -0.1336 -0.03 -0.2719 0 -0.4056 0.029 -0.1336 0.086 -0.2594 0.169 -0.3686 0.082 -0.1091 0.187 -0.1992 0.308 -0.2639 0.12 -0.0647 0.253 -0.1025 0.39 -0.1109Z" stroke-width="1"></path>
  <path fill="#0a0430" d="M96.94 88.319c0.4429 1.3394 0.4825 2.7793 0.114 4.141 -1.229 3.825 -6.983 4.062 -8.978 -1.447 -0.707 -1.952 -0.579 -4.737 0.659 -5.6 0.643 -0.447 0.793 -0.562 0.822 -0.9 0.029 -0.338 0.128 -0.275 0.405 -0.606 0.968 -1.157 1.526 0.042 2.042 -0.064 0.3049 -0.1136 0.6323 -0.1535 0.9555 -0.1165 0.3233 0.037 0.6332 0.1499 0.9045 0.3295 0.963 0.687 2.428 1.419 2.723 2.988 0.0826 0.4339 0.2007 0.8604 0.353 1.275Zm-3.831 5.814c1.834 0.117 3.405 -2.012 3.194 -3.969 -0.1488 -1.27 -0.5027 -2.5074 -1.048 -3.664 -0.6039 -0.7252 -1.3699 -1.2982 -2.236 -1.673 -0.1162 -0.029 -0.2378 -0.029 -0.354 0 -1.765 0.185 -1.832 0.147 -2.023 0.455 -0.423 0.682 -1.4 0.652 -1.7 1.737 -1.066 3.822 1.833 6.965 4.167 7.114Z" stroke-width="1"></path>
  <path fill="#0a0430" d="M96.535 77.718c0.0181 0.1367 0.0078 0.2758 -0.0304 0.4083 -0.0382 0.1326 -0.1034 0.2558 -0.1915 0.3619 -0.0881 0.1061 -0.1973 0.1929 -0.3205 0.2548 -0.1233 0.0619 -0.258 0.0977 -0.3958 0.105 -0.1377 0.0074 -0.2755 -0.0139 -0.4046 -0.0624 -0.1292 -0.0485 -0.2469 -0.1231 -0.3458 -0.2193 -0.0988 -0.0962 -0.1768 -0.2118 -0.2288 -0.3395 -0.0521 -0.1278 -0.0771 -0.2649 -0.0736 -0.4028 0.015 -0.644 0.261 -1.151 1.185 -0.992 0.595 0.102 0.711 0.241 0.806 0.886Z" stroke-width="1"></path>
  <path fill="#0a0430" d="M95.57 31.518c-0.0344 0.4083 -0.2241 0.7879 -0.53 1.0605 -0.306 0.2725 -0.7049 0.4174 -1.1144 0.4045 -0.4096 -0.0128 -0.7986 -0.1823 -1.0869 -0.4735 -0.2883 -0.2911 -0.4539 -0.6818 -0.4627 -1.0915 -0.0046 -0.2172 0.035 -0.433 0.1165 -0.6343 0.0814 -0.2014 0.2031 -0.384 0.3574 -0.5369 0.1544 -0.1528 0.3382 -0.2726 0.5404 -0.3521 0.2021 -0.0794 0.4183 -0.1169 0.6354 -0.1101 0.2171 0.0068 0.4305 0.0577 0.6273 0.1497 0.1968 0.0919 0.3728 0.223 0.5173 0.3852 0.1445 0.1622 0.2544 0.3521 0.3232 0.5581 0.0687 0.2061 0.0947 0.4239 0.0765 0.6404Z" stroke-width="1"></path>
  <path fill="#0a0430" d="M88.87 103.549c0.3 1.4 -1.113 1.7 -1.46 0.711 -0.31 -0.886 0 -1.17 0.8 -1.251 0.079 -0.009 0.159 -0.002 0.2353 0.02 0.0764 0.022 0.1474 0.06 0.2089 0.11 0.0616 0.051 0.1124 0.113 0.1495 0.183 0.037 0.071 0.0596 0.148 0.0663 0.227Z" stroke-width="1"></path>
  <path fill="#0a0430" d="M87.427 21.23c0.1919 -0.0076 0.3824 0.0351 0.5527 0.124 0.1702 0.0889 0.3143 0.2208 0.4177 0.3826 0.1035 0.1618 0.1627 0.3479 0.172 0.5397 0.0092 0.1918 -0.032 0.3827 -0.1194 0.5537 -1.807 2.249 -3.433 -1.63 -1.023 -1.6Z" stroke-width="1"></path>
  <path fill="#0a0430" d="M85.18 54.609c-0.0611 -0.1674 -0.0848 -0.3462 -0.0695 -0.5237 0.0153 -0.1776 0.0693 -0.3496 0.1581 -0.5041 0.0889 -0.1545 0.2104 -0.2877 0.3562 -0.3903 0.1457 -0.1026 0.3121 -0.172 0.4875 -0.2035 0.1754 -0.0314 0.3556 -0.0241 0.5279 0.0214s0.3326 0.1282 0.4695 0.2422c0.137 0.114 0.2474 0.2566 0.3235 0.4178 0.076 0.1611 0.1159 0.337 0.1168 0.5152 0.0363 0.3054 -0.0454 0.6131 -0.2284 0.8603 -0.183 0.2471 -0.4536 0.415 -0.7563 0.4693 -0.3027 0.0543 -0.6147 -0.0091 -0.8722 -0.1773 -0.2575 -0.1681 -0.4411 -0.4283 -0.5131 -0.7273Z" stroke-width="1"></path>
  <path fill="#0a0430" d="M87.782 65.4c0 1.009 -0.474 1.027 -0.808 1.009 -0.758 -0.039 -0.953 -0.62 -0.948 -1.379 0.005 -0.648 1.756 -1.024 1.756 0.37Z" stroke-width="1"></path>
  <path fill="#0a0430" d="M87.012 43.851c0.853 0.541 0.891 2.2 -0.874 2.348 -0.2469 0.0347 -0.4976 -0.0275 -0.6995 -0.1737 -0.2019 -0.1462 -0.3394 -0.3649 -0.3835 -0.6103 -0.487 -1.94 1.13 -2.087 1.957 -1.564Z" stroke-width="1"></path>
  <path fill="#0a0430" d="M85.46 74.512c0.2985 0.0723 0.5561 0.2602 0.716 0.5223 0.16 0.2622 0.2093 0.5772 0.137 0.8757s-0.2602 0.5561 -0.5223 0.716c-0.2622 0.16 -0.5772 0.2093 -0.8757 0.137 -1.26 0.317 -1.943 -2.62 0.545 -2.251Z" stroke-width="1"></path>
  <path fill="#0a0430" d="M85.41 94.858c0.0061 0.1444 -0.0176 0.2884 -0.0696 0.4233 -0.0521 0.1348 -0.1313 0.2574 -0.2327 0.3603 -0.1015 0.1029 -0.223 0.1838 -0.3571 0.2377 -0.1341 0.0539 -0.2778 0.0796 -0.4222 0.0755 -0.1445 -0.0041 -0.2865 -0.0378 -0.4174 -0.0991 -0.1308 -0.0613 -0.2476 -0.1489 -0.3431 -0.2574 -0.0956 -0.1084 -0.1678 -0.2353 -0.2121 -0.3728 -0.0444 -0.1375 -0.06 -0.2827 -0.0458 -0.4265 -0.0061 -0.1444 0.0176 -0.2884 0.0697 -0.4232 0.052 -0.1349 0.1312 -0.2575 0.2326 -0.3604 0.1015 -0.1029 0.223 -0.1838 0.3571 -0.2377 0.1341 -0.0538 0.2778 -0.0796 0.4223 -0.0755 0.1444 0.0041 0.2864 0.0378 0.4173 0.0991 0.1308 0.0614 0.2476 0.1489 0.3432 0.2574 0.0955 0.1084 0.1677 0.2353 0.212 0.3728 0.0444 0.1375 0.06 0.2827 0.0458 0.4265Z" stroke-width="1"></path>
  <path fill="#0a0430" d="M84.272 133.224c0.072 0.635 0.237 1.064 -0.27 1.235 -0.0594 0.026 -0.1233 0.04 -0.1881 0.041 -0.0648 0.001 -0.1292 -0.011 -0.1895 -0.034 -0.0602 -0.024 -0.1152 -0.06 -0.1618 -0.105s-0.0838 -0.099 -0.1096 -0.158c-0.255 -0.529 -0.3944 -1.107 -0.409 -1.694 -0.041 -2.642 0.1 -4.362 -0.517 -5.519 -0.6159 -1.161 -0.9486 -2.451 -0.971 -3.765 -0.2444 -1.151 -0.5716 -2.284 -0.979 -3.388 -0.4 -1.351 -1.284 -1.2 -1.445 -2.832 -0.0647 -1.485 -0.2352 -2.963 -0.51 -4.423 -0.468 -2.785 -1.869 -3.287 -1.746 -5.851 -0.0009 -0.109 0.0376 -0.215 0.1084 -0.297 0.0708 -0.083 0.1692 -0.137 0.277 -0.153 0.1077 -0.016 0.2176 0.008 0.3092 0.067 0.0917 0.058 0.159 0.148 0.1894 0.253 0.0662 0.803 0.2859 1.586 0.647 2.306 2.465 4.581 1.09 7.605 2.405 8.963 0.993 1.026 0.971 2.251 1.547 3.649 0.576 1.398 0.125 2.586 1.125 4.675 1.178 2.459 0.495 3.57 0.888 7.03Z" stroke-width="1"></path>
  <path fill="#0a0430" d="M81.539 59.336c-0.59 0.63 -0.911 0.491 -1.491 -0.017 -4.055 -3.55 -3.6 -6.369 -6.682 -6.369 -1.767 0 -3.724 0.907 -5.139 0.907 -0.2099 0.0255 -0.4228 0.0075 -0.6253 -0.053 -0.2026 -0.0605 -0.3905 -0.1622 -0.5519 -0.2987 -0.1615 -0.1365 -0.293 -0.3049 -0.3864 -0.4945 -0.0934 -0.1897 -0.1467 -0.3966 -0.1564 -0.6078 0 -0.77 0.985 -1.625 1.741 -1.825 0.333 -0.0834 0.6759 -0.1207 1.019 -0.111 0.8256 0.0603 1.6553 -0.0312 2.448 -0.27 0.149 -0.024 0.474 0 0.474 -0.2 0 -0.317 -0.564 -0.836 -1.578 -0.651 -5.365 -0.711 -5.494 -0.141 -6.5 -1.133 -0.1177 -0.0862 -0.2172 -0.1947 -0.2929 -0.3194 -0.0756 -0.1248 -0.1259 -0.2632 -0.1479 -0.4074 -0.022 -0.1442 -0.0154 -0.2913 0.0196 -0.4329s0.0976 -0.2749 0.1842 -0.3923c0.318 -0.525 0.789 -1.076 1.393 -0.976 1.823 0.3 1.9 0.5 2.294 0.318 1.24 -0.557 1.929 -0.136 2.443 -0.372 -0.462 -0.59 -1.05 -0.42 -2.343 -1.574 -0.1954 -0.2096 -0.4161 -0.394 -0.657 -0.549 -0.885 -0.472 -3.937 0.031 -4.049 -1.706 0.0035 -0.2101 0.0531 -0.4168 0.1452 -0.6057 0.0921 -0.1888 0.2245 -0.3552 0.3878 -0.4873 0.8807 -0.1889 1.7823 -0.2622 2.682 -0.218 0.266 0 1.2 0.339 1.2 -0.128 0 -0.328 -3.1 -3.163 -3.131 -5.314 -0.008 -0.567 0.633 -0.815 0.853 -0.865 0.2852 -0.1065 0.5928 -0.1392 0.894 -0.095 0.872 0.4 1.319 1.858 2.452 2.974 1.0292 0.7183 1.8297 1.7178 2.306 2.879 0.3292 0.7851 0.7239 1.5411 1.18 2.26 0.139 0 0.075 -0.564 0.125 -0.711 0.0553 -0.3021 0.0917 -0.6074 0.109 -0.914 0.143 -0.6684 0.3314 -1.3263 0.564 -1.969 0.0966 -0.1686 0.2554 -0.2925 0.4424 -0.3453 0.187 -0.0527 0.3872 -0.03 0.5576 0.0633 0.344 0.215 2.177 0.931 2.177 2.426 0 1.3 -0.762 1.811 -0.732 4.106 -0.0705 0.8228 0.0895 1.649 0.462 2.386 0.081 0.137 0.157 0.287 0.323 0.287 0.265 0 0.392 -0.376 0.54 -0.578 0.3757 -0.4898 0.6973 -1.0189 0.959 -1.578 0.173 -0.394 0.132 -0.946 0.557 -1.169 0.356 -0.185 0.609 0.031 0.92 0.237 0.886 0.588 1.585 1.185 1.585 2.043 0 1.452 -2.37 3.625 -2.37 4.568 0.0882 0.5613 0.2926 1.0981 0.6 1.576 2.328 4.21 5.357 3.97 2.796 6.706Zm-0.145 -1.725c0.009 -0.443 -0.159 -0.37 -0.7 -0.988 -1.258 -1.441 -3.4 -3.886 -3.4 -5.483 0 -1.865 3.382 -4.057 1.73 -5.6 -0.157 -0.146 -0.273 -0.265 -0.455 -0.265 -0.377 0 -0.536 0.6 -0.685 0.858 -0.5188 0.7165 -0.9574 1.4878 -1.308 2.3 -0.275 0.853 -0.417 0.934 -0.947 0.329 -0.8059 -1.0791 -1.2213 -2.3999 -1.178 -3.746 0 -2.227 0.746 -3.412 0.689 -4.217 -0.096 -0.3269 -0.2726 -0.6245 -0.5136 -0.8655 -0.2409 -0.2409 -0.5385 -0.4175 -0.8654 -0.5135 -0.537 -0.353 -0.606 0.485 -0.755 1.047 -0.686 2.58 0.511 3.881 -0.441 3.881 -0.337 0 -0.416 -0.237 -1.576 -2.106 -0.691 -1.114 -1.422 -2.781 -1.767 -3.235 -0.57 -0.747 -1.346 -1.329 -1.922 -2.082 -0.576 -0.753 -1.173 -1.829 -1.621 -1.829 -0.1175 0.0148 -0.2281 0.0634 -0.3185 0.1399 -0.0904 0.0765 -0.1565 0.1777 -0.1905 0.2911 -0.229 1 4.334 6.02 4.329 6.468 -0.012 0.963 -1.808 -0.542 -3 -0.542 -0.7595 -0.1101 -1.5267 -0.1576 -2.294 -0.142 -0.407 0.059 -0.213 0.509 -0.159 0.694 0.11 0.373 2.3 0.381 2.983 0.63 0.6164 0.3134 1.1853 0.7123 1.69 1.185 0.4 0.286 2.744 1.106 2.744 2.521 0 0.727 -1.484 0.313 -2.37 0.313 -0.756 0 -1.144 0.3 -1.737 0.3 -0.642 0 -1.514 -0.4 -1.912 -0.4 -0.0857 0.0013 -0.1704 0.0196 -0.249 0.0539 -0.0786 0.0343 -0.1496 0.0838 -0.2088 0.1458 -0.0593 0.062 -0.1057 0.1351 -0.1364 0.2152 -0.0308 0.08 -0.0453 0.1654 -0.0428 0.2511 0.009 0.822 1.246 0.694 2.8 0.846 0.692 0.067 1.383 0.181 2.078 0.237 1.129 0.091 1.976 -0.177 2.7 0.566 1.318 1.1 1.377 1.3 1.377 1.5 0 0.154 -0.159 0.5 -0.915 0.5 -1.365 0 -1.391 0.362 -2.44 0.362 -0.327 0 -0.657 -0.028 -0.981 -0.028 -1.2 0 -1.87 0.547 -1.87 1.154 0 1.329 3.431 -0.394 5.82 -0.394 3.025 0 2.709 2.02 6.061 5.386 0.685 0.689 0.926 0.973 1.225 0.972 0.1902 -0.0007 0.3727 -0.075 0.5092 -0.2074 0.1365 -0.1324 0.2163 -0.3126 0.2228 -0.5026Z" stroke-width="1"></path>
  <path fill="#0a0430" d="M80.721 31.222c1.73 -0.237 2.211 2.894 -0.076 2.905 -0.191 -0.0046 -0.3792 -0.0469 -0.5539 -0.1243 -0.1746 -0.0774 -0.3323 -0.1886 -0.464 -0.327 -0.1316 -0.1385 -0.2347 -0.3015 -0.3033 -0.4799 -0.0685 -0.1783 -0.1012 -0.3684 -0.0963 -0.5594 0.005 -0.191 0.0477 -0.3791 0.1255 -0.5536 0.0778 -0.1745 0.1892 -0.332 0.3279 -0.4634 0.1387 -0.1313 0.302 -0.2341 0.4805 -0.3023 0.1785 -0.0682 0.3686 -0.1005 0.5596 -0.0951Z" stroke-width="1"></path>
  <path fill="#0a0430" d="M79.785 85.274c-0.255 0.2 -0.383 0.409 -0.189 0.753 0.2951 0.7351 0.3586 1.5428 0.182 2.315 -0.137 1.856 -2.656 4.183 -4.265 4.545 -0.765 0.172 -0.576 1.481 -2 2.324 -0.7605 0.5909 -1.6561 0.9834 -2.606 1.142 -1.1758 0.2674 -2.4081 0.1124 -3.481 -0.438 -2.216 -1 -1.448 -0.443 -4.94 -1.7 -8.111 -2.911 -5.561 -1.124 -9.433 -2.352 -3.791 -1.2 -6.052 -3.792 -6.732 -6.476 -0.267 -1.055 0.121 -1.5 -0.566 -1.687 -4.042 -1.086 -4.878 -7.111 -0.948 -9.831 0.49 -0.339 -0.019 -0.327 0.221 -2.194 0.274 -2.133 1.295 -1.85 0.869 -2.718 -0.6073 -1.163 -0.8958 -2.4662 -0.836 -3.777 0 -0.782 1.4 -1.571 2.27 -1.485 0.381 0.037 0.974 -0.389 1.673 0.218 0.2892 0.2063 0.5323 0.4706 0.7138 0.776 0.1815 0.3055 0.2973 0.6453 0.3402 0.998 0.087 0.207 0.259 0.122 0.419 -0.037 0.3889 -0.3295 0.8398 -0.5779 1.3262 -0.7305 0.4863 -0.1527 0.9983 -0.2066 1.5058 -0.1585 0.734 0.239 0.043 -0.386 1.443 -1.988 0.4664 -0.5476 1.039 -0.995 1.6832 -1.315 0.6442 -0.32 1.3466 -0.5061 2.0648 -0.547 0.6495 -0.0173 1.2989 0.0384 1.936 0.166 4.46 0.434 7.239 4.976 9.866 8.665 1.0406 1.1735 2.1868 2.249 3.424 3.213 1.0542 1.0817 2.1772 2.0942 3.362 3.031 0.9634 0.7779 1.8059 1.6946 2.5 2.72 0.986 1.275 1.573 5.469 0.197 6.568Zm-0.532 -1.7c0.1823 -1.0473 0.1165 -2.1227 -0.192 -3.14 -0.6172 -1.4455 -1.6205 -2.6931 -2.9 -3.606 -1.3 -0.91 -1.6 -1.6 -4.435 -3.952 -3.791 -3.14 -3.576 -4.99 -6.758 -7.978 -0.9925 -1.035 -2.231 -1.8019 -3.6 -2.229 -0.9416 -0.3214 -1.9394 -0.445 -2.931 -0.363 -0.6614 0.0216 -1.3058 0.2151 -1.8696 0.5616 -0.5638 0.3466 -1.0275 0.834 -1.3454 1.4144 -0.95 2.011 -1.038 3.56 -1.858 2.642 -0.21 -0.235 -0.078 -0.86 -0.289 -0.948 -0.1579 -0.0758 -0.3375 -0.0931 -0.507 -0.049 -0.493 0.17 -2.355 0.886 -2.163 1.367 0.923 2.317 0.825 2.488 1.658 1.694 1.095 -1.043 2.621 0.4 3.033 0.178 1.6958 -0.8991 3.6499 -1.1856 5.5324 -0.811 1.8825 0.3745 3.5782 1.3872 4.8006 2.867 0.662 0.6678 1.2825 1.3755 1.858 2.119 0.339 0.554 -0.445 1 -1.026 0.426 -0.926 -0.92 -2.271 -2.447 -2.794 -2.791 -3.18 -2.094 -6.086 -2.26 -9.056 0.237 -0.7832 0.7184 -1.3015 1.6798 -1.471 2.729 -0.2806 0.933 -0.2904 1.9265 -0.0282 2.8648 0.2622 0.9383 0.7856 1.7829 1.5092 2.4352 2.528 2.512 4.4 2.776 3.838 3.554 -0.311 0.435 -0.635 0.279 -1.625 -0.376 -2.473 -1.637 -3.083 -2.037 -3.6 -2.879 -1.1 -1.8 -1.17 -1.789 -1.341 -2.393 -0.123 -0.432 -0.128 -0.443 -0.512 -0.379 -0.346 0.057 -0.7 0.1 -1.035 0.18 -1.185 0.292 -1.977 -1.057 -1.948 -1.706 0.073 -1.635 0.973 -1.277 0.659 -1.813 -0.387 -0.658 -0.312 -0.925 -0.9 -1.422 -1.054 -0.891 -1.3 -1.492 -1.493 -1.075 -0.2352 0.4998 -0.3489 1.048 -0.332 1.6 0.037 1.17 0.833 0.05 1.3 1.007 0.17 0.348 -0.169 0.451 -1.263 1.132 -1.688 1.051 -1.617 0.828 -2.44 2.467 -0.714 1.42 -0.192 3.078 0.611 4.438 0.271 0.459 0.535 0.474 1.422 0.848 0.608 0.256 0.333 -0.6 0.561 -1.083 0.269 -0.571 0.486 -1.658 0.619 -1.895 0.133 -0.237 0.476 -0.377 0.59 -0.256 0.483 0.51 0.537 0.251 -0.095 3.812 0.369 2.462 0.1 2.251 1.239 4.118 2.663 4.37 4.693 2.646 15.02 6.161 1.4185 0.3928 2.8046 0.8943 4.146 1.5 0.8034 0.3533 1.6865 0.4856 2.5581 0.3833 0.8717 -0.1023 1.7002 -0.4356 2.3999 -0.9653 0.7 -0.472 0.283 -0.675 -0.744 -1.563 -1.321 -1.143 -8.628 -5.136 -9.913 -6.853 -0.334 -0.445 0.426 -0.805 0.789 -0.443 0.474 0.474 0.563 0.217 6.871 4.3 0.7884 0.5046 1.6192 0.9396 2.483 1.3 2.941 1.654 3.658 0.9 5.753 -1.457 0.576 -0.647 0.269 -0.808 0.536 -2.059 0.346 -1.623 -2.473 -3.873 -3.763 -4.895 -0.5506 -0.4442 -1.0141 -0.9867 -1.367 -1.6 -0.0654 -0.0864 -0.0938 -0.1952 -0.0792 -0.3026 0.0146 -0.1073 0.0711 -0.2045 0.1572 -0.2704 0.433 -0.387 0.731 0.069 0.993 0.372 0.972 1.13 4.626 4.4 4.737 2.841v0.004ZM52.765 71.223c0.871 -1.109 1.273 -1.047 1.024 -1.218 -0.649 -0.444 -1.292 0.254 -1.982 0.628 -1.948 1.057 -3.05 -5.068 -3.113 -5.3 -0.2 -0.725 -0.832 -0.347 -1.323 -0.413 -0.3402 -0.0079 -0.6734 0.0977 -0.947 0.3 -0.478 0.256 0.179 0.923 0.8 0.748 0.1411 -0.0398 0.292 -0.0235 0.4214 0.0455 0.1293 0.0689 0.227 0.1852 0.2726 0.3245 0.154 0.458 -0.71 1.012 -1.293 0.746s0.408 1.607 0.848 2.694c0.517 1.277 1.257 0.567 2.44 3.171 0.1871 0.3271 0.2497 0.7108 0.1761 1.0804 -0.0735 0.3695 -0.2781 0.7001 -0.5761 0.9306 -0.283 0.29 -0.018 0.916 0.358 0.856 1.479 -0.238 1.67 -0.225 1.659 -0.536 0.0723 -1.4332 0.4964 -2.8266 1.235 -4.057Z" stroke-width="1"></path>
  <path fill="#0a0430" d="M78.169 63.532c0.315 -1.512 2.37 -0.536 2.043 0.54 0.272 1.408 -2.495 1.628 -2.043 -0.54Z" stroke-width="1"></path>
  <path fill="#0a0430" d="M68.125 57.76c0.065 0.1997 0.0787 0.4125 0.0397 0.6189 -0.039 0.2063 -0.1293 0.3995 -0.2626 0.5618 -0.1333 0.1622 -0.3054 0.2882 -0.5003 0.3664 -0.1949 0.0782 -0.4063 0.106 -0.6148 0.0809 -1.026 0.1 -1.349 -1.359 -0.654 -2.021 0.267 -0.255 1.706 -0.395 1.992 0.393Z" stroke-width="1"></path>
  <path fill="#0a0430" d="M67.976 120.946c0.028 0.474 -0.52 0.776 -0.822 0.476 -0.6471 -0.93 -1.2375 -1.899 -1.768 -2.9 -0.474 -0.762 -1.75 -0.746 -2.485 -2.651 -0.3744 -1.344 -1.065 -2.578 -2.014 -3.6 -0.135 -0.133 -0.526 -0.714 -0.237 -0.922 0.372 -0.269 0.563 -0.222 1.139 0.358 2.4 2.417 1.356 3.889 3.348 5.061 0.6163 0.352 1.1307 0.859 1.493 1.469 0.5542 0.847 1.0061 1.756 1.346 2.709Z" stroke-width="1"></path>
  <path fill="#0a0430" d="M53 46.832c0.2 0.748 0.154 0.908 -0.285 3.116 -0.1292 0.4526 -0.352 0.873 -0.654 1.234 -0.815 1.126 -1.106 2.194 -2.239 2.991 -0.987 0.899 -2.0821 1.6716 -3.26 2.3 -1.3786 0.9882 -2.97 1.639 -4.646 1.9 -6.63 1.152 -13.308 -2.461 -15.513 -7.8 -0.7 -1.69 -0.372 -3.044 -1 -4.265 -0.668 -1.293 -0.122 -5.393 0.71 -6.943 3.5 -6.521 6.376 -7.829 9.478 -8.767 3.572 -1.08 8.191 0.426 10.066 3.86 0.055 0.1 0.094 0.166 0.236 0.021 1.242 -1.253 2.56 2.571 2.607 3.389 0.058 1.016 -0.135 1 0.322 1.151 1.1744 0.2571 2.2196 0.9221 2.95 1.877 0.654 1.127 1 1.727 -0.04 1.952 -0.1659 -0.0002 -0.3312 0.0182 -0.493 0.055 0.8633 1.1675 1.464 2.5077 1.761 3.929Zm-1.448 2.839c0.425 -1.941 0.483 -2.408 0.216 -2.874 -0.565 -0.986 -0.126 -1.52 -1.266 -2.9 -0.216 -0.263 -0.094 -0.411 -0.291 -0.358 0.2833 1.1185 0.4578 2.2619 0.521 3.414 0.0105 0.132 -0.0178 0.2641 -0.0814 0.3802 -0.0636 0.1161 -0.1597 0.2111 -0.2766 0.2733 -0.1169 0.0621 -0.2494 0.0888 -0.3812 0.0766 -0.1319 -0.0122 -0.2573 -0.0626 -0.3608 -0.1451 -0.433 -0.262 -1.646 -1.5 -2.81 -2.419 -0.9 -0.709 -0.645 -0.812 -1.422 0.071 -0.9 1.022 -0.624 0.658 -1.5 2.844 -0.0455 0.1202 -0.1265 0.2237 -0.2323 0.2967 -0.1057 0.0731 -0.2312 0.1122 -0.3597 0.1122 -0.1285 0 -0.254 -0.0391 -0.3597 -0.1122 -0.1058 -0.073 -0.1868 -0.1765 -0.2323 -0.2967 -0.3519 -0.7792 -0.544 -1.621 -0.5647 -2.4757 -0.0208 -0.8547 0.1301 -1.7049 0.4437 -2.5003 0.22 -0.507 -0.474 -0.166 -0.773 -0.213 -1.791 -0.286 -2.272 0.1 -2.5 -0.183 -0.365 -0.542 -0.114 -0.9 0.422 -1.564 0.7878 -0.9819 1.9276 -1.6176 3.177 -1.772 -0.0226 -0.5692 -0.1585 -1.1281 -0.4 -1.644 -0.038 -0.1 -1.061 -2.883 -1.465 -3.114 -0.315 -0.18 -0.391 -0.912 -0.047 -0.969 0.853 -0.142 1 0.107 1.836 0.569 2.246 1.242 2.282 2.353 2.737 2.76 0.069 -0.341 0.086 -0.237 -0.062 -0.474 -1.922 -3.084 -2.291 -3.395 -4.385 -4.412 -3.365 -1.634 -8.619 0.044 -10.663 3.052 -0.847 1.247 -4.3 4.4 -4.061 9.589 0.076 1.659 0.545 1.242 0.727 3.673 0.438 5.829 9.045 10.459 15.719 8.679 2.059 -0.549 6.506 -3.107 7.646 -5.471 0.399 -0.6022 0.7494 -1.2352 1.048 -1.893h0.001Zm-0.434 -7.751c0.079 -0.379 -0.025 -0.993 -1.71 -1.656 -1.047 -0.412 -1.723 -0.1 -1.768 -0.841 0.1091 -1.2326 -0.1014 -2.4724 -0.611 -3.6 -0.124 -0.3 -0.363 -0.808 -0.54 -0.647 -0.1152 0.1487 -0.175 0.333 -0.169 0.521 0.02 0.908 -0.068 2.593 -0.538 3.017 -0.594 0.339 -0.726 -0.7 -1.421 -2.036 -0.4538 -0.8052 -1.1679 -1.4322 -2.025 -1.778 -0.123 0.218 0.47 1.143 0.526 1.3 0.791 2.279 0.7 2.606 0.984 3.332 0.332 0.835 -0.254 0.692 -1.036 0.824 -0.9591 0.1409 -1.8398 0.6098 -2.492 1.327 -0.095 0.115 0.791 0.069 1.04 0.074 0.047 0 1.592 0.049 1.959 0.076 0.7 0.049 0.393 0.58 0.249 0.992 -0.237 0.678 -0.711 3.05 -0.268 3.668 0.6761 -0.9868 1.4108 -1.9321 2.2 -2.831 0.858 -1 1.917 0.985 4.028 2.457 0.0889 -0.6017 0.0345 -1.2159 -0.1587 -1.7926 -0.1933 -0.5767 -0.5199 -1.0997 -0.9533 -1.5264 -0.519 -0.476 -0.475 -0.816 0.507 -0.924 0.7304 0.0589 1.4638 0.0736 2.196 0.044h0.001Z" stroke-width="1"></path>
  <path fill="#0a0430" d="M52.134 97.972c1.038 0.3 1.028 1.118 0.64 1.393 -0.388 0.275 -0.474 -0.056 -3.573 -0.678 -3.253 -0.653 -6.981 -3.642 -7.784 -7.2 -0.237 -1.049 0.133 -2.656 -0.156 -3.909 -0.266 -1.15 -1.012 -1.408 -3.135 -2.422 -1.506 -0.719 -3.8 -2.562 -3.183 -4.1 0.542 -1.349 1.131 -0.181 1.082 -0.01 -0.362 1.265 1.572 2.514 2.793 3.073 2.188 1 3.583 1.561 3.708 3.831 0.117 2.132 -0.409 3.839 1.234 5.587 0.6399 0.7966 1.3664 1.5197 2.166 2.156 3.045 1.984 3.423 1.463 6.208 2.279Z" stroke-width="1"></path>
  <path fill="#0a0430" d="M46.037 41.207c0.493 0.274 0.207 1.183 -0.367 1.043 -1.976 -0.482 -1.083 -2.37 -0.438 -2.187 0.968 0.011 0.14 0.774 0.805 1.144Z" stroke-width="1"></path>
  <path fill="#0a0430" d="M31.674 27.161c0.114 0.865 -0.994 0.411 -2.858 1.545 -4.4 2.677 -5.047 4.614 -6.494 8.869 -0.242 0.709 0.019 1.554 -0.529 1.509 -1.836 -0.151 0.6 -7.814 4.924 -10.563 1.257 -0.798 4.742 -2.994 4.957 -1.36Z" stroke-width="1"></path>
  <path fill="#0a0430" d="M21.938 30.225c0.8 0.623 -0.965 1.366 -2.483 5.184 -0.608 1.528 -0.86 1.98 -1.192 0.384 0.135 -1.9 2.2 -4.976 2.815 -5.5 0.11 -0.1149 0.2584 -0.1854 0.417 -0.1979 0.1586 -0.0125 0.3163 0.0337 0.443 0.1299Z" stroke-width="1"></path>
</svg>