<svg xmlns="http://www.w3.org/2000/svg" fill="none" viewBox="0 0 200 200" id="Output-Learned-Knowledge-4--Streamline-Bruxelles">
  <desc>
    Output Learned Knowledge 4 Streamline Illustration: https://streamlinehq.com
  </desc>
  <g id="output-learned-knowledge-4--ai-machine-learning-output-learned-knowledge-technology">
    <g id="board">
      <path id="vector" fill="#ffffff" d="M16.5271 13.1012c10.387 0.586 142.7779 1.764 142.8919 1.766 1.607 0.02 0.981 3.57 1.216 7.364 0.46 7.399 -1.732 72.1349 -1.03 89.3818 0.066 1.612 -0.29 1.965 -0.62 2.38 -2.645 3.339 -3.175 3.458 -5.639 3.76L21.1401 131.285c-4.672 0.057 -10.173 1.929 -10.75 -1.087 -0.84205 -4.408 -2.13705 -101.7908 -2.13105 -101.8909 0.713 -11.06 -1.087 -9.4649 3.06605 -13.9059 1.505 -1.609 2.528 -1.451 5.201 -1.3h0.001Z" stroke-width="1"></path>
      <path id="vector_2" fill="#0a0430" d="M28.974 54.3442c0 -7.005 -0.249 -6.328 -0.193 -7.313 0.718 -12.558 -1.491 -20.955 0.61 -19.62 1.463 0.929 21.386 22.228 21.479 22.33 0.651 0.715 1.566 1.863 1.588 1.886 1.757 1.819 2.338 2.487 2.834 3.068 1.294 1.513 -0.269 1.947 -23.233 3.272 -3.594 0.207 -3.086 1.279 -3.086 -3.623h0.001Zm17.762 -7.32c-1.003 -1.298 -4.8 -4.684 -6.61 -6.969 -0.91 -1.148 -2.235 -2.272 -2.793 -2.887 -7.396 -8.144 -7.964 -8.855 -7.888 -7.486 0.956 17.301 -0.05 19.203 0.731 19.148 6.71 -0.471 12.948 -1.269 16.56 -1.806Zm-11.757 9.758c0.05 0 2.421 -0.168 2.66 -0.2 1.609 -0.215 3.88 -0.2 4.362 -0.247 2.031 -0.2 1.727 -0.328 4.956 -0.418 1.468 -0.041 4.241 -0.45 4.368 -0.495 0.941 -0.334 2.799 -0.132 2.882 -0.449 0.047 -0.182 -0.236 -0.157 -2.655 -2.857 -3.496 -3.902 -3.556 -4.089 -4.023 -4.048 -7.988 0.697 -1.534 0.344 -13.868 1.466 -3.996 0.364 -3.832 -0.145 -3.747 1.23 0.547 8.773 -1.645 5.9 5.065 6.018Z" stroke-width="1"></path>
      <path id="vector_3" fill="#0a0430" d="M48.996 69.3731c-1.246 0.236 -1.303 -0.005 -1.421 0.374 -1.075 3.456 -1.282 3.533 -1.766 6.118 -0.751 4.01 -0.643 3.576 -0.942 4.085 -0.196 0.333 -0.641 0.359 -0.828 0.032 -0.191 -0.333 -0.393 -0.667 -0.443 -1.08 -0.102 -0.858 -0.218 -1.711 -0.222 -2.578 -0.01 -2.049 -0.974 -4.636 -0.762 -5.249 0.19 -0.549 0.989 -0.204 1.105 0.774 0.16 1.346 0.197 0.06 0.706 4.795 0.005 0.043 0.059 0.079 0.089 0.118 0.297 -0.25 0.145 -1.688 1.314 -5.176 1.001 -2.988 0.955 -2.935 1.291 -3.027 0.322 -0.089 0.647 -0.258 0.967 -0.252 0.692 0.014 6.881 -1.333 10.042 -1.275 1.316 0.024 1.026 1.107 0.254 1.123 -3.384 0.069 -6.058 0.589 -9.383 1.219l-0.001 -0.001Z" stroke-width="1"></path>
      <path id="vector_4" fill="#0a0430" d="M54.344 85.1991c-2.226 0.485 -3.608 0.363 -5.131 0.856 -1.023 0.331 -1.577 -0.204 -1.87 0.699 -1.183 3.641 -1.474 4.161 -1.713 6.143 -0.003 0.023 -0.535 2.957 -0.887 3.64 -0.227 0.44 -0.649 0.406 -0.915 -0.025 -0.691 -1.121 -0.49 -3.731 -0.774 -5.224 -0.644 -3.384 -0.658 -3.232 -0.59 -3.395 0.269 -0.643 0.898 -0.218 1.044 0.456 0.745 3.447 0.594 2.496 0.665 3.463 0.128 1.747 0.077 1.561 0.293 1.72 0.263 -0.767 -0.436 -0.12 2.017 -7.62 0.186 -0.57 0.501 -0.723 1.727 -0.851 2.187 -0.229 10.701 -2.383 10.532 -0.774 -0.111 1.055 -0.748 0.118 -4.398 0.912Z" stroke-width="1"></path>
      <path id="vector_5" fill="#0a0430" d="M57.158 100.723c-0.718 -0.112 -8.22 1.435 -9.179 1.459 -0.368 0.009 -0.327 0.218 -0.776 1.568 -1.678 5.047 -0.932 3.733 -1.999 8.131 -0.2 0.824 -0.867 0.835 -1.121 0.315 -0.754 -1.54 -0.092 -1.569 -1.366 -8.083 -0.134 -0.683 0.595 -0.729 0.833 -0.325 0.839 1.424 0.967 6.408 1.191 5.321 1.191 -5.757 0.96 -3.391 1.97 -7.221 0.102 -0.386 0.313 -0.628 0.715 -0.694 1.767 -0.293 8.39 -1.5902 9.406 -1.5162 0.504 0.037 1.248 -0.021 1.586 0.032 0.586 0.091 0.517 0.9802 -0.034 1.0082 -0.359 0.018 -0.718 0.005 -1.226 0.005Z" stroke-width="1"></path>
      <path id="vector_6" fill="#0a0430" d="M30.376 72.9579c-0.17 -1.114 2.085 -2.294 3.815 -1.398 0.819 0.424 1.16 1.725 0.116 3.1 -0.315 0.415 0.86 -0.002 1.75 1.666 1.139 2.135 -2.34 4.771 -4.625 3.971 -1.931 -0.676 -0.373 -2.861 -1.055 -7.339h-0.001Zm1.103 4.697c0 1.207 -0.113 1.595 0.549 1.636 1.21 0.075 2.097 -0.502 2.859 -1.375 0.612 -0.701 -0.061 -1.67 -0.817 -1.933 -0.703 -0.245 -1.368 -0.039 -2.02 0.172 -0.638 0.207 -0.571 0.175 -0.571 1.5Zm-0.002 -3.812c0.025 0 -0.007 0.456 0.014 0.903 0.013 0.279 0.082 0.325 0.338 0.225 0.763 -0.297 1.421 -0.74 1.906 -1.411 0.79 -1.094 -1.134 -1.665 -2.056 -0.924 -0.265 0.213 -0.202 0.2 -0.202 1.207Z" stroke-width="1"></path>
      <path id="vector_7" fill="#0a0430" d="M23.1871 106.484c-0.094 -1.176 1.116 -1.715 1.99 -1.543 1.196 0.235 2.263 1.653 1.405 3.438 -0.238 0.495 0.104 0.241 1.148 1.366 0.733 0.79 0.69 2.528 -0.272 2.846 -0.599 0.198 -1.196 0.406 -1.818 0.542 -0.683 0.15 -2.13 -0.075 -2.303 -0.495 -0.41 -0.992 -0.142 -6.054 -0.15 -6.154Zm1.709 5.573c0.69 0.005 1.312 -0.243 1.936 -0.49 0.749 -0.297 -0.372 -1.926 -1.203 -1.766 -1.173 0.227 -1.457 0.22 -1.425 0.529 0.041 0.404 -0.066 0.806 0 1.214 0.084 0.522 0.048 0.508 0.692 0.513Zm-0.688 -3.565c0.009 0.613 0.51 0.14 1.033 -0.32 1.136 -1.002 0.034 -2.381 -0.692 -2.097 -0.365 0.143 -0.371 0.374 -0.341 2.417Z" stroke-width="1"></path>
      <path id="vector_8" fill="#0a0430" d="M28.2091 80.0268c-0.132 0.561 -0.123 0.774 -0.647 0.731 -0.44 -0.036 -0.335 0 -0.629 -1.861 -0.207 -1.312 -0.177 -1.473 -0.461 -1.432 -1.7 0.245 -1.863 0.209 -1.933 0.638 -0.054 0.327 -0.227 0.352 -0.654 1.666 -0.084 0.259 -0.138 0.309 -0.449 0.315 -1.033 0.022 -0.072 -1.84 0.474 -3.238 1.864 -4.767 1.806 -4.856 2.244 -4.822 1.673 0.131 1.541 6.143 2.054 8.004l0.001 -0.001Zm-1.616 -3.942c-0.306 -2.444 -0.195 -2.626 -1.012 -0.642 -0.138 0.334 -0.475 1.103 -0.209 1.087 0.495 -0.03 1.237 -0.039 1.221 -0.445Z" stroke-width="1"></path>
      <path id="vector_9" fill="#0a0430" d="M25.0681 54.3638c0.881 0.317 0.461 1.629 0.148 2.487 -0.25 0.683 0.946 0.186 1.241 2.206 0.048 0.329 -0.102 0.685 -0.281 1.008 -0.2 0.359 -0.513 0.455 -0.874 0.531 -2.302 0.487 -3.405 1.241 -3.234 -2.535 0.094 -2.074 -1.253 -3.479 0.381 -3.962 1.303 -0.386 1.822 -0.021 2.619 0.266v-0.001Zm-1.99 4.586c0.041 0 -0.013 0.374 0.023 0.681 0.044 0.377 0.315 0.342 1.813 -0.009 1.251 -0.293 -0.037 -2.103 -1.532 -1.604 -0.406 0.136 -0.304 0.058 -0.304 0.932Zm-0.275 -3.944c-0.388 0.038 -0.241 0.223 0.07 1.654 0.127 0.583 0.849 0.093 1.339 -0.25 0.302 -0.211 0.69 -1.126 0.045 -1.305 -0.497 -0.138 -0.909 -0.153 -1.455 -0.1l0.001 0.001Z" stroke-width="1"></path>
      <path id="vector_10" fill="#0a0430" d="M27.7231 97.5459c-0.495 0 -0.597 -0.295 -0.672 -0.862 -0.379 -2.8889 0.016 -2.5 -1.947 -2.194 -0.497 0.077 -0.443 0.159 -1.207 2.07 -0.209 0.522 -0.984 0.449 -0.887 -0.22 0.085 -0.585 0.085 -0.4919 2.571 -6.7619 0.116 -0.293 0.225 -0.659 0.54 -0.647 0.281 0.011 0.546 0.0819 0.694 0.3789 0.362 0.727 0.621 1.4821 0.701 2.2971 0.436 4.426 1.087 5.9419 0.207 5.9409v-0.002Zm-2.079 -4.207c0.009 0.054 0.499 -0.055 0.551 -0.07 0.534 -0.157 0.46 -0.096 0.175 -2.0989 -0.009 -0.066 -0.059 -0.125 -0.089 -0.186 -0.05 0.043 -0.123 0.0769 -0.148 0.1319 -1.077 2.37 -1.08 2.258 -0.49 2.224l0.001 -0.001Z" stroke-width="1"></path>
      <path id="vector_11" fill="#0a0430" d="M30.821 90.2662c0.241 -0.88 0.856 -1.455 1.636 -1.82 0.849 -0.397 1.197 -0.139 1.693 0.654 0.377 0.603 0.406 1.344 -0.134 1.505 -0.508 0.151 -0.639 -0.443 -0.942 -0.81 -0.919 -1.116 -2.368 3.428 -1.296 5.251 0.22 0.374 0.508 0.202 0.815 0.252 1.019 0.166 1.196 -1.405 1.831 -0.983 0.204 0.136 0.402 0.318 0.34 0.601 -0.421 1.947 -3.273 2.097 -4.003 0.747 -0.917 -1.697 -0.449 -3.536 0.059 -5.396l0.001 -0.001Z" stroke-width="1"></path>
      <path id="vector_12" fill="#0a0430" d="M30.4461 108.665c0.015 1.436 1.343 2.439 1.766 2.233 0.418 -0.204 0.884 -0.339 1.11 -0.815 0.208 -0.438 1.062 -0.526 0.998 0.256 -0.056 0.69 -0.322 0.869 -0.826 1.259 -1.613 1.249 -3.848 0.039 -4.255 -2.498 -0.282 -1.759 1.794 -6.038 4.38 -4.788 0.581 0.281 0.667 1.237 0.054 1.434 -0.704 0.227 -0.329 -0.985 -1.446 -0.37s-1.791 2.413 -1.781 3.289Z" stroke-width="1"></path>
      <path id="vector_13" fill="#0a0430" d="M79.1881 106.251c-0.492 0.931 0.778 -0.036 1.924 0.424 0.463 0.186 0.268 0.871 -0.513 0.96 -2.689 0.306 -2.415 0.963 -3.136 0.551 -0.402 -0.229 -0.072 -0.937 0.086 -1.139 0.661 -0.841 1.883 -4.309 1.661 -4.879 -0.145 -0.372 -0.706 0.147 -0.892 0.502 -0.679 1.294 -1.446 -0.037 -0.474 -1.071 0.768 -0.818 2.153 -1.246 2.392 0.009 0.229 1.203 -0.556 3.711 -1.048 4.643Z" stroke-width="1"></path>
      <path id="vector_14" fill="#0a0430" d="M51.2991 78.0209c-0.626 0.061 -0.912 -0.925 -0.985 -1.575 -0.012 -0.107 0.021 -0.651 -0.288 -0.427 -0.584 0.423 -1.984 2.602 -2.319 1.648 -0.065 -0.186 -0.157 -0.354 0.048 -0.554 0.224 -0.218 0.363 -0.524 0.57 -0.762 1.385 -1.596 1.7749 -1.799 1.573 -2.079 -0.302 -0.417 -0.481 -0.915 -0.835 -1.303 -0.472 -0.517 0.457 -1.461 1.257 -0.104 0.657 1.115 0.4299 0.607 1.8219 -0.812 0.403 -0.411 1.1461 0.005 0.7811 0.61 -1.371 2.274 -1.924 1.187 -1.541 3.431 0.166 0.971 0.859 1.611 -0.083 1.927Z" stroke-width="1"></path>
      <path id="vector_15" fill="#0a0430" d="M21.52 27.5239c1.032 -4.325 1.045 -5.085 1.499 -5.209 0.366 -0.1 0.651 0.196 0.887 0.647 0.476 0.912 1.344 3.996 1.412 4.333 0.08 0.394 0.106 0.767 -0.291 0.904 -0.801 0.277 -0.615 -1.416 -1.2 -1.337 -0.962 0.13 -1.089 -0.251 -1.402 0.919 -0.327 1.22 -1.096 0.543 -0.905 -0.257Zm1.785 -1.676c0.433 -0.003 0.47 -0.109 0.365 -0.431 -0.422 -1.296 -0.4 -0.874 -0.633 0.073 -0.075 0.304 -0.036 0.36 0.268 0.359v-0.001Z" stroke-width="1"></path>
      <path id="vector_16" fill="#0a0430" d="M52.5379 46.4071c-0.098 -1.945 2.472 -4.272 3.574 -2.669 0.068 0.1 -0.011 0.631 -0.109 0.726 -0.134 0.13 -0.396 0.149 -0.554 -0.039 -0.434 -0.517 -1.316 0.468 -1.704 1.019 -0.251 0.357 -0.168 0.837 -0.129 1.266 0.1 1.112 1.082 1.463 1.477 1.298 0.651 -0.273 1.584 -0.758 1.879 -0.32 0.139 0.206 0.014 0.789 -0.241 0.905 -1.394 0.636 -2.287 0.888 -3.536 -0.116 -0.551 -0.443 -0.563 -1.325 -0.658 -2.072l0.001 0.002Z" stroke-width="1"></path>
      <path id="vector_17" fill="#0a0430" d="M54.941 110.161c-0.188 0.499 -1.037 0.436 -1.017 -0.188 0.159 -4.8 0.39 -3.937 -0.899 -1.999 -0.13 0.195 -0.468 0.3 -0.642 0.202 -0.795 -0.444 0.821 -2.024 1.645 -4.228 0.152 -0.406 0.901 -0.413 1.037 0.093 0.193 0.715 0.055 5.642 -0.125 6.12h0.001Z" stroke-width="1"></path>
      <path id="vector_18" fill="#0a0430" d="M64.1249 109.462c-0.084 0.452 -0.767 0.692 -1.017 0.082 -0.177 -0.433 -0.169 -4.182 -0.236 -4.613 -0.08 -0.513 -0.933 0.909 -1.203 1.146 -0.175 0.154 -0.397 0.13 -0.59 0.07 -0.182 -0.056 -0.108 -0.254 -0.125 -0.395 -0.049 -0.401 0.126 -0.496 1.387 -2.269 0.379 -0.533 0.418 -0.902 0.996 -0.84 0.293 0.031 0.431 0.193 0.472 0.47 0.162 1.089 0.337 6.236 0.316 6.349Z" stroke-width="1"></path>
      <path id="vector_19" fill="#0a0430" d="M50.4521 90.1961c-0.797 0.812 -0.667 1.377 -1.287 1.62 -0.62 0.243 -0.554 -0.558 -0.227 -1.13 1.933 -3.384 1.766 -3.302 2.208 -3.231 0.999 0.16 0.189 3.057 0.175 6.86 -0.003 0.731 -0.981 0.86 -1.023 0.125 -0.137 -2.367 0.334 -3.077 0.154 -4.244Z" stroke-width="1"></path>
      <path id="vector_20" fill="#0a0430" d="M59.8429 92.9052c0.151 -5.85 -0.169 -3.362 -0.994 -2.807 -0.345 0.232 -0.845 0.023 -0.647 -0.526 0.204 -0.565 0.103 -0.358 1.634 -2.403 0.381 -0.509 0.958 -0.275 0.994 0.009 0.124 0.971 0.148 4.478 0.129 6.293 -0.009 0.849 -1.031 0.939 -1.112 0.159 -0.029 -0.279 -0.009 -0.565 -0.005 -0.724l0.001 -0.001Z" stroke-width="1"></path>
      <path id="vector_21" fill="#0a0430" d="M54.138 78.3588c-1.15 -0.541 0.479 -1.659 0.635 -2.678 -0.86 0.259 -0.663 0.816 -1.35 0.617 -1.206 -0.348 1.628 -2.857 2.585 -1.434 0.299 0.445 -0.295 1.307 -0.66 2.337 0.495 -0.05 1.654 -0.188 1.654 -0.188 0.865 -0.023 0.788 0.863 0.154 1.048 -0.751 0.22 -2.31 0.631 -3.018 0.298Z" stroke-width="1"></path>
      <path id="vector_22" fill="#0a0430" d="M67.0749 109.335c0.304 -1.967 0.295 -5.905 -1.314 -6.799 -0.229 -0.127 -0.289 -0.345 -0.207 -0.565 0.446 -1.193 2.587 0.826 2.66 3.465 0.004 0.135 0.596 4.346 -0.567 4.584 -0.528 0.108 -0.572 -0.186 -0.572 -0.685Z" stroke-width="1"></path>
      <path id="vector_23" fill="#0a0430" d="M50.262 112.217c-0.46 0.307 -0.836 0.2 -0.985 -0.336 -1.194 -4.29 0.8509 -9.806 1.7449 -8.335 0.338 0.556 -1.417 2.589 -1.028 6.048 0.192 1.703 0.6561 2.364 0.2681 2.623Z" stroke-width="1"></path>
      <path id="vector_24" fill="#0a0430" d="M54.7729 93.8759c-0.626 0.001 -0.517 -0.79 -0.492 -1.516 0.023 -0.672 -1.41 0.129 -1.486 -0.606 -0.037 -0.352 0.027 -0.48 0.37 -0.574 0.913 -0.25 1.302 0.116 1.328 -0.699 0.012 -0.374 -0.102 -1.189 0.581 -1.107 0.477 0.057 0.318 0.395 0.354 1.157 0.023 0.486 0.309 0.279 0.964 0.34 0.817 0.077 0.377 0.917 0.152 0.998 -1.06 0.383 -1.232 -0.407 -1.257 0.84 -0.011 0.554 0.1 1.165 -0.513 1.166l-0.001 0.001Z" stroke-width="1"></path>
      <path id="vector_25" fill="#0a0430" d="M71.5909 106.128c-1.282 0.523 -1.441 -0.824 -0.145 -0.985 0.449 -0.056 0.262 -0.399 0.306 -0.949 0.035 -0.44 0.109 -0.898 0.486 -0.862 0.649 0.062 0.488 0.547 0.529 1.225 0.039 0.649 0.465 0.218 1.157 0.263 0.551 0.036 0.431 0.933 -0.079 1.014 -0.679 0.109 -0.973 0.068 -0.967 0.431 0.003 0.15 -0.039 0.322 0.02 0.447 0.111 0.234 -0.011 0.436 -0.025 0.651 -0.011 0.168 -0.123 0.26 -0.297 0.286 -1.19 0.175 -0.318 -1.795 -0.985 -1.523v0.002Z" stroke-width="1"></path>
      <path id="vector_26" fill="#0a0430" d="M82.9599 101.313c-0.679 0.227 -1.026 -0.311 -0.858 -0.792 0.294 -0.8378 0.549 -1.0758 0.009 -1.0758 -0.726 0 -0.349 -1.424 0.515 -1.452 0.538 -0.018 0.591 -0.041 0.794 0.504 0.337 0.903 -0.227 1.5188 0.159 1.6658 0.084 0.032 0.188 0 0.279 0.018 0.229 0.047 0.479 0.324 0.465 0.502 -0.053 0.71 -0.624 0.615 -1.359 0.672l-0.005 -0.041 0.001 -0.001Z" stroke-width="1"></path>
      <path id="vector_27" fill="#0a0430" d="M41.235 74.195c0.059 0.998 -1.983 0.943 -3.347 1.033 -0.86 0.056 -0.797 -1.129 0.756 -1.148 1.956 -0.024 2.011 -0.642 2.592 0.116l-0.001 -0.001Z" stroke-width="1"></path>
      <path id="vector_28" fill="#0a0430" d="M41.1139 90.9402c0.039 0.127 -0.075 0.605 -0.656 0.715 -0.624 0.118 -3.046 0.592 -3.188 0.086 -0.132 -0.467 0.513 -0.86 0.96 -0.869 1.636 -0.035 2.685 -0.588 2.884 0.068Z" stroke-width="1"></path>
      <path id="vector_29" fill="#0a0430" d="M37.9029 107.878c-0.023 -0.014 -0.572 -0.198 -0.22 -0.701 0.505 -0.722 1.288 -0.223 2.646 -0.644 0.177 -0.055 0.683 -0.067 0.885 0.039 0.458 0.24 0.036 0.877 -0.474 0.953 -0.662 0.099 -1.309 0.293 -1.992 0.25 -0.254 -0.016 -0.515 0.061 -0.844 0.104l-0.001 -0.001Z" stroke-width="1"></path>
      <path id="vector_30" fill="#0a0430" d="M38.0081 93.4221c-0.642 -0.143 -0.436 -0.781 -0.064 -0.921 0.449 -0.17 1.556 0.115 2.548 -0.279 0.252 -0.1 0.563 0.184 0.654 0.325 0.036 0.057 -0.083 0.211 -0.123 0.322 -0.259 0.723 -2.916 0.576 -3.016 0.554l0.001 -0.001Z" stroke-width="1"></path>
      <path id="vector_31" fill="#0a0430" d="M40.6079 75.5042c0.386 -0.134 0.806 0.327 0.701 0.422 -0.188 0.172 -0.195 0.504 -0.508 0.565 -1.014 0.199 0.007 0.2 -2.626 0.177 -0.463 -0.004 -0.576 -0.256 -0.486 -0.517 0.284 -0.817 1.373 -0.111 2.918 -0.647h0.001Z" stroke-width="1"></path>
      <path id="vector_32" fill="#0a0430" d="M37.856 108.89c-0.013 -0.213 0.222 -0.516 0.456 -0.556 0.147 -0.025 0.3 -0.018 0.452 -0.016 1.806 0.027 2.451 -0.567 2.675 0.054 0.341 0.945 -3.54 1.201 -3.583 0.518Z" stroke-width="1"></path>
      <path id="vector_33" fill="#0a0430" d="M56.1389 107.104c0.166 -0.49 0.259 -0.464 1.577 -0.699 1.137 -0.203 1.101 -0.182 1.194 -0.136 0.674 0.33 0.209 1.024 -0.404 1.132 -0.724 0.128 -2.602 0.397 -2.367 -0.297Z" stroke-width="1"></path>
      <path id="vector_34" fill="#0a0430" d="M161.134 22.199c-0.251 -4.03 0.507 -7.806 -1.709 -7.833L16.133 12.577c-2.375 -0.139 -3.579 -0.219 -5.173 1.482 -4.29302 4.592 -2.48902 3.182 -3.19902 14.216 -0.043 0.682 1.356 97.924 2.139 102.016 0.31902 1.668 1.76802 2.116 3.67502 2.116s9.774 0.47 139.833 -14.158c2.604 -0.293 3.246 -0.506 6.019 -4.007 0.45 -0.564 0.741 -1.103 0.678 -2.65 -0.703 -17.253 1.491 -81.954 1.029 -89.393Zm-7.839 95.057L17.02 131.125c-3.618 0.423 -5.836 0.565 -6.139 -1.02 -0.817 -4.274 -2.12102 -100.882 -2.12302 -101.765 0.706 -10.956 -1.005 -9.383 2.72902 -13.379l1.646 111.116c0.02 1.366 1.2 2.443 2.589 2.311l142.388 -14.101c-2.145 2.643 -2.654 2.705 -4.815 2.97v-0.001Zm5.81 -5.623c0.079 1.943 -0.142 1.563 -1.981 1.745L15.623 127.392c-0.79 0.078 -1.478 -0.537 -1.491 -1.331L12.496 15.568c-0.017 -1.131 0.896 -2.058 2.028 -2.058l144.888 1.856c0.948 0.011 0.529 3.775 0.724 6.895 0.456 7.351 -1.733 72.122 -1.031 89.372Z" stroke-width="1"></path>
    </g>
    <g id="ground">
      <path id="vector_35" fill="#ffffff" d="M75.9321 182.784c1.309 8.339 4.81 10.551 9.996 11.469 2.356 0.417 7.343 -0.077 8.968 -0.077s9.9639 0.792 11.6939 0.66c1.729 -0.132 13.929 -0.264 14.945 -0.397 4.38 -0.572 15.948 0.561 39.549 0.561 2.033 0 12.406 -0.59 14.542 -0.59 9.105 0 13.898 0.254 15.61 -11.514l-115.3039 -0.111v-0.001Z" stroke-width="1"></path>
      <path id="vector_36" fill="#0a0430" d="M189.634 182.948c-0.143 0.018 -1.023 -0.234 -1.598 -0.109 -0.114 0.025 -6.222 -0.283 -6.327 -0.29 -1.169 -0.086 -0.347 0.104 -1.677 0.091 -0.946 -0.009 -0.407 0.179 -1.797 0.109 -7.463 -0.375 -7.235 0.048 -7.784 -0.027 -4.187 -0.571 -6.345 -0.086 -8.371 -0.213 -1.334 -0.084 -2.378 -0.413 -3.297 -0.302 -2.33 0.282 -11.802 0.406 -14.442 0.225 -0.692 -0.048 -1.38 0.072 -2.072 -0.005 -0.325 -0.036 -0.547 0.009 -0.69 0.093 -3.235 -0.024 -2.596 0.31 -3.395 0.202 -4.188 -0.564 -6.345 -0.086 -8.371 -0.213 -1.334 -0.084 -2.378 -0.413 -3.297 -0.302 -2.33 0.282 -11.802 0.406 -14.442 0.225 -0.692 -0.048 -1.38 0.07 -2.072 -0.005 -0.338 -0.036 -0.565 0.014 -0.706 0.104 -3.34 -0.02 -3.635 -0.048 -4.157 0.102 -0.284 0.082 -0.601 0.128 -0.892 0.089 -4.188 -0.564 -6.3449 -0.086 -8.3709 -0.213 -1.334 -0.084 -2.378 -0.413 -3.297 -0.302 -2.329 0.282 -11.802 0.406 -14.442 0.225 -0.692 -0.048 -1.38 0.071 -2.072 -0.005 -1.214 -0.133 -1.017 0.848 -0.488 0.896 0.222 0.02 2.442 -0.04 3.626 0.032 4.774 0.291 13.803 -0.429 15.724 -0.068 1.899 0.357 2.39 0.101 4.411 0.048 2.5869 -0.069 4.0959 0.358 5.8299 0.202 1.129 -0.102 0.031 -0.227 4.225 -0.243 0.227 0.085 2.175 -0.034 3.744 0.061 4.774 0.291 13.803 -0.429 15.724 -0.068 1.899 0.357 2.39 0.101 4.411 0.048 2.587 -0.069 4.096 0.358 5.83 0.202 0.025 -0.002 2.444 -0.415 6.3 -0.182 4.783 0.29 13.807 -0.428 15.724 -0.068 1.899 0.357 2.39 0.102 4.411 0.048 2.864 -0.077 4.498 0.463 6.365 0.12 1.072 -0.062 7.744 0.356 8.898 0.02 0.619 -0.18 1.107 0.057 1.48 0.059 0.025 0 6.449 0.029 7.105 0.225 0.281 0.084 0.905 -0.218 2.174 -0.241 0.234 -0.004 0.436 -0.191 0.438 -0.361 0.009 -0.731 -1.584 -0.308 -2.365 -0.209h0.002Z" stroke-width="1"></path>
    </g>
    <g id="bulb">
      <path id="vector_37" fill="#c1e1fd" d="M116.339 41.0503c0.554 -0.172 0.665 -0.42 0.631 0.159 -0.322 2.383 -4.083 2.655 -5.138 1.838 -1.023 -0.792 -0.715 -0.376 4.507 -1.997Z" stroke-width="1"></path>
      <path id="vector_38" fill="#c1e1fd" d="M118.796 36.1594c0.415 0.71 0.861 1.278 0.161 2.256 -1.038 1.451 -7.639 3.096 -9.386 3.343 -2.417 0.341 -2.951 -2.561 -2.371 -2.378 1.512 0.478 6.177 -0.902 7.695 -1.362 3.745 -1.133 3.706 -2.192 3.901 -1.859Z" stroke-width="1"></path>
      <path id="vector_39" fill="#c1e1fd" d="M118.431 33.6684c0.509 0.64 -0.284 2.003 -1.191 2.378 -1.9 0.784 -8.137 3.104 -9.828 2.396 -1.33 -0.556 -1.348 -0.901 -1.473 -1.716 -0.182 -0.483 0.13 -0.827 0.311 -1.2 0.061 -0.125 0.184 -0.172 0.254 -0.032 0.9 1.798 7.661 -0.879 8.927 -1.307 0.57 -0.192 0.992 -0.567 1.4 -0.98 0.345 -0.349 -0.147 -0.793 0.393 -0.674 0.994 0.219 0.897 0.744 1.207 1.135Z" stroke-width="1"></path>
      <path id="vector_40" fill="#ffffff" d="M108.582 6.16436c-5.355 0.116 -11.7222 3.213 -13.3342 8.58504 -0.238 0.794 0.012 5.351 0.542 6.42 3.802 7.659 8.0312 2.764 11.0762 11.802 0.698 2.072 0.306 2.14 0.903 2.169 3.761 0.188 5.774 -0.92 7.72 -2.072 0.681 -0.403 -1.714 -3.616 0.449 -7.727 0.012 -0.022 2.12 -3.619 2.272 -3.785 2.967 -3.236 1.914 -15.64104 -9.628 -15.39204Z" stroke-width="1"></path>
      <path id="vector_41" fill="#0a0430" d="M119.364 34.9092c0.482 -1.131 -0.2 -2.963 -2.306 -3.259 -0.531 -0.075 -0.534 -0.041 -0.667 -0.554 -1.709 -6.575 4.239 -6.59 4.364 -15.011 -1.158 -8.58805 -5.326 -11.04504 -12.463 -11.06704 -3.596 -0.011 -4.877 0.994 -5.737 1.282 -1.486 0.498 -3.0471 1.296 -4.2391 2.303 -3.895 3.29004 -3.993 4.78004 -4.337 8.49604 -0.023 0.253 0.113 2.769 0.846 4.561 0.406 0.992 1.866 3.552 2.855 4.089 6.6381 3.608 6.5231 3.101 8.3581 8.358 0.195 0.558 -0.251 0.263 -0.801 1.377 -0.625 1.266 -0.156 2.568 0.669 3.147 0.2 0.14 0.266 0.336 0.184 0.542 -0.104 0.261 -0.032 0.506 -0.027 0.765 0.033 1.713 1.818 2.926 3.679 2.793 0.817 -0.058 0.202 0.656 2.038 1.564 1.679 0.83 4.621 -0.156 5.192 -0.738 1.878 -1.914 0.653 -3.062 1.414 -3.511 1.361 -0.804 2.133 -1.951 1.722 -3.477 -0.22 -0.819 -0.951 -1.178 -0.744 -1.663v0.003Zm-23.5731 -13.74c-0.531 -1.069 -0.781 -5.626 -0.542 -6.42 1.613 -5.37205 7.9791 -8.46904 13.3341 -8.58504 11.542 -0.25 12.595 12.15704 9.628 15.39304 -0.152 0.166 -2.26 3.763 -2.272 3.785 -2.163 4.11 0.232 7.324 -0.449 7.727 -0.923 0.546 -0.982 0.556 -1.076 0.204 -0.047 -0.177 -4.037 -15.086 -3.665 -15.268 2.349 -1.147 2.921 -1.282 2.952 -2.258 0.133 -4.11 -5.264 -5.489 -4.695 -2.793 0.021 0.1 -0.085 1.917 0.352 3.885 0.032 0.145 0.017 0.302 0.036 0.452 0.05 0.4 0.038 0.456 -0.318 0.579 -7.022 2.424 -4.912 3.022 -6.89 -0.334 -1.101 -1.868 -2.088 -1.988 -3.0521 -1.759 -1.377 0.328 -0.9 5.116 1.7521 5.623 0.393 0.075 0.715 -0.086 1.761 -0.286 0.84 -0.161 2.303 4.484 5.807 11.113 0.054 0.102 1.06 1.903 1.246 2.417 0.095 0.263 -0.025 0.492 -0.293 0.458 -0.551 -0.069 -1.091 0.066 -1.638 0.039 -0.597 -0.03 -0.205 -0.097 -0.903 -2.169 -3.046 -9.039 -7.2741 -4.143 -11.0761 -11.802l0.001 -0.001Zm17.7931 12.599c0.007 0.502 -0.915 0.326 -2.489 0.985 -0.695 0.291 -4.68 -9.262 -7.023 -13.641 -0.229 -0.429 0.154 -0.105 1.666 -0.899 1.121 -0.588 3.159 -1.177 3.667 -1.359 0.515 -0.185 -0.287 -0.917 4.179 14.914Zm-3.499 -20.97c0.087 -0.754 2.605 0.96 2.589 2.46 -0.008 0.762 0.258 0.43 -2.045 1.663 -0.204 0.109 -0.267 0.02 -0.415 -0.919 -0.303 -1.929 -0.226 -2.369 -0.129 -3.204Zm-7.625 7.264c-0.495 0.216 -0.767 0.152 -1.375 0.34 -0.572 -0.116 -1.021 -0.386 -1.2711 -0.926 -0.195 -0.42 -0.429 -1.763 -0.413 -2.299 0.012 -0.397 0.157 -0.483 0.558 -0.445 1.0731 0.103 2.0671 2.352 2.5011 3.33Zm3.479 16.666c-0.182 -0.483 0.13 -0.827 0.311 -1.2 0.061 -0.125 0.184 -0.172 0.254 -0.032 0.9 1.798 7.661 -0.879 8.927 -1.307 0.57 -0.192 0.992 -0.567 1.4 -0.98 0.345 -0.349 -0.147 -0.793 0.393 -0.674 0.994 0.219 0.897 0.744 1.207 1.135 0.509 0.64 -0.284 2.003 -1.191 2.378 -1.9 0.784 -8.137 3.104 -9.828 2.396 -1.33 -0.556 -1.348 -0.901 -1.473 -1.716Zm11.031 4.482c-0.322 2.383 -4.083 2.655 -5.138 1.838 -1.023 -0.792 -0.715 -0.376 4.507 -1.997 0.554 -0.172 0.665 -0.42 0.631 0.159Zm1.988 -2.793c-1.038 1.451 -7.639 3.096 -9.386 3.343 -2.417 0.341 -2.951 -2.561 -2.371 -2.378 1.512 0.478 6.177 -0.902 7.695 -1.362 3.745 -1.133 3.706 -2.192 3.901 -1.859 0.415 0.71 0.861 1.278 0.161 2.256Z" stroke-width="1"></path>
    </g>
    <g id="robot">
      <path id="vector_42" fill="#ffffff" d="M185.79 115.954c4.992 3.604 3.232 9.066 -0.776 9.749 -4.797 0.817 -8.383 -4.369 -6.91 -7.278 1.418 -2.8 5.011 -4.402 7.686 -2.471Zm1.028 4.443c0.563 -4.82 -8.324 -4.043 -5.11 1.45 1.011 1.728 4.826 0.987 5.11 -1.45Z" stroke-width="1"></path>
      <path id="vector_43" fill="#c1e1fd" d="M185.822 119.195c1.04 2.467 -2.785 3.657 -3.499 1.992 -0.247 -0.574 -0.91 -1.364 -0.02 -2.442 0.649 -0.787 1.248 -0.988 2.194 -0.622 0.527 0.204 1.074 0.475 1.325 1.072Z" stroke-width="1"></path>
      <path id="vector_44" fill="#ffffff" d="M185.693 126.422c0.088 0.14 -4.957 8.238 -13.809 15.88 -0.418 0.361 -0.012 -0.526 -2.158 -5.394 -3.759 -8.527 -7.598 -9.306 -7.661 -9.343 1.113 -1.359 14.9 -8.898 14.809 -7.216 -0.042 0.783 0.858 3.529 2.843 4.775 1.328 0.833 2.276 1.464 3.477 1.464 2.51 0 2.415 -0.299 2.499 -0.166Z" stroke-width="1"></path>
      <path id="vector_45" fill="#c1e1fd" d="M178.172 88.3476c-0.338 0.547 -0.919 0.754 -1.543 0.629 -2.204 -0.443 -2.013 -0.356 -2.199 -0.479 0.202 -0.234 0.565 -0.057 1.008 -1.144 1.278 -3.143 5.07 -13.908 5.281 -15.701 -0.118 -0.905 -0.177 -1 0.073 -0.915 0.732 0.251 1.421 0.589 2.063 1.01 2.073 1.361 -3.888 15.313 -4.682 16.6h-0.001Z" stroke-width="1"></path>
      <path id="vector_46" fill="#c1e1fd" d="M183.421 114.052c-0.313 0.452 -3.799 -0.301 -6.302 4.421 -0.268 0.506 -0.28 -0.397 -5.362 -5.905 -0.086 -0.093 -0.054 -0.163 0 -0.243 0.967 -1.409 1.557 -0.842 2.321 -6.338 2.022 1.234 7.949 6.213 9.343 8.065Z" stroke-width="1"></path>
      <path id="vector_47" fill="#c1e1fd" d="M178.93 65.3849c0.468 1.237 0.067 2.405 -0.045 2.925 -0.253 1.168 -0.07 0.414 -1.675 0.404 -1.334 -0.008 -1.707 0.345 -5.927 13.879 -0.662 2.124 -1.013 2.605 -1.212 3.876 -0.165 1.053 1.183 1.41 1.266 1.677 0.06 0.193 -0.856 1.507 -2.04 2.458 -0.875 0.703 -3.068 1.157 -4.182 1.017 -0.728 0.077 -1.573 0.218 -1.924 0.077 4.709 -1.672 5.839 -5.771 7.343 -10.455 2.063 -6.422 4.677 -14.424 4.518 -15.855 -0.607 -5.482 -4.911 -7.313 0.449 -4.232 3.124 1.796 2.477 1.712 3.429 4.229Z" stroke-width="1"></path>
      <path id="vector_48" fill="#ffffff" d="M178.118 69.704c2.674 1.031 2.004 1.918 0.104 7.484 -3.429 10.048 -3.617 10.768 -4.745 10.704 -0.81 -0.166 -1.579 -0.418 -2.387 -1.051 -0.456 -0.357 -0.309 -0.098 1.992 -7.257 2.754 -8.569 1.042 -3.646 3.42 -9.615 0.193 -0.483 1.064 -0.477 1.616 -0.265Z" stroke-width="1"></path>
      <path id="vector_49" fill="#ffffff" d="M167.992 97.0417c2.891 2.076 5.034 6.0433 4.906 8.6163 -0.21 4.232 -1.588 5.306 -4.355 5.896 -3.11 0.663 -7.144 -1.954 -8.115 -3.12 -1.635 -1.964 -0.903 -1.137 -1.718 -2.433 -1.978 -3.143 -1.784 -8.1263 2.24 -10.0603 1.609 -0.773 4.732 -0.558 7.042 1.101Z" stroke-width="1"></path>
      <path id="vector_50" fill="#ffffff" d="M172.102 60.398c3.506 5.111 2.216 5.49 -1.534 17.866 -2.132 7.037 -3.606 12.842 -10.881 13.334 -0.719 -0.107 -2.43 -0.309 -5.294 -0.976 -0.665 -0.155 -9.166 -2.721 -14.73 -4.752 -10.568 -3.858 -19.761 -6.161 -18.767 -11.902 1.076 -6.213 5.813 -19.246 7.657 -22.339 1.193 -2.002 3.835 -3.743 5.396 -3.955 4.273 -0.582 33.184 9.352 33.608 9.533 1.718 0.734 3.489 1.651 4.545 3.191Z" stroke-width="1"></path>
      <path id="vector_51" fill="#c1e1fd" d="M168.877 137.138c0.387 0.912 2.686 6.733 1.489 5.805 -3.138 -2.432 -4.135 -4.107 -4.747 -4.752 -0.416 -0.438 0.585 -0.173 2.498 -1.872 0.361 -0.32 0.296 -0.273 0.76 0.819Z" stroke-width="1"></path>
      <path id="vector_52" fill="#c1e1fd" d="M166.785 75.1959c-2.545 8.118 -2.603 9.856 -6.976 11.401 -1.418 0.501 -8.768 -1.995 -9.313 -2.219 -1.753 -0.721 -1.132 -1.103 -1.641 -5.138 -0.104 -0.828 -0.735 -1.905 -1.339 -1.915 -0.297 -0.005 -0.37 -0.416 -3.057 -1.244 -4.181 -1.287 -5.864 -2.562 -7.391 -1.092 -1.618 1.557 -3.044 2.806 -3.701 3.529 -1.155 1.27 -6.878 -2.329 -7.539 -2.653 -2.056 -1.008 -0.871 -3.782 0.023 -6.685 1.43 -4.647 3.417 -11.05 5.852 -15.256 0.72 -1.243 1.162 -1.891 2.698 -2.39 1.255 -0.407 1.941 -0.126 3.059 0.263 3.509 1.22 1.932 0.388 4.384 5.036 0.524 0.994 3.401 1.679 9.985 3.781 0.615 0.196 1.094 0.428 2.185 0.079 5.895 -1.884 3.435 -2.568 7.843 -1.062 3.86 1.319 6.235 1.589 7.391 4.986 0.536 1.576 0.628 0.717 -2.464 10.579h0.001Z" stroke-width="1"></path>
      <path id="vector_53" fill="#ffffff" d="M161.384 174.454c6.45 1.599 9.956 8.726 7.151 9.874 -4.112 1.682 -14.889 1.899 -14.966 0 -0.091 -2.267 2.379 -7.632 6.039 -9.583 0.426 -0.227 0.965 -0.255 1.455 -0.356 0.098 -0.02 0.215 0.039 0.322 0.066l-0.001 -0.001Z" stroke-width="1"></path>
      <path id="vector_54" fill="#ffffff" d="M167.763 134.816c0.211 0.354 0.209 0.365 -0.084 0.669 -1.419 1.476 -2.464 1.748 -4.387 1.974 -0.372 0.044 -0.447 -0.152 -0.513 -0.361 -0.381 -1.201 -0.853 -2.017 -2.029 -1.936 -0.756 0.052 0.384 -0.397 -0.284 -2.403 -0.429 -1.289 -1.993 -1.053 -2.208 -1.082 -0.111 -0.015 -0.221 -0.108 -0.309 -0.188 -0.022 -0.021 0.034 -0.189 0.089 -0.211 0.124 -0.051 0.918 0.096 1.398 -0.772 1.118 -2.019 -1.7 -2.433 0.547 -2.43 3.086 0.004 4.59 1.382 7.779 6.74h0.001Z" stroke-width="1"></path>
      <path id="vector_55" fill="#c1e1fd" d="M165.31 112.251c1.675 0.661 1.548 0.238 2.002 0.522 -0.931 2.625 -3.205 7.877 -5.467 9.504 -0.522 0.375 -0.072 -0.107 -1.439 -1.777 -0.161 -0.197 0.156 -0.254 0.774 -1.216 3.539 -5.513 3.012 -7.474 4.13 -7.033Z" stroke-width="1"></path>
      <path id="vector_56" fill="#c1e1fd" d="M165.146 53.7329c0.351 2.331 2.418 2.402 -4.189 0.254 -1.132 -0.368 -17.709 -5.467 -17.732 -5.483 0.225 -0.313 0.589 -0.446 1.495 -1.139 0.37 -0.283 0.912 -0.533 1.654 -0.651 1.754 0.075 18.423 4.697 18.772 7.019Z" stroke-width="1"></path>
      <path id="vector_57" fill="#ffffff" d="M163.978 111.767c0.393 0.241 -3.288 7.539 -4.119 8.02 -3.133 -3.927 -10.049 -7.201 -12.526 -7.952 -0.161 -0.049 -0.599 -0.198 -0.672 -0.349 -0.083 -0.173 0.757 -2.567 -0.229 -5.75 -1.094 -3.532 -3.27 -4.841 -6.681 -5.9342 -0.467 -0.15 -0.409 -0.243 0.1 -1.834 0.866 -2.708 0.692 -2.135 1.52 -3.978 0.697 -1.55 0.153 -0.522 5.201 -0.104 1.231 0.102 5.182 0.091 5.242 -1.132 0.041 -0.829 8.201 2.533 8.117 2.732 -0.107 0.254 -2.011 0.877 -2.921 3.663 -1.575 4.8222 2.5 10.9292 5.877 12.0412 0.386 0.127 0.738 0.363 1.089 0.579l0.002 -0.002Z" stroke-width="1"></path>
      <path id="vector_58" fill="#c1e1fd" d="M162.51 37.8697c0.061 1.157 -1.284 2.544 -2.578 2.818 -2.147 0.456 0.851 -1.963 -1.35 -2.508 -0.613 -0.152 -0.798 -0.238 -1.18 0.374 -0.58 0.929 -0.565 1.405 -0.933 0.964 -0.863 -1.034 -1.017 -2.11 -0.815 -2.902 0.873 -3.424 6.609 -3.389 6.856 1.254Z" stroke-width="1"></path>
      <path id="vector_59" fill="#c1e1fd" d="M161.377 136.144c0.476 0.75 0.953 1.689 0.118 1.997 -0.567 0.209 -4.582 0.989 -4.593 0.921 -2.04 0 0.862 -2.705 3.538 -3.116 0.579 -0.089 0.858 0.073 0.937 0.198Z" stroke-width="1"></path>
      <path id="vector_60" fill="#ffffff" d="M161.27 172.657c0.302 0.833 0.579 1.044 0.064 1.021 -0.556 -0.236 -1.114 0.018 -1.679 0.209 -0.572 0.193 0.108 -0.591 -0.236 -1.902 -0.032 -0.122 -0.009 -0.226 0.15 -0.241 0.088 -0.008 0.188 -0.066 0.266 -0.043 0.588 0.175 1.214 0.343 1.436 0.955l-0.001 0.001Z" stroke-width="1"></path>
      <path id="vector_61" fill="#c1e1fd" d="M158.829 132.488c0.844 0.021 1.036 0.837 1.008 1.709 -0.03 0.915 -0.896 0.783 -1.784 0.783 -2.224 -0.204 -4.865 2.185 -4.586 0.536 0.145 -0.858 1.655 -2.057 2.564 -2.58 0.781 -0.45 1.777 -0.474 2.798 -0.448Z" stroke-width="1"></path>
      <path id="vector_62" fill="#c1e1fd" d="M158.747 129.257c0.207 0.479 0.05 1.044 -0.654 1.207 -1.475 0.343 -1.625 -0.472 -4.135 0.168 -1.087 0.277 -1.11 0.297 -1.366 0.247 -0.728 -0.14 1.532 -2.837 3.467 -2.846 1.57 0.25 2.238 0.182 2.687 1.223l0.001 0.001Z" stroke-width="1"></path>
      <path id="vector_63" fill="#ffffff" d="M158.677 172.044c0.103 0.467 0.034 0.976 0.027 1.464 -0.005 0.322 -1.123 0.285 -1.446 0.268 -2.328 -0.128 -5.75 1.642 -7.566 3.104 -0.522 0.42 -0.498 0.363 -0.592 0.057 -1.441 -4.693 -3.553 -2.859 -3.545 -3.744 0.029 -2.905 -0.1 -5.759 1.01 -8.444 0.557 -1.348 0.568 -0.004 1.933 0.266 0.951 0.187 0.045 2.217 1.922 3.983 1.06 0.996 2.335 1.323 2.748 1.255 3.559 -0.589 3.616 -3.187 3.964 -2.469 0.505 1.041 0.99 1.751 1.543 4.262l0.002 -0.002Z" stroke-width="1"></path>
      <path id="vector_64" fill="#ffffff" d="M158.461 38.9777c0.231 0.075 0.232 0.198 0.163 0.379 -0.51 1.353 -2.077 8.669 -2.179 8.97 -0.093 0.277 -1.164 -0.263 -2.439 -0.66 0.238 -0.604 3.921 -8.562 3.933 -8.585 0.106 -0.215 0.202 -0.208 0.522 -0.104Z" stroke-width="1"></path>
      <path id="vector_65" fill="#c1e1fd" d="M158.922 119.957c-0.404 1.906 -1.235 4.25 -1.296 4.387 -0.355 0.795 0.449 0.031 -7.573 -4.173 -5.631 -2.951 -6.447 -2.521 -5.973 -3.145 1.985 -2.612 1.877 -4.071 2.371 -4.638 5.887 1.906 9.939 4.879 12.47 7.57l0.001 -0.001Z" stroke-width="1"></path>
      <path id="vector_66" fill="#c1e1fd" d="M149.572 178.13c2.284 -2.055 5.685 -3.878 8.748 -3.62 -0.583 0.531 -2.602 2.093 -3.744 4.191 -2.313 4.251 -1.625 5.462 -2.011 5.589 -0.316 0.104 -2.297 -0.607 -3.152 -1.073 -0.527 -0.287 0.693 -0.749 0.275 -3.243 -0.277 -1.65 -0.325 -1.657 -0.116 -1.845v0.001Z" stroke-width="1"></path>
      <path id="vector_67" fill="#ffffff" d="M157.649 135.774c0.166 0.014 0.34 -0.213 0.497 0.018 -0.415 0.32 -2.74 1.575 -2.712 2.655 0.01 0.37 -0.072 0.744 0.209 1.08 0.396 0.474 1.622 0.113 1.253 0.538 -1.733 1.991 -1.662 2.063 -1.999 1.695 -1.976 -2.157 -10.04 -2.59 -11.48 3.107 -0.113 0.447 0.023 0.388 -3.338 0.211 -0.776 -0.041 -1.432 -0.343 -1.834 -1.008 -1.953 -3.235 -5.176 -19.62 -3.104 -20.056 3.436 0.309 3.228 0.421 7.35 1.672 0.229 0.07 3.103 0.759 4.38 1.541 0.07 0.043 0.069 -0.168 4.859 1.988 0.438 0.197 0.433 0.197 0.166 0.62 -0.273 0.433 -0.411 0.871 -0.102 1.362 0.517 0.822 1.545 0.234 2.932 0.02 2.272 -0.349 2.968 0.484 2.224 0.606 -1.872 0.306 -4.858 2.637 -4.221 4.575 0.527 1.602 3.504 -0.74 4.922 -0.624h-0.002Z" stroke-width="1"></path>
      <path id="vector_68" fill="#ffffff" d="M157.279 149.328c0.51 3.091 1.641 8.626 0.64 9.874 -0.479 -0.819 -0.969 -1.979 -2.576 -2.573 -1.568 -0.581 -2.571 -0.424 -3.647 0.182 -3.647 2.055 -2.425 6.704 -3.206 6.545 -5.239 -1.067 -4.207 -8.36 -4.377 -8.38 -0.538 -8.291 -1.01 -14.198 6.921 -13.859 2.394 0.103 3.163 0.935 3.821 1.804 0.901 1.189 1.944 3.503 2.424 6.407Z" stroke-width="1"></path>
      <path id="vector_69" fill="#c1e1fd" d="M156.83 158.744c1.434 2.816 1.227 4.454 0.186 7.06 -1.476 3.695 -3.561 3.508 -3.574 3.49 -0.193 -0.261 1.859 -2.068 2.117 -9.186 0.054 -1.484 -0.252 -2.26 -0.266 -2.644 0.343 0.009 1.157 0.536 1.536 1.28h0.001Z" stroke-width="1"></path>
      <path id="vector_70" fill="#c1e1fd" d="M156.73 125.179c0.536 0.413 0.599 0.077 -0.263 2.07 -0.109 0.252 -0.999 -0.38 -2.512 0.624 -1.04 0.689 -0.928 0.86 -1.257 0.71 -3.742 -1.703 -13.924 -5.679 -18.02 -5.333 -2.537 0.215 -1.768 0.22 -2.991 0.599 -1.282 0.397 -4.608 2.048 -6.427 3.082 -0.336 0.191 -0.259 0.985 -2.033 -6.411 -0.018 -0.2 0.063 -0.318 0.243 -0.404 1.878 -0.896 2.001 -1.263 5.53 -2.192 1.883 -0.496 1.815 -0.438 1.956 -0.22 1.133 1.754 4.414 2.865 6.32 2.639 2.288 -0.271 3.057 -0.177 5.764 -2.174 0.806 -0.594 11.192 5.083 13.691 7.01h-0.001Z" stroke-width="1"></path>
      <path id="vector_71" fill="#c1e1fd" d="M154.517 157.591c0.932 3.266 0.117 8.278 -1.865 11.335 -0.268 0.413 -0.619 0.454 -1.586 -0.374 -1.846 -1.582 -1.858 -6.366 -1.039 -8.485 1.274 -3.295 4.166 -3.615 4.491 -2.476h-0.001Z" stroke-width="1"></path>
      <path id="vector_72" fill="#c1e1fd" d="M150.48 91.0686c0.374 -0.028 0.639 -0.032 0.617 0.293 -0.08 1.182 -0.104 1.322 -1.003 1.466 -4.388 0.7 -7.723 -0.229 -11.292 -1.777 -0.697 -0.302 -0.526 -1.065 -0.352 -1.725 0.154 -0.586 5.401 2.237 12.03 1.743Z" stroke-width="1"></path>
      <path id="vector_73" fill="#c1e1fd" d="M146.888 89.2877c0.583 0.192 3.313 0.936 2.696 0.953 -4.605 0.128 -10.098 -1.338 -11.029 -1.986 -0.141 -0.098 -0.347 -0.227 -0.136 -1.225 0.176 -0.831 -0.249 -0.556 4.636 1.021 0.744 0.24 1.506 0.428 2.253 0.665 0.533 0.169 1.049 0.397 1.579 0.572h0.001Z" stroke-width="1"></path>
      <path id="vector_74" fill="#ffffff" d="M148.962 180.803c0.306 3.229 -3.942 3.708 -4.831 2.276 -0.998 -1.607 -1.382 -4.387 -1.389 -6.206 -0.009 -2.592 4.804 -4.927 5.884 1.357 0.438 2.546 0.336 1.775 0.336 2.573Z" stroke-width="1"></path>
      <path id="vector_75" fill="#ffffff" d="M146.128 109.11c0.095 1.663 -1.347 5.931 -2.678 7.284 -0.377 0.383 -0.907 1.549 -3.606 2.567 -3.63 1.37 -8.104 0.038 -9.801 -4.518 -0.435 -1.169 -0.629 -3.59 -0.647 -3.901 -0.058 -1.021 0.462 -2.789 0.613 -3.436 2.248 -9.6461 16.634 -8.3211 16.119 2.004Zm-4.169 -0.842c-0.082 -1.067 -0.328 -2.126 -1.139 -2.97 -4 -4.165 -8.96 1.307 -7.849 6.974 0.978 4.988 8.607 4.18 8.989 -4.003l-0.001 -0.001Z" stroke-width="1"></path>
      <path id="vector_76" fill="#c1e1fd" d="M146.013 180.812c-0.03 0.484 -0.611 0.695 -0.849 0.209 -0.432 -0.884 -0.855 -2.846 -0.831 -3.801 0.018 -0.699 0.429 -0.883 0.703 -0.601 0.232 0.238 0.312 0.3 0.962 2.839 0.026 0.1 0.018 1.281 0.014 1.355l0.001 -0.001Z" stroke-width="1"></path>
      <path id="vector_77" fill="#ffffff" d="M134.457 107.177c2.373 -4.663 6.928 -2.228 6.683 1.407 0.093 2.723 -2.279 6.961 -5.705 5.719 -2.252 -0.817 -2.262 -4.601 -0.978 -7.126Z" stroke-width="1"></path>
      <path id="vector_78" fill="#ffffff" d="M140.736 92.7758c0.145 0.064 0.456 0.111 0.359 0.302 -0.843 1.644 -1 1.709 -1.323 2.914 -0.376 1.4 -0.731 1.652 -1.026 3.32 -0.061 0.347 -0.116 0.384 -0.495 0.384 -5.099 -0.007 -9.126 4.6842 -9.465 9.1842 -0.029 0.39 -0.086 0.05 -1.711 0.561 -0.436 0.137 -5.539 1.562 -7.772 3.322 -0.36 0.284 -0.573 0.692 -0.735 0.039 -0.647 -2.608 -1.323 -7.709 -0.601 -13.5932 0.148 -1.203 0.701 -2.045 1.502 -2.285 4.498 -3.322 15.817 -6.427 17.598 -6.531 0.127 -0.018 0.193 0.039 0.231 0.207 0.303 1.312 1.715 1.416 3.438 2.179v-0.003Z" stroke-width="1"></path>
      <path id="vector_79" fill="#ffffff" d="M138.97 178.239c-0.666 2.58 -0.942 3.361 -2.213 4.977 -0.728 0.926 -4.491 0.758 -4.098 -2.181 0.662 -4.954 1.358 -5.152 2.8 -7.253 0.665 -0.968 4.725 -0.247 3.511 4.457Z" stroke-width="1"></path>
      <path id="vector_80" fill="#ffffff" d="M137.727 146.846c0.447 0.165 0.712 0.288 0.697 0.749 -0.002 0.07 -0.039 1.7 0.03 1.702 -0.039 0.713 -0.161 1.434 -0.086 2.135 0.057 0.538 -0.096 1.039 -0.064 1.564 0.077 1.246 -0.053 2.26 -0.245 3.933 -0.189 1.65 -0.309 2.857 -1.234 4.017 -1.646 2.063 -2.253 1.295 -3.579 2.011 -0.329 -2.185 -0.238 -6.068 -3.697 -7.207 -1.791 -0.59 -4.039 0.068 -5.639 2.478 -0.163 -0.263 -0.406 -0.44 -0.433 -1.255 -0.096 -2.828 1.119 -9.62 2.798 -12.858 0.347 -0.669 0.343 -0.658 1.06 -0.429 5.824 1.858 2.629 0.301 10.393 3.161l-0.001 -0.001Z" stroke-width="1"></path>
      <path id="vector_81" fill="#ffffff" d="M136.379 141.558c0.824 3.043 1.886 3.34 1.042 3.297 -4.196 -0.567 -5.283 -0.619 -9.3 -1.809 -3.17 -0.939 -3.527 -1.749 -6.104 -10.845 -0.132 -0.465 -0.175 -0.958 -0.207 -1.441 -0.091 -1.409 9.493 -6.193 11.621 -6.644 0.427 -0.09 0.542 -0.005 0.452 0.42 -0.433 2.026 0.232 5.41 0.34 6.783 0.273 3.449 1.459 7.668 2.156 10.239Z" stroke-width="1"></path>
      <path id="vector_82" fill="#c1e1fd" d="M136.331 176.496c0.248 -0.454 1.547 -0.672 1.003 0.824 -0.942 2.589 -1.454 4.404 -2.135 4.035 -0.755 -0.409 0.688 -4.044 1.132 -4.859Z" stroke-width="1"></path>
      <path id="vector_83" fill="#ffffff" d="M134.529 173.578c-0.563 0.771 -1.165 1.525 -1.527 2.428 -0.109 0.272 -0.125 0.267 -0.377 0.098 -2.236 -1.507 -5.29 -2.346 -6.669 -2.528 -3.683 -0.485 -3.681 0.536 -2.71 -2.315 0.341 -1.001 0.91 -2.682 1.364 -3.433 1.529 1.164 2.691 2.46 6.102 1.085 0.538 -0.217 0.923 -0.656 1.234 -1.13 1.353 -2.056 0.83 -3.339 1.461 -3.538 1.166 -0.367 1.394 -0.717 1.486 -0.338 0.529 2.164 0.42 1.271 0.701 4.94 0.385 5.029 -0.093 3.397 -1.067 4.731h0.002Z" stroke-width="1"></path>
      <path id="vector_84" fill="#c1e1fd" d="M131.116 157.949c1.072 1.261 1.293 5.154 1.28 5.267 -0.236 1.965 -0.445 4.286 -2.476 5.119 -0.674 0.277 -1.251 0.416 -1.682 -0.141 -1.944 -2.511 -2.616 -8.486 -0.202 -11.637 0.492 -0.642 2.397 0.587 3.079 1.391l0.001 0.001Z" stroke-width="1"></path>
      <path id="vector_85" fill="#c1e1fd" d="M132.208 183.039c0.124 0.284 0.116 0.249 -1.568 0.715 -0.853 0.236 0.182 -0.942 -1.591 -4.264 -2.462 -4.614 -5.607 -5.251 -4.357 -5.251 2.41 0.261 4.253 0.678 6.844 2.154 1.929 1.098 0.535 0.425 0.411 3.899 -0.022 0.608 -0.374 1.298 0.261 2.747Z" stroke-width="1"></path>
      <path id="vector_86" fill="#c1e1fd" d="M130.156 116.469c0.415 0.5 -0.375 0.28 -2.201 0.828 -5.3 1.59 -4.898 2.408 -5.303 1.652 -0.438 -0.817 -0.942 -3.581 -1.028 -4.505 -0.167 -1.788 -0.877 -1.788 0.697 -2.424 0.755 -0.305 4.43 -1.804 6.2 -2.008 0.349 0.583 -0.227 0.02 0.275 2.83 0.207 1.157 0.61 2.721 1.362 3.626l-0.002 0.001Z" stroke-width="1"></path>
      <path id="vector_87" fill="#ffffff" d="M129.457 183.842c0.024 0.632 -11.788 0.997 -14.555 0.551 -2.089 -0.336 -3.817 0.265 -3.313 -1.954 0.847 -3.725 4.36 -7.717 9.685 -8.287 2.809 -0.301 7.99 4.572 8.183 9.69Z" stroke-width="1"></path>
      <path id="vector_88" fill="#c1e1fd" d="M127.633 168.788c-0.132 0.016 -0.649 -0.177 -0.853 -0.284 -2.762 -1.446 -2.756 -3.318 -2.927 -6.399 0.182 -2.065 0.384 -4.575 3.393 -5.75 -0.892 1.307 -1.353 2.846 -1.393 3.708 -0.3 6.392 1.599 8.097 1.78 8.725Z" stroke-width="1"></path>
      <path id="vector_89" fill="#ffffff" d="M127.111 91.7428c0.248 0.265 0.244 0.275 -0.091 0.47 -0.063 0.037 -0.134 0.095 -0.2 0.093 -0.606 -0.015 -1.032 0.571 -1.414 0.22 -3.299 -3.037 -9.966 -4.8 -12.524 -4.189 -0.216 0.052 -0.876 0.245 -0.538 -0.093 2.181 -2.181 9.491 -2.14 14.767 3.499Z" stroke-width="1"></path>
      <path id="vector_90" fill="#ffffff" d="M126.791 52.3959c0.539 0.058 -4.04 10.402 -5.734 17.092 -0.066 0.261 -0.043 0.443 -1.734 -0.738 -1.205 -0.842 0.599 -5.296 0.983 -6.449 1.789 -5.382 1.232 -4.359 3.49 -9.104 0.601 -1.264 1.105 -1.003 2.995 -0.801Z" stroke-width="1"></path>
      <path id="vector_91" fill="#ffffff" d="M124.479 92.9747c0.392 0.279 -0.32 0.42 -1.057 0.728 -4.261 1.782 -5.167 3.324 -5.784 2.968 -0.397 -0.229 -2.188 -1.082 -4.207 -3.188 -0.781 -0.815 -1.777 -2.533 -1.668 -3.168 0.034 -1.03 0.193 -1.099 1.073 -1.164 3.416 -0.254 7.212 0.669 11.644 3.824h-0.001Z" stroke-width="1"></path>
      <path id="vector_92" fill="#ffffff" d="M122.511 170.31c0.432 -0.135 -0.254 1.45 -0.477 2.147 -0.228 0.715 0.421 1.028 -1.602 0.837 0.143 -0.513 0.22 -0.984 0.971 -2.303 0.257 -0.451 0.684 -0.548 1.108 -0.681Z" stroke-width="1"></path>
      <path id="vector_93" fill="#c1e1fd" d="M117.303 97.8358c0.059 0.027 0.093 0.104 0.123 0.141 -0.579 2.0612 -0.268 2.4302 -0.565 2.2812 -0.101 -0.06 -15.553 -7.5832 -13.997 -8.2622 2.558 -1.118 3.792 -3.42 3.801 -4.234 0.002 -0.186 0.086 -0.166 0.209 -0.093 0.386 0.23 0.783 0.444 1.16 0.69 2.174 1.421 2.803 1.112 2.732 1.727 -0.327 2.841 3.916 6.547 6.538 7.752l-0.001 -0.002Z" stroke-width="1"></path>
      <path id="vector_94" fill="#ffffff" d="M100.833 80.9956c2.871 0.052 5.245 2.832 5.029 5.129 -0.603 6.411 -8.4771 6.698 -10.1621 1.623 -1.027 -3.093 1.328 -6.821 5.1331 -6.752Zm2.142 6.876c1.379 -1.662 0.862 -4.895 -2.551 -5.203 -0.186 0.054 -0.4991 0.172 -0.8261 0.229 -1.446 0.251 -2.674 2.154 -1.931 4.076 0.964 2.494 3.9501 2.533 5.3081 0.898Z" stroke-width="1"></path>
      <path id="vector_95" fill="#c1e1fd" d="M100.604 83.7118c0.719 0.018 2.072 0.774 2.092 2.306 -0.302 2.285 -3.892 2.708 -4.266 0 -0.196 -1.418 1.289 -2.328 2.174 -2.306Z" stroke-width="1"></path>
      <path id="vector_96" fill="#ffffff" d="M99.6121 80.0648c-1.895 0.14 -4.355 2.097 -4.899 4.402 -0.574 2.428 0.347 3.504 -0.093 3.363 -6.617 -2.121 -14.539 -7.543 -18.774 -11.328 -0.492 -0.44 2.67 -0.081 8.712 -7.051 3.525 -4.066 3.399 -5.523 3.688 -6.048 5.642 5.35 12.2019 16.599 11.367 16.661l-0.001 0.001Z" stroke-width="1"></path>
      <path id="vector_97" fill="#c1e1fd" d="M86.958 62.6738c0.252 0.057 0.463 0.288 0.37 0.561 -0.126 0.368 -0.113 0.772 -0.349 1.112 -0.276 0.396 -0.334 0.76 -0.524 0.919 -0.168 -0.227 -0.293 -0.934 -0.851 -1.713 -0.276 -0.384 -0.388 -0.288 1.355 -0.878l-0.001 -0.001Z" stroke-width="1"></path>
      <path id="vector_98" fill="#ffffff" d="M84.9949 64.5837c0.264 0.517 0.774 1.82 0.39 2.333 -0.757 1.011 -1.609 2.071 -2.494 2.973 -2.55 2.599 -2.786 2.968 -3.831 2.371 -1.981 -1.131 -3.429 -1.99 -3.481 -4.482 0.093 -1.659 0.787 -2.673 1.811 -3.742 0.311 -0.325 0.327 -0.041 0.576 0.354 0.606 0.958 0.662 0.515 0.926 1.672 0.222 0.971 0.818 1.744 1.788 1.402 0.209 -0.073 0.415 -0.481 0.819 -1.312 0.635 -1.303 1.365 -2.024 1.695 -2.741 0.2 -0.435 0.223 -0.468 0.549 -0.141 0.425 0.426 0.958 0.739 1.25 1.312l0.002 0.001Z" stroke-width="1"></path>
      <path id="vector_99" fill="#c1e1fd" d="M82.5418 60.9598c0.762 0.653 -0.412 2.441 -1.019 3.241 -0.633 0.833 -0.794 1.418 -1.323 2.324 -0.309 -0.467 -0.561 -0.756 -0.504 -1.359 0.152 -1.618 0.429 -4.57 2.047 -4.4 0.275 0.029 0.553 -0.016 0.799 0.194Z" stroke-width="1"></path>
      <path id="vector_100" fill="#c1e1fd" d="M79.3271 56.6686c1.335 0.959 2.276 2.993 1.77 3.109 -1.144 0.261 -1.135 0.951 -1.305 0.54 -0.612 -1.477 -1.976 -4.078 -1.847 -4.162 0.17 -0.111 1.208 0.388 1.382 0.513Z" stroke-width="1"></path>
      <path id="vector_101" fill="#ffffff" d="M79.3699 61.6866c-0.57 1.625 -0.47 1.779 -0.672 2.106 -0.654 -0.599 -5.376 -10.607 -5.755 -11.408 0.263 -0.143 0.88 -0.459 1.398 -0.826 0.426 -0.302 0.005 -0.214 1.897 3.318 0.059 0.109 2.984 6.374 3.132 6.81Z" stroke-width="1"></path>
      <path id="vector_102" fill="#c1e1fd" d="M76.9169 72.166c1.074 1.06 2.229 1.105 1.793 1.452 -1.036 0.825 -2.117 1.493 -3.313 1.804 -1.352 0.043 0.209 -2.297 0.903 -3.479 0.065 -0.111 0.137 -0.159 0.259 -0.041 0.105 0.102 0.255 0.161 0.359 0.263l-0.001 0.001Z" stroke-width="1"></path>
      <path id="vector_103" fill="#c1e1fd" d="M76.851 62.6456c0.306 0.615 -0.31 0.405 -1.157 1.82 -0.27 0.451 -0.601 -0.85 -1.194 -2.877 -0.121 -0.413 0.066 -0.955 -0.061 -0.964 0.197 -2.017 -0.204 -3.24 2.412 2.021Z" stroke-width="1"></path>
      <path id="vector_104" fill="#c1e1fd" d="M74.005 50.236c0.081 0.132 0.084 0.224 -0.057 0.322 -0.668 0.466 -1.414 1.212 -1.643 0.617 -2.614 -5.233 -2.63 -5.052 -1.178 -5.898 0.17 -0.099 0.314 -0.053 0.415 0.132 2.397 4.349 1.751 3.659 2.463 4.827Z" stroke-width="1"></path>
      <path id="vector_105" fill="#0a0430" d="M187.688 116.187c-0.814 -0.607 -1.59 -1.34 -2.577 -1.755 -0.463 -0.195 -6.305 -6.776 -10.844 -9.484 -1.197 -0.714 0.064 -0.866 -2.2 -4.795 -2.026 -3.5162 -6.326 -6.6672 -10.981 -5.2762 -0.413 0.126 -0.555 -0.813 -8.893 -3.304 -0.146 -0.043 -0.171 -0.073 -0.176 -0.208 -0.047 -1.306 -0.026 0.842 10.906 1.375 0.161 0.008 0.32 -0.016 0.475 -0.039 1.771 -0.263 5.663 0.591 8.274 -3.16 0.572 -0.824 0.457 -0.865 0.829 -0.726 5.563 2.073 6.127 1.583 7.978 -3.228 0.892 -2.317 2.086 -5.565 2.766 -7.728 1.618 -5.151 2.118 -6.55 -2.975 -8.342 -1.29 -0.453 0.567 -1.051 -0.4 -4.637 -0.471 -1.744 -1.595 -3.268 -3.009 -4.075 -3.192 -1.824 -5.908 -3.316 -9.354 -4.528 -1.027 -0.361 -0.488 -0.756 -1.216 -2.272 -1.11 -2.298 -0.636 -2.212 -8.486 -5.193 -0.566 -0.215 -0.43 -0.15 -0.347 -0.656 0.483 -2.909 0.755 -3.309 0.96 -4.492 0.336 -1.942 0.345 -1.96 0.84 -1.966 2.878 -0.035 4.836 -2.68 3.916 -5.553 -1.299 -4.052 -6.778 -3.83 -8.251 -0.482 -0.701 1.596 -0.321 3.525 0.958 4.761 0.258 0.248 0.32 0.322 0.212 0.549 -3.103 6.463 -2.871 6.482 -3.52 6.294 -4.73 -1.364 -6.416 -2.215 -8.546 -0.682 -1.798 1.293 -1.929 1.545 -2.108 1.492 -5.989 -1.758 -7.558 -1.743 -9.843 -0.777 -1.917 0.81 -3.703 2.765 -4.436 3.881 -0.453 0.69 -0.21 0.105 -2.301 0.059 -0.837 -0.019 -1.698 0.072 -2.305 1.349 -1.147 2.409 -2.52 5.334 -3.188 8.098 -0.367 1.521 -2.033 5.096 -1.922 7.429 0.085 1.797 2.632 2.312 2.598 2.786 -0.098 1.391 -2.315 6.005 2.874 9.325 5.49 3.512 14.373 5.575 14.23 6.152 -0.603 2.433 0.157 1.73 -0.004 2.674 -0.023 0.137 -1.723 0.439 -8.771 2.367 -0.781 0.214 -0.416 -0.446 -2.66 -2.117 -5.482 -4.082 -13.19 -4.387 -14.992 -1.023 -0.244 0.455 -0.123 0.413 -1.411 -0.289 -1.312 -0.716 -2.41 -1.312 -2.545 -1.363 -0.738 -0.276 0.206 -1.758 -1.456 -4.107 -1.016 -1.437 -2.673 -2.436 -4.223 -2.545 -1.185 -0.084 0.146 -1.644 -7.741 -11.809 -0.053 -0.069 -5.43 -6.841 -6.669 -6.551 -0.691 0.163 -1.42 0.236 -2.05 0.654 -0.301 0.2 -0.545 0.194 -0.792 -0.018 -0.287 -0.247 -0.494 -0.138 -0.453 -0.628 0.082 -0.982 -0.473 -1.583 -1.058 -1.743 -0.875 -0.238 -0.202 -0.607 -1.326 -2.387 -1.809 -2.865 -3.755 -1.91 -4.153 -2.775 -0.336 -0.732 -4.472 -9.331 -5.203 -10.318 -0.719 -0.972 -3.602 0.675 -3.076 2.053 2.983 7.812 5.602 10.875 5.18 11.11 -0.28 0.157 -0.447 0.373 -0.511 0.66 -0.989 4.421 1.366 7.042 1.173 7.667 -0.573 1.859 -0.349 3.673 0.614 4.977 0.436 0.591 -2.027 2.47 -1.595 4.979 0.108 0.627 0.419 0.871 2.144 2.219 5.716 4.462 10.436 8.223 18.518 10.835 0.831 0.268 0.751 0.694 1.418 1.439 1.3 1.455 3.209 2.157 4.418 2.096 1.071 -0.053 0.521 0.077 3.76 2.183 4.868 3.164 12.416 6.6462 12.477 6.6712 0.638 0.264 -0.626 3.87 0.946 11.286 0.497 2.341 1.037 2.231 3.31 3.327 0.077 0.072 0.688 3.549 1.16 3.909 0.454 0.346 0.155 0.583 0.359 1.389 0.338 1.341 1.235 4.902 1.693 6.136 0.353 0.952 -4.229 1.086 -2.922 5.24 2.427 7.725 2.327 8.653 4.637 10.608 -1.486 1.739 -4.56 12.871 -2.607 15.932 0.218 0.342 0.153 0.522 0.035 0.851 -0.432 1.194 -0.323 5.356 0.702 6.998 0.128 0.205 -0.157 0.352 -0.898 2.206 -0.233 0.585 -1.787 -0.366 -2.848 1.993 -0.973 2.161 -0.661 2.348 -1.333 2.562 -1.871 0.596 -3.189 1.236 -4.795 2.905 -1.479 1.537 -2.442 2.889 -2.944 4.133 -0.258 0.641 -0.72 2.436 -0.575 2.952 0.637 2.348 9.652 1.759 12.137 1.723 9.912 -0.142 8.98 -1.614 10.716 -1.147 2.844 0.768 4.504 0.352 5.916 -4.015 0.503 -1.554 1.05 -3.372 0.676 -5.039 -0.356 -1.587 -1.367 -2.03 -2.726 -2.62 -0.221 -0.096 -0.62 -0.005 -0.731 -0.125 -0.245 -0.264 0.558 -3.346 -0.775 -8.327 -0.141 -0.527 -0.243 -0.908 -0.128 -0.941 1.619 -0.467 2.863 -2.779 3.13 -4.744 0.67 -4.935 0.597 -9.068 0.418 -11.666 -0.048 -0.694 -0.382 -0.916 -0.09 -0.89 2.712 0.232 3.775 0.104 3.952 0.312 0.179 0.21 -0.291 0.003 0.1 9.314 0.326 7.774 3.511 7.538 3.011 8.135 -1.325 1.577 -1.685 7.543 -1.482 9.639 0.007 0.069 0.018 0.185 -0.274 0.244 -1.344 0.272 -2.491 1.717 -2.544 2.732 -0.154 2.915 0.848 6.381 1.565 7.423 0.962 1.401 3.448 1.225 4.789 0.445 0.182 -0.106 0.368 -0.326 0.496 -0.327 0.209 0.028 1.564 1.112 3.853 1.393 0.653 0.081 0.428 0.513 1.369 0.778 3.07 0.863 15.439 0.919 16.362 -2.125 0.319 -1.052 0.001 -2.299 -0.311 -3.269 -0.232 -0.72 -0.722 -1.597 -2.356 -3.54 -0.508 -0.605 -1.173 -1.026 -1.799 -1.485 -2.209 -1.62 -3.227 -1.417 -3.346 -2.068 -0.6 -3.276 -3.165 -2.628 -3.31 -2.866 -0.273 -1.215 -0.77 -2.255 -1.497 -3.704 -0.329 -0.654 1.563 -2.641 0.8 -5.85 -0.121 -0.503 -0.168 -0.54 0.229 -1.275 0.71 -1.319 0.513 -1.617 0.587 -2.035 0.031 -0.177 0.082 -0.474 0.03 -0.939 -1.661 -14.692 -4.071 -13.712 -3.398 -14.354 2.296 -2.188 2.111 -2.688 2.333 -2.736 3.065 -0.67 4.083 -0.703 4.454 -1.389 0.084 -0.155 0.054 -0.095 1.114 -0.11 0.654 -0.01 0.738 -0.011 0.947 0.266 1.407 1.862 2.731 3.296 3.937 4.264 1.525 1.225 1.909 1.773 2.86 0.991 11.126 -9.154 14.495 -17.284 16.506 -18.65 2.702 -1.834 1.938 -7.213 -0.386 -8.952l-0.005 -0.001Zm-29.083 -78.1032c-0.31 -0.077 -0.446 -0.113 -0.592 -0.113 -0.713 0 -1.155 1.595 -1.32 1.615 0 0 -0.038 0.001 -0.148 -0.13 -2.124 -2.545 -0.02 -5.413 2.749 -5.139 3.487 0.344 4.433 5.464 0.617 6.274 -1.894 0.401 0.964 -1.944 -1.306 -2.507Zm-0.576 1.042c0.066 -0.134 0.078 -0.158 0.401 -0.053 0.149 0.048 0.16 0.092 0.101 0.249 -0.542 1.44 -2.06 8.606 -2.178 8.972 -0.129 0.103 -1.271 -0.388 -2.212 -0.688 0.466 -1.083 3.842 -8.381 3.888 -8.48Zm-13.248 8.319c0.406 -0.311 0.963 -0.529 1.589 -0.631 1.718 0.073 18.345 4.731 18.677 6.934 0.336 2.226 2.289 2.208 -4.06 0.144 -0.674 -0.219 -16.987 -5.25 -17.591 -5.438 0.189 -0.195 0.699 -0.485 1.384 -1.01l0.001 0.001ZM161.4 173.237c0.156 0.354 0.189 0.35 -0.044 0.342 -0.73 -0.298 -1.531 0.196 -1.837 0.242 -0.045 -0.153 0.253 -0.884 -0.003 -1.861 -0.014 -0.052 -0.01 -0.083 -0.002 -0.094 0.011 -0.016 0.28 -0.072 0.292 -0.069 1.344 0.379 1.201 0.552 1.595 1.44h-0.001Zm-0.041 1.314c6.329 1.569 9.824 8.586 7.137 9.684 -4.072 1.666 -14.758 1.842 -14.828 0.088 -0.148 -3.658 4.845 -10.495 7.691 -9.772Zm-11.872 8.173c0.989 -2.175 -0.284 -4.128 0.151 -4.52 2.193 -1.972 5.455 -3.759 8.435 -3.61 -5.969 5.206 -5.203 9.492 -5.54 9.602 -0.261 0.087 -2.185 -0.582 -3.073 -1.066 -0.112 -0.061 -0.118 -0.087 0.027 -0.406Zm9.116 -9.218c-0.004 0.169 -0.833 0.197 -1.34 0.169 -2.424 -0.134 -5.922 1.748 -7.634 3.126 -0.384 0.31 -0.363 0.336 -0.434 0.105 -1.441 -4.66 -3.546 -3.03 -3.54 -3.714 0.03 -2.898 -0.106 -5.723 1.002 -8.407 0.041 -0.1 0.203 -0.518 0.303 -0.527 0.213 0 0.794 0.71 1.519 0.853 0.326 0.064 0.391 0.393 0.487 1.018 0.124 0.807 0.293 1.912 1.386 2.939 1.104 1.039 2.409 1.352 2.833 1.281 2.889 -0.479 3.583 -2.366 3.824 -2.583 0.077 0.102 1.004 1.734 1.569 4.298 0.098 0.448 0.036 0.947 0.025 1.44v0.002Zm-14.394 -18.577c-0.524 -8.141 -1.062 -14.051 6.819 -13.713 2.303 0.099 3.06 0.857 3.746 1.765 2.666 3.518 3.953 14.613 3.15 16.032 -0.633 -1.104 -1.123 -1.951 -2.548 -2.478 -1.701 -0.63 -2.722 -0.38 -3.73 0.188 -3.703 2.086 -2.529 6.657 -3.138 6.534 -5.094 -1.038 -4.142 -7.969 -4.3 -8.328h0.001Zm5.91 5.174c1.261 -3.263 4.017 -3.48 4.301 -2.484 1.401 4.913 -1.359 11.376 -2.153 11.491 -0.342 0.051 -1.479 -0.681 -1.974 -1.737 -0.907 -1.932 -0.837 -5.556 -0.174 -7.27Zm3.39 9.097s0.163 -0.166 0.19 -0.225c1.498 -3.21 2.337 -7.018 1.705 -11.391 0.345 0.099 1.003 0.553 1.335 1.205 1.452 2.848 1.18 4.472 0.183 6.977 -1.324 3.315 -3.117 3.438 -3.413 3.434Zm-4.982 9.047c0.441 2.551 0.333 1.788 0.335 2.566 0.291 3.073 -3.788 3.595 -4.646 2.214 -0.939 -1.511 -1.367 -4.18 -1.374 -6.154 -0.009 -2.558 4.635 -4.704 5.686 1.374h-0.001Zm6.608 -36.413c-0.036 0 -0.093 -0.062 -0.166 -0.141 -2.099 -2.291 -10.248 -2.567 -11.662 3.195 -0.07 0.287 -0.001 0.263 -3.225 0.09 -0.805 -0.043 -1.395 -0.365 -1.753 -0.959 -2.019 -3.345 -5.027 -19.426 -3.183 -19.903 5.864 0.527 16.762 5.121 16.832 5.35 0.042 0.138 -0.834 0.892 -0.271 1.784 0.563 0.894 1.639 0.28 3.032 0.066 1.899 -0.293 2.838 0.303 2.193 0.409 -2.008 0.328 -4.948 2.733 -4.3 4.705 0.567 1.732 3.621 -0.669 5.009 -0.556 0.083 0.008 0.155 -0.023 0.219 -0.05 0.915 -0.376 -2.561 1.261 -2.526 2.626 0.01 0.384 -0.076 0.773 0.232 1.142 0.32 0.382 1.08 0.287 1.29 0.361 -0.062 0.098 -1.582 1.88 -1.72 1.881h-0.001Zm-16.869 9.609c0.056 0.523 -0.097 1.025 -0.064 1.559 0.082 1.32 -0.083 2.505 -0.257 4.029 -0.68 5.938 -3.689 5.247 -4.615 5.764 -0.424 -3.04 -0.536 -6.082 -3.751 -7.141 -1.798 -0.592 -4.036 0.021 -5.67 2.395 -1.265 -1.731 1.099 -11.277 2.453 -13.888 0.298 -0.575 0.281 -0.589 0.941 -0.38 5.854 1.856 2.625 0.299 10.389 3.16 0.468 0.172 0.644 0.273 0.631 0.652 -0.002 0.062 -0.047 1.405 0.029 1.714 -0.037 0.686 -0.16 1.427 -0.085 2.137l-0.001 -0.001Zm0.606 26.771c-0.675 2.593 -0.953 3.361 -2.194 4.94 -0.719 0.914 -4.291 0.663 -3.92 -2.106 0.661 -4.944 1.348 -5.119 2.783 -7.209 0.623 -0.908 4.521 -0.196 3.332 4.375h-0.001Zm-9.516 5.631c-0.148 0.542 -15.858 1.119 -17.525 -0.048 -1.02 -0.719 1.577 -8.703 9.453 -9.545 2.701 -0.289 7.879 4.469 8.072 9.593Zm-1.241 -27.226c0.44 -0.573 2.303 0.664 2.924 1.395 1.028 1.21 1.27 4.965 1.257 5.19 -0.243 2.062 -0.477 4.244 -2.415 5.039 -0.711 0.292 -1.195 0.368 -1.564 -0.109 -1.999 -2.582 -2.495 -8.521 -0.202 -11.515Zm-4.161 5.455c0.181 -2.027 0.379 -4.315 3.028 -5.502 -0.792 1.268 -1.193 2.669 -1.231 3.485 -0.369 7.856 3.09 9.413 1.074 8.358 -1.441 -0.754 -1.893 -1.248 -2.415 -2.64 -0.352 -0.938 -0.474 -3.491 -0.456 -3.701Zm0.984 6.136c1.358 1.066 2.642 2.073 5.811 0.795 1.287 -0.519 2.081 -2.503 2.336 -3.881 0.18 -0.973 0.129 -0.63 1.316 -1.155 0.354 -0.156 0.364 -0.168 0.395 -0.04 0.673 2.748 0.844 6.771 0.821 6.872 -0.021 0.088 -0.052 0.222 -0.031 1.432 0.009 0.587 -0.607 0.56 -1.139 1.285 -0.582 0.793 -1.182 1.559 -1.539 2.45 -0.074 0.184 -0.015 0.194 -0.228 0.052 -2.23 -1.503 -5.3 -2.358 -6.712 -2.544 -3.392 -0.448 -3.528 0.375 -2.855 -1.53 1.631 -4.634 1.441 -4.039 1.825 -3.736Zm6.859 12.494c-0.083 0.545 -0.187 1.225 0.318 2.376 0.107 -0.049 0.135 -0.062 0 0 0.061 0.138 0.196 0.11 -1.031 0.447 -1.603 0.44 0.154 -0.144 -1.948 -4.084 -2.171 -4.07 -4.966 -5.099 -4.456 -5.105 2.438 0.264 4.245 0.684 6.806 2.141 0.705 0.402 0.987 0.794 0.846 1.178 -0.541 1.474 -0.409 2.224 -0.534 3.047h-0.001Zm1.987 -56.494c0.02 0.02 0.046 0.085 -0.001 0.306 -0.332 1.553 -0.033 3.844 0.186 5.517 0.424 3.233 0.174 3.675 2.188 11.097 1.022 3.767 1.864 3.655 1.275 3.627 -4.23 -0.564 -5.37 -0.646 -9.284 -1.805 -3.074 -0.911 -3.413 -1.515 -6.037 -10.776 -0.133 -0.471 -0.175 -0.98 -0.203 -1.42 -0.095 -1.48 11.383 -7.037 11.876 -6.544v-0.002Zm-14.756 -11.341c-0.077 0.072 -0.205 0.194 -0.244 0.181 -0.246 -0.08 -1.628 -6.435 -0.721 -13.8312 0.227 -1.852 1.237 -2.041 1.462 -2.217 4.558 -3.366 17.526 -7.023 17.673 -6.382 0.317 1.373 1.788 1.492 3.495 2.247 0.072 0.033 0.301 0.087 0.31 0.165 -0.851 1.66 -1.003 1.713 -1.331 2.934 -0.386 1.438 -0.726 1.623 -1.028 3.328 -0.052 0.293 -0.052 0.301 -0.407 0.301 -5.219 0 -9.223 4.8862 -9.554 9.2762 -0.01 0.138 0.01 0.121 -0.207 0.148 -1.42 0.172 -7.626 2.137 -9.45 3.85h0.002Zm4.295 7.635c-0.012 -0.146 0.04 -0.228 0.187 -0.298 1.875 -0.894 1.994 -1.26 5.513 -2.186 1.68 -0.442 1.735 -0.439 1.847 -0.263 1.13 1.782 4.446 2.918 6.416 2.684 2.483 -0.295 3.146 -0.227 5.812 -2.193 0.68 -0.5 10.813 4.883 13.57 7.009 0.474 0.368 0.541 0.022 -0.291 1.947 -0.026 0.017 -0.149 0.005 -0.248 -0.004 -2.073 -0.197 -2.981 1.479 -3.391 1.29 -4.152 -1.889 -16.164 -6.731 -20.417 -4.978 -0.273 0.113 -2.876 0.922 -7.112 3.331 -0.23 0.13 -0.157 0.86 -1.885 -6.34l-0.001 0.001Zm15.282 -32.3342c-0.314 -0.218 -0.139 -0.834 -0.061 -1.276 0.018 -0.102 0.036 -0.198 0.064 -0.214 0.101 -0.057 10.611 3.43 10.711 3.467 -4.469 0.069 -9.79 -1.333 -10.714 -1.977Zm-0.06 1.182c0.046 -0.171 1.166 0.411 3.884 1.025 6.229 1.408 8.607 0.391 8.566 0.978 -0.09 1.33 -0.123 1.203 -1.1 1.41 -3.553 0.745 -7.725 -0.361 -11.056 -1.806 -0.596 -0.258 -0.488 -0.882 -0.294 -1.607Zm15.018 46.1802c0.136 -0.802 1.582 -1.972 2.516 -2.51 0.64 -0.369 1.441 -0.441 2.246 -0.441 0.964 0 1.459 0.123 1.41 1.613 -0.022 0.68 -0.514 0.705 -1.382 0.689 -3.002 -0.044 -5.022 2.028 -4.79 0.649Zm-10.187 -19.208c-0.382 0.387 -0.912 1.54 -3.57 2.543 -3.763 1.42 -8.059 -0.128 -9.672 -4.459 -0.408 -1.095 -0.612 -3.368 -0.641 -3.872 -0.056 -0.986 0.441 -2.687 0.61 -3.407 2.212 -9.4962 16.427 -8.2632 15.921 1.987 0.094 1.646 -1.335 5.873 -2.649 7.208h0.001Zm14.156 7.979c-0.288 0.651 0.598 -0.011 -7.435 -4.221 -4.455 -2.336 -5.968 -2.591 -6.032 -2.822 -0.045 -0.16 1.165 -1.166 2.074 -3.931 0.121 -0.368 0.212 -0.644 0.345 -0.826 6.267 2.042 10.157 5.188 12.326 7.484 -0.417 1.937 -1.235 4.22 -1.278 4.316Zm-1.49 3.829c1.454 0.234 2.175 0.154 2.611 1.164 0.2 0.463 0.017 0.931 -0.584 1.07 -1.354 0.315 -1.687 -0.456 -4.137 0.168 -1.156 0.295 -1.109 0.287 -1.322 0.246 -0.49 -0.093 1.589 -2.639 3.433 -2.649l-0.001 0.001Zm5.742 -5.937c-0.399 0.285 0.084 -0.064 -1.303 -1.759 -0.126 -0.154 1.6 -1.469 3.771 -6.887 0.359 -0.895 0.499 -1.41 1.019 -1.206 1.561 0.616 1.598 0.305 1.917 0.474 -0.914 2.569 -3.19 7.786 -5.403 9.377l-0.001 0.001Zm-0.509 4.779c-0.752 0.581 -0.98 0.078 -2.988 0.374 -0.607 0.089 -0.885 0.142 -0.747 -0.21 1.525 -3.936 0.858 -3.368 2.332 -3.382 2.82 0.423 4.52 -2.823 5.918 -5.319 3.8 -6.787 0.901 -5.221 4.445 -6.351 0.015 0.004 2.881 3.42 6.097 7.158 -4.604 1.09 -11.913 5.306 -15.057 7.73Zm15.717 -8.479c-0.286 -0.089 -0.725 -1.183 -5.164 -5.994 -0.035 -0.038 -0.04 -0.047 0.009 -0.119 0.961 -1.402 1.556 -0.846 2.317 -6.228 2.039 1.298 7.623 5.958 9.126 7.882 -0.715 0.325 -3.775 -0.13 -6.288 4.459Zm-4.196 -12.841c-0.208 4.204 -1.545 5.221 -4.276 5.803 -2.224 0.474 -3.599 -0.259 -5.339 -1.187 -5.944 -3.161 -7.885 -11.5012 -2.189 -14.2382 1.536 -0.738 4.634 -0.565 6.939 1.092 2.768 1.987 4.996 5.8942 4.865 8.5302Zm-15.882 -6.5372c-1.7 5.2052 2.839 11.1482 5.941 12.1672 0.362 0.119 0.715 0.351 1.05 0.558 0.099 0.597 -3.109 6.997 -4.03 7.808 -4.586 -5.63 -12.957 -7.873 -13.122 -8.194 -0.04 -0.27 0.761 -2.557 -0.228 -5.75 -1.104 -3.563 -3.31 -4.898 -6.746 -6.0002 -0.379 -0.122 -0.337 -0.138 0.165 -1.708 0.862 -2.698 0.687 -2.124 1.517 -3.967 0.64 -1.423 0.002 -0.504 5.102 -0.046 1.318 0.118 5.285 0.095 5.35 -1.227 0.028 -0.539 6.891 2.109 7.884 2.738 -2.407 2.085 -2.374 2.062 -2.883 3.621Zm-34.558 12.9982c1.483 -0.601 4.52 -1.787 6.109 -1.994 0.243 0.428 -0.249 0.062 0.229 2.74 0.781 4.382 2.314 3.709 0.881 3.962 -4.98 0.881 -6.464 2.778 -6.837 2.08 -0.436 -0.812 -0.933 -3.567 -1.017 -4.466 -0.171 -1.82 -0.849 -1.72 0.634 -2.321l0.001 -0.001Zm38.097 23.931c0.255 -0.039 0.711 -0.046 0.838 0.152 0.43 0.68 0.918 1.572 0.168 1.85 -0.469 0.173 -4.244 0.939 -4.559 0.915 -1.896 0 1.174 -2.551 3.553 -2.917Zm0.289 -0.982c-0.588 0.041 0.507 -0.263 -0.182 -2.335 -0.504 -1.516 -2.123 -0.94 -2.511 -1.283 0.06 -0.226 0.905 0.136 1.474 -0.89 1.182 -2.133 -1.638 -2.387 0.459 -2.379 2.984 0.004 4.494 1.317 7.693 6.691 0.117 0.196 0.093 0.379 -0.07 0.549 -1.403 1.459 -2.443 1.723 -4.326 1.944 -0.776 0.092 -0.422 -2.443 -2.537 -2.297Zm16.03 -14.719c-0.046 0.856 0.909 3.623 2.89 4.865 1.206 0.756 2.248 1.479 3.53 1.479 1.58 0 2.131 -0.117 2.355 -0.175 -2.182 4.114 -11.02 13.912 -13.781 15.752 -0.062 -0.103 -3.5 -12.671 -9.505 -14.739 4.553 -3.471 14.557 -8.209 14.511 -7.182Zm1.419 -1.874c1.404 -2.773 4.934 -4.316 7.538 -2.435 4.871 3.516 3.243 8.891 -0.734 9.569 -4.707 0.803 -8.239 -4.298 -6.804 -7.134Zm-66.332 -28.1512c0.032 -0.96 0.141 -1.005 0.981 -1.068 5.948 -0.439 11.537 3.508 11.648 3.874 -0.018 0.075 -0.368 0.205 -0.623 0.299 -4.359 1.621 -5.488 3.537 -6.352 3.067 -0.606 -0.329 -2.216 -1.202 -4.014 -3.077 -0.787 -0.82 -1.741 -2.494 -1.64 -3.095Zm15.062 1.837c-0.032 0.02 -0.072 0.053 -0.1 0.05 -0.6 -0.018 -1.038 0.533 -1.349 0.247 -3.388 -3.119 -10.16 -4.812 -12.615 -4.213 -0.124 0.03 -0.34 0.087 -0.466 0.099 1.971 -2.107 9.315 -2.224 14.645 3.474 0.205 0.218 0.209 0.14 -0.115 0.343Zm-24.019 -0.069c1.808 -0.79 3.716 -2.706 3.863 -4.363 0.349 0.153 1.881 1.239 3.358 1.859 0.505 0.212 0.568 0.253 0.541 0.49 -0.346 3.007 4.11 6.712 6.596 7.854 0.166 0.078 -0.179 0.457 -0.328 2.06 -0.007 0.0722 -0.017 0.1402 -0.024 0.1832 -1.224 -0.6052 -15.257 -7.5352 -14.006 -8.0832Zm19.236 79.7692c-0.514 1.416 0.224 1.51 -1.58 1.351 0.695 -2.637 1.478 -2.596 1.981 -2.813 0.083 0.132 -0.232 0.998 -0.401 1.463v-0.001Zm43.809 -33.997c1.606 -0.731 2.309 -1.581 2.415 -1.614 0.164 0.091 3.005 7.351 2.063 6.619 -2.855 -2.212 -4.771 -4.728 -4.802 -4.828 0.018 -0.038 0.173 -0.109 0.324 -0.177Zm12.74 -62.3262c-3.767 10.787 -3.99 12.332 -5.192 12.262 -0.891 -0.182 -1.619 -0.461 -2.367 -1.048 -0.397 -0.312 -0.17 -0.063 3.389 -11.342 0.8 -2.535 0.34 -1.035 2.076 -5.397 0.178 -0.445 1.031 -0.385 1.487 -0.209 2.3 0.887 2.042 1.627 0.608 5.735l-0.001 -0.001Zm0.152 -7.471c-0.339 1.386 0.122 0.564 -1.631 0.553 -1.429 -0.011 -1.791 0.376 -6.023 13.949 -0.622 1.996 -1.019 2.632 -1.215 3.89 -0.173 1.104 1.209 1.536 1.268 1.714 0.004 0.177 -0.823 1.408 -2.005 2.358 -0.862 0.692 -3.014 1.133 -4.13 0.995 -0.519 0.055 -1.116 0.145 -1.522 0.136 4.739 -1.878 5.751 -6.351 7.431 -11.579 2.009 -6.252 4.29 -13.336 4.138 -14.702 -0.511 -4.615 -3.471 -6.36 -1.276 -5.058 3.9 2.316 3.988 2.137 4.543 3.884 0.53 1.662 0.89 1.968 0.422 3.858v0.002Zm-8.606 10.957c-2.052 6.702 -3.621 12.011 -10.534 12.481 -1.66 -0.238 -2.962 -0.433 -5.286 -0.975 -0.71 -0.166 -9.246 -2.751 -14.718 -4.749 -10.258 -3.742 -19.688 -6.098 -18.703 -11.791 1.087 -6.283 5.791 -19.196 7.644 -22.305 1.08 -1.811 3.851 -3.932 5.743 -3.932 5.46 0 32.893 9.447 33.136 9.551 1.635 0.699 3.449 1.62 4.502 3.155 3.373 4.916 2.29 5.26 -1.784 18.563v0.002Zm4.447 9.433c0.218 -0.103 0.517 -0.244 0.848 -1.058 1.21 -2.975 5.07 -13.883 5.287 -15.752 -0.057 -0.441 -0.104 -0.71 -0.101 -0.82 0.449 0.128 1.337 0.523 2.083 1.012 1.99 1.307 -3.942 15.216 -4.712 16.463 -0.304 0.493 -0.828 0.706 -1.438 0.583 -2.238 -0.45 -2.08 -0.374 -1.966 -0.429l-0.001 0.001Zm-48.184 -34.929c-4.482 11.387 -5.474 15.968 -5.574 16.059 -0.095 0.045 -0.615 -0.262 -1.544 -0.911 -0.995 -0.694 0.279 -4.254 0.823 -5.773 1.778 -4.993 0.911 -3.83 3.683 -9.655 0.649 -1.364 1.264 -0.839 2.985 -0.738 -0.016 0.111 -0.149 0.449 -0.373 1.019v-0.001Zm-55.32 -8.157c0.114 -0.067 0.199 -0.049 0.277 0.093 0.122 0.222 2.644 4.874 2.436 5.019 -0.692 0.483 -1.319 1.116 -1.493 0.664 -2.629 -5.258 -2.584 -4.981 -1.221 -5.775l0.001 -0.001Zm16.055 17.838c-0.127 0.371 -0.115 0.77 -0.337 1.087 -0.906 1.304 0.177 1.068 -1.354 -0.986 0.067 -0.11 1.316 -0.49 1.42 -0.524 0.194 0.056 0.339 0.225 0.271 0.423Zm7.408 24.531c-6.23 -1.999 -14.139 -7.201 -18.731 -11.307 0.412 -0.311 3.501 -0.885 8.723 -6.908 3.02 -3.484 3.224 -4.809 3.645 -5.94 5.515 5.61 7.905 9.959 10.356 14.212 1.318 2.287 1.198 2.16 0.97 2.176 -1.889 0.14 -4.423 2.084 -4.989 4.479 -0.442 1.872 -0.007 2.966 0.026 3.288Zm-18.256 -15.739c0.042 -0.071 0.044 -0.077 0.103 -0.02 0.097 0.094 0.278 0.184 0.358 0.262 0.834 0.824 1.819 1.104 1.857 1.241 -0.024 0.1 -1.718 1.426 -3.311 1.844 -1.168 0.029 0.344 -2.219 0.993 -3.327Zm2.293 -8.379c-0.652 -0.891 -3.277 -6.266 -5.604 -11.187 1.218 -0.655 1.326 -0.804 1.445 -0.873 0.076 0.101 4.328 9.052 4.744 10.132 -0.619 1.772 -0.412 1.527 -0.585 1.928Zm2.396 -3.935c-1.049 0.24 -1.119 0.766 -1.19 0.6 -0.475 -1.149 -1.713 -3.596 -1.837 -4.041 1.983 0.167 3.422 3.353 3.027 3.441Zm0.369 4.46c-0.61 0.803 -0.781 1.363 -1.25 2.195 -0.275 -0.412 -0.445 -0.654 -0.397 -1.161 0.144 -1.535 0.411 -4.469 1.937 -4.31 0.276 0.03 0.526 -0.015 0.744 0.172 0.701 0.601 -0.491 2.389 -1.034 3.104Zm-3.98 -0.034c0.157 -0.164 0.151 -0.148 0.28 0.094 0.657 1.216 0.765 0.627 1.053 1.886 0.241 1.055 0.903 1.832 1.919 1.475 0.246 -0.087 0.446 -0.48 0.876 -1.362 0.629 -1.292 1.362 -2.017 1.696 -2.743 0.172 -0.372 0.126 -0.374 0.388 -0.112 0.437 0.437 0.95 0.734 1.232 1.286 0.324 0.635 0.719 1.801 0.399 2.228 -0.916 1.223 -1.729 2.192 -2.485 2.963 -2.551 2.603 -2.739 2.909 -3.709 2.354 -1.887 -1.078 -3.377 -1.929 -3.431 -4.393 0.091 -1.604 0.75 -2.596 1.783 -3.675l-0.001 -0.001Zm-2.919 -3.53c0.158 -1.726 -0.365 -3.08 2.218 2.114 0.131 0.263 0.083 0.305 -0.178 0.54 -0.704 0.634 -0.914 1.113 -1.003 1.224 -0.173 -0.078 -0.481 -1.159 -0.985 -2.894 -0.107 -0.368 0.057 -0.847 -0.052 -0.984Zm31.218 25.538c-0.589 6.275 -8.307 6.6 -9.967 1.601 -1.02 -3.074 1.353 -6.697 5.037 -6.62 2.831 0.051 5.139 2.799 4.93 5.019Z" stroke-width="1"></path>
      <path id="vector_106" fill="#0a0430" d="M186.917 120.409c0.585 -4.998 -8.598 -4.157 -5.296 1.489 1.068 1.824 5.002 1.028 5.296 -1.489Zm-2.457 -2.192c2.432 0.941 1.463 3.627 -0.681 3.642 -1.169 -0.161 -1.139 -0.285 -1.503 -0.996 -0.271 -0.531 -0.608 -1.191 0.103 -2.054 0.635 -0.77 1.198 -0.934 2.081 -0.592Z" stroke-width="1"></path>
      <path id="vector_107" fill="#0a0430" d="M161.932 96.3827c-0.803 -0.344 -1.224 0.531 -0.345 0.919 5.581 2.463 8.505 7.2173 8.95 11.0603 0.037 0.32 0.21 0.565 0.522 0.514 1.37 -0.232 -0.985 -8.9973 -9.127 -12.4933Z" stroke-width="1"></path>
      <path id="vector_108" fill="#0a0430" d="M170.279 64.9837c-0.72 -2.8 -1.43 -4.037 -5.658 -5.455 -6.48 -2.171 -4.281 -2.31 -10.917 0.306 -0.807 0.318 -0.786 0.085 -4.879 -1.155 -2.016 -0.61 -5.768 -1.746 -6.012 -2.14 -1.838 -2.966 -1.272 -4.159 -3.065 -4.849 -3.88 -1.494 -4.293 -1.608 -6.171 -0.779 -2.093 0.924 -2.828 2.222 -5.064 7.37 -0.539 1.24 -2.408 6.848 -3.188 9.401 -0.948 3.102 -2.233 6.502 -1.306 7.772 1.217 1.668 5.822 3.73 7.853 4.214 1.437 0.341 1.891 -0.111 4.412 -2.621 1.691 -1.682 1.764 -2.136 3.652 -1.482 7.755 2.682 7.715 2.517 7.863 3.654 0.838 6.439 -0.768 5.233 8.816 8.039 1.527 0.447 0.864 0.244 2.263 0.278 1.015 0.024 1.565 0.383 4.241 -1.636 1.521 -1.148 2.026 -2.476 4.494 -10.22 3.346 -10.501 3.042 -9.239 2.666 -10.697Zm-35.124 11.669c-2.157 2.005 -2.047 2.242 -2.835 2.023 -3.75 -1.045 -5.134 -2.255 -6.448 -2.9 -0.597 -0.292 -1.053 -1.034 -1.056 -1.194 -0.058 -2.387 3.837 -15.19 6.974 -20.607 0.697 -1.203 1.131 -1.854 2.643 -2.345 1.164 -0.377 1.83 -0.142 2.839 0.208 3.644 1.266 2.032 0.394 4.485 5.042 0.438 0.831 2.34 1.422 6.506 2.718 4.454 1.385 4.513 1.597 5.783 1.19 5.657 -1.808 3.601 -2.482 7.291 -1.23 4.283 1.453 6.674 1.73 7.818 5.091 0.345 1.013 0.343 1.252 0.252 1.567 -1.448 5.075 -2.513 8.33 -2.718 8.95 -2.538 8.095 -2.581 9.806 -6.914 11.336 -1.354 0.478 -8.475 -1.902 -9.242 -2.218 -1.686 -0.693 -1.07 -1.018 -1.58 -5.058 -0.113 -0.898 -0.779 -1.991 -1.437 -2.002 -0.249 -0.006 -0.374 -0.422 -3.029 -1.239 -7.055 -2.172 -5.615 -2.789 -9.333 0.667l0.001 0.001Z" stroke-width="1"></path>
      <path id="vector_109" fill="#0a0430" d="M155.652 76.5408c1.255 0.207 1.858 -0.463 2.283 -1.664 0.662 -1.868 2.374 -6.465 2.215 -7.32 -0.378 -2.029 -3.855 -2.698 -4.393 -0.756 -0.007 0.025 -2.192 5.321 -2.487 7.827 -0.07 1.364 1.13 1.707 2.383 1.913h-0.001Z" stroke-width="1"></path>
      <path id="vector_110" fill="#0a0430" d="M144.856 175.509c-1.887 0.101 -1.439 2.298 -1.068 4.045 0.229 1.075 0.518 2.741 1.654 2.741 0.872 0 1.493 -0.531 1.496 -1.867 0 -1.258 -0.693 -4.992 -2.082 -4.919Zm1.059 4.903c0.025 0.949 -0.493 0.909 -0.661 0.565 -1.266 -2.591 -0.946 -7.724 0.648 -1.495 0.056 0.217 -0.002 0.411 0.012 0.929l0.001 0.001Z" stroke-width="1"></path>
      <path id="vector_111" fill="#0a0430" d="M139.262 104.001c-7.103 -2.097 -9.212 11.98 -2.423 11.462 5.4 -0.398 7.15 -10.067 2.423 -11.462Zm-0.653 9.752c-3.306 2.402 -6.611 -1.522 -4.062 -6.531 2.296 -4.512 6.735 -2.241 6.494 1.365 0.056 1.63 -0.839 4.008 -2.432 5.166Z" stroke-width="1"></path>
      <path id="vector_112" fill="#0a0430" d="M136.932 175.157c-0.737 -0.025 -1.483 0.74 -1.527 0.84 -1.375 3.141 -0.796 1.737 -1.327 3.863 -0.705 2.831 1.842 3.11 2.637 1.572 0.586 -1.133 1.464 -3.407 1.583 -4.917 0.062 -0.781 -0.561 -1.329 -1.367 -1.358h0.001Zm0.309 2.128c-0.083 0.228 -1.696 5.226 -2.12 3.796 -0.262 -0.888 0.886 -3.781 1.298 -4.538 0.194 -0.355 1.321 -0.628 0.822 0.742Z" stroke-width="1"></path>
      <path id="vector_113" fill="#0a0430" d="M135.662 59.045c-2.061 -0.084 -2.041 1.597 -3.751 6.567 -0.649 1.886 -1.153 3.763 0.937 4.15 3.107 0.577 2.555 -0.302 4.232 -4.643 0.298 -0.771 1.316 -3.554 1.06 -4.35 -0.495 -1.539 -2.317 -1.742 -2.478 -1.724Z" stroke-width="1"></path>
      <path id="vector_114" fill="#0a0430" d="M100.434 82.5689c-0.073 -0.006 -0.432 0.157 -0.853 0.23 -0.716 0.125 -1.394 0.641 -1.812 1.381 -1.947 3.44 2.768 6.785 5.283 3.755 1.535 -1.849 0.724 -5.064 -2.618 -5.366Zm2.163 3.436c-0.287 2.179 -3.711 2.583 -4.068 0 -0.089 -0.647 0.198 -1.125 0.454 -1.412 1.478 -1.655 3.59 -0.346 3.614 1.412Z" stroke-width="1"></path>
      <path id="vector_115" fill="#ffffff" d="M157.812 67.453c-0.178 -0.633 -1.431 -1.105 -1.942 1.361 -0.13 0.629 0.727 1.175 1.247 0.671 0.451 -0.435 0.861 -1.438 0.695 -2.032Z" stroke-width="1"></path>
      <path id="vector_116" fill="#ffffff" d="M134.535 60.6786c-1.497 2.052 0.255 3.044 0.822 2.01 0.19 -0.347 0.369 -0.742 0.562 -1.244 0.285 -0.74 -0.796 -1.573 -1.385 -0.767l0.001 0.001Z" stroke-width="1"></path>
    </g>
  </g>
</svg>